<?xml version="1.0" encoding="UTF-8"?>
<svg xmlns="http://www.w3.org/2000/svg" xmlns:xlink="http://www.w3.org/1999/xlink" width="504pt" height="276pt" viewBox="0 0 504 276" version="1.1">
<defs>
<clipPath id="clip1">
  <path d="M 0 0 L 503 0 L 503 275.039063 L 0 275.039063 Z M 0 0 "/>
</clipPath>
</defs>
<g id="surface20">
<g clip-path="url(#clip1)" clip-rule="nonzero">
<path style="fill:none;stroke-width:2.24;stroke-linecap:square;stroke-linejoin:miter;stroke:rgb(0%,0%,0%);stroke-opacity:1;stroke-miterlimit:3.25;" d="M 102.730469 144.523438 L 102.734375 144.988281 L 102.734375 145.449219 L 102.746094 146.375 L 102.789063 148.222656 L 102.960938 151.914063 L 102.988281 152.375 L 103.019531 152.835938 L 103.085938 153.757813 L 103.242188 155.601563 L 103.640625 159.273438 L 103.699219 159.734375 L 103.757813 160.191406 L 103.882813 161.109375 L 104.148438 162.9375 L 104.773438 166.582031 L 106.347656 173.804688 L 106.46875 174.289063 L 106.59375 174.773438 L 106.847656 175.742188 L 107.382813 177.671875 L 108.546875 181.507813 L 108.859375 182.460938 L 109.175781 183.410156 L 109.835938 185.300781 L 111.246094 189.050781 L 111.429688 189.515625 L 111.617188 189.980469 L 111.996094 190.90625 L 112.777344 192.75 L 114.429688 196.398438 L 118.074219 203.523438 L 118.300781 203.933594 L 118.53125 204.339844 L 118.988281 205.152344 L 119.929688 206.765625 L 121.878906 209.949219 L 126.046875 216.136719 L 126.320313 216.515625 L 126.59375 216.890625 L 127.144531 217.644531 L 128.261719 219.132813 L 130.5625 222.0625 L 135.398438 227.710938 L 135.703125 228.046875 L 136.011719 228.382813 L 136.628906 229.050781 L 137.878906 230.371094 L 140.429688 232.964844 L 145.722656 237.921875 L 146.0625 238.222656 L 147.082031 239.113281 L 148.460938 240.289063 L 151.253906 242.578125 L 156.996094 246.917969 L 157.394531 247.199219 L 157.789063 247.480469 L 158.585938 248.039063 L 160.191406 249.140625 L 163.4375 251.265625 L 170.0625 255.234375 L 170.484375 255.46875 L 170.902344 255.703125 L 171.746094 256.167969 L 173.4375 257.074219 L 176.84375 258.820313 L 183.746094 262.023438 L 184.148438 262.199219 L 184.554688 262.371094 L 185.367188 262.71875 L 186.996094 263.390625 L 190.265625 264.671875 L 196.832031 267 L 197.246094 267.132813 L 197.65625 267.269531 L 198.480469 267.53125 L 200.128906 268.042969 L 203.425781 269.007813 L 210.023438 270.714844 L 210.46875 270.816406 L 210.914063 270.921875 L 211.804688 271.125 L 213.585938 271.511719 L 217.144531 272.226563 L 224.210938 273.414063 L 225.085938 273.539063 L 225.964844 273.660156 L 227.714844 273.886719 L 231.195313 274.289063 L 238.082031 274.875 L 238.917969 274.929688 L 239.75 274.976563 L 241.414063 275.066406 L 244.71875 275.191406 L 251.21875 275.277344 L 263.753906 274.847656 L 264.464844 274.800781 L 265.171875 274.753906 L 266.582031 274.652344 L 269.367188 274.421875 L 274.824219 273.878906 L 285.257813 272.53125 L 305.710938 269.105469 L 322.507813 266.359375 L 322.753906 266.328125 L 322.996094 266.292969 L 323.484375 266.230469 L 324.453125 266.105469 L 326.375 265.871094 L 330.167969 265.472656 L 330.402344 265.453125 L 330.636719 265.429688 L 331.109375 265.390625 L 332.042969 265.3125 L 333.90625 265.179688 L 337.609375 264.988281 L 338.609375 264.957031 L 339.605469 264.933594 L 341.597656 264.90625 L 345.585938 264.960938 L 353.636719 265.449219 L 353.871094 265.472656 L 354.109375 265.496094 L 354.585938 265.539063 L 355.542969 265.636719 L 357.460938 265.847656 L 361.359375 266.34375 L 369.421875 267.597656 L 388.578125 271.050781 L 410.191406 274.324219 L 410.863281 274.402344 L 412.902344 274.625 L 415.65625 274.902344 L 421.285156 275.363281 L 421.640625 275.390625 L 421.996094 275.414063 L 422.714844 275.460938 L 424.15625 275.546875 L 427.0625 275.691406 L 432.988281 275.863281 L 433.394531 275.871094 L 433.800781 275.875 L 434.617188 275.882813 L 436.257813 275.886719 L 439.570313 275.851563 L 446.292969 275.601563 L 446.71875 275.578125 L 447.144531 275.550781 L 447.996094 275.5 L 449.707031 275.382813 L 453.148438 275.09375 L 460.109375 274.304688 L 460.519531 274.25 L 460.925781 274.195313 L 461.746094 274.078125 L 463.386719 273.835938 L 466.683594 273.296875 L 473.3125 272.007813 L 473.730469 271.917969 L 474.144531 271.828125 L 474.976563 271.640625 L 476.640625 271.253906 L 479.976563 270.425781 L 486.648438 268.539063 L 487.097656 268.398438 L 487.550781 268.257813 L 488.453125 267.972656 L 490.257813 267.382813 L 493.859375 266.132813 L 501.023438 263.347656 L 501.46875 263.160156 L 501.910156 262.972656 L 502.800781 262.589844 L 504.574219 261.808594 L 508.101563 260.167969 L 515.066406 256.597656 L 516.753906 255.660156 L 518.429688 254.695313 L 521.753906 252.703125 L 528.261719 248.425781 L 528.664063 248.144531 L 529.0625 247.863281 L 529.859375 247.296875 L 531.441406 246.144531 L 534.558594 243.773438 L 540.609375 238.75 L 541.296875 238.140625 L 541.980469 237.527344 L 543.339844 236.28125 L 546.003906 233.738281 L 551.128906 228.425781 L 551.441406 228.085938 L 552.367188 227.054688 L 553.585938 225.664063 L 555.964844 222.828125 L 560.480469 216.949219 L 560.777344 216.542969 L 561.070313 216.132813 L 561.648438 215.3125 L 562.792969 213.65625 L 565 210.289063 L 565.265625 209.863281 L 565.535156 209.4375 L 566.0625 208.582031 L 567.097656 206.855469 L 569.089844 203.351563 L 569.332031 202.910156 L 569.570313 202.464844 L 570.042969 201.578125 L 570.96875 199.785156 L 572.734375 196.160156 L 575.910156 188.746094 L 576.078125 188.304688 L 576.25 187.867188 L 576.582031 186.984375 L 577.226563 185.214844 L 578.433594 181.648438 L 578.574219 181.199219 L 578.71875 180.75 L 578.996094 179.847656 L 579.53125 178.042969 L 580.515625 174.40625 L 580.632813 173.949219 L 580.746094 173.492188 L 580.964844 172.578125 L 581.390625 170.742188 L 582.148438 167.050781 L 583.320313 159.605469 L 583.378906 159.148438 L 583.433594 158.691406 L 583.539063 157.773438 L 583.726563 155.9375 L 584.019531 152.253906 L 584.050781 151.792969 L 584.074219 151.332031 L 584.125 150.410156 L 584.199219 148.5625 L 584.265625 144.871094 L 584.269531 144.40625 L 584.257813 143.023438 L 584.222656 141.175781 L 584.0625 137.484375 L 583.40625 130.128906 L 583.34375 129.628906 L 583.28125 129.132813 L 583.152344 128.140625 L 582.863281 126.15625 L 582.1875 122.207031 L 582 121.222656 L 581.800781 120.242188 L 581.382813 118.28125 L 580.449219 114.382813 L 580.324219 113.898438 L 580.195313 113.414063 L 579.933594 112.449219 L 579.386719 110.519531 L 578.203125 106.691406 L 575.457031 99.164063 L 575.285156 98.730469 L 575.105469 98.300781 L 574.75 97.4375 L 574.011719 95.71875 L 572.464844 92.316406 L 572.265625 91.894531 L 572.0625 91.472656 L 571.652344 90.632813 L 570.816406 88.964844 L 569.070313 85.660156 L 568.84375 85.253906 L 568.617188 84.84375 L 568.160156 84.03125 L 567.226563 82.414063 L 565.292969 79.222656 L 561.144531 73.023438 L 560.558594 72.203125 L 559.960938 71.386719 L 558.753906 69.769531 L 556.265625 66.59375 L 555.945313 66.203125 L 555.628906 65.8125 L 554.984375 65.035156 L 553.679688 63.5 L 551.007813 60.488281 L 550.667969 60.117188 L 549.636719 59.015625 L 548.246094 57.5625 L 545.40625 54.726563 L 539.488281 49.324219 L 539.117188 49.003906 L 537.992188 48.054688 L 536.480469 46.808594 L 533.40625 44.382813 L 527.085938 39.8125 L 526.683594 39.539063 L 526.28125 39.269531 L 525.472656 38.726563 L 523.84375 37.667969 L 520.558594 35.617188 L 513.859375 31.800781 L 513.464844 31.589844 L 513.070313 31.382813 L 512.277344 30.964844 L 510.683594 30.152344 L 507.484375 28.585938 L 501.015625 25.699219 L 500.605469 25.53125 L 500.199219 25.363281 L 499.382813 25.03125 L 497.75 24.378906 L 494.472656 23.140625 L 487.890625 20.898438 L 487.445313 20.757813 L 486.996094 20.621094 L 486.101563 20.347656 L 484.3125 19.816406 L 480.734375 18.824219 L 473.582031 17.101563 L 473.136719 17.003906 L 471.800781 16.722656 L 470.019531 16.367188 L 466.46875 15.714844 L 459.417969 14.652344 L 458.597656 14.550781 L 457.785156 14.449219 L 456.15625 14.261719 L 452.914063 13.933594 L 446.503906 13.460938 L 434.039063 13.171875 L 433.289063 13.179688 L 432.546875 13.191406 L 431.0625 13.222656 L 428.121094 13.3125 L 422.347656 13.613281 L 411.257813 14.605469 L 389.390625 17.855469 L 371.550781 21.085938 L 371.265625 21.136719 L 370.984375 21.1875 L 370.417969 21.285156 L 369.296875 21.476563 L 367.074219 21.84375 L 362.722656 22.511719 L 354.316406 23.535156 L 354.078125 23.558594 L 353.835938 23.582031 L 353.355469 23.625 L 352.398438 23.707031 L 350.492188 23.851563 L 346.707031 24.054688 L 339.179688 24.109375 L 338.949219 24.101563 L 338.71875 24.097656 L 338.257813 24.082031 L 337.332031 24.050781 L 335.476563 23.964844 L 331.742188 23.714844 L 324.113281 22.902344 L 306.3125 20.050781 L 287.472656 16.851563 L 287.132813 16.796875 L 286.789063 16.746094 L 286.105469 16.644531 L 284.726563 16.441406 L 281.929688 16.050781 L 276.195313 15.328125 L 275.832031 15.285156 L 275.464844 15.242188 L 274.734375 15.160156 L 273.257813 15.003906 L 270.269531 14.710938 L 264.15625 14.226563 L 263.777344 14.203125 L 262.628906 14.132813 L 261.089844 14.046875 L 257.980469 13.910156 L 251.636719 13.773438 L 251.234375 13.773438 L 250.832031 13.769531 L 250.027344 13.769531 L 248.40625 13.78125 L 245.140625 13.84375 L 238.503906 14.148438 L 238.113281 14.171875 L 236.941406 14.253906 L 235.371094 14.375 L 232.207031 14.660156 L 225.820313 15.410156 L 225.015625 15.519531 L 224.210938 15.636719 L 222.601563 15.878906 L 219.363281 16.417969 L 212.851563 17.695313 L 212.410156 17.792969 L 211.964844 17.890625 L 211.082031 18.089844 L 209.308594 18.507813 L 205.757813 19.402344 L 198.652344 21.464844 L 198.210938 21.605469 L 197.765625 21.746094 L 196.878906 22.035156 L 195.109375 22.628906 L 191.570313 23.886719 L 184.539063 26.683594 L 183.726563 27.035156 L 182.910156 27.390625 L 181.285156 28.121094 L 178.050781 29.636719 L 171.664063 32.929688 L 171.269531 33.144531 L 170.875 33.363281 L 170.085938 33.804688 L 168.515625 34.699219 L 165.40625 36.554688 L 159.300781 40.515625 L 158.933594 40.769531 L 158.5625 41.027344 L 157.832031 41.539063 L 156.375 42.582031 L 153.492188 44.722656 L 147.886719 49.246094 L 147.542969 49.539063 L 147.203125 49.832031 L 146.519531 50.425781 L 145.167969 51.621094 L 142.507813 54.074219 L 137.382813 59.199219 L 137.042969 59.558594 L 136.707031 59.917969 L 136.039063 60.640625 L 134.714844 62.101563 L 132.132813 65.082031 L 131.5 65.839844 L 130.875 66.605469 L 129.636719 68.144531 L 127.234375 71.285156 L 126.648438 72.082031 L 126.070313 72.882813 L 124.929688 74.5 L 122.722656 77.785156 L 118.613281 84.5625 L 118.160156 85.367188 L 117.714844 86.179688 L 116.84375 87.808594 L 115.167969 91.109375 L 114.964844 91.527344 L 114.367188 92.78125 L 113.59375 94.460938 L 112.117188 97.855469 L 111.9375 98.285156 L 111.761719 98.710938 L 111.417969 99.570313 L 110.742188 101.296875 L 109.472656 104.777344 L 107.25 111.84375 L 107.113281 112.34375 L 106.976563 112.839844 L 106.707031 113.839844 L 106.199219 115.84375 L 105.285156 119.878906 L 105.179688 120.386719 L 105.078125 120.890625 L 104.878906 121.90625 L 104.507813 123.941406 L 103.871094 128.027344 L 103.800781 128.542969 L 103.730469 129.054688 L 103.601563 130.082031 L 103.371094 132.136719 L 103.015625 136.257813 L 102.980469 136.773438 L 102.949219 137.289063 L 102.890625 138.320313 L 102.804688 140.390625 L 102.785156 140.90625 L 102.773438 141.421875 L 102.75 142.457031 L 102.742188 142.972656 L 102.738281 143.492188 L 102.730469 144.523438 " transform="matrix(1,0,0,1,-92,-7)"/>
</g>
<path style="fill:none;stroke-width:0.28;stroke-linecap:butt;stroke-linejoin:miter;stroke:rgb(39.99939%,39.99939%,39.99939%);stroke-opacity:1;stroke-miterlimit:3.25;" d="M 92.699219 144.523438 L 594.300781 144.523438 " transform="matrix(1,0,0,1,-92,-7)"/>
<path style="fill:none;stroke-width:0.28;stroke-linecap:butt;stroke-linejoin:miter;stroke:rgb(39.99939%,39.99939%,39.99939%);stroke-opacity:1;stroke-miterlimit:3.25;" d="M 342.535156 281.359375 L 342.535156 7.699219 " transform="matrix(1,0,0,1,-92,-7)"/>
</g>
</svg>
