<?xml version="1.0" encoding="UTF-8"?>
<svg xmlns="http://www.w3.org/2000/svg" xmlns:xlink="http://www.w3.org/1999/xlink" width="504pt" height="95pt" viewBox="0 0 504 95" version="1.1">
<defs>
<clipPath id="clip1">
  <path d="M 0 0 L 503 0 L 503 94.078125 L 0 94.078125 Z M 0 0 "/>
</clipPath>
</defs>
<g id="surface32">
<g clip-path="url(#clip1)" clip-rule="nonzero">
<path style="fill:none;stroke-width:2.24;stroke-linecap:square;stroke-linejoin:miter;stroke:rgb(0%,0%,0%);stroke-opacity:1;stroke-miterlimit:3.25;" d="M 102.75 54.132813 L 102.746094 54.136719 L 102.742188 54.136719 L 102.742188 54.140625 L 102.738281 54.140625 L 102.738281 54.144531 L 102.734375 54.144531 L 102.734375 54.148438 L 102.730469 54.148438 L 102.730469 54.152344 L 102.738281 54.152344 L 102.738281 54.148438 L 102.742188 54.148438 L 102.742188 54.144531 L 102.746094 54.144531 L 102.746094 54.140625 L 102.75 54.140625 L 102.75 54.136719 L 102.753906 54.132813 L 102.753906 54.136719 L 102.75 54.140625 L 102.75 54.148438 L 102.746094 54.148438 L 102.746094 54.171875 L 102.746094 54.167969 L 102.75 54.167969 L 102.75 54.152344 L 102.753906 54.148438 L 102.753906 54.132813 L 102.753906 54.15625 L 102.757813 54.160156 L 102.757813 54.175781 L 102.761719 54.179688 L 102.761719 54.195313 L 102.765625 54.199219 L 102.769531 54.210938 L 102.769531 54.21875 L 102.773438 54.21875 L 102.773438 54.226563 L 102.777344 54.226563 L 102.777344 54.210938 L 102.773438 54.199219 L 102.773438 54.191406 L 102.769531 54.1875 L 102.765625 54.171875 L 102.765625 54.164063 L 102.761719 54.15625 L 102.757813 54.144531 L 102.757813 54.140625 L 102.753906 54.136719 L 102.753906 54.132813 L 102.753906 54.136719 L 102.757813 54.144531 L 102.78125 54.183594 L 102.78125 54.1875 L 102.785156 54.191406 L 102.796875 54.214844 L 102.816406 54.246094 L 102.820313 54.253906 L 102.824219 54.257813 L 102.828125 54.265625 L 102.839844 54.285156 L 102.867188 54.324219 L 102.871094 54.328125 L 102.875 54.335938 L 102.882813 54.34375 L 102.898438 54.363281 L 102.925781 54.398438 L 102.929688 54.402344 L 102.929688 54.40625 L 102.9375 54.414063 L 102.949219 54.429688 L 102.972656 54.453125 L 102.976563 54.453125 L 102.976563 54.457031 L 102.980469 54.457031 L 102.980469 54.460938 L 102.984375 54.460938 L 102.988281 54.464844 L 102.996094 54.464844 L 102.996094 54.453125 L 102.992188 54.445313 L 102.988281 54.441406 L 102.988281 54.433594 L 102.976563 54.414063 L 102.972656 54.410156 L 102.972656 54.40625 L 102.949219 54.371094 L 102.910156 54.320313 L 102.820313 54.207031 L 102.808594 54.195313 L 102.800781 54.183594 L 102.785156 54.164063 L 102.769531 54.148438 L 102.757813 54.140625 L 102.757813 54.136719 L 102.753906 54.136719 L 102.753906 54.132813 L 102.753906 54.136719 L 102.757813 54.136719 L 102.761719 54.144531 L 102.777344 54.160156 L 102.785156 54.164063 L 102.804688 54.183594 L 102.839844 54.214844 L 102.941406 54.304688 L 103.28125 54.585938 L 103.3125 54.613281 L 103.339844 54.636719 L 103.40625 54.683594 L 103.542969 54.789063 L 103.84375 55.011719 L 103.882813 55.039063 L 103.925781 55.066406 L 104.007813 55.125 L 104.171875 55.234375 L 104.507813 55.449219 L 104.546875 55.472656 L 104.589844 55.496094 L 104.667969 55.542969 L 104.816406 55.628906 L 104.851563 55.648438 L 104.886719 55.664063 L 104.953125 55.699219 L 105.074219 55.753906 L 105.097656 55.765625 L 105.125 55.773438 L 105.148438 55.785156 L 105.167969 55.792969 L 105.191406 55.796875 L 105.207031 55.804688 L 105.226563 55.808594 L 105.273438 55.808594 L 105.28125 55.804688 L 105.289063 55.796875 L 105.289063 55.78125 L 105.285156 55.769531 L 105.28125 55.761719 L 105.273438 55.75 L 105.25 55.71875 L 105.199219 55.667969 L 105.179688 55.644531 L 105.15625 55.625 L 105.101563 55.578125 L 104.925781 55.4375 L 104.796875 55.34375 L 104.59375 55.203125 L 104.113281 54.894531 L 104.046875 54.855469 L 103.980469 54.8125 L 103.851563 54.734375 L 103.585938 54.582031 L 103.101563 54.3125 L 103.050781 54.285156 L 103.003906 54.261719 L 102.914063 54.214844 L 102.878906 54.195313 L 102.84375 54.179688 L 102.792969 54.152344 L 102.773438 54.144531 L 102.761719 54.136719 L 102.753906 54.132813 L 102.761719 54.136719 L 102.773438 54.144531 L 102.824219 54.167969 L 102.859375 54.183594 L 102.902344 54.203125 L 103.015625 54.253906 L 103.347656 54.40625 L 104.539063 54.917969 L 109.847656 56.988281 L 110.339844 57.167969 L 110.855469 57.355469 L 111.957031 57.753906 L 114.445313 58.628906 L 120.667969 60.707031 L 138.941406 66.160156 L 140.492188 66.585938 L 142.082031 67.019531 L 145.394531 67.910156 L 152.542969 69.761719 L 168.988281 73.714844 L 210.660156 82.152344 L 213.648438 82.679688 L 216.679688 83.207031 L 222.871094 84.253906 L 235.761719 86.308594 L 263.429688 90.175781 L 324.921875 96.230469 L 328.699219 96.492188 L 332.488281 96.738281 L 340.113281 97.195313 L 355.484375 97.953125 L 386.492188 98.785156 L 390.371094 98.820313 L 394.242188 98.839844 L 401.976563 98.835938 L 417.335938 98.625 L 447.363281 97.402344 L 451.023438 97.175781 L 454.664063 96.929688 L 461.859375 96.382813 L 475.902344 95.089844 L 479.332031 94.722656 L 482.726563 94.339844 L 489.40625 93.523438 L 502.289063 91.691406 L 505.402344 91.195313 L 508.472656 90.679688 L 514.472656 89.605469 L 525.882813 87.265625 L 528.605469 86.644531 L 531.277344 86.007813 L 536.449219 84.695313 L 546.097656 81.902344 L 548.316406 81.1875 L 550.472656 80.460938 L 554.609375 78.972656 L 556.585938 78.210938 L 558.5 77.441406 L 562.132813 75.867188 L 563.851563 75.066406 L 565.507813 74.253906 L 568.613281 72.605469 L 570.070313 71.769531 L 571.453125 70.925781 L 574.019531 69.214844 L 575.195313 68.347656 L 576.304688 67.476563 L 577.339844 66.597656 L 578.308594 65.714844 L 579.203125 64.828125 L 580.023438 63.933594 L 580.777344 63.035156 L 581.453125 62.132813 L 582.058594 61.226563 L 582.59375 60.320313 L 583.054688 59.40625 L 583.441406 58.492188 L 583.753906 57.578125 L 583.992188 56.660156 L 584.15625 55.738281 L 584.25 54.820313 L 584.269531 53.902344 L 584.210938 52.980469 L 584.082031 52.0625 L 583.878906 51.144531 L 583.601563 50.226563 L 583.253906 49.3125 L 582.828125 48.398438 L 582.332031 47.488281 L 581.761719 46.582031 L 581.121094 45.675781 L 580.40625 44.777344 L 579.617188 43.882813 L 578.757813 42.988281 L 577.828125 42.101563 L 575.753906 40.347656 L 574.609375 39.480469 L 573.394531 38.617188 L 570.761719 36.914063 L 569.339844 36.074219 L 567.855469 35.242188 L 564.675781 33.601563 L 562.988281 32.796875 L 561.238281 32 L 557.539063 30.433594 L 549.390625 27.4375 L 547.011719 26.65625 L 544.566406 25.886719 L 539.464844 24.394531 L 528.488281 21.59375 L 525.589844 20.933594 L 522.628906 20.292969 L 516.535156 19.054688 L 503.6875 16.796875 L 500.347656 16.273438 L 496.960938 15.773438 L 490.042969 14.824219 L 475.691406 13.15625 L 445.265625 10.742188 L 441.332031 10.527344 L 437.375 10.332031 L 429.394531 9.996094 L 413.214844 9.558594 L 380.339844 9.570313 L 315.171875 12.765625 L 311.484375 13.066406 L 307.816406 13.375 L 300.539063 14.027344 L 286.253906 15.441406 L 258.925781 18.671875 L 210.414063 26.160156 L 207.6875 26.652344 L 205 27.144531 L 199.738281 28.128906 L 189.679688 30.105469 L 171.457031 33.992188 L 142.511719 41.128906 L 140.898438 41.566406 L 139.332031 42 L 136.320313 42.839844 L 130.796875 44.4375 L 121.605469 47.261719 L 109.660156 51.347656 L 109.15625 51.539063 L 108.675781 51.71875 L 107.789063 52.054688 L 106.28125 52.644531 L 104.199219 53.492188 L 104.015625 53.570313 L 103.847656 53.644531 L 103.554688 53.773438 L 103.117188 53.964844 L 103.039063 54 L 102.972656 54.03125 L 102.867188 54.082031 L 102.828125 54.097656 L 102.796875 54.113281 L 102.761719 54.128906 L 102.753906 54.132813 L 102.761719 54.128906 L 102.773438 54.125 L 102.878906 54.070313 L 103.269531 53.863281 L 103.328125 53.832031 L 103.515625 53.726563 L 103.78125 53.574219 L 104.296875 53.257813 L 104.359375 53.21875 L 104.417969 53.179688 L 104.535156 53.105469 L 104.742188 52.960938 L 104.789063 52.925781 L 104.835938 52.894531 L 104.921875 52.832031 L 105.066406 52.71875 L 105.097656 52.691406 L 105.125 52.667969 L 105.175781 52.625 L 105.199219 52.601563 L 105.21875 52.585938 L 105.25 52.550781 L 105.273438 52.519531 L 105.28125 52.507813 L 105.285156 52.496094 L 105.289063 52.488281 L 105.289063 52.464844 L 105.28125 52.460938 L 105.277344 52.460938 L 105.269531 52.457031 L 105.238281 52.457031 L 105.191406 52.46875 L 105.171875 52.476563 L 105.128906 52.488281 L 105.035156 52.53125 L 104.980469 52.554688 L 104.917969 52.585938 L 104.792969 52.652344 L 104.507813 52.820313 L 104.429688 52.867188 L 104.355469 52.914063 L 104.203125 53.011719 L 103.898438 53.21875 L 103.367188 53.613281 L 103.304688 53.660156 L 103.246094 53.707031 L 103.140625 53.792969 L 102.96875 53.9375 L 102.953125 53.953125 L 102.933594 53.96875 L 102.902344 53.996094 L 102.851563 54.042969 L 102.78125 54.105469 L 102.777344 54.109375 L 102.773438 54.117188 L 102.765625 54.125 L 102.761719 54.125 L 102.753906 54.132813 L 102.789063 54.097656 L 102.828125 54.050781 L 102.839844 54.039063 L 102.851563 54.023438 L 102.871094 53.996094 L 102.914063 53.945313 L 102.917969 53.9375 L 102.921875 53.933594 L 102.933594 53.917969 L 102.949219 53.894531 L 102.976563 53.855469 L 102.976563 53.847656 L 102.980469 53.84375 L 102.984375 53.835938 L 102.988281 53.832031 L 102.988281 53.828125 L 102.992188 53.824219 L 102.992188 53.816406 L 102.996094 53.816406 L 102.996094 53.800781 L 102.988281 53.800781 L 102.988281 53.804688 L 102.984375 53.804688 L 102.976563 53.8125 L 102.972656 53.8125 L 102.96875 53.816406 L 102.960938 53.828125 L 102.925781 53.863281 L 102.921875 53.871094 L 102.90625 53.890625 L 102.878906 53.929688 L 102.871094 53.9375 L 102.863281 53.949219 L 102.851563 53.96875 L 102.828125 54.003906 L 102.785156 54.070313 L 102.785156 54.074219 L 102.78125 54.078125 L 102.777344 54.085938 L 102.773438 54.097656 L 102.761719 54.117188 L 102.761719 54.121094 L 102.757813 54.121094 L 102.757813 54.125 L 102.753906 54.128906 L 102.753906 54.132813 L 102.757813 54.125 L 102.765625 54.101563 L 102.765625 54.097656 L 102.769531 54.09375 L 102.769531 54.085938 L 102.773438 54.074219 L 102.773438 54.066406 L 102.777344 54.0625 L 102.777344 54.039063 L 102.773438 54.039063 L 102.773438 54.046875 L 102.769531 54.046875 L 102.769531 54.054688 L 102.765625 54.058594 L 102.765625 54.070313 L 102.761719 54.070313 L 102.761719 54.082031 L 102.757813 54.089844 L 102.753906 54.109375 L 102.753906 54.132813 L 102.753906 54.121094 L 102.75 54.113281 L 102.75 54.101563 L 102.746094 54.097656 L 102.746094 54.117188 L 102.75 54.121094 L 102.75 54.128906 L 102.753906 54.128906 L 102.753906 54.132813 L 102.75 54.128906 L 102.75 54.125 L 102.746094 54.125 L 102.746094 54.121094 L 102.742188 54.121094 L 102.742188 54.117188 L 102.730469 54.117188 L 102.734375 54.117188 L 102.734375 54.125 L 102.738281 54.125 L 102.738281 54.128906 L 102.746094 54.128906 L 102.746094 54.132813 L 102.75 54.132813 " transform="matrix(1,0,0,1,-92,-7)"/>
</g>
<path style="fill:none;stroke-width:0.28;stroke-linecap:butt;stroke-linejoin:miter;stroke:rgb(39.99939%,39.99939%,39.99939%);stroke-opacity:1;stroke-miterlimit:3.25;" d="M 92.699219 54.132813 L 594.300781 54.132813 " transform="matrix(1,0,0,1,-92,-7)"/>
<path style="fill:none;stroke-width:0.28;stroke-linecap:butt;stroke-linejoin:miter;stroke:rgb(39.99939%,39.99939%,39.99939%);stroke-opacity:1;stroke-miterlimit:3.25;" d="M 102.753906 100.699219 L 102.753906 7.699219 " transform="matrix(1,0,0,1,-92,-7)"/>
</g>
</svg>
