<?xml version="1.0" encoding="UTF-8"?>
<svg xmlns="http://www.w3.org/2000/svg" xmlns:xlink="http://www.w3.org/1999/xlink" width="504pt" height="355pt" viewBox="0 0 504 355" version="1.1">
<defs>
<clipPath id="clip1">
  <path d="M 0 0 L 503 0 L 503 354 L 0 354 Z M 0 0 "/>
</clipPath>
</defs>
<g id="surface28">
<g clip-path="url(#clip1)" clip-rule="nonzero">
<path style="fill:none;stroke-width:2.24;stroke-linecap:square;stroke-linejoin:miter;stroke:rgb(0%,0%,0%);stroke-opacity:1;stroke-miterlimit:3.25;" d="M 105.941406 184.164063 L 105.941406 184.21875 L 105.9375 184.277344 L 105.9375 184.289063 L 105.933594 184.304688 L 105.933594 184.332031 L 105.925781 184.386719 L 105.921875 184.394531 L 105.921875 184.402344 L 105.917969 184.417969 L 105.914063 184.445313 L 105.902344 184.503906 L 105.867188 184.621094 L 105.863281 184.628906 L 105.863281 184.636719 L 105.855469 184.652344 L 105.847656 184.6875 L 105.820313 184.753906 L 105.765625 184.890625 L 105.617188 185.195313 L 105.613281 185.207031 L 105.609375 185.214844 L 105.597656 185.234375 L 105.578125 185.273438 L 105.535156 185.351563 L 105.445313 185.519531 L 105.238281 185.894531 L 104.75 186.808594 L 104.742188 186.828125 L 104.679688 186.953125 L 104.605469 187.109375 L 104.453125 187.433594 L 104.140625 188.164063 L 104.128906 188.183594 L 104.121094 188.207031 L 104.101563 188.253906 L 104.066406 188.351563 L 103.992188 188.542969 L 103.84375 188.953125 L 103.828125 189.007813 L 103.808594 189.0625 L 103.773438 189.167969 L 103.699219 189.394531 L 103.558594 189.863281 L 103.550781 189.894531 L 103.539063 189.929688 L 103.523438 189.996094 L 103.484375 190.128906 L 103.410156 190.410156 L 103.273438 190.996094 L 103.265625 191.03125 L 103.253906 191.070313 L 103.207031 191.304688 L 103.144531 191.621094 L 103.027344 192.296875 L 103.019531 192.335938 L 103.015625 192.378906 L 103 192.46875 L 102.976563 192.640625 L 102.929688 193 L 102.847656 193.753906 L 102.84375 193.800781 L 102.835938 193.851563 L 102.828125 193.949219 L 102.8125 194.148438 L 102.785156 194.554688 L 102.746094 195.410156 L 102.742188 195.460938 L 102.742188 195.511719 L 102.738281 195.617188 L 102.734375 195.828125 L 102.730469 196.253906 L 102.742188 197.152344 L 102.746094 197.210938 L 102.746094 197.269531 L 102.757813 197.621094 L 102.78125 198.105469 L 102.851563 199.113281 L 102.859375 199.183594 L 102.863281 199.257813 L 102.878906 199.398438 L 102.90625 199.6875 L 102.96875 200.277344 L 103.128906 201.519531 L 103.601563 204.261719 L 103.621094 204.347656 L 103.636719 204.433594 L 103.671875 204.609375 L 103.746094 204.957031 L 103.90625 205.675781 L 104.269531 207.183594 L 105.210938 210.507813 L 105.28125 210.726563 L 105.492188 211.394531 L 105.792969 212.308594 L 106.46875 214.234375 L 108.136719 218.496094 L 108.203125 218.648438 L 108.402344 219.117188 L 108.675781 219.753906 L 109.253906 221.058594 L 110.546875 223.816406 L 113.746094 229.972656 L 113.855469 230.167969 L 113.960938 230.359375 L 114.183594 230.75 L 114.628906 231.539063 L 115.570313 233.15625 L 117.636719 236.554688 L 117.777344 236.773438 L 117.914063 236.992188 L 118.195313 237.4375 L 118.769531 238.332031 L 119.976563 240.167969 L 122.617188 244.003906 L 122.804688 244.273438 L 122.996094 244.542969 L 123.386719 245.085938 L 124.183594 246.179688 L 125.851563 248.421875 L 129.519531 253.105469 L 129.765625 253.40625 L 130.011719 253.710938 L 130.507813 254.320313 L 131.527344 255.546875 L 133.664063 258.054688 L 138.324219 263.257813 L 138.933594 263.914063 L 139.554688 264.574219 L 140.816406 265.902344 L 143.453125 268.605469 L 149.167969 274.164063 L 149.925781 274.875 L 150.695313 275.585938 L 152.261719 277.019531 L 155.515625 279.917969 L 162.53125 285.828125 L 162.964844 286.179688 L 163.394531 286.527344 L 164.269531 287.226563 L 166.046875 288.628906 L 169.714844 291.453125 L 177.542969 297.148438 L 178.054688 297.507813 L 178.570313 297.863281 L 179.605469 298.578125 L 181.707031 300.011719 L 186.042969 302.875 L 195.230469 308.585938 L 195.878906 308.96875 L 196.527344 309.355469 L 197.839844 310.121094 L 200.503906 311.65625 L 205.992188 314.699219 L 217.589844 320.660156 L 218.34375 321.027344 L 219.101563 321.390625 L 220.621094 322.117188 L 223.707031 323.558594 L 230.03125 326.394531 L 243.304688 331.816406 L 244.105469 332.121094 L 244.90625 332.421875 L 246.519531 333.027344 L 249.777344 334.214844 L 256.425781 336.515625 L 270.222656 340.796875 L 271.105469 341.050781 L 271.992188 341.300781 L 273.773438 341.792969 L 277.367188 342.757813 L 284.664063 344.585938 L 299.699219 347.804688 L 300.738281 348 L 301.78125 348.191406 L 303.867188 348.566406 L 308.074219 349.28125 L 316.597656 350.5625 L 334.039063 352.476563 L 335.144531 352.566406 L 336.253906 352.652344 L 338.472656 352.8125 L 342.929688 353.089844 L 351.921875 353.460938 L 370.128906 353.433594 L 371.253906 353.398438 L 372.378906 353.359375 L 374.632813 353.265625 L 379.144531 353.03125 L 388.195313 352.359375 L 389.328125 352.257813 L 390.460938 352.152344 L 392.726563 351.921875 L 397.261719 351.414063 L 406.320313 350.191406 L 408.585938 349.839844 L 410.84375 349.472656 L 415.363281 348.679688 L 424.363281 346.878906 L 442.167969 342.398438 L 444.222656 341.796875 L 446.269531 341.179688 L 450.351563 339.898438 L 458.433594 337.144531 L 459.433594 336.78125 L 460.433594 336.414063 L 462.429688 335.667969 L 466.394531 334.125 L 474.226563 330.851563 L 475.195313 330.425781 L 476.160156 329.992188 L 478.085938 329.117188 L 481.90625 327.320313 L 489.421875 323.535156 L 503.890625 315.210938 L 504.84375 314.613281 L 505.789063 314.007813 L 507.671875 312.785156 L 511.386719 310.292969 L 518.609375 305.09375 L 519.492188 304.425781 L 520.371094 303.753906 L 522.113281 302.394531 L 525.539063 299.628906 L 532.164063 293.902344 L 532.96875 293.167969 L 533.769531 292.429688 L 535.355469 290.945313 L 538.460938 287.925781 L 544.414063 281.710938 L 545.132813 280.917969 L 545.84375 280.121094 L 547.253906 278.515625 L 550.003906 275.265625 L 555.21875 268.613281 L 555.800781 267.824219 L 556.378906 267.03125 L 557.519531 265.4375 L 559.730469 262.21875 L 563.894531 255.664063 L 564.390625 254.835938 L 564.878906 254 L 565.839844 252.332031 L 567.691406 248.960938 L 571.117188 242.121094 L 571.519531 241.257813 L 571.917969 240.390625 L 572.6875 238.65625 L 574.164063 235.160156 L 576.820313 228.09375 L 577.125 227.203125 L 577.421875 226.308594 L 578 224.523438 L 579.078125 220.929688 L 580.9375 213.691406 L 581.136719 212.800781 L 581.328125 211.90625 L 581.699219 210.117188 L 582.363281 206.53125 L 583.394531 199.328125 L 583.496094 198.425781 L 583.589844 197.523438 L 583.761719 195.714844 L 584.03125 192.09375 L 584.265625 184.84375 L 584.269531 183.933594 L 584.261719 183.027344 L 584.234375 181.214844 L 584.105469 177.589844 L 583.542969 170.347656 L 583.445313 169.445313 L 583.339844 168.542969 L 583.113281 166.738281 L 582.585938 163.136719 L 581.230469 155.96875 L 581.019531 155.003906 L 580.796875 154.035156 L 580.335938 152.105469 L 579.320313 148.257813 L 576.957031 140.636719 L 576.628906 139.6875 L 576.292969 138.746094 L 575.605469 136.859375 L 574.140625 133.113281 L 570.886719 125.714844 L 570.449219 124.800781 L 570.007813 123.886719 L 569.097656 122.070313 L 567.203125 118.457031 L 563.097656 111.351563 L 562.554688 110.476563 L 562.007813 109.601563 L 560.890625 107.863281 L 558.582031 104.421875 L 553.675781 97.671875 L 553.078125 96.898438 L 552.472656 96.128906 L 551.253906 94.59375 L 548.75 91.558594 L 543.5 85.628906 L 542.824219 84.902344 L 542.140625 84.175781 L 540.761719 82.734375 L 537.945313 79.894531 L 532.097656 74.367188 L 531.347656 73.691406 L 530.589844 73.019531 L 529.066406 71.683594 L 525.96875 69.054688 L 519.570313 63.964844 L 506.039063 54.480469 L 505.089844 53.875 L 504.132813 53.269531 L 502.214844 52.078125 L 498.328125 49.746094 L 490.378906 45.300781 L 489.371094 44.769531 L 488.355469 44.238281 L 486.320313 43.191406 L 482.210938 41.15625 L 473.847656 37.3125 L 472.789063 36.851563 L 471.726563 36.398438 L 469.597656 35.503906 L 465.304688 33.773438 L 456.609375 30.539063 L 438.835938 24.996094 L 437.730469 24.695313 L 436.625 24.398438 L 434.410156 23.824219 L 429.964844 22.722656 L 421.019531 20.746094 L 419.898438 20.519531 L 418.777344 20.296875 L 416.53125 19.867188 L 412.027344 19.058594 L 403.003906 17.65625 L 401.875 17.5 L 400.742188 17.351563 L 398.484375 17.0625 L 393.960938 16.539063 L 384.925781 15.695313 L 366.929688 14.8125 L 365.886719 14.792969 L 364.84375 14.777344 L 362.761719 14.757813 L 358.605469 14.757813 L 350.335938 14.914063 L 334.019531 15.855469 L 333.011719 15.9375 L 332.003906 16.027344 L 329.996094 16.210938 L 325.996094 16.617188 L 318.070313 17.566406 L 302.570313 19.992188 L 300.507813 20.375 L 298.453125 20.765625 L 294.375 21.582031 L 286.34375 23.347656 L 270.796875 27.367188 L 269.847656 27.636719 L 268.902344 27.910156 L 267.019531 28.464844 L 263.292969 29.597656 L 255.984375 31.960938 L 241.957031 37.035156 L 240.371094 37.652344 L 238.800781 38.277344 L 235.6875 39.542969 L 229.597656 42.125 L 217.964844 47.488281 L 217.261719 47.828125 L 216.5625 48.171875 L 215.171875 48.859375 L 212.425781 50.246094 L 207.070313 53.050781 L 196.90625 58.753906 L 195.710938 59.457031 L 194.527344 60.164063 L 192.191406 61.582031 L 187.648438 64.421875 L 179.078125 70.113281 L 178.5625 70.46875 L 178.050781 70.824219 L 177.039063 71.535156 L 175.039063 72.953125 L 171.167969 75.785156 L 163.90625 81.394531 L 163.433594 81.769531 L 162.96875 82.148438 L 162.042969 82.898438 L 160.222656 84.398438 L 156.71875 87.367188 L 150.21875 93.183594 L 149.832031 93.542969 L 149.449219 93.898438 L 148.695313 94.609375 L 147.210938 96.023438 L 144.363281 98.8125 L 139.109375 104.226563 L 138.820313 104.535156 L 138.535156 104.84375 L 137.964844 105.457031 L 136.851563 106.675781 L 134.714844 109.070313 L 130.769531 113.695313 L 130.535156 113.976563 L 130.304688 114.257813 L 129.847656 114.816406 L 128.953125 115.925781 L 127.238281 118.097656 L 124.089844 122.273438 L 123.890625 122.550781 L 123.691406 122.824219 L 123.296875 123.367188 L 122.53125 124.445313 L 121.066406 126.546875 L 118.414063 130.554688 L 114.058594 137.800781 L 113.621094 138.582031 L 113.203125 139.351563 L 112.398438 140.847656 L 110.945313 143.699219 L 108.558594 148.847656 L 108.496094 148.996094 L 108.308594 149.429688 L 108.066406 150.003906 L 107.609375 151.121094 L 106.78125 153.246094 L 105.441406 157.09375 L 105.363281 157.335938 L 105.289063 157.574219 L 105.140625 158.046875 L 104.867188 158.972656 L 104.378906 160.722656 L 103.640625 163.878906 L 103.621094 163.964844 L 103.605469 164.050781 L 103.570313 164.21875 L 103.503906 164.554688 L 103.382813 165.210938 L 103.179688 166.464844 L 102.894531 168.75 L 102.886719 168.824219 L 102.882813 168.894531 L 102.867188 169.039063 L 102.84375 169.324219 L 102.804688 169.878906 L 102.75 170.9375 L 102.75 171 L 102.746094 171.066406 L 102.742188 171.191406 L 102.738281 171.441406 L 102.730469 171.929688 L 102.742188 172.863281 L 102.746094 172.917969 L 102.746094 172.972656 L 102.75 173.082031 L 102.757813 173.296875 L 102.78125 173.71875 L 102.84375 174.527344 L 103.019531 175.992188 L 103.027344 176.03125 L 103.03125 176.070313 L 103.046875 176.148438 L 103.070313 176.304688 L 103.125 176.609375 L 103.242188 177.195313 L 103.5 178.253906 L 103.507813 178.289063 L 103.519531 178.320313 L 103.535156 178.386719 L 103.574219 178.519531 L 103.648438 178.773438 L 103.804688 179.257813 L 104.121094 180.121094 L 104.132813 180.144531 L 104.140625 180.167969 L 104.160156 180.214844 L 104.195313 180.304688 L 104.269531 180.480469 L 104.417969 180.816406 L 104.699219 181.414063 L 105.195313 182.355469 L 105.605469 183.109375 L 105.613281 183.121094 L 105.617188 183.128906 L 105.625 183.148438 L 105.644531 183.183594 L 105.679688 183.257813 L 105.746094 183.394531 L 105.75 183.402344 L 105.753906 183.414063 L 105.761719 183.429688 L 105.773438 183.460938 L 105.800781 183.527344 L 105.847656 183.652344 L 105.855469 183.667969 L 105.859375 183.683594 L 105.871094 183.71875 L 105.890625 183.785156 L 105.890625 183.792969 L 105.894531 183.800781 L 105.898438 183.816406 L 105.90625 183.851563 L 105.917969 183.914063 L 105.921875 183.921875 L 105.921875 183.929688 L 105.925781 183.945313 L 105.9375 184.039063 L 105.9375 184.054688 L 105.941406 184.070313 L 105.941406 184.164063 " transform="matrix(1,0,0,1,-92,-7)"/>
</g>
<path style="fill:none;stroke-width:0.28;stroke-linecap:butt;stroke-linejoin:miter;stroke:rgb(39.99939%,39.99939%,39.99939%);stroke-opacity:1;stroke-miterlimit:3.25;" d="M 92.699219 184.164063 L 594.300781 184.164063 " transform="matrix(1,0,0,1,-92,-7)"/>
<path style="fill:none;stroke-width:0.28;stroke-linecap:butt;stroke-linejoin:miter;stroke:rgb(39.99939%,39.99939%,39.99939%);stroke-opacity:1;stroke-miterlimit:3.25;" d="M 109.542969 360.515625 L 109.542969 7.699219 " transform="matrix(1,0,0,1,-92,-7)"/>
</g>
</svg>
