<?xml version="1.0" encoding="utf-8"?>
<!-- Generator: Adobe Illustrator 25.4.1, SVG Export Plug-In . SVG Version: 6.00 Build 0)  -->
<svg version="1.1" id="Layer_1" xmlns="http://www.w3.org/2000/svg" xmlns:xlink="http://www.w3.org/1999/xlink" x="0px" y="0px"
	 viewBox="0 0 1440 828" style="enable-background:new 0 0 1440 828;" xml:space="preserve">
<style type="text/css">
	.st0{fill:none;}
	.st1{fill:none;stroke:#000000;stroke-miterlimit:10;}
	.st2{fill:none;stroke:#000000;stroke-width:3;stroke-miterlimit:10;}
	.st3{fill:none;stroke:#000000;stroke-width:3;stroke-miterlimit:10;stroke-dasharray:11.5556,11.5556;}
	.st4{fill:none;stroke:#000000;stroke-width:3;stroke-miterlimit:10;stroke-dasharray:11.3029,11.3029;}
	.st5{fill:none;stroke:#000000;stroke-width:3;stroke-miterlimit:10;stroke-dasharray:12.1228,12.1228;}
	.st6{fill:none;stroke:#000000;stroke-width:3;stroke-miterlimit:10;stroke-dasharray:12.7839,12.7839;}
	.st7{fill:none;stroke:#000000;stroke-width:3;stroke-miterlimit:10;stroke-dasharray:11.2733,11.2733;}
	.st8{fill:#009245;}
	.st9{fill:#0071BC;}
	.st10{fill:#ED1C24;}
</style>
<g>
	<path class="st0" d="M448.5,284.5"/>
</g>
<path class="st1" d="M-201.5,145.5"/>
<path class="st1" d="M42.5,223.5"/>
<g>
	<g>
		<line class="st2" x1="36" y1="504" x2="1341.09" y2="504"/>
		<g>
			<polygon points="1332.67,515.11 1337.38,504 1332.67,492.89 1359,504 			"/>
		</g>
	</g>
</g>
<g>
	<g>
		<line class="st2" x1="684" y1="503.5" x2="684" y2="57.18"/>
		<g>
			<polygon points="684,36 696.2,65.85 684,58.77 671.81,65.85 			"/>
		</g>
	</g>
</g>
<g>
	<g>
		<line class="st2" x1="684" y1="504" x2="1338.53" y2="329.46"/>
		<g>
			<polygon points="1359,324 1333.3,343.48 1337,329.87 1327.02,319.91 			"/>
		</g>
	</g>
</g>
<g>
	<path class="st0" d="M1148.5,382.27"/>
</g>
<line class="st2" x1="1550.62" y1="-54.5" x2="1549.63" y2="-55.5"/>
<g>
	<g>
		<line class="st2" x1="1224" y1="360" x2="1139.67" y2="56.41"/>
		<g>
			<polygon points="1134,36 1153.74,61.49 1140.09,57.93 1130.24,68.02 			"/>
		</g>
	</g>
</g>
<g>
	<g>
		<line class="st2" x1="1224" y1="360" x2="1004.98" y2="579.02"/>
		<g>
			<polygon points="990,594 1002.48,564.27 1006.1,577.9 1019.73,581.52 			"/>
		</g>
	</g>
</g>
<g>
	<g>
		<line class="st2" x1="72.36" y1="648" x2="72.36" y2="642"/>
		<line class="st3" x1="72.36" y1="630.44" x2="72.36" y2="335.78"/>
		<line class="st2" x1="72.36" y1="330" x2="72.36" y2="324"/>
	</g>
</g>
<g>
	<g>
		<line class="st2" x1="216.36" y1="179.64" x2="212.11" y2="183.89"/>
		<line class="st4" x1="204.12" y1="191.88" x2="80.24" y2="315.76"/>
		<line class="st2" x1="76.24" y1="319.76" x2="72" y2="324"/>
	</g>
</g>
<g>
	<g>
		<line class="st2" x1="684" y1="504" x2="448.08" y2="301.78"/>
		<g>
			<polygon points="432,288 462.6,298.16 449.28,302.82 446.73,316.68 			"/>
		</g>
	</g>
</g>
<g>
	<g>
		<line class="st2" x1="216" y1="504" x2="85.23" y2="340.54"/>
		<g>
			<polygon points="72,324 100.17,339.69 86.22,341.78 81.12,354.92 			"/>
		</g>
	</g>
</g>
<g>
	<g>
		<line class="st2" x1="1098" y1="486" x2="1096.44" y2="480.21"/>
		<line class="st5" x1="1093.29" y1="468.5" x2="1038.14" y2="263.65"/>
		<line class="st2" x1="1036.56" y1="257.79" x2="1035" y2="252"/>
	</g>
</g>
<g>
	<g>
		<line class="st2" x1="1161" y1="126" x2="1156.76" y2="130.24"/>
		<line class="st6" x1="1147.72" y1="139.28" x2="1043.76" y2="243.24"/>
		<line class="st2" x1="1039.24" y1="247.76" x2="1035" y2="252"/>
	</g>
</g>
<g>
	<g>
		<line class="st2" x1="1224" y1="360" x2="1053.39" y2="262.51"/>
		<g>
			<polygon points="1035,252 1066.97,256.22 1054.77,263.29 1054.87,277.4 			"/>
		</g>
	</g>
</g>
<ellipse transform="matrix(0.6536 -0.7568 0.7568 0.6536 -146.362 686.3105)" class="st2" cx="676.63" cy="503.06" rx="110.24" ry="240.27"/>
<g>
	<g>
		<line class="st2" x1="216" y1="504" x2="216" y2="498"/>
		<line class="st3" x1="216" y1="486.44" x2="216" y2="191.78"/>
		<line class="st2" x1="216" y1="186" x2="216" y2="180"/>
	</g>
</g>
<g>
	<g>
		<line class="st2" x1="216" y1="504" x2="211.76" y2="508.24"/>
		<line class="st7" x1="203.79" y1="516.21" x2="80.23" y2="639.77"/>
		<line class="st2" x1="76.24" y1="643.76" x2="72" y2="648"/>
	</g>
</g>
<g>
	<path class="st8" d="M731.88,45.44c-0.01,0.76-0.29,1.31-0.83,1.67c-0.54,0.36-1.13,0.54-1.77,0.54c-0.39,0-0.83-0.07-1.33-0.21
		c-0.49-0.14-0.88-0.25-1.17-0.34c-0.59,0.52-1.27,1.29-2.04,2.3s-1.51,2.14-2.2,3.36c0.31,1.24,0.59,2.29,0.84,3.17
		c0.25,0.88,0.51,1.76,0.8,2.65c0.25,0.79,0.63,1.43,1.16,1.9c0.53,0.48,1.22,0.71,2.08,0.71c0.31,0,0.74-0.04,1.29-0.13
		c0.55-0.09,0.97-0.19,1.27-0.3l-0.35,1.3c-1.25,0.52-2.19,0.87-2.82,1.02c-0.63,0.16-1.31,0.24-2.04,0.24
		c-0.91,0-1.66-0.21-2.26-0.62c-0.59-0.42-1.07-1.28-1.44-2.58c-0.26-0.95-0.47-1.75-0.64-2.39s-0.32-1.29-0.48-1.92
		c-0.6,0.9-1.09,1.66-1.48,2.29c-0.39,0.63-1.04,1.5-1.95,2.61c-0.79,0.96-1.52,1.65-2.19,2.05s-1.34,0.61-2.03,0.61
		c-0.61,0-1.12-0.18-1.51-0.54s-0.6-0.86-0.6-1.49c0-0.61,0.23-1.14,0.7-1.57c0.47-0.44,1.11-0.65,1.93-0.65
		c0.42,0,0.82,0.08,1.22,0.22c0.4,0.15,0.81,0.29,1.24,0.42c0.49-0.47,1.15-1.2,1.96-2.19c0.81-0.99,1.57-2.12,2.27-3.38
		c-0.25-0.92-0.52-1.94-0.81-3.05c-0.29-1.11-0.57-2.08-0.83-2.91c-0.34-1.05-0.73-1.72-1.17-2.02c-0.44-0.3-1.01-0.45-1.7-0.45
		c-0.38,0-0.78,0.05-1.2,0.16c-0.42,0.1-0.82,0.21-1.18,0.31l0.37-1.3c1-0.42,1.9-0.76,2.71-1.03c0.8-0.27,1.34-0.4,1.63-0.4
		c0.9,0,1.64,0.22,2.24,0.65c0.59,0.44,1.06,1.28,1.42,2.53c0.4,1.45,0.64,2.33,0.71,2.65c0.07,0.32,0.21,0.95,0.42,1.88
		c0.62-0.96,1.13-1.78,1.52-2.44s1.03-1.54,1.91-2.64c0.82-1.03,1.58-1.73,2.28-2.12c0.7-0.38,1.36-0.58,2-0.58
		c0.57,0,1.06,0.19,1.46,0.56C731.7,44.38,731.89,44.86,731.88,45.44z"/>
</g>
<g>
	<path class="st8" d="M1049.01,591.17h-0.12c-1.2,1-2.34,1.79-3.42,2.36c-1.08,0.57-2.31,0.86-3.69,0.86
		c-1.25,0-2.24-0.36-2.97-1.08s-1.09-1.67-1.09-2.84c0-0.31,0.03-0.68,0.08-1.11s0.18-1.07,0.37-1.91l1.52-6.09
		c0.14-0.59,0.25-1.1,0.33-1.53c0.08-0.44,0.12-0.86,0.12-1.26c0-0.73-0.12-1.21-0.36-1.46c-0.24-0.24-0.73-0.36-1.47-0.36
		c-0.29,0-0.65,0.05-1.09,0.16c-0.44,0.11-0.79,0.2-1.03,0.27l0.29-1.26c1.02-0.46,1.91-0.81,2.69-1.04
		c0.78-0.24,1.4-0.35,1.87-0.35c1.04,0,1.81,0.23,2.31,0.7c0.5,0.47,0.75,1.17,0.75,2.11c0,0.23-0.03,0.55-0.08,0.96
		c-0.05,0.4-0.13,0.81-0.23,1.21l-1.77,7.13c-0.13,0.55-0.24,1.06-0.33,1.53c-0.09,0.48-0.14,0.84-0.14,1.08
		c0,0.87,0.21,1.56,0.64,2.07s1.05,0.76,1.87,0.76c0.95,0,1.88-0.23,2.79-0.7c0.91-0.47,1.76-1.11,2.55-1.93l3.23-14.61l3.37-0.23
		l0.23,0.29l-3.36,15.29c-0.5,2.24-1.13,4.15-1.9,5.74c-0.77,1.59-1.67,2.87-2.7,3.85c-1.08,1.03-2.25,1.77-3.5,2.23
		c-1.25,0.46-2.68,0.68-4.28,0.68c-1.11,0-1.99-0.08-2.64-0.23s-1.17-0.37-1.54-0.64c-0.38-0.26-0.63-0.55-0.76-0.88
		c-0.13-0.33-0.2-0.65-0.2-0.98c0-0.56,0.17-1.05,0.51-1.48s0.83-0.64,1.47-0.64c0.48,0,0.89,0.14,1.23,0.41
		c0.34,0.27,0.61,0.57,0.82,0.9c0.23,0.35,0.45,0.75,0.64,1.19c0.2,0.44,0.35,0.79,0.47,1.05h0.47c0.74,0,1.53-0.18,2.35-0.55
		c0.83-0.37,1.59-0.93,2.28-1.7c0.74-0.83,1.41-1.91,2-3.22C1048.19,594.58,1048.66,593,1049.01,591.17z"/>
	<path d="M1080.59,580.66h-19.71v-2.44h19.71V580.66z M1080.59,587.93h-19.71v-2.44h19.71V587.93z"/>
	<path class="st9" d="M1097.12,591.17H1097c-1.2,1-2.34,1.79-3.42,2.36c-1.08,0.57-2.31,0.86-3.69,0.86c-1.25,0-2.24-0.36-2.97-1.08
		s-1.09-1.67-1.09-2.84c0-0.31,0.03-0.68,0.08-1.11s0.18-1.07,0.37-1.91l1.52-6.09c0.14-0.59,0.25-1.1,0.33-1.53
		c0.08-0.44,0.12-0.86,0.12-1.26c0-0.73-0.12-1.21-0.36-1.46c-0.24-0.24-0.73-0.36-1.47-0.36c-0.29,0-0.65,0.05-1.09,0.16
		c-0.44,0.11-0.79,0.2-1.03,0.27l0.29-1.26c1.02-0.46,1.91-0.81,2.69-1.04c0.78-0.24,1.4-0.35,1.87-0.35c1.04,0,1.81,0.23,2.31,0.7
		c0.5,0.47,0.75,1.17,0.75,2.11c0,0.23-0.03,0.55-0.08,0.96c-0.05,0.4-0.13,0.81-0.23,1.21l-1.77,7.13
		c-0.13,0.55-0.24,1.06-0.33,1.53c-0.09,0.48-0.14,0.84-0.14,1.08c0,0.87,0.21,1.56,0.64,2.07s1.05,0.76,1.87,0.76
		c0.95,0,1.88-0.23,2.79-0.7c0.91-0.47,1.76-1.11,2.55-1.93l3.23-14.61l3.37-0.23l0.23,0.29l-3.36,15.29
		c-0.5,2.24-1.13,4.15-1.9,5.74c-0.77,1.59-1.67,2.87-2.7,3.85c-1.08,1.03-2.25,1.77-3.5,2.23c-1.25,0.46-2.68,0.68-4.28,0.68
		c-1.11,0-1.99-0.08-2.64-0.23s-1.17-0.37-1.54-0.64c-0.38-0.26-0.63-0.55-0.76-0.88c-0.13-0.33-0.2-0.65-0.2-0.98
		c0-0.56,0.17-1.05,0.51-1.48s0.83-0.64,1.47-0.64c0.48,0,0.89,0.14,1.23,0.41c0.34,0.27,0.61,0.57,0.82,0.9
		c0.23,0.35,0.45,0.75,0.64,1.19c0.2,0.44,0.35,0.79,0.47,1.05h0.47c0.74,0,1.53-0.18,2.35-0.55c0.83-0.37,1.59-0.93,2.28-1.7
		c0.74-0.83,1.41-1.91,2-3.22C1096.29,594.58,1096.76,593,1097.12,591.17z"/>
	<path class="st9" d="M1117.27,569.8c-0.51,0.65-1.28,1.68-2.3,3.09s-2.21,3-3.54,4.77h-1.41c0.66-1.78,1.27-3.43,1.82-4.94
		c0.55-1.51,1.03-2.87,1.45-4.08c0.39-1.13,0.85-1.93,1.38-2.38c0.53-0.46,1.16-0.68,1.9-0.68c0.66,0,1.13,0.19,1.41,0.58
		c0.27,0.38,0.41,0.79,0.41,1.2c0,0.37-0.1,0.76-0.3,1.18C1117.87,568.95,1117.6,569.37,1117.27,569.8z"/>
</g>
<g>
	<path class="st9" d="M1190.88,45.44c-0.01,0.76-0.29,1.31-0.83,1.67c-0.54,0.36-1.13,0.54-1.77,0.54c-0.39,0-0.83-0.07-1.33-0.21
		c-0.5-0.14-0.89-0.25-1.17-0.34c-0.59,0.52-1.27,1.29-2.04,2.3s-1.51,2.14-2.2,3.36c0.31,1.24,0.59,2.29,0.84,3.17
		s0.51,1.76,0.8,2.65c0.25,0.79,0.63,1.43,1.16,1.9c0.53,0.48,1.22,0.71,2.08,0.71c0.31,0,0.74-0.04,1.29-0.13
		c0.55-0.09,0.97-0.19,1.27-0.3l-0.35,1.3c-1.25,0.52-2.19,0.87-2.82,1.02c-0.63,0.16-1.31,0.24-2.04,0.24
		c-0.91,0-1.66-0.21-2.26-0.62s-1.07-1.28-1.44-2.58c-0.26-0.95-0.47-1.75-0.64-2.39s-0.32-1.29-0.48-1.92
		c-0.6,0.9-1.09,1.66-1.48,2.29c-0.39,0.63-1.04,1.5-1.95,2.61c-0.79,0.96-1.52,1.65-2.19,2.05s-1.34,0.61-2.03,0.61
		c-0.61,0-1.12-0.18-1.51-0.54s-0.6-0.86-0.6-1.49c0-0.61,0.23-1.14,0.7-1.57c0.47-0.44,1.11-0.65,1.93-0.65
		c0.42,0,0.82,0.08,1.22,0.22c0.4,0.15,0.81,0.29,1.24,0.42c0.49-0.47,1.15-1.2,1.96-2.19c0.81-0.99,1.57-2.12,2.27-3.38
		c-0.25-0.92-0.52-1.94-0.81-3.05c-0.29-1.11-0.57-2.08-0.83-2.91c-0.34-1.05-0.73-1.72-1.17-2.02s-1.01-0.45-1.7-0.45
		c-0.38,0-0.78,0.05-1.2,0.16c-0.42,0.1-0.82,0.21-1.18,0.31l0.37-1.3c1-0.42,1.9-0.76,2.71-1.03c0.8-0.27,1.34-0.4,1.63-0.4
		c0.9,0,1.64,0.22,2.24,0.65c0.59,0.44,1.06,1.28,1.42,2.53c0.4,1.45,0.64,2.33,0.71,2.65c0.07,0.32,0.21,0.95,0.42,1.88
		c0.62-0.96,1.13-1.78,1.52-2.44s1.03-1.54,1.91-2.64c0.82-1.03,1.58-1.73,2.28-2.12c0.7-0.38,1.36-0.58,2-0.58
		c0.57,0,1.06,0.19,1.46,0.56S1190.89,44.86,1190.88,45.44z"/>
	<path class="st9" d="M1201.82,38.8c-0.51,0.65-1.28,1.68-2.3,3.09s-2.21,3-3.54,4.77h-1.41c0.66-1.78,1.27-3.43,1.82-4.94
		c0.55-1.51,1.03-2.87,1.45-4.08c0.39-1.13,0.85-1.93,1.38-2.38c0.53-0.46,1.16-0.68,1.9-0.68c0.66,0,1.13,0.19,1.41,0.58
		c0.27,0.38,0.41,0.78,0.41,1.2c0,0.36-0.1,0.76-0.3,1.18C1202.42,37.94,1202.16,38.37,1201.82,38.8z"/>
</g>
<g>
	<path d="M144.11,323.29l-1.54,6.68h-1.46c-0.08-1.38-0.37-2.54-0.87-3.48c-0.5-0.94-1.18-1.47-2.02-1.6
		c-0.39-0.05-0.87-0.09-1.43-0.12c-0.56-0.03-1.19-0.04-1.89-0.04h-4.45l-2.58,11.15h3.13c0.97,0,1.72-0.09,2.25-0.28
		c0.54-0.19,1.01-0.5,1.43-0.95c0.39-0.39,0.77-0.93,1.14-1.61s0.63-1.26,0.78-1.73h1.46l-2.5,10.82h-1.46
		c0-0.14,0.01-0.32,0.03-0.52c0.02-0.2,0.03-0.42,0.03-0.65c0-0.48-0.03-0.94-0.1-1.39c-0.06-0.44-0.16-0.77-0.27-0.98
		c-0.27-0.51-0.66-0.84-1.17-1s-1.17-0.23-1.98-0.23h-3.11l-1.96,8.48c-0.08,0.32-0.14,0.66-0.2,1.02
		c-0.05,0.37-0.08,0.65-0.08,0.86c0,0.72,0.26,1.2,0.77,1.43c0.52,0.23,1.65,0.35,3.41,0.35c2.19,0,3.68-0.08,4.46-0.23
		s1.36-0.39,1.74-0.69c0.74-0.6,1.61-1.56,2.61-2.88c1-1.32,1.67-2.28,2-2.88h1.41l-2.4,8.16h-23.03l0.29-1.29
		c0.4-0.03,0.94-0.08,1.6-0.17c0.66-0.08,1.11-0.17,1.35-0.26c0.46-0.17,0.8-0.42,1.04-0.76c0.24-0.34,0.41-0.74,0.5-1.19
		l4.65-20.12c0.03-0.1,0.05-0.22,0.07-0.35c0.02-0.13,0.03-0.25,0.03-0.37c0-0.26-0.06-0.49-0.17-0.7c-0.11-0.21-0.31-0.38-0.6-0.53
		c-0.31-0.17-0.76-0.32-1.33-0.45c-0.57-0.13-1.02-0.21-1.35-0.23l0.29-1.29H144.11z"/>
	<path d="M149.41,363.08l-0.17,0.73c-0.7,0.28-1.26,0.48-1.67,0.59c-0.42,0.11-0.77,0.17-1.07,0.17c-0.61,0-1.06-0.16-1.37-0.47
		s-0.46-0.7-0.46-1.17c0-0.17,0.02-0.36,0.05-0.55c0.03-0.19,0.08-0.43,0.15-0.72l1.2-4.84c0.06-0.27,0.12-0.55,0.18-0.85
		c0.06-0.3,0.09-0.56,0.09-0.78c0-0.43-0.07-0.71-0.21-0.85c-0.14-0.14-0.43-0.21-0.86-0.21c-0.17,0-0.39,0.03-0.67,0.08
		c-0.28,0.05-0.49,0.1-0.63,0.14l0.17-0.73c0.59-0.27,1.12-0.46,1.59-0.59c0.47-0.13,0.84-0.19,1.12-0.19
		c0.62,0,1.07,0.15,1.35,0.44s0.42,0.7,0.42,1.2c0,0.14-0.02,0.32-0.05,0.56c-0.03,0.24-0.08,0.47-0.14,0.71l-1.21,4.84
		c-0.08,0.3-0.14,0.59-0.2,0.87c-0.06,0.28-0.08,0.52-0.08,0.7c0,0.43,0.1,0.73,0.29,0.89c0.19,0.16,0.51,0.24,0.94,0.24
		c0.14,0,0.35-0.02,0.62-0.06C149.06,363.18,149.26,363.13,149.41,363.08z M150.22,348.52c0,0.43-0.14,0.81-0.42,1.13
		c-0.28,0.32-0.63,0.48-1.05,0.48c-0.39,0-0.72-0.15-1-0.46c-0.28-0.31-0.42-0.66-0.42-1.05c0-0.42,0.14-0.78,0.42-1.09
		c0.28-0.31,0.61-0.47,1-0.47c0.43,0,0.79,0.15,1.06,0.44C150.08,347.79,150.22,348.13,150.22,348.52z"/>
</g>
<g>
	<path d="M1116.11,233.29l-1.54,6.68h-1.46c-0.08-1.38-0.37-2.54-0.87-3.48c-0.5-0.94-1.18-1.47-2.02-1.6
		c-0.39-0.05-0.87-0.09-1.43-0.12c-0.56-0.03-1.19-0.04-1.89-0.04h-4.45l-2.58,11.15h3.13c0.96,0,1.72-0.09,2.25-0.28
		c0.54-0.19,1.01-0.5,1.43-0.95c0.39-0.39,0.77-0.93,1.14-1.61s0.63-1.26,0.78-1.73h1.46l-2.5,10.82h-1.46
		c0-0.14,0.01-0.32,0.03-0.52c0.02-0.2,0.03-0.42,0.03-0.65c0-0.48-0.03-0.94-0.1-1.39c-0.06-0.44-0.16-0.77-0.27-0.98
		c-0.27-0.51-0.66-0.84-1.17-1s-1.17-0.23-1.98-0.23h-3.11l-1.96,8.48c-0.08,0.32-0.14,0.66-0.2,1.02
		c-0.05,0.37-0.08,0.65-0.08,0.86c0,0.72,0.26,1.2,0.77,1.43s1.65,0.35,3.41,0.35c2.19,0,3.68-0.08,4.46-0.23s1.36-0.39,1.74-0.69
		c0.74-0.6,1.61-1.56,2.61-2.88c1-1.32,1.67-2.28,2-2.88h1.41l-2.4,8.16h-23.03l0.29-1.29c0.4-0.03,0.94-0.08,1.6-0.17
		c0.66-0.08,1.11-0.17,1.35-0.26c0.46-0.17,0.8-0.42,1.04-0.76c0.24-0.34,0.41-0.74,0.5-1.19l4.65-20.12
		c0.03-0.1,0.05-0.22,0.07-0.35c0.02-0.13,0.03-0.25,0.03-0.37c0-0.26-0.06-0.49-0.17-0.7c-0.11-0.21-0.31-0.38-0.6-0.53
		c-0.31-0.17-0.75-0.32-1.33-0.45c-0.57-0.13-1.02-0.21-1.35-0.23l0.29-1.29H1116.11z"/>
	<path d="M1119.25,274.66c-1.12,0-2.06-0.2-2.81-0.6c-0.75-0.4-1.12-0.92-1.12-1.57c0-0.3,0.11-0.59,0.33-0.85s0.49-0.4,0.81-0.4
		c0.3,0,0.55,0.07,0.73,0.21c0.19,0.14,0.33,0.31,0.44,0.5c0.11,0.2,0.21,0.43,0.3,0.71c0.09,0.27,0.16,0.5,0.22,0.67
		c0.11,0.13,0.27,0.25,0.47,0.36s0.49,0.17,0.87,0.17c0.82,0,1.44-0.21,1.86-0.62c0.42-0.41,0.63-0.97,0.63-1.67
		c0-0.52-0.2-0.93-0.59-1.24c-0.39-0.31-0.98-0.59-1.76-0.85c-0.28-0.09-0.61-0.23-0.99-0.42c-0.38-0.19-0.68-0.39-0.91-0.6
		c-0.27-0.24-0.49-0.53-0.66-0.87c-0.17-0.33-0.25-0.73-0.25-1.19c0-0.97,0.43-1.82,1.3-2.53c0.87-0.71,1.94-1.07,3.21-1.07
		c0.3,0,0.62,0.02,0.96,0.05s0.72,0.11,1.13,0.25c0.36,0.12,0.66,0.3,0.91,0.54c0.25,0.24,0.38,0.55,0.38,0.93
		c0,0.31-0.1,0.59-0.31,0.85s-0.48,0.38-0.83,0.38c-0.28,0-0.51-0.06-0.69-0.18c-0.18-0.12-0.33-0.28-0.46-0.49s-0.22-0.42-0.3-0.66
		s-0.16-0.47-0.25-0.69c-0.14-0.06-0.27-0.1-0.39-0.13c-0.11-0.02-0.27-0.03-0.46-0.03c-0.74,0-1.31,0.2-1.69,0.6
		c-0.38,0.4-0.58,0.87-0.58,1.42c0,0.53,0.17,0.93,0.52,1.2c0.34,0.27,0.92,0.55,1.71,0.84c1.03,0.37,1.78,0.8,2.25,1.28
		c0.47,0.48,0.7,1.07,0.7,1.78c0,1.16-0.44,2.1-1.33,2.82C1121.73,274.3,1120.61,274.66,1119.25,274.66z"/>
</g>
<g>
	<path d="M261.11,323.29l-1.54,6.68h-1.46c-0.08-1.38-0.37-2.54-0.87-3.48c-0.5-0.94-1.18-1.47-2.02-1.6
		c-0.39-0.05-0.87-0.09-1.43-0.12c-0.56-0.03-1.19-0.04-1.89-0.04h-4.45l-2.58,11.15h3.13c0.97,0,1.72-0.09,2.25-0.28
		c0.54-0.19,1.01-0.5,1.43-0.95c0.39-0.39,0.77-0.93,1.14-1.61s0.63-1.26,0.78-1.73h1.46l-2.5,10.82h-1.46
		c0-0.14,0.01-0.32,0.03-0.52c0.02-0.2,0.03-0.42,0.03-0.65c0-0.48-0.03-0.94-0.1-1.39c-0.06-0.44-0.16-0.77-0.27-0.98
		c-0.27-0.51-0.66-0.84-1.17-1s-1.17-0.23-1.98-0.23h-3.11l-1.96,8.48c-0.08,0.32-0.14,0.66-0.2,1.02
		c-0.05,0.37-0.08,0.65-0.08,0.86c0,0.72,0.26,1.2,0.77,1.43c0.52,0.23,1.65,0.35,3.41,0.35c2.19,0,3.68-0.08,4.46-0.23
		s1.36-0.39,1.74-0.69c0.74-0.6,1.61-1.56,2.61-2.88c1-1.32,1.67-2.28,2-2.88h1.41l-2.4,8.16h-23.03l0.29-1.29
		c0.4-0.03,0.94-0.08,1.6-0.17c0.66-0.08,1.11-0.17,1.35-0.26c0.46-0.17,0.8-0.42,1.04-0.76c0.24-0.34,0.41-0.74,0.5-1.19
		l4.65-20.12c0.03-0.1,0.05-0.22,0.07-0.35c0.02-0.13,0.03-0.25,0.03-0.37c0-0.26-0.06-0.49-0.17-0.7c-0.11-0.21-0.31-0.38-0.6-0.53
		c-0.31-0.17-0.76-0.32-1.33-0.45c-0.57-0.13-1.02-0.21-1.35-0.23l0.29-1.29H261.11z"/>
	<path d="M266.41,363.08l-0.17,0.73c-0.7,0.28-1.26,0.48-1.67,0.59c-0.42,0.11-0.77,0.17-1.07,0.17c-0.61,0-1.06-0.16-1.37-0.47
		s-0.46-0.7-0.46-1.17c0-0.17,0.02-0.36,0.05-0.55c0.03-0.19,0.08-0.43,0.15-0.72l1.2-4.84c0.06-0.27,0.12-0.55,0.18-0.85
		c0.06-0.3,0.09-0.56,0.09-0.78c0-0.43-0.07-0.71-0.21-0.85c-0.14-0.14-0.43-0.21-0.86-0.21c-0.17,0-0.39,0.03-0.67,0.08
		c-0.28,0.05-0.49,0.1-0.63,0.14l0.17-0.73c0.59-0.27,1.12-0.46,1.59-0.59c0.47-0.13,0.84-0.19,1.12-0.19
		c0.62,0,1.07,0.15,1.35,0.44s0.42,0.7,0.42,1.2c0,0.14-0.02,0.32-0.05,0.56c-0.03,0.24-0.08,0.47-0.14,0.71l-1.21,4.84
		c-0.08,0.3-0.14,0.59-0.2,0.87c-0.06,0.28-0.08,0.52-0.08,0.7c0,0.43,0.1,0.73,0.29,0.89c0.19,0.16,0.51,0.24,0.94,0.24
		c0.14,0,0.35-0.02,0.62-0.06C266.06,363.18,266.26,363.13,266.41,363.08z M267.22,348.52c0,0.43-0.14,0.81-0.42,1.13
		c-0.28,0.32-0.63,0.48-1.05,0.48c-0.39,0-0.72-0.15-1-0.46c-0.28-0.31-0.42-0.66-0.42-1.05c0-0.42,0.14-0.78,0.42-1.09
		c0.28-0.31,0.61-0.47,1-0.47c0.43,0,0.79,0.15,1.06,0.44C267.08,347.79,267.22,348.13,267.22,348.52z"/>
	<path d="M271.77,363.2c0,0.65-0.15,1.25-0.44,1.8c-0.3,0.56-0.68,1.06-1.14,1.51c-0.44,0.43-0.9,0.8-1.37,1.11
		c-0.47,0.31-0.89,0.55-1.25,0.72l-0.36-0.76c0.35-0.19,0.7-0.4,1.06-0.64c0.36-0.24,0.66-0.48,0.9-0.72
		c0.3-0.3,0.56-0.59,0.77-0.88c0.21-0.29,0.37-0.64,0.5-1.05h-0.54c-0.46,0-0.81-0.12-1.04-0.35c-0.23-0.23-0.35-0.53-0.35-0.91
		c0-0.39,0.15-0.76,0.46-1.09c0.3-0.33,0.71-0.5,1.23-0.5c0.55,0,0.96,0.16,1.21,0.48C271.65,362.26,271.77,362.68,271.77,363.2z"/>
	<path d="M285.53,354.08c-0.01,0.44-0.17,0.77-0.48,0.97c-0.31,0.21-0.66,0.31-1.03,0.31c-0.23,0-0.49-0.04-0.77-0.12
		c-0.29-0.08-0.52-0.15-0.68-0.2c-0.34,0.3-0.74,0.75-1.19,1.34c-0.45,0.59-0.88,1.25-1.28,1.96c0.18,0.72,0.34,1.34,0.49,1.85
		c0.14,0.51,0.3,1.03,0.47,1.54c0.14,0.46,0.37,0.83,0.68,1.11c0.31,0.28,0.71,0.42,1.21,0.42c0.18,0,0.43-0.03,0.75-0.08
		s0.57-0.11,0.74-0.17l-0.21,0.76c-0.73,0.31-1.28,0.5-1.65,0.6c-0.37,0.09-0.77,0.14-1.19,0.14c-0.53,0-0.97-0.12-1.32-0.36
		c-0.35-0.24-0.62-0.74-0.84-1.5c-0.15-0.55-0.28-1.02-0.37-1.4c-0.09-0.38-0.19-0.75-0.28-1.12c-0.35,0.52-0.64,0.97-0.87,1.34
		c-0.23,0.37-0.61,0.88-1.14,1.52c-0.46,0.56-0.89,0.96-1.27,1.2s-0.78,0.35-1.18,0.35c-0.36,0-0.65-0.1-0.88-0.31
		c-0.23-0.21-0.35-0.5-0.35-0.87c0-0.36,0.14-0.66,0.41-0.92s0.65-0.38,1.13-0.38c0.24,0,0.48,0.04,0.71,0.13
		c0.23,0.09,0.47,0.17,0.72,0.24c0.29-0.27,0.67-0.7,1.14-1.28c0.47-0.58,0.92-1.23,1.33-1.97c-0.14-0.54-0.3-1.13-0.47-1.78
		c-0.17-0.65-0.33-1.21-0.48-1.7c-0.2-0.61-0.43-1-0.68-1.17c-0.26-0.17-0.59-0.26-0.99-0.26c-0.22,0-0.45,0.03-0.7,0.09
		c-0.25,0.06-0.48,0.12-0.69,0.18l0.22-0.76c0.58-0.24,1.11-0.45,1.58-0.6c0.47-0.16,0.78-0.23,0.95-0.23c0.52,0,0.96,0.13,1.3,0.38
		c0.35,0.25,0.62,0.75,0.83,1.47c0.24,0.84,0.37,1.36,0.42,1.54c0.04,0.19,0.12,0.55,0.24,1.1c0.36-0.56,0.66-1.04,0.89-1.42
		s0.6-0.9,1.12-1.54c0.48-0.6,0.92-1.01,1.33-1.24c0.41-0.22,0.8-0.34,1.17-0.34c0.33,0,0.62,0.11,0.85,0.32
		S285.53,353.74,285.53,354.08z"/>
</g>
<g>
	<path d="M189.11,584.29l-1.54,6.68h-1.46c-0.08-1.38-0.37-2.54-0.87-3.48c-0.5-0.94-1.18-1.47-2.02-1.6
		c-0.39-0.05-0.87-0.09-1.43-0.12s-1.19-0.04-1.89-0.04h-4.45l-2.58,11.15h3.13c0.97,0,1.72-0.09,2.25-0.28s1.01-0.5,1.43-0.95
		c0.39-0.39,0.77-0.93,1.14-1.61s0.63-1.26,0.78-1.73h1.46l-2.5,10.82h-1.46c0-0.14,0.01-0.32,0.03-0.52s0.03-0.42,0.03-0.65
		c0-0.48-0.03-0.94-0.1-1.39c-0.06-0.44-0.16-0.77-0.27-0.98c-0.27-0.51-0.66-0.84-1.17-1s-1.17-0.23-1.98-0.23h-3.11l-1.96,8.48
		c-0.08,0.32-0.14,0.66-0.2,1.02c-0.05,0.37-0.08,0.65-0.08,0.86c0,0.72,0.26,1.2,0.77,1.43c0.52,0.23,1.65,0.35,3.41,0.35
		c2.19,0,3.68-0.08,4.46-0.24c0.78-0.16,1.36-0.39,1.74-0.69c0.74-0.6,1.61-1.56,2.61-2.88c1-1.32,1.67-2.28,2-2.88h1.41l-2.4,8.16
		h-23.03l0.29-1.29c0.4-0.03,0.94-0.08,1.6-0.17s1.11-0.17,1.35-0.26c0.46-0.17,0.8-0.42,1.04-0.76c0.24-0.34,0.41-0.74,0.5-1.19
		l4.65-20.12c0.03-0.1,0.05-0.22,0.07-0.35s0.03-0.25,0.03-0.37c0-0.26-0.06-0.5-0.17-0.7c-0.11-0.21-0.31-0.38-0.6-0.53
		c-0.31-0.17-0.76-0.32-1.33-0.45c-0.57-0.13-1.02-0.21-1.35-0.23l0.29-1.29H189.11z"/>
	<path d="M194.41,624.08l-0.17,0.73c-0.7,0.28-1.26,0.48-1.67,0.59s-0.77,0.17-1.07,0.17c-0.61,0-1.06-0.16-1.37-0.47
		s-0.46-0.71-0.46-1.17c0-0.17,0.02-0.36,0.05-0.55s0.08-0.43,0.15-0.72l1.2-4.84c0.06-0.27,0.12-0.55,0.18-0.86
		c0.06-0.3,0.09-0.56,0.09-0.78c0-0.42-0.07-0.71-0.21-0.85s-0.43-0.21-0.86-0.21c-0.17,0-0.39,0.03-0.67,0.08
		c-0.28,0.05-0.49,0.1-0.63,0.14l0.17-0.73c0.59-0.27,1.12-0.46,1.59-0.59c0.47-0.13,0.84-0.19,1.12-0.19
		c0.62,0,1.07,0.15,1.35,0.44c0.28,0.3,0.42,0.7,0.42,1.2c0,0.14-0.02,0.32-0.05,0.56c-0.03,0.24-0.08,0.47-0.14,0.71l-1.21,4.84
		c-0.08,0.3-0.14,0.59-0.2,0.87c-0.06,0.29-0.08,0.52-0.08,0.7c0,0.43,0.1,0.73,0.29,0.89c0.19,0.16,0.51,0.24,0.94,0.24
		c0.14,0,0.35-0.02,0.62-0.06C194.06,624.18,194.26,624.13,194.41,624.08z M195.22,609.51c0,0.43-0.14,0.81-0.42,1.13
		c-0.28,0.32-0.63,0.48-1.05,0.48c-0.39,0-0.72-0.15-1-0.46c-0.28-0.31-0.42-0.66-0.42-1.05c0-0.42,0.14-0.78,0.42-1.09
		c0.28-0.31,0.61-0.47,1-0.47c0.43,0,0.79,0.15,1.06,0.44C195.08,608.79,195.22,609.13,195.22,609.51z"/>
	<path d="M199.77,624.2c0,0.64-0.15,1.25-0.44,1.8c-0.3,0.56-0.68,1.06-1.14,1.51c-0.44,0.43-0.9,0.8-1.37,1.11
		c-0.47,0.31-0.89,0.55-1.25,0.72l-0.36-0.76c0.35-0.19,0.7-0.4,1.06-0.64c0.36-0.24,0.66-0.48,0.9-0.72
		c0.3-0.3,0.56-0.59,0.77-0.88c0.21-0.29,0.37-0.64,0.5-1.05h-0.54c-0.46,0-0.81-0.12-1.04-0.35c-0.23-0.23-0.35-0.53-0.35-0.91
		c0-0.39,0.15-0.76,0.46-1.09s0.71-0.5,1.23-0.5c0.55,0,0.96,0.16,1.21,0.48C199.65,623.26,199.77,623.68,199.77,624.2z"/>
	<path d="M209.52,623.67h-0.07c-0.7,0.58-1.36,1.04-1.99,1.38c-0.63,0.33-1.35,0.5-2.15,0.5c-0.73,0-1.31-0.21-1.73-0.63
		c-0.43-0.42-0.64-0.97-0.64-1.66c0-0.18,0.02-0.4,0.05-0.65c0.03-0.25,0.1-0.62,0.22-1.12l0.89-3.55c0.08-0.34,0.15-0.64,0.19-0.89
		c0.05-0.25,0.07-0.5,0.07-0.73c0-0.42-0.07-0.71-0.21-0.85c-0.14-0.14-0.43-0.21-0.86-0.21c-0.17,0-0.38,0.03-0.64,0.1
		c-0.26,0.06-0.46,0.12-0.6,0.15l0.17-0.73c0.59-0.27,1.11-0.47,1.57-0.61c0.45-0.14,0.81-0.21,1.09-0.21
		c0.61,0,1.06,0.14,1.35,0.41c0.29,0.27,0.44,0.68,0.44,1.23c0,0.14-0.02,0.32-0.05,0.56s-0.08,0.47-0.14,0.71l-1.03,4.16
		c-0.08,0.32-0.14,0.62-0.19,0.89s-0.08,0.49-0.08,0.63c0,0.51,0.12,0.91,0.37,1.21s0.61,0.44,1.09,0.44c0.56,0,1.1-0.14,1.63-0.41
		c0.53-0.27,1.02-0.65,1.49-1.13l1.88-8.52l1.97-0.14l0.14,0.17l-1.96,8.92c-0.29,1.31-0.66,2.42-1.11,3.35
		c-0.45,0.93-0.97,1.67-1.57,2.24c-0.63,0.6-1.31,1.03-2.04,1.3s-1.56,0.4-2.49,0.4c-0.65,0-1.16-0.04-1.54-0.14
		c-0.38-0.09-0.68-0.22-0.9-0.38c-0.22-0.15-0.37-0.32-0.44-0.51c-0.08-0.19-0.11-0.38-0.11-0.57c0-0.33,0.1-0.62,0.3-0.87
		c0.2-0.25,0.48-0.38,0.85-0.38c0.28,0,0.52,0.08,0.72,0.24c0.2,0.16,0.36,0.33,0.48,0.52c0.14,0.21,0.26,0.44,0.38,0.69
		c0.11,0.26,0.21,0.46,0.27,0.62h0.27c0.43,0,0.89-0.11,1.37-0.32c0.48-0.21,0.92-0.54,1.33-0.99c0.43-0.49,0.82-1.11,1.17-1.88
		C209.04,625.66,209.32,624.74,209.52,623.67z"/>
</g>
<g>
	<path class="st10" d="M418.52,242.29l-0.29,1.29c-0.34,0.01-0.77,0.06-1.28,0.14c-0.51,0.08-0.97,0.2-1.38,0.37
		c-0.76,0.33-1.33,0.67-1.72,1.04c-0.39,0.36-0.96,0.92-1.72,1.66c-1.15,1.12-2.51,2.5-4.1,4.15s-2.94,3.04-4.06,4.19
		c0.83,1.84,1.56,3.45,2.18,4.85c0.62,1.4,1.43,3.22,2.43,5.46c0.26,0.59,0.59,1.16,0.98,1.72c0.39,0.56,0.73,0.94,1.02,1.13
		c0.26,0.18,0.66,0.3,1.19,0.34c0.53,0.05,0.98,0.08,1.33,0.09L412.8,270h-12.48l0.29-1.29c0.77-0.01,1.61-0.1,2.53-0.26
		c0.92-0.16,1.38-0.48,1.38-0.97c0-0.35-0.09-0.84-0.28-1.45c-0.19-0.62-0.4-1.21-0.63-1.78c-0.33-0.81-0.73-1.79-1.22-2.96
		c-0.49-1.17-0.97-2.28-1.44-3.33c-0.95,0.96-2.07,2.13-3.35,3.5c-1.29,1.38-2.4,2.6-3.35,3.68c-0.55,0.62-0.97,1.14-1.26,1.56
		c-0.29,0.42-0.44,0.72-0.44,0.92c0,0.46,0.31,0.75,0.93,0.88c0.62,0.13,1.33,0.2,2.12,0.21l-0.29,1.29h-10.44l0.29-1.29
		c0.34-0.03,0.77-0.07,1.3-0.15c0.53-0.07,0.98-0.19,1.36-0.36c0.74-0.35,1.38-0.75,1.9-1.2s1.04-0.94,1.55-1.47
		c1.24-1.29,2.66-2.75,4.27-4.39c1.61-1.64,3.16-3.25,4.66-4.84c-0.53-1.2-1.21-2.71-2.02-4.54c-0.81-1.82-1.55-3.48-2.22-4.97
		c-0.39-0.87-0.69-1.48-0.9-1.82c-0.21-0.34-0.57-0.64-1.07-0.9c-0.25-0.13-0.65-0.24-1.2-0.33c-0.55-0.09-0.99-0.15-1.32-0.18
		l0.29-1.29h12.34l-0.29,1.29c-1.11,0.04-2.03,0.15-2.77,0.34c-0.74,0.19-1.11,0.47-1.11,0.85c0,0.42,0.09,0.88,0.26,1.39
		c0.18,0.51,0.41,1.12,0.71,1.83c0.43,1.03,0.78,1.86,1.05,2.5c0.27,0.64,0.72,1.68,1.36,3.11c1.39-1.46,2.62-2.75,3.69-3.9
		s1.98-2.18,2.72-3.12c0.42-0.53,0.72-0.93,0.9-1.2c0.18-0.27,0.27-0.5,0.27-0.69c0-0.38-0.31-0.65-0.93-0.83s-1.31-0.27-2.06-0.28
		l0.29-1.29H418.52z"/>
	<path d="M448.27,256.66h-19.71v-2.44h19.71V256.66z M448.27,263.93h-19.71v-2.44h19.71V263.93z"/>
	<path d="M482.88,267.73l-0.29,1.25c-1.18,0.47-2.09,0.81-2.74,1.03c-0.65,0.21-1.31,0.32-1.98,0.32c-1.05,0-1.83-0.27-2.35-0.81
		c-0.52-0.54-0.78-1.21-0.78-2c0-0.29,0.03-0.6,0.08-0.95c0.05-0.35,0.14-0.75,0.26-1.22l1.93-7.29c0.14-0.56,0.26-1.07,0.34-1.52
		c0.08-0.46,0.13-0.82,0.13-1.1c0-0.87-0.21-1.56-0.62-2.07s-1.03-0.76-1.84-0.76c-0.79,0-1.67,0.26-2.65,0.78
		c-0.98,0.52-1.91,1.28-2.77,2.27L466.23,270h-3.65l2.93-12.67c0.06-0.31,0.16-0.77,0.28-1.36c0.12-0.59,0.19-1.07,0.19-1.44
		c0-0.73-0.12-1.22-0.37-1.47c-0.25-0.25-0.75-0.37-1.49-0.37c-0.29,0-0.66,0.05-1.1,0.15s-0.79,0.18-1.04,0.24l0.29-1.25
		c1.02-0.46,1.92-0.79,2.71-1.02c0.79-0.22,1.46-0.33,2.02-0.33c1.03,0,1.77,0.28,2.22,0.84c0.44,0.56,0.68,1.34,0.71,2.33h0.12
		c1.43-1.15,2.66-2,3.7-2.55c1.04-0.55,2.22-0.83,3.54-0.83c1.25,0,2.22,0.36,2.92,1.08c0.7,0.72,1.05,1.67,1.05,2.85
		c0,0.23-0.04,0.65-0.11,1.25c-0.07,0.6-0.19,1.19-0.34,1.78l-1.64,6.28c-0.12,0.42-0.23,0.9-0.34,1.44
		c-0.11,0.54-0.17,0.96-0.17,1.26c0,0.74,0.16,1.25,0.49,1.52c0.33,0.27,0.86,0.4,1.6,0.4c0.25,0,0.6-0.04,1.06-0.13
		C482.28,267.91,482.63,267.83,482.88,267.73z"/>
	<path d="M496.72,276.17c0,1.02-0.18,1.98-0.53,2.9c-0.36,0.91-0.83,1.7-1.42,2.37c-0.66,0.74-1.37,1.28-2.14,1.64
		s-1.56,0.54-2.37,0.54c-0.65,0-1.19-0.08-1.6-0.24s-0.79-0.36-1.11-0.59l-0.66,2.98c-0.05,0.19-0.08,0.37-0.11,0.54
		c-0.03,0.17-0.04,0.3-0.04,0.4c0,0.2,0.07,0.37,0.22,0.49c0.15,0.12,0.32,0.21,0.51,0.26c0.19,0.06,0.4,0.11,0.64,0.14
		s0.45,0.05,0.64,0.07l-0.16,0.72h-6.28l0.16-0.72c0.24-0.02,0.47-0.03,0.68-0.06c0.21-0.02,0.41-0.06,0.6-0.11
		c0.24-0.07,0.42-0.2,0.56-0.38c0.14-0.19,0.24-0.42,0.3-0.69l2.38-10.48c0.06-0.29,0.12-0.58,0.17-0.87s0.08-0.54,0.08-0.76
		c0-0.43-0.07-0.71-0.2-0.85s-0.42-0.22-0.86-0.22c-0.17,0-0.38,0.03-0.64,0.1s-0.46,0.12-0.6,0.15l0.17-0.73
		c0.58-0.26,1.1-0.46,1.56-0.6s0.86-0.21,1.18-0.21c0.53,0,0.93,0.14,1.21,0.4c0.27,0.27,0.44,0.64,0.51,1.12h0.09
		c0.52-0.48,1.07-0.87,1.66-1.19c0.59-0.31,1.17-0.47,1.76-0.47c1.15,0,2.05,0.39,2.69,1.18
		C496.4,273.79,496.72,274.84,496.72,276.17z M493.16,280.88c0.39-0.62,0.69-1.33,0.89-2.13c0.21-0.79,0.31-1.64,0.31-2.53
		c0-0.4-0.04-0.81-0.11-1.21s-0.19-0.74-0.35-1.01c-0.17-0.3-0.39-0.53-0.68-0.69c-0.29-0.16-0.67-0.25-1.14-0.25
		c-0.35,0-0.73,0.11-1.16,0.32c-0.42,0.21-0.94,0.61-1.54,1.2l-1.45,6.46c0.05,0.43,0.29,0.84,0.7,1.21
		c0.41,0.38,0.91,0.56,1.5,0.56c0.6,0,1.16-0.17,1.68-0.52S492.79,281.48,493.16,280.88z"/>
</g>
<g>
	<path class="st10" d="M1260.09,521.29l-0.16,0.69l-22.9,25.54h6.3c1.11,0,2.3-0.09,3.58-0.27c1.28-0.18,2.16-0.46,2.62-0.84
		c1.03-0.8,2.05-1.79,3.06-2.94c1.02-1.16,1.82-2.19,2.42-3.12h1.37l-2.93,8.65h-22.23l0.18-0.69l22.9-25.54h-6.11
		c-0.77,0-1.39,0.03-1.86,0.08s-0.95,0.12-1.42,0.19c-0.92,0.17-2.08,0.89-3.46,2.17c-1.38,1.28-2.51,2.58-3.4,3.9h-1.37l2.66-7.83
		H1260.09z"/>
	<path d="M1289.91,535.66h-19.71v-2.44h19.71V535.66z M1289.91,542.93h-19.71v-2.44h19.71V542.93z"/>
	<path class="st8" d="M1320.32,529.88l-0.25,1.15l-13.96,16.43c0.47,0.01,0.98,0.02,1.53,0.03c0.55,0.01,1.15,0.01,1.8,0.01
		c0.51,0,1.04-0.01,1.6-0.03s1.27-0.05,2.13-0.09c0.52-0.03,0.95-0.21,1.28-0.55c0.33-0.34,0.61-0.72,0.83-1.13
		c0.2-0.34,0.48-0.87,0.84-1.59c0.36-0.72,0.66-1.36,0.9-1.9h1.17l-1.33,6.8h-15.31l0.31-1.37l13.75-16.21h-2.56
		c-1.13,0-2.03,0.02-2.68,0.06c-0.65,0.04-1.27,0.17-1.84,0.39c-0.43,0.16-0.87,0.61-1.33,1.35c-0.46,0.74-0.89,1.6-1.29,2.58h-1.19
		l1.15-5.92H1320.32z"/>
	<path d="M1352.69,535.66h-19.71v-2.44h19.71V535.66z M1352.69,542.93h-19.71v-2.44h19.71V542.93z"/>
	<path d="M1387.3,546.73l-0.29,1.25c-1.18,0.47-2.09,0.81-2.74,1.03c-0.65,0.21-1.31,0.32-1.98,0.32c-1.05,0-1.83-0.27-2.35-0.81
		c-0.52-0.54-0.78-1.21-0.78-2c0-0.29,0.03-0.6,0.08-0.95c0.05-0.35,0.14-0.75,0.25-1.22l1.93-7.29c0.14-0.56,0.26-1.07,0.34-1.52
		c0.08-0.46,0.13-0.82,0.13-1.1c0-0.87-0.21-1.56-0.62-2.07c-0.41-0.51-1.03-0.76-1.84-0.76c-0.79,0-1.67,0.26-2.65,0.78
		c-0.98,0.52-1.91,1.28-2.77,2.27l-3.34,14.35H1367l2.93-12.67c0.07-0.31,0.16-0.77,0.28-1.36s0.19-1.07,0.19-1.44
		c0-0.73-0.12-1.22-0.37-1.47s-0.75-0.37-1.49-0.37c-0.29,0-0.66,0.05-1.1,0.15c-0.44,0.1-0.79,0.18-1.04,0.24l0.29-1.25
		c1.02-0.46,1.92-0.79,2.71-1.02c0.79-0.22,1.46-0.33,2.02-0.33c1.03,0,1.77,0.28,2.22,0.84c0.44,0.56,0.68,1.34,0.71,2.33h0.12
		c1.43-1.15,2.66-2,3.7-2.55s2.22-0.83,3.54-0.83c1.25,0,2.22,0.36,2.92,1.08c0.7,0.72,1.05,1.67,1.05,2.85
		c0,0.23-0.04,0.65-0.11,1.25c-0.07,0.6-0.19,1.19-0.34,1.78l-1.64,6.28c-0.12,0.42-0.23,0.9-0.34,1.44s-0.17,0.96-0.17,1.26
		c0,0.74,0.16,1.25,0.49,1.52c0.33,0.27,0.86,0.4,1.6,0.4c0.25,0,0.6-0.04,1.07-0.13C1386.69,546.91,1387.05,546.83,1387.3,546.73z"
		/>
	<path d="M1394.72,561.08l-0.17,0.73c-0.7,0.28-1.26,0.48-1.67,0.59c-0.42,0.11-0.77,0.17-1.07,0.17c-0.61,0-1.06-0.16-1.37-0.47
		s-0.46-0.7-0.46-1.17c0-0.17,0.01-0.36,0.04-0.55c0.03-0.19,0.08-0.43,0.15-0.72l1.2-4.84c0.06-0.27,0.12-0.55,0.18-0.85
		c0.06-0.3,0.09-0.56,0.09-0.78c0-0.43-0.07-0.71-0.21-0.85c-0.14-0.14-0.43-0.21-0.86-0.21c-0.17,0-0.39,0.03-0.67,0.08
		s-0.49,0.1-0.63,0.14l0.17-0.73c0.59-0.27,1.12-0.46,1.59-0.59c0.47-0.13,0.84-0.19,1.12-0.19c0.62,0,1.07,0.15,1.35,0.44
		c0.28,0.3,0.42,0.7,0.42,1.2c0,0.14-0.02,0.32-0.05,0.56s-0.08,0.47-0.14,0.71l-1.21,4.84c-0.08,0.3-0.14,0.59-0.2,0.87
		c-0.06,0.28-0.08,0.52-0.08,0.7c0,0.43,0.1,0.73,0.29,0.89c0.19,0.16,0.5,0.24,0.94,0.24c0.14,0,0.35-0.02,0.62-0.06
		S1394.58,561.13,1394.72,561.08z M1395.53,546.52c0,0.43-0.14,0.81-0.42,1.13c-0.28,0.32-0.63,0.48-1.05,0.48
		c-0.39,0-0.72-0.15-1-0.46s-0.42-0.66-0.42-1.05c0-0.42,0.14-0.78,0.42-1.09c0.28-0.31,0.62-0.47,1-0.47
		c0.43,0,0.79,0.15,1.06,0.44C1395.39,545.79,1395.53,546.13,1395.53,546.52z"/>
</g>
<g>
	<path class="st9" d="M1305.24,286.88l-0.25,1.15l-13.96,16.43c0.47,0.01,0.98,0.02,1.53,0.03c0.55,0.01,1.15,0.01,1.8,0.01
		c0.51,0,1.04-0.01,1.6-0.03s1.27-0.05,2.13-0.09c0.52-0.03,0.95-0.21,1.28-0.55c0.33-0.34,0.61-0.72,0.83-1.13
		c0.2-0.34,0.48-0.87,0.84-1.59s0.67-1.36,0.9-1.9h1.17l-1.33,6.8h-15.31l0.31-1.37l13.75-16.21h-2.56c-1.14,0-2.03,0.02-2.68,0.06
		s-1.27,0.17-1.84,0.39c-0.43,0.16-0.87,0.61-1.33,1.35s-0.89,1.6-1.29,2.58h-1.19l1.15-5.92H1305.24z"/>
	<path class="st9" d="M1316.53,281.8c-0.51,0.65-1.28,1.68-2.3,3.09s-2.21,3-3.54,4.77h-1.41c0.66-1.78,1.27-3.43,1.82-4.94
		c0.55-1.51,1.03-2.87,1.45-4.08c0.39-1.13,0.85-1.93,1.38-2.38c0.53-0.46,1.16-0.68,1.9-0.68c0.66,0,1.13,0.19,1.41,0.58
		c0.27,0.38,0.41,0.78,0.41,1.2c0,0.36-0.1,0.76-0.3,1.18C1317.14,280.94,1316.87,281.37,1316.53,281.8z"/>
	<path d="M1350.46,292.66h-19.71v-2.44h19.71V292.66z M1350.46,299.93h-19.71v-2.44h19.71V299.93z"/>
	<path d="M1385.07,303.73l-0.29,1.25c-1.18,0.47-2.09,0.81-2.74,1.03s-1.31,0.32-1.98,0.32c-1.05,0-1.83-0.27-2.35-0.81
		c-0.52-0.54-0.78-1.21-0.78-2c0-0.29,0.03-0.6,0.08-0.95c0.05-0.35,0.14-0.75,0.26-1.22l1.93-7.29c0.14-0.56,0.26-1.07,0.34-1.52
		c0.08-0.46,0.13-0.82,0.13-1.1c0-0.87-0.21-1.56-0.62-2.07s-1.03-0.76-1.84-0.76c-0.79,0-1.67,0.26-2.65,0.78
		c-0.98,0.52-1.91,1.28-2.77,2.27l-3.34,14.35h-3.65l2.93-12.67c0.06-0.31,0.16-0.77,0.28-1.36c0.12-0.59,0.19-1.07,0.19-1.44
		c0-0.73-0.12-1.22-0.37-1.47c-0.25-0.25-0.75-0.37-1.49-0.37c-0.29,0-0.66,0.05-1.1,0.15c-0.45,0.1-0.79,0.18-1.04,0.24l0.29-1.25
		c1.02-0.46,1.92-0.79,2.71-1.02c0.79-0.22,1.46-0.33,2.02-0.33c1.03,0,1.77,0.28,2.22,0.84c0.45,0.56,0.68,1.34,0.71,2.33h0.12
		c1.43-1.15,2.66-2,3.7-2.55c1.04-0.55,2.22-0.83,3.54-0.83c1.25,0,2.22,0.36,2.92,1.08c0.7,0.72,1.05,1.67,1.05,2.85
		c0,0.23-0.04,0.65-0.11,1.25s-0.19,1.19-0.34,1.78l-1.64,6.28c-0.12,0.42-0.23,0.9-0.34,1.44c-0.11,0.54-0.17,0.96-0.17,1.26
		c0,0.74,0.16,1.25,0.49,1.52c0.33,0.27,0.86,0.4,1.6,0.4c0.25,0,0.6-0.04,1.06-0.13C1384.46,303.91,1384.82,303.83,1385.07,303.73z
		"/>
	<path d="M1390.34,319.66c-1.12,0-2.06-0.2-2.81-0.6c-0.75-0.4-1.12-0.92-1.12-1.57c0-0.3,0.11-0.59,0.33-0.85
		c0.22-0.27,0.49-0.4,0.81-0.4c0.3,0,0.55,0.07,0.74,0.21c0.19,0.14,0.33,0.31,0.44,0.5c0.11,0.2,0.21,0.43,0.3,0.71
		c0.09,0.27,0.16,0.5,0.22,0.67c0.11,0.13,0.27,0.25,0.47,0.36s0.49,0.17,0.87,0.17c0.82,0,1.44-0.21,1.86-0.62
		c0.42-0.41,0.63-0.97,0.63-1.67c0-0.52-0.2-0.93-0.59-1.24s-0.98-0.59-1.76-0.85c-0.28-0.09-0.61-0.23-0.99-0.42
		c-0.38-0.19-0.68-0.39-0.91-0.6c-0.27-0.24-0.49-0.53-0.66-0.87c-0.17-0.33-0.25-0.73-0.25-1.19c0-0.97,0.43-1.82,1.3-2.53
		c0.87-0.71,1.94-1.07,3.21-1.07c0.3,0,0.62,0.02,0.96,0.05c0.34,0.03,0.72,0.11,1.13,0.25c0.36,0.12,0.66,0.3,0.91,0.54
		c0.25,0.24,0.38,0.55,0.38,0.93c0,0.31-0.1,0.59-0.31,0.85c-0.21,0.25-0.48,0.38-0.83,0.38c-0.28,0-0.51-0.06-0.69-0.18
		s-0.33-0.28-0.46-0.49c-0.12-0.21-0.22-0.42-0.3-0.66c-0.08-0.24-0.16-0.47-0.25-0.69c-0.14-0.06-0.27-0.1-0.39-0.13
		c-0.11-0.02-0.27-0.03-0.46-0.03c-0.74,0-1.31,0.2-1.69,0.6c-0.38,0.4-0.58,0.87-0.58,1.42c0,0.53,0.17,0.93,0.52,1.2
		c0.35,0.27,0.92,0.55,1.71,0.84c1.03,0.37,1.78,0.8,2.25,1.28c0.47,0.48,0.7,1.07,0.7,1.78c0,1.16-0.44,2.1-1.33,2.82
		C1392.81,319.3,1391.69,319.66,1390.34,319.66z"/>
</g>
<g>
	<path d="M1233.11,206.29l-1.54,6.68h-1.46c-0.08-1.38-0.37-2.54-0.87-3.48s-1.17-1.47-2.02-1.6c-0.39-0.05-0.87-0.09-1.43-0.12
		c-0.56-0.03-1.19-0.04-1.89-0.04h-4.45l-2.58,11.15h3.13c0.97,0,1.72-0.09,2.25-0.28c0.54-0.19,1.01-0.5,1.43-0.95
		c0.39-0.39,0.77-0.93,1.13-1.61s0.63-1.26,0.78-1.73h1.46l-2.5,10.82h-1.46c0-0.14,0.01-0.32,0.03-0.52
		c0.02-0.2,0.03-0.42,0.03-0.65c0-0.48-0.03-0.94-0.1-1.39c-0.07-0.44-0.16-0.77-0.27-0.98c-0.27-0.51-0.66-0.84-1.17-1
		s-1.17-0.23-1.98-0.23h-3.11l-1.96,8.48c-0.08,0.32-0.14,0.66-0.2,1.02c-0.05,0.37-0.08,0.65-0.08,0.86c0,0.72,0.26,1.2,0.77,1.43
		c0.52,0.23,1.65,0.35,3.41,0.35c2.19,0,3.68-0.08,4.46-0.23s1.36-0.39,1.74-0.69c0.74-0.6,1.61-1.56,2.61-2.88
		c1-1.32,1.67-2.28,2-2.88h1.41l-2.4,8.16h-23.03l0.29-1.29c0.4-0.03,0.94-0.08,1.6-0.17c0.66-0.08,1.11-0.17,1.35-0.26
		c0.46-0.17,0.8-0.42,1.04-0.76c0.24-0.34,0.41-0.74,0.5-1.19l4.65-20.12c0.03-0.1,0.05-0.22,0.07-0.35
		c0.02-0.13,0.03-0.25,0.03-0.37c0-0.26-0.06-0.49-0.17-0.7c-0.11-0.21-0.31-0.38-0.6-0.53c-0.31-0.17-0.76-0.32-1.33-0.45
		c-0.57-0.13-1.02-0.21-1.35-0.23l0.29-1.29H1233.11z"/>
	<path d="M1236.25,247.66c-1.12,0-2.06-0.2-2.81-0.6c-0.75-0.4-1.12-0.92-1.12-1.57c0-0.3,0.11-0.59,0.33-0.85
		c0.22-0.27,0.49-0.4,0.81-0.4c0.3,0,0.55,0.07,0.74,0.21c0.19,0.14,0.33,0.31,0.44,0.5c0.11,0.2,0.21,0.43,0.3,0.71
		c0.09,0.27,0.16,0.5,0.22,0.67c0.11,0.13,0.27,0.25,0.47,0.36s0.49,0.17,0.87,0.17c0.82,0,1.44-0.21,1.86-0.62
		c0.42-0.41,0.63-0.97,0.63-1.67c0-0.52-0.2-0.93-0.59-1.24s-0.98-0.59-1.76-0.85c-0.28-0.09-0.61-0.23-0.99-0.42
		c-0.38-0.19-0.68-0.39-0.91-0.6c-0.27-0.24-0.49-0.53-0.66-0.87c-0.17-0.33-0.25-0.73-0.25-1.19c0-0.97,0.43-1.82,1.3-2.53
		c0.87-0.71,1.94-1.07,3.21-1.07c0.3,0,0.62,0.02,0.96,0.05c0.34,0.03,0.72,0.11,1.13,0.25c0.36,0.12,0.66,0.3,0.91,0.54
		c0.25,0.24,0.38,0.55,0.38,0.93c0,0.31-0.1,0.59-0.31,0.85c-0.21,0.25-0.48,0.38-0.83,0.38c-0.28,0-0.51-0.06-0.69-0.18
		s-0.33-0.28-0.46-0.49c-0.12-0.21-0.22-0.42-0.3-0.66c-0.08-0.24-0.16-0.47-0.25-0.69c-0.14-0.06-0.27-0.1-0.39-0.13
		c-0.11-0.02-0.27-0.03-0.46-0.03c-0.74,0-1.31,0.2-1.69,0.6c-0.38,0.4-0.58,0.87-0.58,1.42c0,0.53,0.17,0.93,0.52,1.2
		c0.35,0.27,0.92,0.55,1.71,0.84c1.03,0.37,1.78,0.8,2.25,1.28c0.47,0.48,0.7,1.07,0.7,1.78c0,1.16-0.44,2.1-1.33,2.82
		C1238.73,247.3,1237.61,247.66,1236.25,247.66z"/>
	<path d="M1246.89,246.2c0,0.65-0.15,1.25-0.44,1.8s-0.68,1.06-1.14,1.51c-0.44,0.43-0.9,0.8-1.37,1.11
		c-0.47,0.31-0.89,0.55-1.25,0.72l-0.36-0.76c0.35-0.19,0.7-0.4,1.06-0.64c0.36-0.24,0.66-0.48,0.9-0.72
		c0.3-0.3,0.56-0.59,0.77-0.88c0.21-0.29,0.37-0.64,0.5-1.05h-0.54c-0.46,0-0.81-0.12-1.04-0.35c-0.23-0.23-0.35-0.53-0.35-0.91
		c0-0.39,0.15-0.76,0.46-1.09c0.3-0.33,0.71-0.5,1.23-0.5c0.55,0,0.96,0.16,1.21,0.48C1246.77,245.26,1246.89,245.68,1246.89,246.2z
		"/>
	<path d="M1260.65,237.08c-0.01,0.44-0.17,0.77-0.48,0.97c-0.32,0.21-0.66,0.31-1.03,0.31c-0.23,0-0.49-0.04-0.77-0.12
		c-0.29-0.08-0.52-0.15-0.68-0.2c-0.34,0.3-0.74,0.75-1.19,1.34c-0.45,0.59-0.88,1.25-1.28,1.96c0.18,0.72,0.34,1.34,0.49,1.85
		c0.14,0.51,0.3,1.03,0.47,1.54c0.14,0.46,0.37,0.83,0.68,1.11c0.31,0.28,0.71,0.42,1.21,0.42c0.18,0,0.43-0.03,0.75-0.08
		c0.32-0.05,0.57-0.11,0.74-0.17l-0.21,0.76c-0.73,0.31-1.28,0.5-1.64,0.6c-0.37,0.09-0.77,0.14-1.19,0.14
		c-0.53,0-0.97-0.12-1.32-0.36c-0.34-0.24-0.62-0.74-0.84-1.5c-0.15-0.55-0.28-1.02-0.37-1.4c-0.09-0.38-0.19-0.75-0.28-1.12
		c-0.35,0.52-0.64,0.97-0.87,1.34c-0.23,0.37-0.61,0.88-1.14,1.52c-0.46,0.56-0.89,0.96-1.28,1.2c-0.39,0.24-0.78,0.35-1.18,0.35
		c-0.36,0-0.65-0.1-0.88-0.31c-0.23-0.21-0.35-0.5-0.35-0.87c0-0.36,0.14-0.66,0.41-0.92c0.27-0.25,0.65-0.38,1.13-0.38
		c0.24,0,0.48,0.04,0.71,0.13c0.23,0.09,0.47,0.17,0.72,0.24c0.29-0.27,0.67-0.7,1.14-1.28c0.47-0.58,0.92-1.23,1.33-1.97
		c-0.14-0.54-0.3-1.13-0.47-1.78c-0.17-0.65-0.33-1.21-0.48-1.7c-0.2-0.61-0.43-1-0.68-1.17s-0.59-0.26-0.99-0.26
		c-0.22,0-0.45,0.03-0.7,0.09c-0.25,0.06-0.48,0.12-0.69,0.18l0.22-0.76c0.58-0.24,1.11-0.45,1.58-0.6
		c0.47-0.16,0.78-0.23,0.95-0.23c0.52,0,0.96,0.13,1.3,0.38s0.62,0.75,0.83,1.47c0.24,0.84,0.37,1.36,0.42,1.54
		c0.04,0.19,0.12,0.55,0.24,1.1c0.36-0.56,0.66-1.04,0.89-1.42s0.6-0.9,1.12-1.54c0.48-0.6,0.92-1.01,1.33-1.24
		c0.41-0.22,0.8-0.34,1.17-0.34c0.33,0,0.62,0.11,0.85,0.32S1260.65,236.74,1260.65,237.08z"/>
	<path d="M1267.02,233.21c-0.3,0.38-0.74,0.98-1.34,1.8s-1.29,1.75-2.06,2.78h-0.82c0.39-1.04,0.74-2,1.06-2.88
		c0.32-0.88,0.6-1.67,0.84-2.38c0.23-0.66,0.5-1.12,0.8-1.39c0.31-0.27,0.68-0.4,1.11-0.4c0.39,0,0.66,0.11,0.82,0.34
		c0.16,0.22,0.24,0.46,0.24,0.7c0,0.21-0.06,0.44-0.18,0.69C1267.38,232.71,1267.22,232.96,1267.02,233.21z"/>
</g>
<g>
	<path d="M1206.11,431.29l-1.54,6.68h-1.46c-0.08-1.38-0.37-2.54-0.87-3.48s-1.17-1.47-2.02-1.6c-0.39-0.05-0.87-0.09-1.43-0.12
		c-0.56-0.03-1.19-0.04-1.89-0.04h-4.45l-2.58,11.15h3.13c0.97,0,1.72-0.09,2.25-0.28c0.54-0.19,1.01-0.5,1.43-0.95
		c0.39-0.39,0.77-0.93,1.13-1.61s0.63-1.26,0.78-1.73h1.46l-2.5,10.82h-1.46c0-0.14,0.01-0.32,0.03-0.52
		c0.02-0.2,0.03-0.42,0.03-0.65c0-0.48-0.03-0.94-0.1-1.39c-0.07-0.44-0.16-0.77-0.27-0.98c-0.27-0.51-0.66-0.84-1.17-1
		s-1.17-0.23-1.98-0.23h-3.11l-1.96,8.48c-0.08,0.32-0.14,0.66-0.2,1.02c-0.05,0.37-0.08,0.65-0.08,0.86c0,0.72,0.26,1.2,0.77,1.43
		c0.52,0.23,1.65,0.35,3.41,0.35c2.19,0,3.68-0.08,4.46-0.23s1.36-0.39,1.74-0.69c0.74-0.6,1.61-1.56,2.61-2.88
		c1-1.32,1.67-2.28,2-2.88h1.41l-2.4,8.16h-23.03l0.29-1.29c0.4-0.03,0.94-0.08,1.6-0.17c0.66-0.08,1.11-0.17,1.35-0.26
		c0.46-0.17,0.8-0.42,1.04-0.76c0.24-0.34,0.41-0.74,0.5-1.19l4.65-20.12c0.03-0.1,0.05-0.22,0.07-0.35
		c0.02-0.13,0.03-0.25,0.03-0.37c0-0.26-0.06-0.49-0.17-0.7c-0.11-0.21-0.31-0.38-0.6-0.53c-0.31-0.17-0.76-0.32-1.33-0.45
		c-0.57-0.13-1.02-0.21-1.35-0.23l0.29-1.29H1206.11z"/>
	<path d="M1209.25,472.66c-1.12,0-2.06-0.2-2.81-0.6c-0.75-0.4-1.12-0.92-1.12-1.57c0-0.3,0.11-0.59,0.33-0.85
		c0.22-0.27,0.49-0.4,0.81-0.4c0.3,0,0.55,0.07,0.74,0.21c0.19,0.14,0.33,0.31,0.44,0.5c0.11,0.2,0.21,0.43,0.3,0.71
		c0.09,0.27,0.16,0.5,0.22,0.67c0.11,0.13,0.27,0.25,0.47,0.36s0.49,0.17,0.87,0.17c0.82,0,1.44-0.21,1.86-0.62
		c0.42-0.41,0.63-0.97,0.63-1.67c0-0.52-0.2-0.93-0.59-1.24s-0.98-0.59-1.76-0.85c-0.28-0.09-0.61-0.23-0.99-0.42
		c-0.38-0.19-0.68-0.39-0.91-0.6c-0.27-0.24-0.49-0.53-0.66-0.87c-0.17-0.33-0.25-0.73-0.25-1.19c0-0.97,0.43-1.82,1.3-2.53
		c0.87-0.71,1.94-1.07,3.21-1.07c0.3,0,0.62,0.02,0.96,0.05c0.34,0.03,0.72,0.11,1.13,0.25c0.36,0.12,0.66,0.3,0.91,0.54
		c0.25,0.24,0.38,0.55,0.38,0.93c0,0.31-0.1,0.59-0.31,0.85c-0.21,0.25-0.48,0.38-0.83,0.38c-0.28,0-0.51-0.06-0.69-0.18
		s-0.33-0.28-0.46-0.49c-0.12-0.21-0.22-0.42-0.3-0.66c-0.08-0.24-0.16-0.47-0.25-0.69c-0.14-0.06-0.27-0.1-0.39-0.13
		c-0.11-0.02-0.27-0.03-0.46-0.03c-0.74,0-1.31,0.2-1.69,0.6c-0.38,0.4-0.58,0.87-0.58,1.42c0,0.53,0.17,0.93,0.52,1.2
		c0.35,0.27,0.92,0.55,1.71,0.84c1.03,0.37,1.78,0.8,2.25,1.28c0.47,0.48,0.7,1.07,0.7,1.78c0,1.16-0.44,2.1-1.33,2.82
		C1211.73,472.3,1210.61,472.66,1209.25,472.66z"/>
	<path d="M1219.89,471.2c0,0.65-0.15,1.25-0.44,1.8s-0.68,1.06-1.14,1.51c-0.44,0.43-0.9,0.8-1.37,1.11
		c-0.47,0.31-0.89,0.55-1.25,0.72l-0.36-0.76c0.35-0.19,0.7-0.4,1.06-0.64c0.36-0.24,0.66-0.48,0.9-0.72
		c0.3-0.3,0.56-0.59,0.77-0.88c0.21-0.29,0.37-0.64,0.5-1.05h-0.54c-0.46,0-0.81-0.12-1.04-0.35c-0.23-0.23-0.35-0.53-0.35-0.91
		c0-0.39,0.15-0.76,0.46-1.09c0.3-0.33,0.71-0.5,1.23-0.5c0.55,0,0.96,0.16,1.21,0.48C1219.77,470.26,1219.89,470.68,1219.89,471.2z
		"/>
	<path d="M1229.64,470.67h-0.07c-0.7,0.58-1.36,1.04-1.99,1.38c-0.63,0.33-1.35,0.5-2.15,0.5c-0.73,0-1.31-0.21-1.73-0.63
		c-0.42-0.42-0.64-0.97-0.64-1.66c0-0.18,0.01-0.4,0.05-0.65c0.03-0.25,0.1-0.62,0.22-1.12l0.89-3.55c0.08-0.34,0.15-0.64,0.19-0.89
		c0.04-0.25,0.07-0.5,0.07-0.73c0-0.43-0.07-0.71-0.21-0.85c-0.14-0.14-0.43-0.21-0.86-0.21c-0.17,0-0.38,0.03-0.64,0.1
		c-0.26,0.06-0.46,0.12-0.6,0.15l0.17-0.73c0.59-0.27,1.11-0.47,1.57-0.61s0.81-0.21,1.09-0.21c0.61,0,1.06,0.14,1.35,0.41
		c0.29,0.27,0.44,0.68,0.44,1.23c0,0.14-0.01,0.32-0.04,0.56c-0.03,0.24-0.08,0.47-0.14,0.71l-1.03,4.16
		c-0.08,0.32-0.14,0.62-0.19,0.89c-0.05,0.28-0.08,0.49-0.08,0.63c0,0.51,0.12,0.91,0.37,1.21s0.61,0.44,1.09,0.44
		c0.55,0,1.1-0.14,1.62-0.41c0.53-0.27,1.03-0.65,1.49-1.13l1.88-8.52l1.97-0.14l0.14,0.17l-1.96,8.92
		c-0.29,1.31-0.66,2.42-1.11,3.35c-0.45,0.93-0.97,1.67-1.57,2.24c-0.63,0.6-1.31,1.03-2.04,1.3s-1.56,0.4-2.49,0.4
		c-0.65,0-1.16-0.05-1.54-0.14c-0.38-0.09-0.68-0.22-0.9-0.38c-0.22-0.15-0.37-0.32-0.44-0.51c-0.08-0.19-0.11-0.38-0.11-0.57
		c0-0.33,0.1-0.61,0.3-0.87c0.2-0.25,0.48-0.38,0.85-0.38c0.28,0,0.52,0.08,0.72,0.24c0.2,0.16,0.36,0.33,0.48,0.52
		c0.14,0.21,0.26,0.44,0.38,0.69c0.11,0.26,0.21,0.46,0.27,0.62h0.27c0.43,0,0.89-0.11,1.37-0.32c0.48-0.21,0.92-0.54,1.33-0.99
		c0.43-0.49,0.82-1.11,1.17-1.88C1229.16,472.66,1229.44,471.74,1229.64,470.67z"/>
</g>
<g>
	<g>
		<path class="st2" d="M887.58,470.43c2.25,10.91,3.42,22.12,3.42,33.57"/>
		<g>
			<polygon points="882,450 877.81,481.97 887.8,472.01 901.39,475.76 			"/>
		</g>
	</g>
</g>
<g>
	<path d="M933.82,469.49c0,2.54-0.39,5.28-1.17,8.21c-0.78,2.94-1.92,5.51-3.42,7.72c-1.3,1.89-2.64,3.22-4.01,3.99
		s-2.8,1.16-4.27,1.16c-1.22,0-2.28-0.26-3.16-0.77s-1.6-1.21-2.15-2.08c-0.56-0.9-0.96-1.94-1.21-3.12
		c-0.25-1.18-0.37-2.45-0.37-3.81c0-2.45,0.36-5.13,1.09-8.04s1.88-5.54,3.44-7.88c1.07-1.59,2.3-2.84,3.69-3.77
		c1.39-0.92,2.94-1.39,4.63-1.39c1.25,0,2.31,0.26,3.19,0.77c0.88,0.51,1.59,1.21,2.14,2.1c0.55,0.87,0.95,1.89,1.2,3.07
		S933.82,468.11,933.82,469.49z M929.19,475.45h-10.64l-0.14,0.72c-0.29,1.48-0.48,2.76-0.58,3.84s-0.15,2.04-0.15,2.9
		c0,2.12,0.29,3.7,0.86,4.74s1.46,1.55,2.66,1.55c0.74,0,1.48-0.22,2.23-0.67s1.45-1.17,2.11-2.18c0.66-1.03,1.3-2.35,1.89-3.97
		s1.14-3.69,1.62-6.2L929.19,475.45z M930.14,467.29c0-2.19-0.32-3.76-0.96-4.73c-0.64-0.96-1.49-1.45-2.56-1.45
		c-0.73,0-1.45,0.22-2.17,0.65c-0.72,0.44-1.42,1.17-2.11,2.2c-0.68,0.99-1.31,2.3-1.89,3.93c-0.59,1.63-1.11,3.59-1.58,5.9h10.64
		c0.25-1.31,0.41-2.49,0.5-3.53S930.14,468.24,930.14,467.29z"/>
</g>
<g>
	<g>
		<path class="st2" d="M646.19,442.71C657.18,435.92,670.13,432,684,432"/>
		<g>
			<polygon points="630,456.38 660.86,447.02 647.67,442.02 645.47,428.09 			"/>
		</g>
	</g>
</g>
<g>
	<path d="M656.97,401.69c0,1.92-0.39,3.68-1.17,5.27c-0.78,1.6-1.8,2.94-3.05,4.02c-1.26,1.1-2.69,1.96-4.29,2.58
		c-1.59,0.63-3.21,0.97-4.85,1.02l-1.73,8.09h-3.66l1.75-8.09c-2.8-0.12-4.94-0.93-6.44-2.45c-1.49-1.51-2.24-3.41-2.24-5.69
		c0-3.03,0.91-5.59,2.74-7.7c1.83-2.11,4.31-3.53,7.45-4.26v1.5c-1.84,0.56-3.34,1.82-4.5,3.78c-1.17,1.96-1.75,4.31-1.75,7.05
		c0,1.88,0.45,3.4,1.35,4.55c0.9,1.16,2.13,1.75,3.69,1.79l3.05-13.9c0.22-1,0.56-1.82,1.03-2.45c0.47-0.63,0.98-1.12,1.54-1.49
		c0.55-0.37,1.19-0.63,1.93-0.8c0.74-0.17,1.42-0.25,2.05-0.25c0.86,0,1.7,0.15,2.54,0.45c0.83,0.3,1.58,0.74,2.24,1.33
		c0.69,0.61,1.24,1.37,1.67,2.28S656.97,400.36,656.97,401.69z M653.03,400.77c0-1.59-0.3-2.83-0.91-3.73
		c-0.61-0.89-1.4-1.34-2.39-1.34c-0.62,0-1.14,0.18-1.57,0.53c-0.43,0.35-0.74,1.02-0.95,2l-3.28,14.94
		c1.51-0.1,2.84-0.54,3.99-1.31c1.15-0.77,2.09-1.72,2.82-2.84c0.75-1.16,1.32-2.45,1.71-3.87
		C652.84,403.73,653.03,402.27,653.03,400.77z"/>
</g>
<g>
	<path d="M721.85,531.95c0,2.47-0.46,4.8-1.37,6.98c-0.91,2.18-2.1,4.05-3.57,5.6c-1.51,1.59-3.23,2.84-5.17,3.76
		s-3.94,1.38-6.01,1.38c-3.23,0-5.83-1.05-7.81-3.14c-1.98-2.1-2.97-4.79-2.97-8.07c0-2.53,0.46-4.87,1.37-7.04s2.1-4.04,3.55-5.62
		c1.47-1.6,3.19-2.86,5.15-3.79c1.96-0.92,3.97-1.39,6.04-1.39c3.18,0,5.77,1.03,7.77,3.08S721.85,528.5,721.85,531.95z
		 M714.39,542.38c0.92-1.61,1.63-3.44,2.13-5.47s0.74-4.06,0.74-6.09c0-2.6-0.55-4.68-1.66-6.23c-1.11-1.55-2.73-2.32-4.88-2.32
		c-1.67,0-3.22,0.5-4.65,1.48c-1.43,0.99-2.68,2.44-3.75,4.36c-0.92,1.68-1.62,3.53-2.08,5.55c-0.46,2.02-0.69,3.92-0.69,5.7
		c0,2.73,0.56,4.86,1.69,6.39s2.74,2.29,4.83,2.29c1.78,0,3.39-0.53,4.8-1.6C712.29,545.35,713.46,544.01,714.39,542.38z"/>
</g>
<g>
	<g>
		<line class="st2" x1="684" y1="504" x2="625.4" y2="780.28"/>
		<g>
			<polygon points="621,801 615.26,769.27 625.72,778.73 639.12,774.33 			"/>
		</g>
	</g>
</g>
<g>
	<path class="st10" d="M686.63,773.29l-0.31,1.29c-0.23,0.01-0.6,0.09-1.09,0.24c-0.49,0.15-0.88,0.32-1.17,0.5
		c-0.57,0.3-0.97,0.54-1.2,0.71c-0.23,0.18-0.68,0.62-1.36,1.34c-1.24,1.3-2.55,2.83-3.95,4.57c-1.39,1.75-2.85,3.57-4.38,5.47
		c-0.68,0.83-1.15,1.51-1.42,2.02c-0.27,0.51-0.52,1.25-0.76,2.22l-1.23,5.39c-0.03,0.1-0.04,0.22-0.06,0.35
		c-0.01,0.13-0.02,0.24-0.02,0.33c0,0.33,0.06,0.6,0.17,0.82c0.12,0.22,0.34,0.41,0.66,0.57c0.29,0.13,0.77,0.26,1.44,0.39
		c0.67,0.13,1.2,0.2,1.59,0.21l-0.29,1.29H660.3l0.29-1.29c0.38-0.03,0.93-0.07,1.66-0.14c0.73-0.06,1.26-0.16,1.6-0.29
		c0.52-0.2,0.91-0.46,1.16-0.81c0.25-0.34,0.43-0.76,0.54-1.24l1.41-6.07c0.04-0.2,0.08-0.39,0.12-0.59s0.06-0.31,0.06-0.35
		c0-0.31-0.06-0.72-0.18-1.22c-0.12-0.5-0.26-1.03-0.43-1.59c-0.44-1.55-0.92-3.16-1.42-4.82c-0.5-1.67-1-3.23-1.49-4.69
		c-0.25-0.72-0.5-1.27-0.75-1.67c-0.25-0.4-0.56-0.73-0.93-1.01c-0.26-0.2-0.6-0.34-1.01-0.45c-0.41-0.1-0.79-0.17-1.14-0.2
		l0.31-1.29h11.36l-0.31,1.29c-0.3,0.01-0.68,0.03-1.15,0.06c-0.47,0.03-0.89,0.07-1.27,0.12c-0.36,0.05-0.69,0.15-0.99,0.3
		c-0.29,0.15-0.44,0.34-0.44,0.58c0,0.25,0.08,0.67,0.25,1.28c0.17,0.61,0.44,1.51,0.8,2.71c0.31,1.04,0.68,2.21,1.11,3.51
		s0.9,2.77,1.42,4.43c1.9-2.31,3.6-4.4,5.09-6.29c1.49-1.88,2.5-3.19,3.02-3.92c0.4-0.56,0.64-0.92,0.72-1.08
		c0.08-0.16,0.12-0.3,0.12-0.42c0-0.44-0.32-0.76-0.96-0.94c-0.64-0.18-1.44-0.29-2.4-0.33l0.31-1.29H686.63z"/>
</g>
<g>
	<rect x="718.18" y="909" class="st0" width="1.82" height="3.62"/>
</g>
<g>
</g>
<g>
</g>
<g>
</g>
<g>
</g>
<g>
</g>
<g>
</g>
<g>
</g>
<g>
</g>
<g>
</g>
<g>
</g>
<g>
</g>
<g>
</g>
<g>
</g>
<g>
</g>
<g>
</g>
<g>
</g>
<g>
</g>
</svg>
