<?xml version="1.0" encoding="UTF-8"?>
<svg xmlns="http://www.w3.org/2000/svg" xmlns:xlink="http://www.w3.org/1999/xlink" width="880pt" height="116pt" viewBox="0 0 880 116" version="1.1">
<defs>
<clipPath id="clip1">
  <path d="M 6 0 L 873 0 L 873 115.199219 L 6 115.199219 Z M 6 0 "/>
</clipPath>
</defs>
<g id="surface52">
<g clip-path="url(#clip1)" clip-rule="nonzero">
<path style="fill:none;stroke-width:2.5;stroke-linecap:square;stroke-linejoin:miter;stroke:rgb(0%,0%,0%);stroke-opacity:1;stroke-miterlimit:3.25;" d="M 105.207031 63.511719 L 105.257813 63.558594 L 105.390625 63.605469 L 105.4375 63.617188 L 105.484375 63.625 L 105.539063 63.636719 L 105.59375 63.644531 L 105.710938 63.660156 L 105.832031 63.675781 L 106.0625 63.699219 L 106.242188 63.722656 L 106.335938 63.746094 L 106.304688 63.785156 L 106.269531 63.796875 L 106.226563 63.8125 L 106.167969 63.832031 L 106.101563 63.851563 L 106.023438 63.871094 L 105.933594 63.898438 L 105.71875 63.953125 L 105.597656 63.984375 L 105.464844 64.019531 L 105.167969 64.097656 L 104.484375 64.285156 L 104.296875 64.339844 L 104.109375 64.398438 L 103.722656 64.515625 L 103.527344 64.578125 L 103.332031 64.644531 L 102.949219 64.777344 L 102.855469 64.808594 L 102.761719 64.84375 L 102.582031 64.914063 L 102.242188 65.046875 L 102.082031 65.117188 L 101.933594 65.183594 L 101.671875 65.308594 L 101.566406 65.367188 L 101.46875 65.421875 L 101.386719 65.472656 L 101.320313 65.523438 L 101.222656 65.613281 L 101.179688 65.6875 L 101.273438 65.78125 L 101.601563 65.796875 L 101.847656 65.773438 L 102.144531 65.730469 L 102.484375 65.664063 L 102.859375 65.578125 L 103.058594 65.53125 L 103.265625 65.476563 L 103.695313 65.359375 L 104.589844 65.085938 L 104.808594 65.015625 L 105.027344 64.941406 L 105.453125 64.796875 L 106.238281 64.507813 L 106.328125 64.472656 L 106.414063 64.441406 L 106.582031 64.375 L 106.886719 64.253906 L 107.351563 64.0625 L 107.4375 64.027344 L 107.507813 64 L 107.5625 63.976563 L 107.605469 63.960938 L 107.648438 63.949219 L 107.636719 63.960938 L 107.609375 63.980469 L 107.566406 64.007813 L 107.449219 64.078125 L 107.066406 64.3125 L 107.003906 64.351563 L 106.933594 64.390625 L 106.792969 64.480469 L 106.484375 64.679688 L 105.789063 65.136719 L 105.695313 65.199219 L 105.605469 65.261719 L 105.421875 65.390625 L 105.058594 65.652344 L 104.367188 66.175781 L 104.210938 66.300781 L 104.0625 66.421875 L 103.792969 66.65625 L 103.671875 66.765625 L 103.5625 66.867188 L 103.46875 66.964844 L 103.382813 67.050781 L 103.183594 67.324219 L 103.203125 67.441406 L 103.417969 67.410156 L 103.796875 67.238281 L 103.914063 67.171875 L 104.039063 67.101563 L 104.304688 66.941406 L 104.902344 66.550781 L 105.214844 66.332031 L 105.535156 66.097656 L 106.15625 65.625 L 107.191406 64.777344 L 107.246094 64.730469 L 107.296875 64.683594 L 107.394531 64.597656 L 107.566406 64.449219 L 107.636719 64.386719 L 107.695313 64.332031 L 107.746094 64.289063 L 107.789063 64.253906 L 107.859375 64.207031 L 107.792969 64.300781 L 107.761719 64.34375 L 107.722656 64.394531 L 107.628906 64.511719 L 107.398438 64.816406 L 107.273438 64.988281 L 107.148438 65.164063 L 106.914063 65.511719 L 106.863281 65.59375 L 106.816406 65.671875 L 106.773438 65.746094 L 106.734375 65.8125 L 106.671875 65.9375 L 106.628906 66.035156 L 106.605469 66.15625 L 106.664063 66.167969 L 106.722656 66.128906 L 106.796875 66.066406 L 106.886719 65.976563 L 106.984375 65.867188 L 107.09375 65.742188 L 107.207031 65.601563 L 107.4375 65.300781 L 107.488281 65.226563 L 107.539063 65.15625 L 107.636719 65.019531 L 107.8125 64.765625 L 107.847656 64.710938 L 107.882813 64.660156 L 107.945313 64.566406 L 107.96875 64.527344 L 108.015625 64.464844 L 108.03125 64.441406 L 108.074219 64.394531 L 108.074219 64.425781 L 108.0625 64.46875 L 108.042969 64.527344 L 107.996094 64.683594 L 107.964844 64.78125 L 107.929688 64.882813 L 107.902344 64.988281 L 107.875 65.089844 L 107.835938 65.265625 L 107.824219 65.390625 L 107.84375 65.4375 L 107.890625 65.40625 L 107.921875 65.363281 L 107.957031 65.296875 L 107.976563 65.261719 L 107.996094 65.21875 L 108.039063 65.128906 L 108.058594 65.082031 L 108.082031 65.035156 L 108.121094 64.9375 L 108.199219 64.738281 L 108.214844 64.6875 L 108.230469 64.640625 L 108.261719 64.554688 L 108.3125 64.410156 L 108.34375 64.328125 L 108.359375 64.316406 L 108.363281 64.339844 L 108.363281 64.382813 L 108.355469 64.515625 L 108.332031 64.925781 L 108.328125 65.386719 L 108.339844 65.574219 L 108.359375 65.714844 L 108.390625 65.789063 L 108.425781 65.796875 L 108.445313 65.773438 L 108.464844 65.734375 L 108.484375 65.679688 L 108.503906 65.613281 L 108.519531 65.539063 L 108.535156 65.460938 L 108.5625 65.304688 L 108.578125 65.238281 L 108.589844 65.183594 L 108.601563 65.144531 L 108.613281 65.121094 L 108.640625 65.140625 L 108.679688 65.25 L 108.6875 65.289063 L 108.699219 65.332031 L 108.726563 65.433594 L 108.785156 65.683594 L 108.804688 65.757813 L 108.824219 65.828125 L 108.863281 65.980469 L 108.949219 66.296875 L 108.972656 66.371094 L 108.996094 66.449219 L 109.042969 66.597656 L 109.070313 66.667969 L 109.09375 66.734375 L 109.140625 66.855469 L 109.1875 66.960938 L 109.234375 67.046875 L 109.277344 67.109375 L 109.3125 67.152344 L 109.378906 67.160156 L 109.421875 67.070313 L 109.441406 66.898438 L 109.441406 66.5 L 109.453125 66.371094 L 109.503906 66.363281 L 109.609375 66.511719 L 109.648438 66.574219 L 109.691406 66.648438 L 109.789063 66.828125 L 110.050781 67.324219 L 110.128906 67.472656 L 110.214844 67.628906 L 110.394531 67.96875 L 110.816406 68.726563 L 110.871094 68.824219 L 110.929688 68.921875 L 111.046875 69.125 L 111.285156 69.527344 L 111.410156 69.722656 L 111.53125 69.921875 L 111.777344 70.296875 L 111.839844 70.390625 L 111.898438 70.476563 L 112.019531 70.648438 L 112.25 70.964844 L 112.359375 71.109375 L 112.464844 71.238281 L 112.566406 71.355469 L 112.660156 71.457031 L 112.953125 71.710938 L 113.132813 71.738281 L 113.1875 71.539063 L 113.109375 71.140625 L 113.03125 70.878906 L 112.925781 70.585938 L 112.867188 70.433594 L 112.804688 70.273438 L 112.671875 69.953125 L 112.53125 69.632813 L 112.398438 69.332031 L 112.332031 69.1875 L 112.273438 69.054688 L 112.21875 68.929688 L 112.171875 68.816406 L 112.078125 68.496094 L 112.230469 68.53125 L 112.316406 68.605469 L 112.429688 68.710938 L 112.722656 69.007813 L 113.625 69.960938 L 113.769531 70.113281 L 113.917969 70.273438 L 114.242188 70.617188 L 114.96875 71.382813 L 116.734375 73.207031 L 121.246094 77.558594 L 121.53125 77.820313 L 122.398438 78.59375 L 123.550781 79.59375 L 123.835938 79.835938 L 124.121094 80.074219 L 124.683594 80.539063 L 125.777344 81.414063 L 126.042969 81.617188 L 126.304688 81.816406 L 126.8125 82.191406 L 127.765625 82.863281 L 127.988281 83.011719 L 128.203125 83.152344 L 128.617188 83.40625 L 128.996094 83.628906 L 129.347656 83.816406 L 130.394531 84.179688 L 130.804688 83.925781 L 130.757813 83.566406 L 130.546875 83.070313 L 130.378906 82.769531 L 130.175781 82.441406 L 129.65625 81.699219 L 129.492188 81.480469 L 129.316406 81.257813 L 128.945313 80.789063 L 128.109375 79.800781 L 126.199219 77.71875 L 125.949219 77.457031 L 125.703125 77.203125 L 125.214844 76.695313 L 124.273438 75.742188 L 124.050781 75.515625 L 123.835938 75.300781 L 123.433594 74.890625 L 122.75 74.179688 L 122.609375 74.027344 L 122.484375 73.886719 L 122.371094 73.761719 L 122.277344 73.644531 L 122.140625 73.457031 L 122.078125 73.324219 L 122.199219 73.238281 L 122.695313 73.410156 L 122.882813 73.496094 L 123.09375 73.601563 L 123.605469 73.859375 L 124.972656 74.59375 L 129.164063 76.921875 L 129.816406 77.28125 L 130.5 77.660156 L 131.957031 78.460938 L 135.230469 80.238281 L 143.117188 84.394531 L 144.214844 84.957031 L 145.339844 85.527344 L 147.652344 86.691406 L 152.511719 89.082031 L 162.894531 93.929688 L 164.230469 94.527344 L 165.570313 95.117188 L 168.25 96.28125 L 173.578125 98.507813 L 174.890625 99.039063 L 176.199219 99.558594 L 178.769531 100.558594 L 183.722656 102.378906 L 184.90625 102.792969 L 186.066406 103.1875 L 188.3125 103.921875 L 189.390625 104.257813 L 190.4375 104.574219 L 192.429688 105.140625 L 193.375 105.390625 L 194.28125 105.617188 L 195.144531 105.820313 L 195.96875 106 L 197.488281 106.285156 L 198.828125 106.46875 L 200.792969 106.539063 L 202.023438 106.238281 L 202.460938 105.566406 L 202.066406 104.527344 L 201.835938 104.214844 L 201.550781 103.875 L 201.210938 103.515625 L 200.820313 103.136719 L 200.371094 102.734375 L 199.871094 102.3125 L 198.710938 101.410156 L 198.050781 100.933594 L 197.335938 100.433594 L 195.753906 99.382813 L 191.984375 97.082031 L 190.921875 96.46875 L 189.808594 95.84375 L 187.449219 94.554688 L 182.226563 91.847656 L 170.117188 86.109375 L 168.480469 85.378906 L 166.828125 84.648438 L 163.476563 83.191406 L 156.644531 80.328125 L 143.105469 75.003906 L 141.347656 74.34375 L 139.621094 73.703125 L 136.273438 72.476563 L 130.136719 70.292969 L 128.742188 69.8125 L 127.410156 69.351563 L 124.964844 68.519531 L 121.039063 67.210938 L 120.285156 66.960938 L 119.632813 66.746094 L 119.082031 66.5625 L 118.640625 66.410156 L 118.308594 66.292969 L 118.097656 66.210938 L 118.003906 66.164063 L 118.035156 66.152344 L 118.195313 66.175781 L 118.488281 66.230469 L 118.917969 66.324219 L 119.484375 66.457031 L 123.230469 67.328125 L 124.550781 67.636719 L 126.03125 67.980469 L 129.484375 68.769531 L 138.441406 70.75 L 141.117188 71.324219 L 143.976563 71.929688 L 150.242188 73.234375 L 165.011719 76.183594 L 169.175781 76.984375 L 173.53125 77.808594 L 182.816406 79.523438 L 203.675781 83.191406 L 254.425781 91.15625 L 261.105469 92.113281 L 267.9375 93.074219 L 282.054688 94.992188 L 312.003906 98.789063 L 319.832031 99.722656 L 327.792969 100.648438 L 344.089844 102.464844 L 378.097656 105.933594 L 386.871094 106.757813 L 395.742188 107.5625 L 413.765625 109.109375 L 422.910156 109.851563 L 432.132813 110.566406 L 450.808594 111.917969 L 460.246094 112.554688 L 469.746094 113.164063 L 479.300781 113.742188 L 488.90625 114.289063 L 498.554688 114.800781 L 508.242188 115.285156 L 517.964844 115.730469 L 527.714844 116.144531 L 537.488281 116.523438 L 547.273438 116.867188 L 557.074219 117.171875 L 566.875 117.4375 L 586.46875 117.855469 L 606.003906 118.113281 L 644.707031 118.136719 L 682.585938 117.476563 L 691.878906 117.203125 L 701.09375 116.886719 L 710.21875 116.527344 L 719.246094 116.125 L 728.171875 115.675781 L 736.996094 115.1875 L 745.703125 114.652344 L 754.292969 114.078125 L 762.753906 113.457031 L 771.089844 112.792969 L 779.285156 112.089844 L 787.339844 111.34375 L 795.246094 110.558594 L 803 109.730469 L 818.027344 107.953125 L 825.148438 107.023438 L 832.101563 106.058594 L 838.878906 105.058594 L 845.484375 104.019531 L 851.90625 102.949219 L 858.144531 101.84375 L 870.039063 99.535156 L 875.695313 98.335938 L 881.144531 97.105469 L 886.390625 95.84375 L 891.425781 94.554688 L 896.246094 93.238281 L 900.855469 91.898438 L 909.402344 89.140625 L 913.339844 87.726563 L 917.046875 86.292969 L 920.527344 84.839844 L 923.769531 83.367188 L 926.777344 81.875 L 929.550781 80.367188 L 932.078125 78.847656 L 934.367188 77.308594 L 936.414063 75.761719 L 938.214844 74.203125 L 939.769531 72.636719 L 941.078125 71.058594 L 942.945313 67.886719 L 943.820313 64.703125 L 943.695313 61.511719 L 942.566406 58.328125 L 941.628906 56.742188 L 940.445313 55.160156 L 939.011719 53.589844 L 937.332031 52.027344 L 935.410156 50.472656 L 933.238281 48.929688 L 930.828125 47.402344 L 928.175781 45.886719 L 925.285156 44.386719 L 922.15625 42.90625 L 915.199219 40 L 911.375 38.574219 L 907.324219 37.171875 L 903.046875 35.792969 L 898.550781 34.441406 L 893.835938 33.113281 L 888.902344 31.808594 L 878.410156 29.289063 L 872.859375 28.074219 L 867.101563 26.886719 L 861.152344 25.734375 L 855.007813 24.613281 L 848.679688 23.523438 L 842.164063 22.46875 L 828.601563 20.46875 L 820.957031 19.441406 L 813.121094 18.460938 L 805.097656 17.523438 L 796.890625 16.632813 L 788.511719 15.789063 L 779.960938 14.988281 L 762.386719 13.535156 L 753.375 12.878906 L 744.222656 12.273438 L 734.9375 11.714844 L 725.523438 11.203125 L 715.992188 10.746094 L 706.347656 10.332031 L 696.601563 9.972656 L 686.757813 9.660156 L 646.558594 8.902344 L 605.410156 8.914063 L 584.628906 9.199219 L 563.789063 9.664063 L 553.363281 9.960938 L 542.949219 10.300781 L 532.546875 10.683594 L 522.164063 11.105469 L 511.8125 11.566406 L 501.496094 12.066406 L 491.21875 12.605469 L 480.996094 13.179688 L 470.824219 13.789063 L 460.714844 14.433594 L 440.710938 15.816406 L 430.828125 16.554688 L 421.03125 17.320313 L 401.722656 18.929688 L 364.402344 22.433594 L 355.371094 23.355469 L 346.472656 24.296875 L 329.078125 26.222656 L 296.042969 30.207031 L 288.171875 31.222656 L 280.460938 32.238281 L 265.542969 34.28125 L 237.765625 38.339844 L 231.695313 39.273438 L 225.78125 40.203125 L 214.433594 42.03125 L 193.683594 45.554688 L 160.046875 51.808594 L 156.578125 52.5 L 153.269531 53.167969 L 147.132813 54.425781 L 136.746094 56.640625 L 123.128906 59.714844 L 122.054688 59.964844 L 121.117188 60.183594 L 119.625 60.53125 L 119.0625 60.660156 L 118.625 60.757813 L 118.304688 60.824219 L 118.101563 60.863281 L 118.023438 60.84375 L 118.367188 60.707031 L 118.691406 60.59375 L 119.109375 60.449219 L 120.222656 60.078125 L 120.910156 59.851563 L 121.679688 59.597656 L 123.449219 59.007813 L 127.832031 57.523438 L 139.171875 53.484375 L 140.898438 52.84375 L 142.65625 52.1875 L 146.25 50.816406 L 153.648438 47.90625 L 168.429688 41.664063 L 170.207031 40.871094 L 171.960938 40.074219 L 175.378906 38.496094 L 181.78125 35.394531 L 183.28125 34.640625 L 184.734375 33.894531 L 187.492188 32.441406 L 192.386719 29.703125 L 193.472656 29.058594 L 194.496094 28.433594 L 196.371094 27.238281 L 197.214844 26.671875 L 198 26.125 L 199.378906 25.101563 L 199.972656 24.625 L 200.503906 24.171875 L 200.96875 23.742188 L 201.375 23.335938 L 201.988281 22.605469 L 202.351563 21.976563 L 202.324219 21.042969 L 201.335938 20.550781 L 199.449219 20.496094 L 196.738281 20.867188 L 195.957031 21.023438 L 195.132813 21.203125 L 193.367188 21.632813 L 192.425781 21.882813 L 191.449219 22.152344 L 189.394531 22.761719 L 188.320313 23.097656 L 187.214844 23.453125 L 184.921875 24.222656 L 180.066406 25.972656 L 178.808594 26.449219 L 177.53125 26.941406 L 174.9375 27.960938 L 169.648438 30.140625 L 159.015625 34.859375 L 157.710938 35.464844 L 156.417969 36.070313 L 153.867188 37.285156 L 148.945313 39.683594 L 140.074219 44.207031 L 127.472656 51.039063 L 126.972656 51.316406 L 126.5 51.578125 L 125.632813 52.0625 L 124.195313 52.847656 L 123.898438 53.003906 L 123.625 53.148438 L 123.152344 53.390625 L 122.769531 53.574219 L 122.472656 53.699219 L 122.132813 53.785156 L 122.089844 53.65625 L 122.171875 53.519531 L 122.3125 53.332031 L 122.402344 53.226563 L 122.507813 53.105469 L 122.75 52.839844 L 122.890625 52.691406 L 123.042969 52.535156 L 123.371094 52.195313 L 124.121094 51.429688 L 125.859375 49.65625 L 126.085938 49.421875 L 126.3125 49.183594 L 126.761719 48.703125 L 127.636719 47.75 L 129.179688 45.9375 L 129.359375 45.710938 L 129.527344 45.488281 L 129.839844 45.066406 L 130.113281 44.675781 L 130.34375 44.3125 L 130.667969 43.699219 L 130.804688 43.238281 L 130.5 42.835938 L 129.453125 43.152344 L 129.089844 43.339844 L 128.6875 43.570313 L 127.777344 44.148438 L 127.53125 44.316406 L 127.28125 44.492188 L 126.753906 44.871094 L 125.640625 45.714844 L 125.347656 45.945313 L 125.054688 46.179688 L 124.457031 46.667969 L 123.234375 47.699219 L 120.761719 49.90625 L 120.199219 50.429688 L 119.644531 50.953125 L 118.566406 51.988281 L 116.601563 53.945313 L 116.378906 54.171875 L 116.160156 54.398438 L 115.738281 54.832031 L 114.960938 55.640625 L 113.695313 56.984375 L 113.566406 57.125 L 113.4375 57.257813 L 113.207031 57.503906 L 112.8125 57.917969 L 112.730469 58.007813 L 112.394531 58.34375 L 112.296875 58.433594 L 112.085938 58.554688 L 112.121094 58.339844 L 112.199219 58.140625 L 112.308594 57.890625 L 112.570313 57.296875 L 112.640625 57.140625 L 112.839844 56.660156 L 112.957031 56.355469 L 113.054688 56.070313 L 113.171875 55.609375 L 113.167969 55.332031 L 113.039063 55.269531 L 112.789063 55.433594 L 112.703125 55.519531 L 112.613281 55.613281 L 112.410156 55.851563 L 112.300781 55.988281 L 112.1875 56.136719 L 111.953125 56.46875 L 111.890625 56.554688 L 111.828125 56.644531 L 111.707031 56.828125 L 111.457031 57.214844 L 110.972656 58.019531 L 110.855469 58.222656 L 110.746094 58.417969 L 110.53125 58.804688 L 110.15625 59.496094 L 110.117188 59.574219 L 110.074219 59.648438 L 110 59.792969 L 109.867188 60.046875 L 109.660156 60.425781 L 109.621094 60.488281 L 109.589844 60.542969 L 109.5625 60.585938 L 109.539063 60.621094 L 109.5 60.660156 L 109.472656 60.667969 L 109.445313 60.601563 L 109.441406 60.453125 L 109.4375 60.078125 L 109.378906 59.855469 L 109.308594 59.871094 L 109.222656 59.996094 L 109.171875 60.097656 L 109.121094 60.21875 L 109.09375 60.285156 L 109.066406 60.359375 L 109.015625 60.515625 L 108.988281 60.59375 L 108.964844 60.679688 L 108.914063 60.847656 L 108.824219 61.183594 L 108.75 61.480469 L 108.695313 61.710938 L 108.671875 61.789063 L 108.65625 61.847656 L 108.640625 61.886719 L 108.625 61.902344 L 108.601563 61.878906 L 108.578125 61.789063 L 108.566406 61.726563 L 108.554688 61.65625 L 108.539063 61.582031 L 108.527344 61.507813 L 108.507813 61.4375 L 108.492188 61.371094 L 108.476563 61.3125 L 108.457031 61.265625 L 108.421875 61.21875 L 108.386719 61.238281 L 108.371094 61.273438 L 108.355469 61.324219 L 108.347656 61.390625 L 108.335938 61.472656 L 108.324219 61.898438 L 108.34375 62.351563 L 108.363281 62.667969 L 108.332031 62.660156 L 108.3125 62.609375 L 108.289063 62.539063 L 108.226563 62.359375 L 108.1875 62.257813 L 108.148438 62.152344 L 108.0625 61.941406 L 108.042969 61.894531 L 108.023438 61.851563 L 107.984375 61.769531 L 107.945313 61.703125 L 107.914063 61.648438 L 107.859375 61.585938 L 107.832031 61.59375 L 107.824219 61.671875 L 107.847656 61.804688 L 107.863281 61.890625 L 107.886719 61.980469 L 107.941406 62.175781 L 107.976563 62.277344 L 108.007813 62.375 L 108.035156 62.460938 L 108.058594 62.53125 L 108.078125 62.617188 L 108.058594 62.613281 L 108.03125 62.574219 L 107.988281 62.515625 L 107.859375 62.324219 L 107.46875 61.761719 L 107.410156 61.683594 L 107.351563 61.609375 L 107.238281 61.457031 L 107.179688 61.386719 L 107.125 61.316406 L 107.011719 61.183594 L 106.960938 61.125 L 106.910156 61.070313 L 106.863281 61.019531 L 106.820313 60.976563 L 106.738281 60.90625 L 106.675781 60.859375 L 106.605469 60.855469 L 106.621094 60.960938 L 106.65625 61.054688 L 106.714844 61.171875 L 106.753906 61.238281 L 106.792969 61.3125 L 106.886719 61.464844 L 106.988281 61.621094 L 107.09375 61.78125 L 107.324219 62.105469 L 107.382813 62.183594 L 107.4375 62.257813 L 107.546875 62.402344 L 107.730469 62.636719 L 107.765625 62.679688 L 107.792969 62.71875 L 107.820313 62.753906 L 107.839844 62.78125 L 107.859375 62.8125 L 107.847656 62.8125 L 107.808594 62.785156 L 107.738281 62.722656 L 107.5 62.515625 L 107.414063 62.4375 L 107.316406 62.355469 L 107.097656 62.164063 L 106.5625 61.71875 L 106.488281 61.660156 L 106.253906 61.472656 L 105.929688 61.21875 L 105.25 60.714844 L 105.164063 60.652344 L 105.078125 60.59375 L 104.910156 60.476563 L 104.582031 60.253906 L 104.421875 60.152344 L 104.269531 60.058594 L 103.984375 59.886719 L 103.855469 59.816406 L 103.734375 59.75 L 103.625 59.695313 L 103.523438 59.652344 L 103.355469 59.589844 L 103.238281 59.570313 L 103.164063 59.644531 L 103.289063 59.855469 L 103.347656 59.929688 L 103.421875 60.007813 L 103.601563 60.1875 L 103.707031 60.285156 L 103.820313 60.390625 L 104.078125 60.609375 L 104.144531 60.667969 L 104.21875 60.722656 L 104.363281 60.84375 L 104.675781 61.085938 L 105.347656 61.578125 L 106.730469 62.5 L 106.796875 62.542969 L 106.929688 62.621094 L 107.164063 62.765625 L 107.214844 62.800781 L 107.265625 62.828125 L 107.355469 62.886719 L 107.503906 62.972656 L 107.558594 63.007813 L 107.601563 63.035156 L 107.632813 63.054688 L 107.648438 63.066406 L 107.636719 63.070313 L 107.574219 63.046875 L 107.519531 63.023438 L 107.449219 62.996094 L 107.273438 62.925781 L 106.769531 62.71875 L 106.613281 62.65625 L 106.449219 62.59375 L 106.089844 62.457031 L 105.285156 62.164063 L 105.171875 62.125 L 104.820313 62.007813 L 104.34375 61.855469 L 104.222656 61.816406 L 104.105469 61.78125 L 103.867188 61.710938 L 103.40625 61.578125 L 103.183594 61.519531 L 102.964844 61.464844 L 102.757813 61.414063 L 102.558594 61.371094 L 102.1875 61.296875 L 101.871094 61.25 L 101.402344 61.21875 L 101.191406 61.285156 L 101.183594 61.347656 L 101.242188 61.433594 L 101.296875 61.480469 L 101.367188 61.53125 L 101.449219 61.585938 L 101.546875 61.644531 L 101.648438 61.699219 L 101.765625 61.757813 L 102.023438 61.878906 L 102.164063 61.9375 L 102.3125 62 L 102.632813 62.128906 L 102.976563 62.253906 L 103.332031 62.375 L 104.050781 62.605469 L 104.136719 62.632813 L 104.226563 62.65625 L 104.398438 62.707031 L 104.734375 62.804688 L 105.332031 62.964844 L 105.464844 63 L 105.589844 63.035156 L 105.808594 63.089844 L 105.90625 63.117188 L 105.992188 63.140625 L 106.136719 63.179688 L 106.199219 63.199219 L 106.25 63.214844 L 106.289063 63.230469 L 106.316406 63.242188 L 106.339844 63.265625 L 106.320313 63.28125 L 106.265625 63.296875 L 106.179688 63.308594 L 106.070313 63.320313 L 105.945313 63.332031 L 105.808594 63.347656 L 105.675781 63.363281 L 105.613281 63.371094 L 105.550781 63.382813 L 105.488281 63.390625 L 105.433594 63.402344 L 105.339844 63.425781 L 105.269531 63.453125 L 105.222656 63.480469 L 105.207031 63.511719 " transform="matrix(1,0,0,1,-83,-6)"/>
</g>
<path style="fill:none;stroke-width:0.25;stroke-linecap:butt;stroke-linejoin:miter;stroke:rgb(39.99939%,39.99939%,39.99939%);stroke-opacity:1;stroke-miterlimit:3.25;" d="M 83.625 63.511719 L 961.375 63.511719 " transform="matrix(1,0,0,1,-83,-6)"/>
<path style="fill:none;stroke-width:0.25;stroke-linecap:butt;stroke-linejoin:miter;stroke:rgb(39.99939%,39.99939%,39.99939%);stroke-opacity:1;stroke-miterlimit:3.25;" d="M 108.519531 120.410156 L 108.519531 6.625 " transform="matrix(1,0,0,1,-83,-6)"/>
</g>
</svg>
