<?xml version="1.0" encoding="UTF-8"?>
<svg xmlns="http://www.w3.org/2000/svg" xmlns:xlink="http://www.w3.org/1999/xlink" width="450pt" height="450pt" viewBox="0 0 450 450" version="1.1">
<defs>
<clipPath id="clip1">
  <path d="M 0 96 L 449.039063 96 L 449.039063 353 L 0 353 Z M 0 96 "/>
</clipPath>
</defs>
<g id="surface104">
<path style="fill:none;stroke-width:2;stroke-linecap:square;stroke-linejoin:miter;stroke:rgb(0%,0%,0%);stroke-opacity:1;stroke-dasharray:5,5;stroke-miterlimit:3.25;" d="M 92.578125 230.5 L 92.585938 231.328125 L 92.597656 232.15625 L 92.65625 233.8125 L 92.886719 237.117188 L 92.925781 237.53125 L 92.96875 237.941406 L 93.058594 238.765625 L 93.269531 240.414063 L 93.804688 243.691406 L 93.878906 244.101563 L 93.960938 244.507813 L 94.128906 245.324219 L 94.488281 246.949219 L 95.324219 250.179688 L 95.4375 250.582031 L 95.558594 250.984375 L 95.796875 251.785156 L 96.308594 253.378906 L 97.441406 256.539063 L 97.605469 256.960938 L 97.773438 257.386719 L 98.113281 258.234375 L 98.832031 259.914063 L 100.390625 263.234375 L 100.59375 263.644531 L 100.804688 264.054688 L 101.230469 264.871094 L 102.113281 266.488281 L 103.996094 269.675781 L 104.242188 270.066406 L 104.492188 270.460938 L 105 271.238281 L 106.039063 272.785156 L 108.234375 275.8125 L 108.519531 276.1875 L 108.808594 276.558594 L 109.390625 277.296875 L 110.582031 278.753906 L 113.074219 281.601563 L 113.375 281.929688 L 113.675781 282.253906 L 114.285156 282.898438 L 115.527344 284.175781 L 118.097656 286.65625 L 118.425781 286.960938 L 118.757813 287.261719 L 119.425781 287.863281 L 120.785156 289.046875 L 123.578125 291.335938 L 123.933594 291.617188 L 124.292969 291.894531 L 125.015625 292.445313 L 126.476563 293.527344 L 129.476563 295.617188 L 135.757813 299.46875 L 136.15625 299.691406 L 136.554688 299.910156 L 137.351563 300.34375 L 138.964844 301.195313 L 142.246094 302.808594 L 142.664063 303.003906 L 143.078125 303.195313 L 143.914063 303.574219 L 145.601563 304.3125 L 149.019531 305.703125 L 149.453125 305.871094 L 149.886719 306.03125 L 150.753906 306.355469 L 152.503906 306.976563 L 156.039063 308.136719 L 163.261719 310.097656 L 163.757813 310.214844 L 164.253906 310.328125 L 165.246094 310.550781 L 167.246094 310.964844 L 171.269531 311.691406 L 171.777344 311.769531 L 172.28125 311.847656 L 173.296875 312 L 175.328125 312.273438 L 179.410156 312.71875 L 179.921875 312.765625 L 180.433594 312.808594 L 181.460938 312.886719 L 183.511719 313.023438 L 187.625 313.1875 L 195.859375 313.105469 L 196.339844 313.085938 L 196.820313 313.0625 L 197.777344 313.011719 L 199.695313 312.882813 L 203.515625 312.546875 L 211.097656 311.53125 L 212.035156 311.375 L 212.976563 311.210938 L 214.847656 310.863281 L 218.5625 310.085938 L 225.875 308.226563 L 226.851563 307.945313 L 227.824219 307.65625 L 229.761719 307.054688 L 233.585938 305.773438 L 234.058594 305.609375 L 234.53125 305.4375 L 235.472656 305.097656 L 237.339844 304.390625 L 241.023438 302.90625 L 241.480469 302.714844 L 241.933594 302.519531 L 242.835938 302.128906 L 244.632813 301.328125 L 248.15625 299.660156 L 254.945313 296.082031 L 255.347656 295.851563 L 255.753906 295.621094 L 256.554688 295.160156 L 258.140625 294.21875 L 261.242188 292.289063 L 267.15625 288.265625 L 267.867188 287.75 L 268.570313 287.230469 L 269.960938 286.183594 L 272.660156 284.058594 L 277.742188 279.722656 L 278.027344 279.46875 L 278.308594 279.210938 L 278.867188 278.699219 L 279.964844 277.667969 L 282.09375 275.601563 L 286.0625 271.453125 L 286.296875 271.191406 L 286.53125 270.933594 L 286.996094 270.414063 L 287.902344 269.378906 L 289.648438 267.3125 L 292.855469 263.226563 L 293.261719 262.679688 L 293.660156 262.132813 L 294.4375 261.046875 L 295.910156 258.902344 L 298.542969 254.734375 L 298.839844 254.226563 L 299.132813 253.722656 L 299.703125 252.722656 L 300.765625 250.773438 L 302.605469 247.058594 L 302.699219 246.851563 L 302.796875 246.644531 L 302.980469 246.234375 L 303.339844 245.425781 L 304 243.859375 L 305.109375 240.941406 L 305.226563 240.597656 L 305.34375 240.261719 L 305.5625 239.601563 L 305.957031 238.339844 L 306.582031 236.078125 L 306.613281 235.953125 L 306.644531 235.824219 L 306.703125 235.578125 L 306.816406 235.101563 L 307.003906 234.210938 L 307.273438 232.710938 L 307.285156 232.628906 L 307.320313 232.394531 L 307.359375 232.101563 L 307.421875 231.589844 L 307.484375 230.855469 L 307.488281 230.820313 L 307.488281 230.789063 L 307.492188 230.726563 L 307.496094 230.625 L 307.496094 230.605469 L 307.5 230.585938 L 307.5 230.5 L 307.5 230.515625 L 307.503906 230.636719 L 307.503906 230.683594 L 307.507813 230.742188 L 307.515625 230.875 L 307.542969 231.230469 L 307.664063 232.285156 L 307.675781 232.363281 L 307.6875 232.4375 L 307.707031 232.597656 L 307.761719 232.933594 L 307.890625 233.679688 L 308.265625 235.453125 L 308.292969 235.574219 L 308.324219 235.699219 L 308.386719 235.953125 L 308.519531 236.472656 L 308.820313 237.585938 L 309.589844 240.0625 L 309.648438 240.242188 L 309.710938 240.421875 L 309.839844 240.789063 L 310.105469 241.539063 L 310.699219 243.105469 L 312.132813 246.488281 L 312.335938 246.933594 L 312.546875 247.382813 L 312.980469 248.296875 L 313.921875 250.171875 L 316.09375 254.117188 L 316.242188 254.363281 L 316.386719 254.617188 L 316.6875 255.117188 L 317.308594 256.132813 L 318.621094 258.195313 L 321.5625 262.4375 L 321.757813 262.707031 L 321.957031 262.976563 L 322.363281 263.515625 L 323.191406 264.601563 L 324.925781 266.792969 L 328.722656 271.214844 L 329.191406 271.730469 L 329.667969 272.25 L 330.640625 273.285156 L 332.65625 275.351563 L 336.96875 279.464844 L 337.253906 279.71875 L 337.535156 279.972656 L 338.109375 280.484375 L 339.269531 281.496094 L 341.660156 283.507813 L 346.714844 287.441406 L 347.074219 287.703125 L 347.429688 287.964844 L 348.148438 288.484375 L 349.609375 289.515625 L 352.601563 291.539063 L 358.886719 295.414063 L 359.292969 295.648438 L 359.699219 295.878906 L 360.515625 296.339844 L 362.167969 297.25 L 365.542969 299.015625 L 372.542969 302.296875 L 372.960938 302.476563 L 373.382813 302.65625 L 374.222656 303.011719 L 375.917969 303.707031 L 379.359375 305.03125 L 386.410156 307.421875 L 387.308594 307.695313 L 388.207031 307.960938 L 390.015625 308.476563 L 393.667969 309.433594 L 401.09375 311.042969 L 401.601563 311.136719 L 402.113281 311.226563 L 403.132813 311.402344 L 405.175781 311.734375 L 409.289063 312.300781 L 409.804688 312.359375 L 410.320313 312.421875 L 411.355469 312.53125 L 413.425781 312.730469 L 417.582031 313.03125 L 418.101563 313.058594 L 418.621094 313.082031 L 419.664063 313.128906 L 421.75 313.191406 L 425.921875 313.214844 L 434.25 312.832031 L 434.757813 312.792969 L 435.269531 312.746094 L 436.285156 312.652344 L 438.316406 312.4375 L 442.363281 311.902344 L 442.867188 311.828125 L 443.371094 311.746094 L 444.375 311.582031 L 446.378906 311.230469 L 450.355469 310.417969 L 450.851563 310.304688 L 451.34375 310.191406 L 452.328125 309.957031 L 454.292969 309.464844 L 458.175781 308.375 L 465.765625 305.785156 L 466.632813 305.449219 L 467.496094 305.105469 L 469.210938 304.394531 L 472.589844 302.886719 L 473.007813 302.691406 L 473.425781 302.492188 L 474.253906 302.089844 L 475.898438 301.265625 L 479.125 299.53125 L 479.523438 299.308594 L 479.921875 299.082031 L 480.710938 298.625 L 482.273438 297.691406 L 485.332031 295.742188 L 491.171875 291.535156 L 491.929688 290.933594 L 492.683594 290.324219 L 494.167969 289.089844 L 497.039063 286.53125 L 497.734375 285.875 L 498.425781 285.210938 L 499.777344 283.867188 L 502.382813 281.101563 L 502.699219 280.75 L 503.011719 280.394531 L 503.632813 279.683594 L 504.84375 278.238281 L 507.164063 275.285156 L 507.441406 274.910156 L 507.71875 274.53125 L 508.265625 273.773438 L 509.332031 272.246094 L 511.34375 269.125 L 511.570313 268.753906 L 511.792969 268.382813 L 512.230469 267.640625 L 513.082031 266.144531 L 514.675781 263.101563 L 514.867188 262.71875 L 515.054688 262.332031 L 515.421875 261.558594 L 516.128906 260.003906 L 517.4375 256.859375 L 517.589844 256.460938 L 517.738281 256.066406 L 518.035156 255.269531 L 518.59375 253.667969 L 519.601563 250.4375 L 519.71875 250.03125 L 519.832031 249.625 L 520.050781 248.808594 L 520.457031 247.175781 L 521.160156 243.882813 L 521.238281 243.476563 L 521.449219 242.257813 L 521.699219 240.632813 L 522.089844 237.367188 L 522.128906 236.957031 L 522.164063 236.546875 L 522.230469 235.726563 L 522.328125 234.089844 L 522.417969 230.804688 L 522.421875 230.394531 L 522.417969 229.984375 L 522.40625 229.164063 L 522.359375 227.519531 L 522.144531 224.242188 L 522.109375 223.832031 L 522.070313 223.425781 L 521.984375 222.605469 L 521.785156 220.972656 L 521.273438 217.71875 L 521.191406 217.28125 L 521.109375 216.839844 L 520.933594 215.964844 L 520.550781 214.214844 L 519.652344 210.742188 L 519.53125 210.308594 L 519.402344 209.878906 L 519.140625 209.019531 L 518.585938 207.304688 L 517.347656 203.914063 L 517.179688 203.492188 L 517.011719 203.074219 L 516.664063 202.234375 L 515.941406 200.570313 L 514.371094 197.289063 L 514.164063 196.882813 L 513.953125 196.476563 L 513.527344 195.671875 L 512.640625 194.066406 L 510.75 190.917969 L 510.519531 190.554688 L 510.285156 190.191406 L 509.8125 189.472656 L 508.84375 188.046875 L 506.808594 185.242188 L 506.546875 184.898438 L 506.28125 184.554688 L 505.742188 183.871094 L 504.644531 182.515625 L 502.355469 179.867188 L 502.0625 179.542969 L 501.765625 179.21875 L 501.164063 178.574219 L 499.945313 177.300781 L 497.417969 174.824219 L 492.03125 170.144531 L 491.648438 169.839844 L 491.269531 169.539063 L 490.496094 168.941406 L 488.933594 167.769531 L 485.722656 165.515625 L 484.902344 164.96875 L 484.074219 164.433594 L 482.398438 163.382813 L 478.972656 161.378906 L 478.535156 161.136719 L 478.097656 160.898438 L 477.21875 160.421875 L 475.445313 159.503906 L 471.832031 157.757813 L 464.351563 154.679688 L 463.882813 154.511719 L 463.414063 154.339844 L 462.472656 154.011719 L 460.574219 153.371094 L 456.738281 152.199219 L 456.253906 152.0625 L 455.769531 151.929688 L 454.796875 151.664063 L 452.84375 151.164063 L 448.902344 150.265625 L 447.910156 150.0625 L 446.917969 149.871094 L 444.921875 149.507813 L 440.90625 148.886719 L 432.800781 148.058594 L 431.847656 147.996094 L 430.898438 147.941406 L 428.996094 147.859375 L 425.1875 147.777344 L 424.234375 147.777344 L 423.28125 147.78125 L 421.378906 147.816406 L 417.570313 147.96875 L 417.097656 147.996094 L 416.621094 148.023438 L 415.671875 148.085938 L 413.777344 148.234375 L 409.996094 148.613281 L 402.496094 149.703125 L 401.488281 149.882813 L 400.484375 150.070313 L 398.480469 150.472656 L 394.503906 151.359375 L 393.519531 151.601563 L 392.535156 151.847656 L 390.574219 152.367188 L 386.699219 153.484375 L 386.21875 153.632813 L 385.742188 153.785156 L 384.785156 154.085938 L 382.882813 154.714844 L 379.128906 156.046875 L 371.835938 159.011719 L 371.007813 159.378906 L 370.179688 159.753906 L 368.539063 160.519531 L 365.3125 162.101563 L 359.089844 165.464844 L 358.710938 165.683594 L 358.332031 165.90625 L 357.582031 166.347656 L 356.097656 167.242188 L 353.1875 169.074219 L 347.636719 172.882813 L 346.980469 173.359375 L 346.332031 173.839844 L 345.046875 174.808594 L 342.546875 176.769531 L 337.816406 180.773438 L 337.53125 181.027344 L 337.25 181.28125 L 336.691406 181.789063 L 335.589844 182.804688 L 333.457031 184.851563 L 329.46875 188.964844 L 329.214844 189.242188 L 328.957031 189.523438 L 328.453125 190.078125 L 327.464844 191.195313 L 325.570313 193.417969 L 322.109375 197.816406 L 321.910156 198.085938 L 321.710938 198.359375 L 321.3125 198.898438 L 320.542969 199.976563 L 319.082031 202.105469 L 316.472656 206.238281 L 316.332031 206.476563 L 316.195313 206.710938 L 315.921875 207.175781 L 315.394531 208.101563 L 314.398438 209.917969 L 312.65625 213.382813 L 312.460938 213.796875 L 312.269531 214.210938 L 311.902344 215.023438 L 311.222656 216.601563 L 310.074219 219.542969 L 310.007813 219.734375 L 309.941406 219.921875 L 309.808594 220.292969 L 309.5625 221.015625 L 309.121094 222.390625 L 308.433594 224.847656 L 308.398438 224.988281 L 308.367188 225.128906 L 308.300781 225.398438 L 308.179688 225.921875 L 307.972656 226.890625 L 307.695313 228.488281 L 307.683594 228.570313 L 307.671875 228.648438 L 307.652344 228.796875 L 307.617188 229.082031 L 307.5625 229.570313 L 307.507813 230.242188 L 307.507813 230.296875 L 307.503906 230.34375 L 307.5 230.421875 L 307.5 230.5 L 307.5 230.464844 L 307.496094 230.332031 L 307.496094 230.308594 L 307.492188 230.28125 L 307.492188 230.226563 L 307.484375 230.097656 L 307.457031 229.765625 L 307.347656 228.804688 L 307.339844 228.730469 L 307.328125 228.65625 L 307.304688 228.503906 L 307.257813 228.175781 L 307.132813 227.453125 L 306.777344 225.730469 L 306.746094 225.601563 L 306.71875 225.46875 L 306.652344 225.203125 L 306.515625 224.648438 L 306.191406 223.460938 L 305.363281 220.789063 L 305.238281 220.429688 L 305.109375 220.0625 L 304.84375 219.316406 L 304.246094 217.753906 L 302.8125 214.386719 L 302.71875 214.179688 L 302.425781 213.558594 L 302.023438 212.710938 L 301.15625 210.976563 L 299.171875 207.34375 L 299.039063 207.109375 L 298.902344 206.875 L 298.625 206.402344 L 298.054688 205.453125 L 296.84375 203.519531 L 294.152344 199.546875 L 293.957031 199.273438 L 293.757813 199 L 293.359375 198.449219 L 292.535156 197.34375 L 290.808594 195.117188 L 287.015625 190.609375 L 286.765625 190.324219 L 286.511719 190.042969 L 285.996094 189.476563 L 284.949219 188.339844 L 282.769531 186.074219 L 278.0625 181.566406 L 277.761719 181.289063 L 277.457031 181.015625 L 276.839844 180.46875 L 275.589844 179.378906 L 273.007813 177.21875 L 267.523438 173 L 266.8125 172.484375 L 266.089844 171.972656 L 264.628906 170.953125 L 261.636719 168.960938 L 255.355469 165.148438 L 254.597656 164.71875 L 253.839844 164.296875 L 252.300781 163.460938 L 249.167969 161.839844 L 242.691406 158.804688 L 242.277344 158.625 L 241.859375 158.445313 L 241.027344 158.089844 L 239.347656 157.398438 L 235.945313 156.078125 L 228.964844 153.691406 L 228.484375 153.542969 L 228 153.394531 L 227.035156 153.105469 L 225.089844 152.550781 L 221.164063 151.523438 L 220.671875 151.402344 L 219.183594 151.050781 L 217.191406 150.613281 L 213.171875 149.820313 L 212.667969 149.730469 L 212.164063 149.644531 L 211.148438 149.472656 L 209.117188 149.15625 L 205.035156 148.617188 L 196.800781 147.933594 L 196.320313 147.910156 L 195.835938 147.890625 L 194.871094 147.851563 L 192.941406 147.800781 L 189.078125 147.785156 L 188.59375 147.789063 L 188.109375 147.800781 L 187.144531 147.820313 L 185.214844 147.890625 L 181.359375 148.117188 L 180.878906 148.152344 L 180.398438 148.191406 L 179.4375 148.277344 L 177.519531 148.46875 L 173.699219 148.941406 L 166.136719 150.257813 L 165.675781 150.355469 L 165.21875 150.453125 L 164.304688 150.65625 L 162.480469 151.085938 L 158.863281 152.03125 L 158.417969 152.15625 L 157.96875 152.285156 L 157.074219 152.546875 L 155.296875 153.09375 L 151.777344 154.273438 L 151.339844 154.429688 L 150.90625 154.585938 L 150.039063 154.90625 L 148.316406 155.570313 L 144.914063 156.980469 L 138.324219 160.136719 L 137.886719 160.367188 L 137.453125 160.597656 L 136.585938 161.070313 L 134.875 162.03125 L 131.523438 164.054688 L 131.109375 164.316406 L 130.699219 164.578125 L 129.882813 165.113281 L 128.273438 166.199219 L 125.132813 168.460938 L 124.367188 169.046875 L 123.609375 169.636719 L 122.109375 170.839844 L 119.207031 173.328125 L 113.785156 178.625 L 113.488281 178.945313 L 113.1875 179.269531 L 112.597656 179.917969 L 111.441406 181.230469 L 109.21875 183.917969 L 108.949219 184.257813 L 108.683594 184.601563 L 108.15625 185.289063 L 107.125 186.679688 L 105.15625 189.515625 L 104.921875 189.875 L 104.6875 190.238281 L 104.222656 190.960938 L 103.324219 192.421875 L 101.628906 195.386719 L 101.425781 195.761719 L 101.226563 196.136719 L 100.832031 196.894531 L 100.070313 198.414063 L 98.652344 201.492188 L 98.464844 201.921875 L 98.28125 202.359375 L 97.925781 203.230469 L 97.242188 204.984375 L 96.011719 208.527344 L 95.871094 208.976563 L 95.734375 209.421875 L 95.46875 210.320313 L 94.96875 212.121094 L 94.109375 215.75 L 94.015625 216.207031 L 93.925781 216.664063 L 93.753906 217.578125 L 93.441406 219.410156 L 92.964844 223.09375 L 92.917969 223.554688 L 92.875 224.015625 L 92.796875 224.941406 L 92.675781 226.792969 L 92.652344 227.253906 L 92.632813 227.71875 L 92.605469 228.644531 L 92.59375 229.109375 L 92.585938 229.570313 L 92.578125 230.5 " transform="matrix(1,0,0,1,-83,-6)"/>
<path style="fill:none;stroke-width:2;stroke-linecap:square;stroke-linejoin:miter;stroke:rgb(0%,0%,0%);stroke-opacity:1;stroke-dasharray:1.25,5;stroke-miterlimit:3.25;" d="M 92.578125 230.5 L 92.582031 230.914063 L 92.582031 231.328125 L 92.585938 232.15625 L 92.605469 233.8125 L 92.683594 237.125 L 92.988281 243.742188 L 93.042969 244.570313 L 93.097656 245.394531 L 93.21875 247.046875 L 93.5 250.351563 L 94.210938 256.9375 L 94.269531 257.382813 L 94.324219 257.828125 L 94.441406 258.71875 L 94.683594 260.5 L 95.214844 264.050781 L 96.453125 271.125 L 96.625 272.007813 L 96.800781 272.890625 L 97.164063 274.648438 L 97.929688 278.15625 L 99.640625 285.132813 L 99.746094 285.539063 L 99.855469 285.945313 L 100.074219 286.753906 L 100.519531 288.371094 L 101.445313 291.59375 L 103.453125 297.996094 L 103.585938 298.390625 L 103.71875 298.789063 L 103.988281 299.585938 L 104.53125 301.171875 L 105.660156 304.328125 L 108.0625 310.589844 L 108.214844 310.972656 L 108.371094 311.355469 L 108.679688 312.113281 L 109.308594 313.632813 L 110.605469 316.65625 L 113.332031 322.640625 L 113.511719 323.011719 L 113.6875 323.382813 L 114.042969 324.121094 L 114.765625 325.597656 L 116.242188 328.535156 L 119.332031 334.34375 L 119.546875 334.730469 L 119.765625 335.121094 L 120.199219 335.898438 L 121.082031 337.449219 L 122.882813 340.527344 L 126.636719 346.59375 L 126.875 346.96875 L 127.117188 347.34375 L 127.605469 348.09375 L 128.585938 349.582031 L 130.585938 352.535156 L 134.734375 358.335938 L 134.984375 358.671875 L 135.230469 359.003906 L 135.730469 359.671875 L 136.734375 360.996094 L 138.777344 363.628906 L 142.980469 368.789063 L 143.25 369.105469 L 143.519531 369.425781 L 144.058594 370.058594 L 145.144531 371.320313 L 147.34375 373.816406 L 151.859375 378.710938 L 152.171875 379.035156 L 152.480469 379.363281 L 153.109375 380.011719 L 154.367188 381.300781 L 156.921875 383.851563 L 162.152344 388.816406 L 162.484375 389.121094 L 162.820313 389.425781 L 163.488281 390.03125 L 164.832031 391.234375 L 167.550781 393.605469 L 173.101563 398.210938 L 173.449219 398.488281 L 173.792969 398.765625 L 174.488281 399.3125 L 175.882813 400.40625 L 178.703125 402.550781 L 184.441406 406.699219 L 185.167969 407.207031 L 185.898438 407.707031 L 187.363281 408.703125 L 190.316406 410.660156 L 196.316406 414.425781 L 196.667969 414.636719 L 197.023438 414.851563 L 197.730469 415.273438 L 199.15625 416.109375 L 202.019531 417.753906 L 207.828125 420.910156 L 208.191406 421.101563 L 208.558594 421.289063 L 209.292969 421.667969 L 210.765625 422.417969 L 213.726563 423.882813 L 219.714844 426.671875 L 220.535156 427.039063 L 221.355469 427.398438 L 222.996094 428.109375 L 226.304688 429.488281 L 232.980469 432.085938 L 233.402344 432.242188 L 233.820313 432.394531 L 234.664063 432.699219 L 236.351563 433.300781 L 239.742188 434.457031 L 246.578125 436.601563 L 246.976563 436.722656 L 247.378906 436.839844 L 248.183594 437.070313 L 249.792969 437.527344 L 253.019531 438.398438 L 259.515625 439.992188 L 259.921875 440.085938 L 260.332031 440.179688 L 261.144531 440.359375 L 262.78125 440.714844 L 266.058594 441.386719 L 272.640625 442.574219 L 273.042969 442.636719 L 273.449219 442.703125 L 274.257813 442.832031 L 275.878906 443.078125 L 279.125 443.539063 L 285.636719 444.304688 L 286.042969 444.34375 L 286.453125 444.386719 L 287.269531 444.464844 L 288.902344 444.613281 L 292.167969 444.871094 L 298.714844 445.238281 L 299.160156 445.257813 L 299.605469 445.273438 L 300.492188 445.304688 L 302.269531 445.355469 L 305.828125 445.414063 L 312.941406 445.351563 L 313.386719 445.339844 L 313.832031 445.324219 L 314.71875 445.296875 L 316.496094 445.230469 L 320.050781 445.050781 L 327.144531 444.519531 L 327.554688 444.480469 L 327.96875 444.441406 L 328.796875 444.359375 L 330.445313 444.191406 L 333.742188 443.808594 L 340.320313 442.898438 L 340.730469 442.835938 L 341.136719 442.769531 L 341.957031 442.636719 L 343.59375 442.367188 L 346.863281 441.785156 L 353.367188 440.46875 L 353.808594 440.371094 L 354.246094 440.273438 L 355.125 440.074219 L 356.878906 439.667969 L 360.371094 438.8125 L 367.316406 436.925781 L 367.746094 436.800781 L 368.179688 436.675781 L 369.042969 436.417969 L 370.761719 435.898438 L 374.191406 434.808594 L 380.992188 432.460938 L 381.410156 432.3125 L 381.824219 432.160156 L 382.652344 431.851563 L 384.304688 431.226563 L 387.589844 429.9375 L 394.101563 427.199219 L 394.507813 427.019531 L 395.714844 426.480469 L 397.324219 425.75 L 400.519531 424.246094 L 406.835938 421.085938 L 407.203125 420.894531 L 407.566406 420.703125 L 408.292969 420.316406 L 409.746094 419.539063 L 412.632813 417.949219 L 418.328125 414.640625 L 418.679688 414.425781 L 419.03125 414.214844 L 419.734375 413.785156 L 421.136719 412.917969 L 423.917969 411.15625 L 429.402344 407.503906 L 430.136719 406.996094 L 430.867188 406.484375 L 432.328125 405.453125 L 435.21875 403.351563 L 440.894531 399.011719 L 441.242188 398.734375 L 441.59375 398.457031 L 442.289063 397.898438 L 443.675781 396.773438 L 446.421875 394.484375 L 451.796875 389.777344 L 452.105469 389.496094 L 452.410156 389.214844 L 453.027344 388.652344 L 454.25 387.519531 L 456.667969 385.222656 L 461.398438 380.519531 L 461.6875 380.222656 L 462.554688 379.320313 L 463.707031 378.113281 L 465.976563 375.671875 L 470.40625 370.6875 L 471.578125 369.3125 L 472.738281 367.925781 L 475.027344 365.128906 L 479.457031 359.421875 L 479.726563 359.058594 L 480 358.699219 L 480.535156 357.972656 L 481.601563 356.511719 L 483.695313 353.566406 L 487.734375 347.574219 L 487.972656 347.203125 L 488.214844 346.828125 L 488.691406 346.082031 L 489.640625 344.582031 L 491.5 341.5625 L 495.066406 335.425781 L 495.496094 334.652344 L 495.925781 333.875 L 496.769531 332.316406 L 498.425781 329.179688 L 501.578125 322.824219 L 501.757813 322.449219 L 501.933594 322.074219 L 502.285156 321.328125 L 502.976563 319.824219 L 504.332031 316.804688 L 506.894531 310.703125 L 507.046875 310.316406 L 507.203125 309.933594 L 507.507813 309.164063 L 508.105469 307.621094 L 509.269531 304.523438 L 511.453125 298.273438 L 511.734375 297.421875 L 512.011719 296.570313 L 512.554688 294.859375 L 513.601563 291.429688 L 515.523438 284.511719 L 515.632813 284.078125 L 515.746094 283.644531 L 515.964844 282.773438 L 516.394531 281.03125 L 517.210938 277.539063 L 518.664063 270.511719 L 518.738281 270.097656 L 518.816406 269.6875 L 518.96875 268.863281 L 519.261719 267.214844 L 519.808594 263.910156 L 520.746094 257.273438 L 520.796875 256.859375 L 520.847656 256.441406 L 520.949219 255.613281 L 521.136719 253.945313 L 521.476563 250.613281 L 522 243.933594 L 522.023438 243.523438 L 522.050781 243.113281 L 522.097656 242.296875 L 522.179688 240.65625 L 522.308594 237.375 L 522.417969 230.804688 L 522.421875 230.394531 L 522.417969 229.984375 L 522.414063 229.164063 L 522.398438 227.519531 L 522.328125 224.238281 L 522.039063 217.675781 L 522.011719 217.230469 L 521.980469 216.785156 L 521.921875 215.898438 L 521.796875 214.121094 L 521.492188 210.570313 L 520.714844 203.484375 L 520.660156 203.042969 L 520.484375 201.71875 L 520.238281 199.957031 L 519.703125 196.433594 L 518.457031 189.417969 L 518.378906 189.007813 L 518.296875 188.601563 L 518.132813 187.785156 L 517.796875 186.15625 L 517.085938 182.910156 L 515.511719 176.449219 L 515.089844 174.839844 L 514.652344 173.238281 L 513.742188 170.039063 L 511.769531 163.6875 L 511.628906 163.257813 L 511.488281 162.832031 L 511.203125 161.976563 L 510.621094 160.269531 L 509.417969 156.875 L 506.835938 150.144531 L 506.664063 149.726563 L 506.496094 149.3125 L 506.152344 148.476563 L 505.457031 146.816406 L 504.027344 143.507813 L 501 136.96875 L 500.808594 136.570313 L 500.613281 136.171875 L 500.222656 135.378906 L 499.433594 133.792969 L 497.816406 130.648438 L 494.425781 124.4375 L 494.207031 124.050781 L 493.988281 123.667969 L 493.546875 122.902344 L 492.65625 121.375 L 490.832031 118.339844 L 487.042969 112.367188 L 486.816406 112.023438 L 486.585938 111.679688 L 486.128906 110.992188 L 485.207031 109.625 L 483.332031 106.910156 L 479.453125 101.570313 L 479.207031 101.238281 L 478.457031 100.253906 L 477.453125 98.945313 L 475.414063 96.351563 L 471.214844 91.257813 L 470.925781 90.917969 L 470.632813 90.578125 L 470.050781 89.898438 L 468.875 88.550781 L 466.488281 85.882813 L 461.585938 80.671875 L 460.960938 80.03125 L 460.332031 79.394531 L 459.070313 78.125 L 456.511719 75.625 L 451.269531 70.746094 L 450.960938 70.46875 L 450.648438 70.191406 L 450.027344 69.636719 L 448.769531 68.53125 L 446.238281 66.355469 L 441.066406 62.121094 L 440.738281 61.863281 L 440.414063 61.605469 L 439.753906 61.089844 L 438.433594 60.066406 L 435.769531 58.050781 L 430.347656 54.148438 L 430.011719 53.914063 L 429.675781 53.683594 L 429 53.21875 L 427.644531 52.296875 L 424.917969 50.488281 L 419.378906 46.992188 L 418.675781 46.570313 L 417.976563 46.148438 L 416.566406 45.308594 L 413.734375 43.667969 L 407.992188 40.519531 L 407.597656 40.3125 L 407.207031 40.105469 L 406.417969 39.695313 L 404.835938 38.882813 L 401.65625 37.300781 L 395.214844 34.292969 L 394.8125 34.113281 L 394.40625 33.933594 L 393.589844 33.574219 L 391.960938 32.871094 L 388.679688 31.5 L 382.058594 28.925781 L 381.667969 28.78125 L 381.28125 28.640625 L 380.5 28.355469 L 378.9375 27.800781 L 375.804688 26.722656 L 369.484375 24.710938 L 369.089844 24.59375 L 368.691406 24.472656 L 367.894531 24.238281 L 366.304688 23.78125 L 363.105469 22.898438 L 356.675781 21.28125 L 354.925781 20.875 L 353.171875 20.488281 L 349.652344 19.753906 L 342.582031 18.460938 L 342.136719 18.386719 L 341.695313 18.316406 L 340.808594 18.175781 L 339.03125 17.902344 L 335.472656 17.40625 L 328.328125 16.589844 L 327.492188 16.511719 L 326.660156 16.433594 L 324.988281 16.292969 L 321.640625 16.042969 L 314.9375 15.707031 L 314.515625 15.691406 L 314.097656 15.679688 L 313.257813 15.65625 L 311.582031 15.617188 L 308.226563 15.578125 L 301.511719 15.660156 L 301.101563 15.675781 L 300.691406 15.6875 L 299.867188 15.714844 L 298.226563 15.777344 L 294.9375 15.945313 L 288.375 16.429688 L 287.964844 16.46875 L 287.558594 16.507813 L 286.738281 16.582031 L 285.101563 16.75 L 281.832031 17.117188 L 275.3125 18.003906 L 274.429688 18.136719 L 273.546875 18.277344 L 271.785156 18.566406 L 268.273438 19.1875 L 261.277344 20.609375 L 260.839844 20.703125 L 260.40625 20.800781 L 259.535156 21 L 257.796875 21.40625 L 254.332031 22.257813 L 247.445313 24.140625 L 246.648438 24.375 L 245.847656 24.609375 L 244.253906 25.09375 L 241.078125 26.097656 L 234.777344 28.257813 L 234.386719 28.398438 L 233.992188 28.539063 L 233.210938 28.824219 L 231.652344 29.40625 L 228.542969 30.609375 L 222.386719 33.152344 L 221.972656 33.328125 L 221.558594 33.507813 L 220.730469 33.871094 L 219.082031 34.609375 L 215.804688 36.121094 L 209.328125 39.308594 L 208.929688 39.515625 L 208.527344 39.722656 L 207.726563 40.140625 L 206.132813 40.984375 L 202.964844 42.714844 L 196.714844 46.332031 L 196.335938 46.558594 L 195.957031 46.789063 L 195.203125 47.25 L 193.695313 48.183594 L 190.703125 50.085938 L 184.816406 54.035156 L 184.453125 54.285156 L 184.09375 54.542969 L 183.367188 55.050781 L 181.925781 56.082031 L 179.066406 58.175781 L 173.453125 62.503906 L 173.132813 62.761719 L 172.808594 63.019531 L 172.167969 63.539063 L 170.886719 64.585938 L 168.351563 66.707031 L 163.378906 71.0625 L 163.070313 71.339844 L 162.765625 71.621094 L 162.15625 72.175781 L 160.941406 73.300781 L 158.542969 75.574219 L 153.847656 80.226563 L 153.535156 80.546875 L 153.222656 80.871094 L 152.597656 81.515625 L 151.363281 82.8125 L 148.921875 85.4375 L 144.171875 90.804688 L 143.878906 91.144531 L 143.589844 91.488281 L 143.011719 92.171875 L 141.863281 93.550781 L 139.601563 96.332031 L 135.222656 102.003906 L 134.722656 102.675781 L 134.226563 103.351563 L 133.242188 104.703125 L 131.304688 107.429688 L 127.558594 112.976563 L 127.328125 113.328125 L 126.648438 114.382813 L 125.75 115.792969 L 123.984375 118.636719 L 120.589844 124.40625 L 120.390625 124.761719 L 120.1875 125.121094 L 119.785156 125.835938 L 118.992188 127.269531 L 117.441406 130.160156 L 114.464844 136.007813 L 114.285156 136.378906 L 114.105469 136.746094 L 113.75 137.484375 L 113.046875 138.96875 L 111.671875 141.945313 L 109.058594 147.964844 L 108.886719 148.375 L 108.71875 148.789063 L 108.382813 149.609375 L 107.71875 151.261719 L 106.433594 154.582031 L 104.03125 161.28125 L 103.886719 161.703125 L 103.464844 162.96875 L 102.914063 164.660156 L 101.851563 168.058594 L 99.894531 174.902344 L 99.472656 176.511719 L 99.0625 178.121094 L 98.277344 181.347656 L 96.855469 187.835938 L 96.773438 188.242188 L 96.695313 188.648438 L 96.535156 189.464844 L 96.222656 191.097656 L 95.640625 194.367188 L 94.625 200.929688 L 94.558594 201.390625 L 94.5 201.847656 L 94.375 202.769531 L 94.144531 204.605469 L 93.730469 208.292969 L 93.089844 215.679688 L 93.058594 216.140625 L 93.03125 216.605469 L 92.972656 217.53125 L 92.867188 219.378906 L 92.707031 223.085938 L 92.691406 223.546875 L 92.679688 224.011719 L 92.652344 224.9375 L 92.613281 226.792969 L 92.605469 227.253906 L 92.597656 227.71875 L 92.589844 228.644531 L 92.585938 229.109375 L 92.582031 229.570313 L 92.582031 230.035156 L 92.578125 230.5 " transform="matrix(1,0,0,1,-83,-6)"/>
<g clip-path="url(#clip1)" clip-rule="nonzero">
<path style="fill:none;stroke-width:2.5;stroke-linecap:square;stroke-linejoin:miter;stroke:rgb(0%,0%,0%);stroke-opacity:1;stroke-miterlimit:3.25;" d="M 92.578125 230.5 L 92.582031 230.914063 L 92.582031 231.328125 L 92.59375 232.15625 L 92.632813 233.8125 L 92.785156 237.121094 L 92.808594 237.535156 L 92.839844 237.949219 L 92.898438 238.773438 L 93.039063 240.425781 L 93.394531 243.71875 L 93.449219 244.128906 L 93.5 244.539063 L 93.613281 245.359375 L 93.851563 247 L 94.410156 250.265625 L 95.828125 256.738281 L 95.9375 257.171875 L 96.046875 257.609375 L 96.277344 258.476563 L 96.757813 260.207031 L 97.800781 263.640625 L 97.941406 264.070313 L 98.082031 264.496094 L 98.367188 265.347656 L 98.957031 267.042969 L 100.226563 270.402344 L 100.390625 270.816406 L 100.558594 271.234375 L 100.898438 272.0625 L 101.601563 273.714844 L 103.082031 276.984375 L 106.355469 283.367188 L 106.558594 283.734375 L 106.765625 284.097656 L 107.179688 284.828125 L 108.023438 286.273438 L 109.773438 289.125 L 113.515625 294.664063 L 114.007813 295.34375 L 114.5 296.015625 L 115.503906 297.347656 L 117.570313 299.972656 L 121.910156 305.03125 L 122.183594 305.332031 L 122.460938 305.632813 L 123.015625 306.230469 L 124.136719 307.414063 L 126.425781 309.734375 L 131.175781 314.171875 L 131.480469 314.441406 L 131.785156 314.707031 L 132.398438 315.238281 L 133.632813 316.289063 L 136.140625 318.335938 L 141.296875 322.21875 L 142.007813 322.726563 L 142.722656 323.222656 L 144.164063 324.207031 L 147.078125 326.109375 L 153.023438 329.65625 L 153.398438 329.867188 L 153.777344 330.074219 L 154.53125 330.488281 L 156.050781 331.300781 L 159.105469 332.859375 L 165.296875 335.722656 L 165.660156 335.878906 L 166.027344 336.035156 L 166.753906 336.339844 L 168.214844 336.941406 L 171.144531 338.085938 L 177.039063 340.160156 L 177.40625 340.28125 L 177.777344 340.398438 L 178.515625 340.636719 L 179.996094 341.089844 L 182.953125 341.953125 L 188.867188 343.46875 L 189.269531 343.5625 L 189.667969 343.652344 L 190.46875 343.832031 L 192.066406 344.179688 L 195.253906 344.8125 L 201.589844 345.863281 L 201.984375 345.917969 L 202.375 345.972656 L 203.164063 346.082031 L 204.730469 346.28125 L 207.851563 346.632813 L 214.023438 347.148438 L 214.773438 347.195313 L 215.523438 347.234375 L 217.011719 347.3125 L 219.972656 347.417969 L 225.796875 347.484375 L 237.027344 347.074219 L 237.347656 347.050781 L 237.664063 347.03125 L 238.300781 346.984375 L 239.5625 346.890625 L 242.058594 346.679688 L 246.945313 346.179688 L 256.285156 344.949219 L 274.589844 341.832031 L 289.609375 339.324219 L 289.828125 339.292969 L 290.046875 339.265625 L 291.347656 339.089844 L 293.066406 338.875 L 296.457031 338.507813 L 296.664063 338.488281 L 296.875 338.46875 L 297.292969 338.429688 L 298.128906 338.355469 L 299.796875 338.230469 L 303.101563 338.046875 L 303.992188 338.015625 L 304.882813 337.992188 L 306.664063 337.960938 L 310.222656 337.992188 L 317.402344 338.402344 L 317.617188 338.421875 L 317.828125 338.441406 L 318.253906 338.480469 L 319.105469 338.5625 L 320.816406 338.746094 L 324.292969 339.175781 L 331.480469 340.265625 L 348.542969 343.289063 L 367.777344 346.148438 L 368.078125 346.183594 L 368.378906 346.214844 L 368.980469 346.28125 L 370.195313 346.410156 L 372.644531 346.652344 L 377.648438 347.050781 L 377.964844 347.074219 L 378.285156 347.09375 L 378.921875 347.132813 L 380.203125 347.207031 L 382.789063 347.332031 L 388.058594 347.472656 L 388.421875 347.476563 L 388.78125 347.480469 L 389.507813 347.484375 L 390.96875 347.484375 L 393.910156 347.445313 L 399.890625 347.214844 L 400.265625 347.191406 L 401.402344 347.121094 L 402.921875 347.011719 L 405.980469 346.75 L 412.167969 346.035156 L 412.53125 345.988281 L 412.898438 345.9375 L 413.625 345.832031 L 415.082031 345.613281 L 418.011719 345.128906 L 423.902344 343.972656 L 424.273438 343.890625 L 424.640625 343.808594 L 425.382813 343.640625 L 426.859375 343.296875 L 429.824219 342.554688 L 435.75 340.863281 L 436.152344 340.738281 L 436.550781 340.613281 L 437.355469 340.359375 L 438.957031 339.832031 L 442.15625 338.714844 L 448.519531 336.226563 L 449.308594 335.890625 L 450.101563 335.550781 L 451.675781 334.851563 L 454.808594 333.390625 L 460.992188 330.203125 L 461.742188 329.789063 L 462.488281 329.367188 L 463.980469 328.511719 L 466.929688 326.730469 L 472.710938 322.921875 L 473.421875 322.421875 L 474.128906 321.917969 L 475.53125 320.890625 L 478.300781 318.777344 L 483.671875 314.304688 L 483.976563 314.035156 L 484.890625 313.214844 L 486.09375 312.109375 L 488.460938 309.84375 L 493.011719 305.117188 L 493.285156 304.8125 L 493.5625 304.507813 L 494.109375 303.894531 L 495.191406 302.65625 L 497.300781 300.132813 L 501.3125 294.90625 L 501.574219 294.542969 L 501.832031 294.179688 L 502.347656 293.449219 L 503.363281 291.972656 L 505.320313 288.980469 L 505.796875 288.222656 L 506.265625 287.457031 L 507.183594 285.921875 L 508.953125 282.808594 L 509.167969 282.414063 L 509.378906 282.019531 L 509.796875 281.226563 L 510.621094 279.636719 L 512.1875 276.410156 L 515.003906 269.816406 L 515.15625 269.425781 L 515.304688 269.035156 L 515.597656 268.253906 L 516.171875 266.679688 L 517.242188 263.503906 L 517.367188 263.105469 L 517.496094 262.707031 L 517.742188 261.90625 L 518.214844 260.300781 L 519.089844 257.066406 L 519.292969 256.253906 L 519.492188 255.441406 L 519.867188 253.808594 L 520.539063 250.527344 L 521.582031 243.90625 L 521.632813 243.5 L 521.679688 243.09375 L 521.773438 242.277344 L 521.941406 240.644531 L 522.199219 237.371094 L 522.226563 236.960938 L 522.25 236.550781 L 522.292969 235.730469 L 522.359375 234.089844 L 522.417969 230.804688 L 522.421875 230.394531 L 522.410156 229.164063 L 522.378906 227.519531 L 522.238281 224.238281 L 521.65625 217.699219 L 521.601563 217.253906 L 521.546875 216.8125 L 521.429688 215.929688 L 521.171875 214.167969 L 520.574219 210.65625 L 520.492188 210.21875 L 520.40625 209.78125 L 520.230469 208.90625 L 519.859375 207.164063 L 519.03125 203.699219 L 518.921875 203.269531 L 518.808594 202.835938 L 518.574219 201.976563 L 518.089844 200.265625 L 517.039063 196.859375 L 514.601563 190.167969 L 514.449219 189.78125 L 514.289063 189.398438 L 513.972656 188.628906 L 513.320313 187.101563 L 511.945313 184.074219 L 511.769531 183.699219 L 511.589844 183.328125 L 511.226563 182.578125 L 510.484375 181.09375 L 508.933594 178.15625 L 508.535156 177.429688 L 508.128906 176.707031 L 507.296875 175.269531 L 505.578125 172.429688 L 501.902344 166.914063 L 501.640625 166.550781 L 501.378906 166.183594 L 500.851563 165.460938 L 499.777344 164.019531 L 497.570313 161.195313 L 497.285156 160.847656 L 497.003906 160.5 L 496.433594 159.808594 L 495.277344 158.441406 L 492.902344 155.761719 L 492.601563 155.433594 L 491.6875 154.449219 L 490.453125 153.160156 L 487.929688 150.632813 L 482.675781 145.824219 L 482.347656 145.539063 L 482.015625 145.257813 L 481.347656 144.695313 L 480.003906 143.582031 L 477.277344 141.425781 L 471.664063 137.351563 L 471.308594 137.109375 L 470.949219 136.867188 L 470.230469 136.386719 L 468.789063 135.441406 L 465.871094 133.613281 L 459.921875 130.210938 L 459.21875 129.835938 L 458.515625 129.46875 L 457.101563 128.742188 L 454.257813 127.34375 L 448.511719 124.769531 L 448.152344 124.617188 L 447.789063 124.46875 L 447.066406 124.171875 L 445.613281 123.589844 L 442.703125 122.480469 L 436.855469 120.480469 L 436.460938 120.355469 L 436.0625 120.230469 L 435.265625 119.984375 L 433.675781 119.511719 L 430.496094 118.621094 L 424.144531 117.078125 L 423.746094 116.992188 L 423.351563 116.90625 L 422.558594 116.738281 L 420.976563 116.421875 L 417.820313 115.835938 L 411.554688 114.878906 L 410.828125 114.785156 L 410.101563 114.695313 L 408.65625 114.523438 L 405.773438 114.226563 L 400.078125 113.792969 L 388.992188 113.515625 L 388.660156 113.519531 L 388.328125 113.519531 L 387.664063 113.53125 L 386.347656 113.554688 L 383.730469 113.628906 L 378.597656 113.882813 L 368.730469 114.742188 L 349.265625 117.582031 L 333.375 120.414063 L 333.121094 120.457031 L 332.871094 120.5 L 332.367188 120.582031 L 331.367188 120.75 L 329.386719 121.074219 L 325.507813 121.65625 L 318.011719 122.539063 L 317.582031 122.578125 L 317.15625 122.617188 L 316.300781 122.6875 L 314.601563 122.808594 L 311.222656 122.972656 L 304.503906 122.996094 L 304.296875 122.992188 L 304.09375 122.984375 L 303.679688 122.972656 L 302.855469 122.9375 L 301.199219 122.855469 L 297.863281 122.617188 L 291.042969 121.867188 L 275.128906 119.261719 L 258.269531 116.347656 L 257.964844 116.300781 L 257.65625 116.253906 L 257.042969 116.160156 L 255.808594 115.976563 L 253.308594 115.617188 L 248.171875 114.957031 L 247.847656 114.921875 L 247.519531 114.882813 L 246.863281 114.808594 L 245.542969 114.664063 L 242.867188 114.394531 L 237.390625 113.949219 L 237.046875 113.925781 L 236.707031 113.902344 L 236.019531 113.859375 L 234.640625 113.78125 L 231.855469 113.652344 L 226.171875 113.515625 L 225.8125 113.515625 L 225.453125 113.511719 L 224.730469 113.511719 L 223.277344 113.515625 L 220.351563 113.566406 L 214.40625 113.824219 L 213.703125 113.871094 L 213.003906 113.917969 L 211.59375 114.023438 L 208.761719 114.273438 L 203.035156 114.933594 L 202.675781 114.984375 L 202.3125 115.03125 L 201.59375 115.132813 L 200.144531 115.351563 L 197.242188 115.824219 L 191.40625 116.960938 L 191.007813 117.046875 L 190.613281 117.132813 L 189.816406 117.3125 L 188.226563 117.679688 L 185.042969 118.480469 L 178.671875 120.3125 L 178.273438 120.4375 L 177.875 120.566406 L 177.082031 120.824219 L 175.492188 121.351563 L 172.320313 122.472656 L 166.011719 124.96875 L 165.644531 125.125 L 165.28125 125.28125 L 164.550781 125.601563 L 163.089844 126.25 L 160.191406 127.609375 L 154.460938 130.546875 L 153.75 130.9375 L 153.042969 131.328125 L 151.632813 132.128906 L 148.84375 133.789063 L 143.363281 137.332031 L 143.035156 137.558594 L 142.703125 137.785156 L 142.046875 138.246094 L 140.738281 139.179688 L 138.152344 141.097656 L 133.121094 145.140625 L 132.8125 145.402344 L 132.507813 145.667969 L 131.894531 146.195313 L 130.679688 147.269531 L 128.292969 149.460938 L 123.691406 154.050781 L 123.386719 154.371094 L 123.085938 154.691406 L 122.484375 155.339844 L 121.296875 156.648438 L 118.976563 159.320313 L 118.695313 159.65625 L 118.410156 159.996094 L 117.847656 160.679688 L 116.738281 162.0625 L 114.582031 164.871094 L 114.320313 165.230469 L 114.054688 165.585938 L 113.535156 166.304688 L 112.511719 167.75 L 110.527344 170.695313 L 106.839844 176.765625 L 106.636719 177.125 L 106.433594 177.488281 L 106.035156 178.214844 L 105.25 179.675781 L 103.746094 182.632813 L 103.566406 183.003906 L 103.027344 184.128906 L 102.332031 185.632813 L 101.007813 188.675781 L 100.847656 189.058594 L 100.691406 189.445313 L 100.378906 190.210938 L 99.773438 191.757813 L 98.632813 194.875 L 96.636719 201.210938 L 96.511719 201.65625 L 96.390625 202.105469 L 96.152344 203 L 95.695313 204.796875 L 94.871094 208.410156 L 94.683594 209.316406 L 94.507813 210.226563 L 94.171875 212.050781 L 93.601563 215.714844 L 93.539063 216.171875 L 93.476563 216.632813 L 93.363281 217.554688 L 93.15625 219.394531 L 92.835938 223.089844 L 92.804688 223.550781 L 92.777344 224.015625 L 92.722656 224.941406 L 92.644531 226.792969 L 92.628906 227.253906 L 92.617188 227.71875 L 92.597656 228.644531 L 92.589844 229.109375 L 92.585938 229.570313 L 92.578125 230.5 " transform="matrix(1,0,0,1,-83,-6)"/>
</g>
<path style="fill:none;stroke-width:0.25;stroke-linecap:butt;stroke-linejoin:miter;stroke:rgb(39.99939%,39.99939%,39.99939%);stroke-opacity:1;stroke-miterlimit:3.25;" d="M 83.625 230.5 L 531.375 230.5 " transform="matrix(1,0,0,1,-83,-6)"/>
<path style="fill:none;stroke-width:0.25;stroke-linecap:butt;stroke-linejoin:miter;stroke:rgb(39.99939%,39.99939%,39.99939%);stroke-opacity:1;stroke-miterlimit:3.25;" d="M 307.5 454.367188 L 307.5 6.625 " transform="matrix(1,0,0,1,-83,-6)"/>
</g>
</svg>
