<?xml version="1.0" encoding="UTF-8"?>
<svg xmlns="http://www.w3.org/2000/svg" xmlns:xlink="http://www.w3.org/1999/xlink" width="450pt" height="365pt" viewBox="0 0 450 365" version="1.1">
<defs>
<clipPath id="clip1">
  <path d="M 0 0 L 449 0 L 449 363.121094 L 0 363.121094 Z M 0 0 "/>
</clipPath>
<clipPath id="clip2">
  <path d="M 0 16 L 449.039063 16 L 449.039063 347 L 0 347 Z M 0 16 "/>
</clipPath>
</defs>
<g id="surface112">
<path style="fill:none;stroke-width:2;stroke-linecap:square;stroke-linejoin:miter;stroke:rgb(0%,0%,0%);stroke-opacity:1;stroke-dasharray:5,5;stroke-miterlimit:3.25;" d="M 92.578125 187.617188 L 92.578125 187.628906 L 92.582031 187.636719 L 92.582031 187.703125 L 92.585938 187.710938 L 92.585938 187.730469 L 92.59375 187.765625 L 92.59375 187.785156 L 92.597656 187.804688 L 92.609375 187.839844 L 92.628906 187.914063 L 92.632813 187.921875 L 92.636719 187.933594 L 92.640625 187.949219 L 92.65625 187.988281 L 92.664063 188.003906 L 92.671875 188.023438 L 92.691406 188.058594 L 92.699219 188.074219 L 92.710938 188.09375 L 92.730469 188.128906 L 92.773438 188.195313 L 92.78125 188.203125 L 92.789063 188.214844 L 92.800781 188.230469 L 92.832031 188.265625 L 92.835938 188.277344 L 92.859375 188.300781 L 92.890625 188.335938 L 92.925781 188.371094 L 93.03125 188.464844 L 93.042969 188.472656 L 93.050781 188.480469 L 93.109375 188.527344 L 93.195313 188.582031 L 93.207031 188.589844 L 93.214844 188.597656 L 93.238281 188.609375 L 93.285156 188.636719 L 93.375 188.683594 L 93.386719 188.691406 L 93.398438 188.695313 L 93.421875 188.707031 L 93.5625 188.765625 L 93.574219 188.773438 L 93.609375 188.785156 L 93.65625 188.804688 L 93.757813 188.835938 L 93.78125 188.84375 L 93.808594 188.851563 L 93.859375 188.863281 L 93.960938 188.890625 L 94.175781 188.929688 L 94.1875 188.929688 L 94.203125 188.933594 L 94.226563 188.933594 L 94.28125 188.941406 L 94.386719 188.953125 L 94.601563 188.964844 L 94.8125 188.964844 L 95.019531 188.953125 L 95.035156 188.949219 L 95.046875 188.949219 L 95.074219 188.945313 L 95.132813 188.941406 L 95.238281 188.929688 L 95.449219 188.894531 L 95.464844 188.890625 L 95.476563 188.890625 L 95.5 188.882813 L 95.550781 188.875 L 95.648438 188.851563 L 95.835938 188.804688 L 95.84375 188.800781 L 95.855469 188.796875 L 95.875 188.792969 L 95.917969 188.78125 L 95.996094 188.757813 L 96.140625 188.707031 L 96.390625 188.617188 L 96.40625 188.609375 L 96.417969 188.605469 L 96.445313 188.59375 L 96.5 188.574219 L 96.503906 188.570313 L 96.511719 188.570313 L 96.523438 188.5625 L 96.546875 188.554688 L 96.589844 188.539063 L 96.597656 188.539063 L 96.601563 188.535156 L 96.613281 188.53125 L 96.632813 188.527344 L 96.636719 188.527344 L 96.640625 188.523438 L 96.648438 188.519531 L 96.667969 188.515625 L 96.675781 188.515625 L 96.683594 188.511719 L 96.699219 188.511719 L 96.703125 188.507813 L 96.761719 188.507813 L 96.765625 188.511719 L 96.773438 188.511719 L 96.777344 188.515625 L 96.78125 188.515625 L 96.785156 188.519531 L 96.789063 188.519531 L 96.789063 188.523438 L 96.792969 188.523438 L 96.792969 188.527344 L 96.796875 188.527344 L 96.800781 188.53125 L 96.800781 188.535156 L 96.804688 188.539063 L 96.804688 188.542969 L 96.808594 188.542969 L 96.808594 188.550781 L 96.8125 188.550781 L 96.8125 188.558594 L 96.816406 188.5625 L 96.816406 188.570313 L 96.820313 188.574219 L 96.820313 188.585938 L 96.824219 188.597656 L 96.824219 188.648438 L 96.828125 188.664063 L 96.824219 188.707031 L 96.816406 188.800781 L 96.789063 189.0625 L 96.789063 189.085938 L 96.785156 189.109375 L 96.78125 189.152344 L 96.773438 189.25 L 96.75 189.472656 L 96.71875 190.050781 L 96.71875 190.089844 L 96.714844 190.128906 L 96.714844 190.214844 L 96.710938 190.390625 L 96.714844 190.785156 L 96.757813 191.765625 L 96.757813 191.800781 L 96.761719 191.835938 L 96.765625 191.90625 L 96.777344 192.054688 L 96.804688 192.363281 L 96.882813 193.046875 L 96.886719 193.09375 L 96.894531 193.140625 L 96.90625 193.234375 L 96.933594 193.429688 L 96.992188 193.835938 L 97.148438 194.742188 L 97.679688 197.171875 L 98.609375 200.382813 L 102.121094 209.0625 L 103.660156 212.128906 L 105.527344 215.53125 L 107.777344 219.285156 L 110.457031 223.398438 L 113.570313 227.785156 L 117.203125 232.511719 L 121.421875 237.570313 L 126.273438 242.941406 L 131.421875 248.207031 L 137.207031 253.691406 L 143.671875 259.363281 L 150.847656 265.171875 L 159.476563 271.578125 L 169.003906 278.023438 L 179.453125 284.429688 L 190.832031 290.707031 L 214.53125 301.761719 L 241.269531 311.390625 L 273.246094 319.425781 L 307.636719 324.160156 L 316.339844 324.726563 L 325.109375 325.042969 L 342.789063 324.875 L 378.15625 321.15625 L 410.183594 313.414063 L 440.113281 301.492188 L 455.058594 293.339844 L 468.878906 284.066406 L 481.40625 273.746094 L 492.488281 262.472656 L 508.847656 239.277344 L 518.976563 214.023438 L 519.765625 210.832031 L 520.453125 207.628906 L 521.519531 201.1875 L 522.417969 188.222656 L 519.285156 162.402344 L 508.609375 135.527344 L 490.902344 110.992188 L 480.472656 100.644531 L 468.808594 91.121094 L 456.039063 82.492188 L 442.292969 74.824219 L 409.804688 61.703125 L 374.847656 53.527344 L 357.230469 51.316406 L 339.542969 50.25 L 304.5625 51.339844 L 273.226563 55.8125 L 243.910156 63.042969 L 215.042969 73.261719 L 189.664063 85.140625 L 179.082031 91.019531 L 169.3125 97.011719 L 160.351563 103.039063 L 152.179688 109.035156 L 144.914063 114.835938 L 138.359375 120.5 L 132.480469 125.988281 L 127.246094 131.269531 L 122.238281 136.726563 L 117.890625 141.871094 L 114.136719 146.6875 L 110.925781 151.15625 L 108.367188 155.011719 L 106.191406 158.5625 L 104.351563 161.8125 L 102.808594 164.769531 L 101.429688 167.660156 L 100.3125 170.238281 L 98.710938 174.542969 L 97.226563 180.070313 L 97.179688 180.320313 L 97.132813 180.566406 L 97.050781 181.03125 L 96.925781 181.867188 L 96.773438 183.234375 L 96.769531 183.273438 L 96.769531 183.3125 L 96.761719 183.390625 L 96.75 183.542969 L 96.734375 183.828125 L 96.714844 184.335938 L 96.71875 185.140625 L 96.71875 185.21875 L 96.722656 185.296875 L 96.730469 185.441406 L 96.746094 185.695313 L 96.785156 186.097656 L 96.785156 186.121094 L 96.789063 186.144531 L 96.792969 186.1875 L 96.800781 186.269531 L 96.816406 186.40625 L 96.816406 186.421875 L 96.820313 186.433594 L 96.820313 186.464844 L 96.824219 186.515625 L 96.824219 186.640625 L 96.820313 186.648438 L 96.820313 186.660156 L 96.816406 186.664063 L 96.816406 186.671875 L 96.8125 186.675781 L 96.8125 186.683594 L 96.808594 186.6875 L 96.808594 186.691406 L 96.804688 186.691406 L 96.804688 186.695313 L 96.800781 186.699219 L 96.800781 186.703125 L 96.796875 186.703125 L 96.796875 186.707031 L 96.792969 186.707031 L 96.792969 186.710938 L 96.789063 186.714844 L 96.785156 186.714844 L 96.78125 186.71875 L 96.777344 186.71875 L 96.777344 186.722656 L 96.769531 186.722656 L 96.765625 186.726563 L 96.746094 186.726563 L 96.742188 186.730469 L 96.726563 186.730469 L 96.722656 186.726563 L 96.699219 186.726563 L 96.691406 186.722656 L 96.675781 186.722656 L 96.671875 186.71875 L 96.660156 186.71875 L 96.644531 186.710938 L 96.609375 186.703125 L 96.605469 186.699219 L 96.601563 186.699219 L 96.589844 186.695313 L 96.53125 186.671875 L 96.433594 186.636719 L 96.429688 186.632813 L 96.421875 186.632813 L 96.40625 186.625 L 96.378906 186.613281 L 96.316406 186.589844 L 96.179688 186.539063 L 96.171875 186.539063 L 96.160156 186.535156 L 96.140625 186.527344 L 96.105469 186.515625 L 96.027344 186.488281 L 95.855469 186.4375 L 95.84375 186.433594 L 95.835938 186.429688 L 95.8125 186.425781 L 95.683594 186.390625 L 95.5 186.351563 L 95.488281 186.347656 L 95.476563 186.347656 L 95.449219 186.339844 L 95.402344 186.332031 L 95.304688 186.316406 L 95.101563 186.289063 L 95.074219 186.289063 L 95.050781 186.285156 L 95 186.28125 L 94.894531 186.273438 L 94.683594 186.269531 L 94.578125 186.269531 L 94.472656 186.277344 L 94.257813 186.296875 L 94.246094 186.296875 L 94.230469 186.300781 L 94.203125 186.304688 L 94.144531 186.3125 L 94.03125 186.332031 L 94.019531 186.335938 L 94.003906 186.335938 L 93.976563 186.34375 L 93.921875 186.355469 L 93.796875 186.386719 L 93.785156 186.390625 L 93.757813 186.398438 L 93.707031 186.417969 L 93.589844 186.457031 L 93.574219 186.460938 L 93.550781 186.472656 L 93.5 186.492188 L 93.402344 186.535156 L 93.390625 186.542969 L 93.378906 186.546875 L 93.359375 186.558594 L 93.230469 186.628906 L 93.222656 186.636719 L 93.210938 186.640625 L 93.191406 186.65625 L 93.152344 186.679688 L 93.078125 186.734375 L 93.066406 186.742188 L 93.058594 186.75 L 93.039063 186.761719 L 93.007813 186.792969 L 92.996094 186.796875 L 92.878906 186.914063 L 92.824219 186.976563 L 92.816406 186.984375 L 92.808594 186.996094 L 92.792969 187.011719 L 92.765625 187.050781 L 92.761719 187.058594 L 92.753906 187.070313 L 92.71875 187.128906 L 92.710938 187.136719 L 92.707031 187.148438 L 92.695313 187.167969 L 92.675781 187.207031 L 92.640625 187.285156 L 92.636719 187.296875 L 92.632813 187.304688 L 92.628906 187.328125 L 92.613281 187.367188 L 92.613281 187.378906 L 92.609375 187.386719 L 92.605469 187.410156 L 92.59375 187.449219 L 92.59375 187.472656 L 92.589844 187.492188 L 92.582031 187.535156 L 92.582031 187.597656 L 92.578125 187.605469 L 92.578125 187.617188 " transform="matrix(1,0,0,1,-83,-6)"/>
<g clip-path="url(#clip1)" clip-rule="nonzero">
<path style="fill:none;stroke-width:2;stroke-linecap:square;stroke-linejoin:miter;stroke:rgb(0%,0%,0%);stroke-opacity:1;stroke-dasharray:1.25,5;stroke-miterlimit:3.25;" d="M 92.578125 187.617188 L 92.578125 187.628906 L 92.582031 187.636719 L 92.582031 187.691406 L 92.585938 187.703125 L 92.585938 187.730469 L 92.59375 187.765625 L 92.59375 187.777344 L 92.597656 187.785156 L 92.601563 187.804688 L 92.609375 187.839844 L 92.628906 187.914063 L 92.632813 187.921875 L 92.636719 187.933594 L 92.644531 187.949219 L 92.660156 187.988281 L 92.667969 188.003906 L 92.675781 188.023438 L 92.695313 188.058594 L 92.703125 188.074219 L 92.714844 188.09375 L 92.734375 188.128906 L 92.78125 188.195313 L 92.789063 188.203125 L 92.792969 188.214844 L 92.808594 188.230469 L 92.839844 188.265625 L 92.847656 188.273438 L 92.851563 188.285156 L 92.871094 188.300781 L 92.902344 188.335938 L 92.917969 188.351563 L 92.9375 188.367188 L 92.972656 188.398438 L 93.046875 188.460938 L 93.070313 188.476563 L 93.128906 188.523438 L 93.21875 188.578125 L 93.230469 188.582031 L 93.242188 188.589844 L 93.265625 188.601563 L 93.3125 188.628906 L 93.410156 188.675781 L 93.421875 188.679688 L 93.433594 188.6875 L 93.457031 188.695313 L 93.507813 188.714844 L 93.605469 188.753906 L 93.621094 188.757813 L 93.632813 188.761719 L 93.660156 188.769531 L 93.710938 188.785156 L 93.816406 188.816406 L 93.832031 188.820313 L 93.84375 188.820313 L 93.871094 188.828125 L 93.925781 188.839844 L 94.039063 188.859375 L 94.269531 188.890625 L 94.300781 188.890625 L 94.328125 188.894531 L 94.386719 188.898438 L 94.503906 188.902344 L 94.621094 188.902344 L 94.738281 188.898438 L 94.765625 188.898438 L 94.796875 188.894531 L 94.972656 188.882813 L 95.203125 188.851563 L 95.21875 188.847656 L 95.234375 188.847656 L 95.265625 188.839844 L 95.324219 188.828125 L 95.445313 188.804688 L 95.679688 188.746094 L 95.691406 188.742188 L 95.707031 188.738281 L 95.789063 188.714844 L 95.894531 188.683594 L 96.089844 188.613281 L 96.113281 188.605469 L 96.132813 188.597656 L 96.175781 188.582031 L 96.253906 188.554688 L 96.390625 188.496094 L 96.398438 188.492188 L 96.40625 188.492188 L 96.421875 188.484375 L 96.453125 188.472656 L 96.503906 188.453125 L 96.511719 188.449219 L 96.515625 188.449219 L 96.550781 188.4375 L 96.554688 188.433594 L 96.5625 188.433594 L 96.570313 188.429688 L 96.589844 188.425781 L 96.59375 188.425781 L 96.597656 188.421875 L 96.617188 188.421875 L 96.625 188.417969 L 96.632813 188.417969 L 96.636719 188.421875 L 96.648438 188.421875 L 96.652344 188.425781 L 96.65625 188.425781 L 96.660156 188.429688 L 96.660156 188.433594 L 96.664063 188.433594 L 96.664063 188.441406 L 96.667969 188.445313 L 96.667969 188.476563 L 96.664063 188.480469 L 96.664063 188.496094 L 96.660156 188.5 L 96.65625 188.511719 L 96.648438 188.539063 L 96.648438 188.542969 L 96.636719 188.566406 L 96.625 188.597656 L 96.589844 188.675781 L 96.585938 188.6875 L 96.546875 188.765625 L 96.496094 188.878906 L 96.363281 189.160156 L 96.351563 189.179688 L 96.34375 189.199219 L 96.324219 189.242188 L 96.28125 189.332031 L 96.195313 189.53125 L 95.996094 190.003906 L 95.984375 190.035156 L 95.96875 190.066406 L 95.945313 190.132813 L 95.894531 190.265625 L 95.785156 190.550781 L 95.554688 191.214844 L 95.539063 191.257813 L 95.527344 191.304688 L 95.496094 191.398438 L 95.4375 191.589844 L 95.3125 192 L 95.0625 192.921875 L 94.542969 195.453125 L 94.132813 198.804688 L 94.144531 207.65625 L 96.109375 220.09375 L 97.152344 224.15625 L 98.472656 228.515625 L 100.101563 233.167969 L 102.074219 238.109375 L 104.246094 242.96875 L 106.777344 248.058594 L 109.6875 253.371094 L 113.007813 258.878906 L 117.09375 265.058594 L 121.722656 271.417969 L 126.917969 277.929688 L 132.714844 284.554688 L 139.003906 291.125 L 145.914063 297.71875 L 153.453125 304.289063 L 161.632813 310.78125 L 178.621094 322.503906 L 197.835938 333.398438 L 221.082031 343.8125 L 246.609375 352.277344 L 272.1875 357.96875 L 299.085938 361.144531 L 314.046875 361.695313 L 329.179688 361.363281 L 359.605469 357.914063 L 389.058594 350.757813 L 417.328125 339.792969 L 429.886719 333.386719 L 441.941406 326.1875 L 453.40625 318.214844 L 464.207031 309.5 L 485.019531 288.257813 L 501.710938 264.222656 L 513.089844 239.808594 L 520.0625 214.089844 L 520.601563 210.878906 L 521.074219 207.660156 L 521.804688 201.199219 L 522.421875 188.222656 L 520.273438 162.34375 L 512.925781 134.980469 L 500.601563 109.105469 L 484.96875 86.921875 L 465.800781 67.136719 L 454.121094 57.5625 L 441.652344 48.863281 L 428.488281 41.082031 L 414.734375 34.246094 L 386.398438 23.664063 L 356.953125 16.867188 L 343.058594 14.972656 L 329.164063 13.871094 L 301.648438 13.9375 L 272.722656 17.175781 L 245.296875 23.324219 L 221.460938 31.273438 L 199.617188 40.941406 L 180.316406 51.675781 L 163.214844 63.265625 L 154.867188 69.777344 L 147.167969 76.378906 L 140.113281 83.011719 L 133.683594 89.628906 L 128.230469 95.75 L 123.292969 101.785156 L 118.84375 107.699219 L 114.867188 113.46875 L 111.058594 119.53125 L 107.738281 125.367188 L 104.875 130.953125 L 102.4375 136.273438 L 100.511719 140.984375 L 98.898438 145.445313 L 97.566406 149.640625 L 96.488281 153.578125 L 95.65625 157.179688 L 95.019531 160.527344 L 94.234375 166.476563 L 94.113281 176.1875 L 94.953125 181.859375 L 94.972656 181.929688 L 94.988281 182 L 95.023438 182.144531 L 95.089844 182.414063 L 95.226563 182.929688 L 95.496094 183.832031 L 95.980469 185.195313 L 95.996094 185.230469 L 96.007813 185.261719 L 96.035156 185.328125 L 96.085938 185.449219 L 96.183594 185.679688 L 96.351563 186.054688 L 96.363281 186.074219 L 96.371094 186.097656 L 96.390625 186.136719 L 96.425781 186.210938 L 96.488281 186.34375 L 96.585938 186.550781 L 96.589844 186.558594 L 96.59375 186.570313 L 96.601563 186.585938 L 96.617188 186.621094 L 96.632813 186.652344 L 96.644531 186.683594 L 96.644531 186.6875 L 96.648438 186.695313 L 96.652344 186.707031 L 96.652344 186.710938 L 96.65625 186.71875 L 96.660156 186.730469 L 96.660156 186.738281 L 96.664063 186.75 L 96.664063 186.757813 L 96.667969 186.765625 L 96.667969 186.792969 L 96.664063 186.796875 L 96.664063 186.800781 L 96.65625 186.808594 L 96.652344 186.808594 L 96.652344 186.8125 L 96.640625 186.8125 L 96.640625 186.816406 L 96.617188 186.816406 L 96.613281 186.8125 L 96.601563 186.8125 L 96.582031 186.808594 L 96.578125 186.808594 L 96.5625 186.800781 L 96.539063 186.792969 L 96.53125 186.792969 L 96.527344 186.789063 L 96.511719 186.785156 L 96.484375 186.777344 L 96.425781 186.75 L 96.417969 186.75 L 96.394531 186.738281 L 96.359375 186.722656 L 96.28125 186.695313 L 96.113281 186.628906 L 96.066406 186.613281 L 96.023438 186.597656 L 95.929688 186.5625 L 95.730469 186.503906 L 95.71875 186.5 L 95.703125 186.496094 L 95.679688 186.488281 L 95.625 186.472656 L 95.515625 186.445313 L 95.292969 186.398438 L 95.277344 186.398438 L 95.265625 186.394531 L 95.234375 186.390625 L 95.179688 186.378906 L 95.0625 186.363281 L 95.050781 186.363281 L 95.035156 186.359375 L 95.003906 186.355469 L 94.949219 186.351563 L 94.832031 186.339844 L 94.800781 186.339844 L 94.773438 186.335938 L 94.714844 186.335938 L 94.597656 186.332031 L 94.363281 186.339844 L 94.332031 186.339844 L 94.300781 186.34375 L 94.238281 186.347656 L 94.117188 186.363281 L 94.101563 186.363281 L 94.085938 186.367188 L 94.054688 186.371094 L 93.996094 186.382813 L 93.875 186.40625 L 93.863281 186.410156 L 93.847656 186.414063 L 93.820313 186.417969 L 93.761719 186.433594 L 93.648438 186.46875 L 93.636719 186.472656 L 93.621094 186.476563 L 93.597656 186.484375 L 93.542969 186.503906 L 93.4375 186.546875 L 93.425781 186.550781 L 93.414063 186.558594 L 93.390625 186.566406 L 93.347656 186.589844 L 93.257813 186.636719 L 93.246094 186.640625 L 93.238281 186.648438 L 93.214844 186.660156 L 93.175781 186.683594 L 93.09375 186.738281 L 93.085938 186.746094 L 93.078125 186.75 L 93.058594 186.765625 L 93.019531 186.792969 L 93.003906 186.808594 L 92.984375 186.824219 L 92.953125 186.851563 L 92.890625 186.914063 L 92.832031 186.976563 L 92.824219 186.988281 L 92.816406 186.996094 L 92.800781 187.015625 L 92.773438 187.050781 L 92.765625 187.0625 L 92.757813 187.070313 L 92.722656 187.128906 L 92.714844 187.136719 L 92.710938 187.148438 L 92.699219 187.167969 L 92.675781 187.214844 L 92.667969 187.226563 L 92.644531 187.285156 L 92.640625 187.296875 L 92.636719 187.304688 L 92.628906 187.328125 L 92.617188 187.367188 L 92.613281 187.378906 L 92.609375 187.386719 L 92.605469 187.410156 L 92.597656 187.449219 L 92.59375 187.460938 L 92.59375 187.472656 L 92.589844 187.492188 L 92.585938 187.535156 L 92.582031 187.542969 L 92.582031 187.597656 L 92.578125 187.605469 L 92.578125 187.617188 " transform="matrix(1,0,0,1,-83,-6)"/>
</g>
<g clip-path="url(#clip2)" clip-rule="nonzero">
<path style="fill:none;stroke-width:2.5;stroke-linecap:square;stroke-linejoin:miter;stroke:rgb(0%,0%,0%);stroke-opacity:1;stroke-miterlimit:3.25;" d="M 92.578125 187.617188 L 92.578125 187.628906 L 92.582031 187.636719 L 92.582031 187.703125 L 92.585938 187.710938 L 92.585938 187.730469 L 92.59375 187.765625 L 92.59375 187.777344 L 92.597656 187.785156 L 92.601563 187.804688 L 92.609375 187.839844 L 92.628906 187.914063 L 92.632813 187.921875 L 92.636719 187.933594 L 92.644531 187.949219 L 92.65625 187.988281 L 92.660156 187.996094 L 92.667969 188.003906 L 92.675781 188.023438 L 92.691406 188.058594 L 92.695313 188.066406 L 92.703125 188.074219 L 92.710938 188.09375 L 92.730469 188.128906 L 92.777344 188.195313 L 92.785156 188.203125 L 92.792969 188.214844 L 92.804688 188.230469 L 92.835938 188.265625 L 92.839844 188.273438 L 92.847656 188.285156 L 92.964844 188.402344 L 93.039063 188.464844 L 93.050781 188.472656 L 93.058594 188.480469 L 93.078125 188.496094 L 93.207031 188.578125 L 93.230469 188.59375 L 93.25 188.605469 L 93.296875 188.632813 L 93.394531 188.679688 L 93.40625 188.6875 L 93.417969 188.691406 L 93.441406 188.703125 L 93.488281 188.722656 L 93.585938 188.761719 L 93.632813 188.777344 L 93.683594 188.792969 L 93.789063 188.824219 L 93.8125 188.832031 L 93.839844 188.839844 L 93.894531 188.851563 L 94 188.875 L 94.222656 188.910156 L 94.25 188.910156 L 94.332031 188.921875 L 94.445313 188.925781 L 94.457031 188.929688 L 94.554688 188.929688 L 94.667969 188.933594 L 94.683594 188.933594 L 94.695313 188.929688 L 94.78125 188.929688 L 94.890625 188.921875 L 95.113281 188.902344 L 95.125 188.898438 L 95.140625 188.898438 L 95.171875 188.894531 L 95.226563 188.886719 L 95.34375 188.867188 L 95.5625 188.820313 L 95.578125 188.816406 L 95.589844 188.8125 L 95.617188 188.808594 L 95.667969 188.792969 L 95.773438 188.765625 L 95.960938 188.710938 L 95.984375 188.703125 L 96.003906 188.695313 L 96.046875 188.683594 L 96.125 188.65625 L 96.265625 188.601563 L 96.273438 188.597656 L 96.28125 188.597656 L 96.300781 188.589844 L 96.332031 188.578125 L 96.390625 188.554688 L 96.488281 188.519531 L 96.496094 188.519531 L 96.5 188.515625 L 96.511719 188.511719 L 96.535156 188.507813 L 96.539063 188.503906 L 96.546875 188.503906 L 96.554688 188.5 L 96.574219 188.5 L 96.578125 188.496094 L 96.628906 188.496094 L 96.628906 188.5 L 96.636719 188.5 L 96.640625 188.503906 L 96.644531 188.503906 L 96.644531 188.507813 L 96.648438 188.507813 L 96.648438 188.511719 L 96.652344 188.511719 L 96.652344 188.515625 L 96.65625 188.519531 L 96.65625 188.527344 L 96.660156 188.53125 L 96.660156 188.570313 L 96.65625 188.589844 L 96.65625 188.601563 L 96.652344 188.613281 L 96.648438 188.636719 L 96.632813 188.695313 L 96.582031 188.84375 L 96.410156 189.316406 L 96.40625 189.335938 L 96.398438 189.351563 L 96.386719 189.390625 L 96.359375 189.464844 L 96.304688 189.628906 L 96.1875 190.007813 L 96.179688 190.035156 L 96.171875 190.058594 L 96.125 190.222656 L 96.058594 190.460938 L 95.925781 190.992188 L 95.917969 191.03125 L 95.910156 191.074219 L 95.890625 191.152344 L 95.855469 191.320313 L 95.785156 191.671875 L 95.648438 192.464844 L 95.640625 192.515625 L 95.628906 192.570313 L 95.613281 192.679688 L 95.582031 192.90625 L 95.523438 193.378906 L 95.425781 194.425781 L 95.339844 196.78125 L 95.449219 199.710938 L 96.628906 207.417969 L 100.339844 219.246094 L 101.738281 222.582031 L 103.390625 226.148438 L 105.324219 229.945313 L 107.5625 233.972656 L 110.375 238.59375 L 113.625 243.476563 L 117.347656 248.609375 L 121.585938 253.976563 L 126.289063 259.457031 L 131.558594 265.117188 L 137.4375 270.929688 L 143.953125 276.863281 L 157.914063 288.097656 L 174.34375 299.285156 L 195.042969 310.917969 L 218.71875 321.492188 L 243.359375 329.863281 L 270.175781 336.265625 L 285.476563 338.730469 L 301.214844 340.394531 L 333.621094 341.035156 L 365.925781 337.816406 L 397.742188 330.476563 L 426.0625 319.800781 L 452.160156 305.496094 L 465.074219 296.300781 L 476.949219 286.160156 L 487.660156 275.148438 L 497.101563 263.347656 L 510.96875 239.542969 L 519.519531 214.054688 L 520.183594 210.855469 L 520.761719 207.644531 L 521.660156 201.195313 L 522.417969 188.222656 L 519.777344 162.371094 L 510.769531 135.253906 L 495.753906 110.050781 L 476.890625 89.019531 L 454.046875 70.980469 L 440.285156 62.605469 L 425.726563 55.28125 L 410.515625 49.039063 L 394.789063 43.886719 L 362.96875 36.957031 L 330.757813 34.101563 L 315.871094 34.082031 L 301.195313 34.839844 L 272.777344 38.488281 L 243.882813 45.21875 L 217.480469 54.230469 L 195.386719 64.140625 L 175.898438 74.988281 L 159.339844 86.085938 L 145.230469 97.265625 L 138.554688 103.253906 L 132.527344 109.125 L 127.125 114.847656 L 122.304688 120.394531 L 118.300781 125.378906 L 114.742188 130.171875 L 111.597656 134.753906 L 108.835938 139.117188 L 106.242188 143.59375 L 104.027344 147.800781 L 102.148438 151.738281 L 100.574219 155.40625 L 98.339844 161.554688 L 96.859375 166.824219 L 95.503906 174.855469 L 95.414063 180.664063 L 95.417969 180.730469 L 95.425781 180.796875 L 95.433594 180.925781 L 95.457031 181.179688 L 95.503906 181.660156 L 95.613281 182.539063 L 95.628906 182.640625 L 95.640625 182.742188 L 95.671875 182.9375 L 95.738281 183.308594 L 95.867188 183.980469 L 95.878906 184.019531 L 95.886719 184.0625 L 95.90625 184.144531 L 95.941406 184.300781 L 96.015625 184.597656 L 96.15625 185.117188 L 96.402344 185.898438 L 96.410156 185.917969 L 96.417969 185.933594 L 96.429688 185.972656 L 96.453125 186.042969 L 96.5 186.167969 L 96.578125 186.378906 L 96.585938 186.402344 L 96.59375 186.421875 L 96.605469 186.460938 L 96.628906 186.53125 L 96.632813 186.539063 L 96.632813 186.546875 L 96.640625 186.5625 L 96.648438 186.589844 L 96.648438 186.605469 L 96.652344 186.617188 L 96.65625 186.640625 L 96.65625 186.644531 L 96.660156 186.648438 L 96.660156 186.707031 L 96.65625 186.710938 L 96.65625 186.714844 L 96.652344 186.71875 L 96.652344 186.722656 L 96.648438 186.722656 L 96.648438 186.726563 L 96.644531 186.726563 L 96.644531 186.730469 L 96.640625 186.730469 L 96.636719 186.734375 L 96.632813 186.734375 L 96.628906 186.738281 L 96.613281 186.738281 L 96.609375 186.742188 L 96.605469 186.742188 L 96.601563 186.738281 L 96.578125 186.738281 L 96.5625 186.734375 L 96.554688 186.734375 L 96.546875 186.730469 L 96.527344 186.726563 L 96.519531 186.722656 L 96.515625 186.722656 L 96.480469 186.710938 L 96.425781 186.691406 L 96.300781 186.644531 L 96.292969 186.644531 L 96.285156 186.640625 L 96.265625 186.632813 L 96.230469 186.621094 L 96.152344 186.589844 L 95.984375 186.53125 L 95.972656 186.527344 L 95.960938 186.527344 L 95.941406 186.519531 L 95.898438 186.503906 L 95.804688 186.476563 L 95.613281 186.425781 L 95.601563 186.421875 L 95.589844 186.421875 L 95.566406 186.414063 L 95.515625 186.402344 L 95.410156 186.382813 L 95.195313 186.34375 L 95.183594 186.34375 L 95.167969 186.339844 L 95.140625 186.335938 L 95.089844 186.332031 L 94.980469 186.320313 L 94.964844 186.316406 L 94.925781 186.316406 L 94.867188 186.3125 L 94.757813 186.304688 L 94.535156 186.304688 L 94.3125 186.316406 L 94.296875 186.320313 L 94.28125 186.320313 L 94.25 186.324219 L 94.074219 186.347656 L 94.058594 186.351563 L 94.042969 186.351563 L 94.015625 186.359375 L 93.957031 186.367188 L 93.84375 186.394531 L 93.832031 186.398438 L 93.816406 186.402344 L 93.734375 186.425781 L 93.625 186.460938 L 93.613281 186.464844 L 93.597656 186.46875 L 93.574219 186.480469 L 93.519531 186.5 L 93.421875 186.542969 L 93.398438 186.550781 L 93.375 186.5625 L 93.246094 186.632813 L 93.234375 186.636719 L 93.222656 186.644531 L 93.203125 186.65625 L 93.164063 186.683594 L 93.085938 186.734375 L 93.078125 186.742188 L 93.066406 186.75 L 93.050781 186.765625 L 93.015625 186.792969 L 93.003906 186.800781 L 92.996094 186.808594 L 92.980469 186.820313 L 92.945313 186.851563 L 92.882813 186.914063 L 92.828125 186.976563 L 92.820313 186.984375 L 92.8125 186.996094 L 92.796875 187.015625 L 92.769531 187.050781 L 92.761719 187.0625 L 92.757813 187.070313 L 92.746094 187.089844 L 92.71875 187.128906 L 92.714844 187.136719 L 92.707031 187.148438 L 92.699219 187.167969 L 92.679688 187.207031 L 92.671875 187.214844 L 92.667969 187.226563 L 92.644531 187.285156 L 92.640625 187.296875 L 92.636719 187.304688 L 92.628906 187.328125 L 92.617188 187.367188 L 92.613281 187.378906 L 92.609375 187.386719 L 92.605469 187.410156 L 92.597656 187.449219 L 92.59375 187.460938 L 92.59375 187.472656 L 92.589844 187.492188 L 92.582031 187.535156 L 92.582031 187.597656 L 92.578125 187.605469 L 92.578125 187.617188 " transform="matrix(1,0,0,1,-83,-6)"/>
</g>
<path style="fill:none;stroke-width:0.25;stroke-linecap:butt;stroke-linejoin:miter;stroke:rgb(39.99939%,39.99939%,39.99939%);stroke-opacity:1;stroke-miterlimit:3.25;" d="M 83.625 187.617188 L 531.375 187.617188 " transform="matrix(1,0,0,1,-83,-6)"/>
<path style="fill:none;stroke-width:0.25;stroke-linecap:butt;stroke-linejoin:miter;stroke:rgb(39.99939%,39.99939%,39.99939%);stroke-opacity:1;stroke-miterlimit:3.25;" d="M 97.4375 368.941406 L 97.4375 6.625 " transform="matrix(1,0,0,1,-83,-6)"/>
</g>
</svg>
