<?xml version="1.0" encoding="UTF-8"?>
<svg xmlns="http://www.w3.org/2000/svg" xmlns:xlink="http://www.w3.org/1999/xlink" width="718pt" height="718pt" viewBox="0 0 718 718" version="1.1">
<g id="surface36">
<path style="fill:none;stroke-width:2;stroke-linecap:square;stroke-linejoin:miter;stroke:rgb(0%,0%,0%);stroke-opacity:1;stroke-dasharray:5,5;stroke-miterlimit:3.25;" d="M 97.941406 364.496094 L 97.941406 365.160156 L 97.949219 365.820313 L 97.96875 367.144531 L 98.0625 369.792969 L 98.429688 375.078125 L 98.492188 375.738281 L 98.558594 376.398438 L 98.703125 377.714844 L 99.039063 380.347656 L 99.894531 385.589844 L 100.019531 386.242188 L 100.148438 386.894531 L 100.414063 388.199219 L 100.992188 390.796875 L 102.328125 395.960938 L 102.511719 396.601563 L 102.699219 397.242188 L 103.085938 398.523438 L 103.902344 401.070313 L 105.710938 406.121094 L 105.972656 406.800781 L 106.238281 407.480469 L 106.785156 408.832031 L 107.933594 411.519531 L 110.421875 416.824219 L 111.085938 418.136719 L 111.769531 419.441406 L 113.175781 422.03125 L 116.191406 427.121094 L 116.585938 427.75 L 116.984375 428.378906 L 117.792969 429.625 L 119.457031 432.09375 L 122.964844 436.9375 L 123.421875 437.53125 L 123.882813 438.125 L 124.8125 439.304688 L 126.71875 441.636719 L 130.699219 446.191406 L 131.660156 447.230469 L 132.636719 448.265625 L 134.621094 450.300781 L 138.730469 454.269531 L 139.257813 454.753906 L 139.789063 455.238281 L 140.855469 456.199219 L 143.023438 458.089844 L 147.492188 461.75 L 148.0625 462.199219 L 148.636719 462.640625 L 149.789063 463.523438 L 152.128906 465.253906 L 156.921875 468.589844 L 166.964844 474.75 L 167.597656 475.105469 L 168.234375 475.457031 L 169.511719 476.152344 L 172.089844 477.507813 L 177.335938 480.089844 L 178 480.402344 L 178.664063 480.707031 L 180.003906 481.316406 L 182.695313 482.496094 L 188.164063 484.714844 L 188.855469 484.980469 L 189.546875 485.242188 L 190.933594 485.757813 L 193.730469 486.753906 L 199.382813 488.605469 L 210.925781 491.742188 L 211.71875 491.929688 L 212.511719 492.109375 L 214.101563 492.464844 L 217.296875 493.125 L 223.730469 494.285156 L 224.539063 494.414063 L 225.347656 494.539063 L 226.96875 494.78125 L 230.21875 495.21875 L 236.746094 495.929688 L 237.5625 496.003906 L 238.382813 496.070313 L 240.019531 496.199219 L 243.300781 496.417969 L 249.875 496.679688 L 263.039063 496.550781 L 263.804688 496.515625 L 264.574219 496.480469 L 266.105469 496.394531 L 269.167969 496.195313 L 275.277344 495.65625 L 287.394531 494.035156 L 288.148438 493.910156 L 288.898438 493.78125 L 290.398438 493.519531 L 293.390625 492.960938 L 299.332031 491.722656 L 311.019531 488.75 L 312.582031 488.296875 L 314.136719 487.835938 L 317.230469 486.878906 L 323.34375 484.832031 L 324.097656 484.5625 L 324.855469 484.292969 L 326.359375 483.746094 L 329.347656 482.617188 L 335.234375 480.246094 L 335.964844 479.9375 L 336.6875 479.628906 L 338.132813 479.003906 L 341 477.722656 L 346.636719 475.058594 L 357.488281 469.335938 L 358.777344 468.601563 L 360.0625 467.859375 L 362.597656 466.355469 L 367.558594 463.273438 L 377.007813 456.839844 L 377.578125 456.429688 L 378.144531 456.015625 L 379.269531 455.183594 L 381.492188 453.511719 L 385.808594 450.117188 L 393.933594 443.183594 L 394.386719 442.777344 L 394.835938 442.367188 L 395.726563 441.546875 L 397.484375 439.902344 L 400.886719 436.597656 L 407.230469 429.964844 L 407.605469 429.550781 L 407.980469 429.132813 L 408.722656 428.304688 L 410.171875 426.648438 L 412.964844 423.347656 L 418.089844 416.816406 L 418.738281 415.941406 L 419.375 415.066406 L 420.617188 413.332031 L 422.972656 409.902344 L 427.179688 403.238281 L 427.417969 402.832031 L 427.65625 402.429688 L 428.128906 401.621094 L 429.035156 400.027344 L 430.734375 396.90625 L 433.675781 390.972656 L 433.980469 390.308594 L 434.277344 389.652344 L 434.847656 388.359375 L 435.902344 385.851563 L 437.675781 381.191406 L 437.773438 380.917969 L 437.867188 380.644531 L 438.054688 380.101563 L 438.40625 379.046875 L 439.035156 377.03125 L 440.035156 373.417969 L 440.085938 373.214844 L 440.132813 373.011719 L 440.230469 372.617188 L 440.40625 371.855469 L 440.710938 370.433594 L 441.136719 368.035156 L 441.175781 367.777344 L 441.214844 367.527344 L 441.277344 367.0625 L 441.375 366.242188 L 441.476563 365.070313 L 441.484375 364.960938 L 441.488281 364.863281 L 441.496094 364.699219 L 441.496094 364.636719 L 441.5 364.585938 L 441.5 364.496094 L 441.5 364.523438 L 441.503906 364.71875 L 441.507813 364.753906 L 441.507813 364.796875 L 441.511719 364.886719 L 441.523438 365.097656 L 441.566406 365.667969 L 441.761719 367.355469 L 441.777344 367.476563 L 441.796875 367.601563 L 441.835938 367.855469 L 441.917969 368.390625 L 442.125 369.582031 L 442.722656 372.414063 L 442.769531 372.613281 L 442.816406 372.808594 L 442.914063 373.214844 L 443.128906 374.050781 L 443.609375 375.828125 L 444.839844 379.785156 L 445.035156 380.363281 L 445.238281 380.949219 L 445.667969 382.148438 L 446.613281 384.652344 L 448.90625 390.058594 L 449.066406 390.414063 L 449.230469 390.769531 L 449.566406 391.488281 L 450.261719 392.945313 L 451.765625 395.949219 L 455.238281 402.25 L 455.472656 402.648438 L 455.707031 403.050781 L 456.1875 403.851563 L 457.179688 405.476563 L 459.28125 408.773438 L 463.976563 415.550781 L 464.292969 415.984375 L 464.613281 416.414063 L 465.257813 417.277344 L 466.582031 419.015625 L 469.355469 422.515625 L 475.421875 429.582031 L 475.800781 429.996094 L 476.175781 430.410156 L 476.9375 431.238281 L 478.492188 432.890625 L 481.714844 436.199219 L 488.609375 442.773438 L 489.515625 443.585938 L 490.429688 444.398438 L 492.285156 446.019531 L 496.105469 449.234375 L 504.191406 455.527344 L 504.757813 455.945313 L 505.328125 456.363281 L 506.480469 457.191406 L 508.8125 458.839844 L 513.597656 462.078125 L 523.644531 468.269531 L 524.941406 469.011719 L 526.25 469.75 L 528.890625 471.207031 L 534.285156 474.023438 L 545.476563 479.269531 L 546.144531 479.558594 L 546.8125 479.84375 L 548.160156 480.414063 L 550.871094 481.523438 L 556.367188 483.644531 L 567.640625 487.464844 L 568.359375 487.683594 L 569.074219 487.898438 L 570.515625 488.324219 L 573.40625 489.148438 L 579.246094 490.679688 L 591.117188 493.25 L 592.742188 493.546875 L 594.371094 493.828125 L 597.640625 494.359375 L 604.210938 495.261719 L 605.039063 495.359375 L 605.863281 495.453125 L 607.515625 495.632813 L 610.828125 495.953125 L 617.46875 496.429688 L 619.132813 496.515625 L 620.800781 496.585938 L 624.132813 496.6875 L 630.800781 496.722656 L 644.117188 496.113281 L 644.929688 496.046875 L 645.746094 495.976563 L 647.371094 495.824219 L 650.621094 495.480469 L 657.085938 494.625 L 657.890625 494.503906 L 658.695313 494.378906 L 660.300781 494.117188 L 663.503906 493.550781 L 669.863281 492.25 L 670.652344 492.074219 L 671.441406 491.890625 L 673.015625 491.519531 L 676.152344 490.730469 L 682.363281 488.988281 L 694.492188 484.847656 L 695.1875 484.582031 L 695.878906 484.308594 L 697.261719 483.757813 L 700.003906 482.621094 L 705.40625 480.214844 L 706.070313 479.898438 L 706.738281 479.582031 L 708.0625 478.941406 L 710.691406 477.621094 L 715.855469 474.851563 L 716.488281 474.492188 L 717.125 474.132813 L 718.386719 473.402344 L 720.882813 471.90625 L 725.777344 468.792969 L 735.105469 462.066406 L 735.714844 461.589844 L 736.320313 461.105469 L 737.527344 460.132813 L 739.894531 458.15625 L 744.484375 454.066406 L 745.042969 453.546875 L 745.601563 453.019531 L 746.703125 451.960938 L 748.867188 449.808594 L 753.027344 445.390625 L 753.535156 444.824219 L 754.035156 444.257813 L 755.027344 443.121094 L 756.964844 440.8125 L 760.671875 436.089844 L 761.117188 435.492188 L 761.558594 434.886719 L 762.433594 433.675781 L 764.136719 431.230469 L 767.355469 426.242188 L 767.714844 425.652344 L 768.070313 425.058594 L 768.769531 423.871094 L 770.128906 421.476563 L 772.683594 416.613281 L 773.285156 415.386719 L 773.871094 414.152344 L 775.003906 411.664063 L 777.09375 406.636719 L 777.335938 406.003906 L 777.578125 405.367188 L 778.046875 404.09375 L 778.945313 401.535156 L 780.554688 396.371094 L 780.738281 395.722656 L 780.921875 395.070313 L 781.269531 393.769531 L 781.925781 391.15625 L 783.046875 385.890625 L 783.167969 385.242188 L 783.285156 384.597656 L 783.507813 383.296875 L 783.910156 380.695313 L 784.53125 375.476563 L 784.59375 374.820313 L 784.652344 374.167969 L 784.753906 372.859375 L 784.917969 370.238281 L 785.058594 364.988281 L 785.058594 363.675781 L 785.039063 362.363281 L 784.960938 359.738281 L 784.621094 354.496094 L 784.5625 353.84375 L 784.5 353.1875 L 784.363281 351.882813 L 784.042969 349.273438 L 783.226563 344.070313 L 783.097656 343.367188 L 782.964844 342.667969 L 782.683594 341.265625 L 782.070313 338.46875 L 780.636719 332.914063 L 780.441406 332.222656 L 780.238281 331.535156 L 779.820313 330.160156 L 778.929688 327.421875 L 776.953125 322 L 776.414063 320.65625 L 775.859375 319.320313 L 774.703125 316.660156 L 772.195313 311.410156 L 771.863281 310.761719 L 771.527344 310.113281 L 770.84375 308.824219 L 769.425781 306.261719 L 766.402344 301.226563 L 766.035156 300.644531 L 765.664063 300.066406 L 764.90625 298.914063 L 763.359375 296.632813 L 760.105469 292.152344 L 759.683594 291.601563 L 759.257813 291.050781 L 758.402344 289.957031 L 756.644531 287.792969 L 752.988281 283.558594 L 752.515625 283.039063 L 752.042969 282.523438 L 751.085938 281.492188 L 749.132813 279.460938 L 745.09375 275.496094 L 736.480469 268.015625 L 735.871094 267.53125 L 735.261719 267.050781 L 734.03125 266.097656 L 731.53125 264.222656 L 726.394531 260.617188 L 725.742188 260.179688 L 725.082031 259.746094 L 723.761719 258.890625 L 721.082031 257.210938 L 715.605469 254.003906 L 714.910156 253.617188 L 714.210938 253.234375 L 712.804688 252.480469 L 709.96875 251.007813 L 704.191406 248.21875 L 692.238281 243.300781 L 691.488281 243.027344 L 690.738281 242.757813 L 689.230469 242.226563 L 686.199219 241.207031 L 680.0625 239.335938 L 678.515625 238.898438 L 676.960938 238.480469 L 673.839844 237.679688 L 667.539063 236.242188 L 666.746094 236.078125 L 665.953125 235.917969 L 664.363281 235.609375 L 661.175781 235.027344 L 654.753906 234.035156 L 641.796875 232.710938 L 641.039063 232.660156 L 640.277344 232.613281 L 638.757813 232.527344 L 635.71875 232.394531 L 629.628906 232.265625 L 628.867188 232.261719 L 628.105469 232.261719 L 626.582031 232.269531 L 623.539063 232.324219 L 617.457031 232.566406 L 616.695313 232.609375 L 615.9375 232.65625 L 614.417969 232.757813 L 611.386719 232.996094 L 605.34375 233.601563 L 593.359375 235.339844 L 592.550781 235.484375 L 591.746094 235.628906 L 590.140625 235.929688 L 586.9375 236.570313 L 580.582031 237.992188 L 579.003906 238.375 L 577.429688 238.773438 L 574.300781 239.601563 L 568.105469 241.390625 L 567.335938 241.625 L 566.570313 241.863281 L 565.042969 242.351563 L 562.003906 243.355469 L 556.003906 245.484375 L 544.347656 250.21875 L 543.679688 250.515625 L 543.019531 250.8125 L 541.695313 251.410156 L 539.074219 252.628906 L 533.914063 255.160156 L 523.964844 260.539063 L 523.359375 260.890625 L 522.757813 261.242188 L 521.558594 261.949219 L 519.183594 263.378906 L 514.535156 266.308594 L 505.660156 272.394531 L 504.613281 273.160156 L 503.574219 273.925781 L 501.519531 275.476563 L 497.523438 278.609375 L 489.960938 285.007813 L 489.507813 285.414063 L 489.058594 285.820313 L 488.164063 286.628906 L 486.402344 288.257813 L 482.992188 291.527344 L 476.621094 298.101563 L 476.210938 298.546875 L 475.804688 298.996094 L 474.996094 299.886719 L 473.414063 301.667969 L 470.386719 305.222656 L 464.855469 312.253906 L 464.214844 313.121094 L 463.582031 313.988281 L 462.351563 315.707031 L 460.015625 319.109375 L 455.84375 325.71875 L 455.398438 326.46875 L 454.964844 327.21875 L 454.117188 328.695313 L 452.527344 331.597656 L 449.742188 337.132813 L 449.585938 337.46875 L 449.429688 337.800781 L 449.125 338.460938 L 448.535156 339.761719 L 447.449219 342.28125 L 445.617188 346.988281 L 445.398438 347.589844 L 445.191406 348.179688 L 444.796875 349.339844 L 444.09375 351.539063 L 442.992188 355.464844 L 442.9375 355.691406 L 442.882813 355.910156 L 442.777344 356.347656 L 442.585938 357.183594 L 442.257813 358.726563 L 441.8125 361.285156 L 441.792969 361.414063 L 441.777344 361.539063 L 441.742188 361.777344 L 441.683594 362.230469 L 441.597656 363.015625 L 441.515625 364.085938 L 441.511719 364.132813 L 441.511719 364.175781 L 441.507813 364.25 L 441.503906 364.375 L 441.5 364.398438 L 441.5 364.496094 L 441.5 364.445313 L 441.492188 364.230469 L 441.492188 364.195313 L 441.488281 364.152344 L 441.484375 364.066406 L 441.472656 363.859375 L 441.429688 363.328125 L 441.257813 361.789063 L 441.242188 361.671875 L 441.226563 361.550781 L 441.191406 361.308594 L 441.109375 360.785156 L 440.914063 359.632813 L 440.34375 356.878906 L 440.296875 356.671875 L 440.25 356.460938 L 440.144531 356.03125 L 439.921875 355.144531 L 439.410156 353.246094 L 438.082031 348.976563 L 437.984375 348.691406 L 437.886719 348.402344 L 437.679688 347.816406 L 437.25 346.621094 L 436.296875 344.125 L 434.003906 338.742188 L 433.855469 338.414063 L 433.703125 338.082031 L 433.390625 337.417969 L 432.746094 336.066406 L 431.359375 333.292969 L 428.191406 327.480469 L 427.972656 327.109375 L 427.753906 326.734375 L 427.3125 325.980469 L 426.398438 324.460938 L 424.464844 321.371094 L 420.160156 315.019531 L 419.847656 314.582031 L 419.53125 314.144531 L 418.890625 313.265625 L 417.578125 311.5 L 414.820313 307.9375 L 408.757813 300.730469 L 408.355469 300.277344 L 407.949219 299.824219 L 407.128906 298.917969 L 405.453125 297.105469 L 401.964844 293.480469 L 394.445313 286.273438 L 393.960938 285.835938 L 393.472656 285.398438 L 392.488281 284.523438 L 390.488281 282.777344 L 386.359375 279.324219 L 377.597656 272.582031 L 377.027344 272.167969 L 376.457031 271.757813 L 375.304688 270.9375 L 372.96875 269.3125 L 368.183594 266.125 L 358.144531 260.03125 L 357.542969 259.6875 L 356.9375 259.347656 L 355.71875 258.671875 L 353.261719 257.335938 L 348.257813 254.742188 L 337.898438 249.890625 L 337.238281 249.601563 L 336.574219 249.316406 L 335.242188 248.75 L 332.558594 247.644531 L 327.117188 245.53125 L 315.957031 241.71875 L 315.1875 241.480469 L 314.417969 241.246094 L 312.871094 240.785156 L 309.765625 239.894531 L 303.488281 238.25 L 302.699219 238.058594 L 301.90625 237.867188 L 300.320313 237.5 L 297.136719 236.792969 L 290.714844 235.53125 L 289.90625 235.386719 L 289.097656 235.246094 L 287.480469 234.976563 L 284.234375 234.46875 L 277.703125 233.605469 L 264.542969 232.515625 L 263.773438 232.476563 L 263 232.445313 L 261.460938 232.382813 L 258.371094 232.300781 L 252.195313 232.273438 L 251.421875 232.285156 L 250.652344 232.296875 L 249.109375 232.335938 L 246.023438 232.441406 L 239.859375 232.808594 L 239.09375 232.867188 L 238.324219 232.929688 L 236.789063 233.0625 L 233.722656 233.367188 L 227.613281 234.125 L 215.523438 236.230469 L 214.789063 236.386719 L 214.058594 236.542969 L 212.59375 236.867188 L 209.679688 237.550781 L 203.898438 239.0625 L 203.183594 239.265625 L 202.464844 239.46875 L 201.035156 239.890625 L 198.195313 240.761719 L 192.570313 242.648438 L 191.871094 242.898438 L 191.175781 243.148438 L 189.789063 243.660156 L 187.035156 244.71875 L 181.601563 246.972656 L 171.0625 252.019531 L 170.367188 252.386719 L 169.671875 252.757813 L 168.285156 253.511719 L 165.550781 255.050781 L 160.191406 258.285156 L 159.53125 258.703125 L 158.875 259.121094 L 157.574219 259.972656 L 154.996094 261.710938 L 149.980469 265.328125 L 149.363281 265.792969 L 148.753906 266.261719 L 147.539063 267.207031 L 145.144531 269.128906 L 140.503906 273.109375 L 131.839844 281.574219 L 131.359375 282.085938 L 130.882813 282.601563 L 129.941406 283.640625 L 128.089844 285.738281 L 124.539063 290.035156 L 124.109375 290.582031 L 123.683594 291.128906 L 122.835938 292.230469 L 121.1875 294.453125 L 118.046875 298.988281 L 117.667969 299.5625 L 117.292969 300.136719 L 116.554688 301.292969 L 115.113281 303.628906 L 112.402344 308.371094 L 112.078125 308.96875 L 111.757813 309.570313 L 111.128906 310.777344 L 109.910156 313.207031 L 107.648438 318.125 L 107.351563 318.820313 L 107.058594 319.515625 L 106.484375 320.90625 L 105.390625 323.710938 L 103.425781 329.378906 L 102.980469 330.808594 L 102.554688 332.238281 L 101.757813 335.117188 L 100.386719 340.921875 L 100.238281 341.648438 L 100.089844 342.378906 L 99.816406 343.839844 L 99.316406 346.773438 L 98.554688 352.660156 L 98.480469 353.398438 L 98.410156 354.136719 L 98.285156 355.613281 L 98.09375 358.574219 L 98.058594 359.3125 L 98.027344 360.054688 L 97.976563 361.535156 L 97.960938 362.273438 L 97.949219 363.015625 L 97.941406 363.757813 L 97.941406 364.496094 " transform="matrix(1,0,0,1,-83,-6)"/>
<path style="fill:none;stroke-width:2;stroke-linecap:square;stroke-linejoin:miter;stroke:rgb(0%,0%,0%);stroke-opacity:1;stroke-dasharray:1.25,5;stroke-miterlimit:3.25;" d="M 97.941406 364.496094 L 97.941406 365.820313 L 97.949219 367.144531 L 97.980469 369.792969 L 98.101563 375.089844 L 98.59375 385.671875 L 98.632813 386.332031 L 98.675781 386.992188 L 98.765625 388.3125 L 98.960938 390.953125 L 99.410156 396.230469 L 100.550781 406.761719 L 100.636719 407.472656 L 100.730469 408.1875 L 100.914063 409.609375 L 101.304688 412.453125 L 102.152344 418.132813 L 104.132813 429.445313 L 104.269531 430.148438 L 104.410156 430.851563 L 104.6875 432.261719 L 105.265625 435.074219 L 106.492188 440.683594 L 109.226563 451.835938 L 109.570313 453.132813 L 109.917969 454.425781 L 110.628906 457.011719 L 112.113281 462.160156 L 115.320313 472.394531 L 115.53125 473.027344 L 115.746094 473.664063 L 116.171875 474.933594 L 117.046875 477.46875 L 118.847656 482.519531 L 122.6875 492.53125 L 123.179688 493.75 L 123.675781 494.964844 L 124.683594 497.394531 L 126.753906 502.222656 L 131.113281 511.789063 L 131.398438 512.382813 L 131.679688 512.976563 L 132.25 514.160156 L 133.40625 516.519531 L 135.765625 521.214844 L 140.703125 530.496094 L 141.050781 531.121094 L 141.394531 531.742188 L 142.09375 532.988281 L 143.5 535.464844 L 146.378906 540.386719 L 152.378906 550.085938 L 153.152344 551.28125 L 153.929688 552.476563 L 155.5 554.855469 L 158.695313 559.578125 L 165.328125 568.855469 L 165.722656 569.386719 L 166.121094 569.921875 L 166.917969 570.988281 L 168.523438 573.105469 L 171.789063 577.308594 L 178.507813 585.5625 L 179.367188 586.578125 L 180.230469 587.589844 L 181.964844 589.609375 L 185.480469 593.601563 L 192.699219 601.421875 L 193.199219 601.941406 L 193.695313 602.460938 L 194.699219 603.5 L 196.710938 605.5625 L 200.792969 609.636719 L 209.15625 617.578125 L 209.6875 618.066406 L 210.21875 618.550781 L 211.289063 619.519531 L 213.4375 621.441406 L 217.78125 625.234375 L 226.660156 632.597656 L 227.210938 633.039063 L 227.765625 633.480469 L 228.875 634.359375 L 231.105469 636.101563 L 235.609375 639.53125 L 244.785156 646.164063 L 245.367188 646.570313 L 245.945313 646.972656 L 247.113281 647.777344 L 249.453125 649.367188 L 254.171875 652.496094 L 263.765625 658.511719 L 264.898438 659.191406 L 266.03125 659.867188 L 268.304688 661.207031 L 272.886719 663.835938 L 282.167969 668.878906 L 283.339844 669.488281 L 284.511719 670.09375 L 286.867188 671.289063 L 291.597656 673.632813 L 301.171875 678.09375 L 301.824219 678.382813 L 302.480469 678.675781 L 303.789063 679.25 L 306.417969 680.386719 L 311.703125 682.59375 L 322.378906 686.746094 L 323.722656 687.238281 L 325.066406 687.726563 L 327.765625 688.6875 L 333.183594 690.535156 L 344.109375 693.964844 L 344.753906 694.152344 L 345.394531 694.34375 L 346.675781 694.714844 L 349.25 695.441406 L 354.410156 696.835938 L 364.792969 699.386719 L 365.445313 699.535156 L 366.097656 699.679688 L 367.402344 699.972656 L 370.015625 700.539063 L 375.25 701.609375 L 385.773438 703.507813 L 386.417969 703.613281 L 387.066406 703.71875 L 388.359375 703.921875 L 390.949219 704.320313 L 396.140625 705.050781 L 406.550781 706.277344 L 407.203125 706.339844 L 407.855469 706.40625 L 409.15625 706.53125 L 411.769531 706.769531 L 416.992188 707.183594 L 427.457031 707.769531 L 428.167969 707.800781 L 428.878906 707.824219 L 430.296875 707.875 L 433.140625 707.957031 L 438.828125 708.046875 L 450.199219 707.949219 L 450.910156 707.929688 L 451.617188 707.910156 L 453.039063 707.863281 L 455.882813 707.757813 L 461.558594 707.472656 L 472.902344 706.621094 L 474.222656 706.496094 L 475.542969 706.367188 L 478.179688 706.09375 L 483.453125 705.488281 L 493.960938 704.027344 L 495.273438 703.824219 L 496.582031 703.613281 L 499.199219 703.179688 L 504.421875 702.246094 L 514.824219 700.140625 L 515.527344 699.988281 L 516.226563 699.832031 L 517.628906 699.515625 L 520.433594 698.867188 L 526.019531 697.5 L 537.117188 694.484375 L 537.808594 694.28125 L 538.5 694.082031 L 539.875 693.671875 L 542.628906 692.835938 L 548.109375 691.097656 L 558.984375 687.347656 L 559.648438 687.105469 L 560.308594 686.859375 L 561.632813 686.371094 L 564.273438 685.371094 L 569.53125 683.3125 L 579.9375 678.929688 L 580.582031 678.644531 L 581.230469 678.359375 L 582.515625 677.78125 L 585.085938 676.613281 L 590.195313 674.210938 L 600.292969 669.15625 L 600.878906 668.851563 L 601.460938 668.546875 L 602.625 667.933594 L 604.945313 666.6875 L 609.558594 664.148438 L 618.664063 658.855469 L 619.789063 658.175781 L 620.914063 657.488281 L 623.152344 656.105469 L 627.601563 653.289063 L 636.363281 647.449219 L 636.953125 647.042969 L 637.539063 646.636719 L 638.710938 645.820313 L 641.042969 644.171875 L 645.664063 640.816406 L 654.734375 633.875 L 655.292969 633.429688 L 655.851563 632.988281 L 656.96875 632.09375 L 659.183594 630.292969 L 663.570313 626.636719 L 672.164063 619.113281 L 673.148438 618.214844 L 674.132813 617.3125 L 676.085938 615.5 L 679.953125 611.832031 L 687.511719 604.3125 L 688.441406 603.359375 L 689.363281 602.398438 L 691.203125 600.46875 L 694.832031 596.566406 L 701.914063 588.59375 L 702.382813 588.046875 L 702.851563 587.496094 L 703.785156 586.398438 L 705.644531 584.183594 L 709.300781 579.710938 L 716.382813 570.585938 L 716.816406 570.007813 L 717.246094 569.429688 L 718.105469 568.269531 L 719.808594 565.9375 L 723.15625 561.230469 L 729.609375 551.648438 L 729.996094 551.054688 L 730.382813 550.457031 L 731.144531 549.265625 L 732.660156 546.867188 L 735.632813 542.035156 L 741.332031 532.230469 L 741.675781 531.613281 L 742.707031 529.75 L 744.058594 527.261719 L 746.703125 522.242188 L 751.746094 512.082031 L 752.027344 511.484375 L 752.3125 510.886719 L 752.871094 509.691406 L 753.980469 507.289063 L 756.140625 502.460938 L 760.242188 492.707031 L 760.488281 492.09375 L 760.734375 491.476563 L 761.21875 490.246094 L 762.179688 487.78125 L 764.039063 482.828125 L 767.53125 472.839844 L 767.753906 472.160156 L 767.980469 471.480469 L 768.421875 470.117188 L 769.292969 467.382813 L 770.964844 461.894531 L 774.03125 450.84375 L 774.390625 449.453125 L 774.742188 448.0625 L 775.429688 445.277344 L 776.730469 439.691406 L 779.054688 428.457031 L 779.175781 427.800781 L 779.300781 427.144531 L 779.542969 425.824219 L 780.007813 423.1875 L 780.882813 417.90625 L 782.382813 407.300781 L 782.546875 405.972656 L 782.707031 404.640625 L 783.007813 401.980469 L 783.550781 396.652344 L 784.386719 385.976563 L 784.429688 385.320313 L 784.46875 384.664063 L 784.542969 383.355469 L 784.675781 380.734375 L 784.882813 375.488281 L 785.058594 364.988281 L 785.058594 363.675781 L 785.054688 362.363281 L 785.027344 359.738281 L 784.914063 354.488281 L 784.449219 344 L 784.40625 343.289063 L 784.265625 341.15625 L 784.0625 338.316406 L 783.578125 332.640625 L 782.335938 321.316406 L 782.246094 320.609375 L 782.152344 319.90625 L 781.964844 318.492188 L 781.574219 315.671875 L 780.714844 310.042969 L 778.726563 298.824219 L 778.597656 298.175781 L 778.46875 297.523438 L 778.207031 296.21875 L 777.667969 293.617188 L 776.53125 288.425781 L 774.019531 278.09375 L 773.851563 277.453125 L 773.679688 276.808594 L 773.339844 275.527344 L 772.640625 272.960938 L 771.1875 267.847656 L 768.039063 257.695313 L 767.585938 256.328125 L 767.128906 254.960938 L 766.199219 252.234375 L 764.273438 246.808594 L 760.144531 236.050781 L 759.605469 234.714844 L 759.058594 233.382813 L 757.945313 230.726563 L 755.660156 225.4375 L 750.820313 214.984375 L 750.203125 213.710938 L 749.578125 212.441406 L 748.316406 209.910156 L 745.730469 204.882813 L 740.3125 194.953125 L 738.90625 192.5 L 737.480469 190.058594 L 734.566406 185.207031 L 728.507813 175.660156 L 727.78125 174.558594 L 727.050781 173.460938 L 725.574219 171.273438 L 722.574219 166.933594 L 716.375 158.398438 L 715.980469 157.871094 L 715.582031 157.34375 L 714.785156 156.292969 L 713.179688 154.203125 L 709.917969 150.054688 L 703.207031 141.914063 L 702.277344 140.828125 L 701.34375 139.742188 L 699.464844 137.589844 L 695.652344 133.324219 L 687.8125 124.992188 L 687.3125 124.476563 L 686.8125 123.96875 L 685.808594 122.949219 L 683.789063 120.921875 L 679.699219 116.921875 L 671.324219 109.128906 L 670.332031 108.238281 L 669.332031 107.347656 L 667.328125 105.585938 L 663.277344 102.109375 L 655.015625 95.339844 L 654.492188 94.925781 L 653.964844 94.511719 L 652.914063 93.691406 L 650.804688 92.054688 L 646.542969 88.835938 L 637.878906 82.59375 L 637.339844 82.222656 L 636.800781 81.847656 L 635.722656 81.105469 L 633.558594 79.636719 L 629.195313 76.742188 L 620.339844 71.15625 L 619.222656 70.476563 L 618.101563 69.800781 L 615.851563 68.464844 L 611.320313 65.84375 L 602.140625 60.808594 L 600.882813 60.144531 L 599.625 59.488281 L 597.097656 58.191406 L 592.011719 55.660156 L 581.71875 50.855469 L 580.421875 50.277344 L 579.121094 49.707031 L 576.515625 48.578125 L 571.273438 46.390625 L 560.683594 42.273438 L 560.0625 42.042969 L 559.441406 41.816406 L 558.195313 41.363281 L 555.699219 40.472656 L 550.6875 38.75 L 540.585938 35.535156 L 539.953125 35.347656 L 539.316406 35.15625 L 538.046875 34.78125 L 535.5 34.046875 L 530.390625 32.636719 L 520.109375 30.050781 L 519.410156 29.890625 L 518.710938 29.726563 L 517.3125 29.40625 L 514.507813 28.785156 L 508.882813 27.609375 L 497.578125 25.546875 L 496.871094 25.429688 L 496.160156 25.3125 L 494.742188 25.089844 L 491.902344 24.65625 L 486.214844 23.859375 L 474.796875 22.554688 L 474.128906 22.492188 L 473.460938 22.425781 L 472.125 22.304688 L 469.453125 22.078125 L 464.101563 21.683594 L 453.386719 21.144531 L 452.714844 21.121094 L 452.046875 21.101563 L 450.707031 21.0625 L 448.023438 21 L 442.660156 20.941406 L 431.929688 21.070313 L 430.617188 21.109375 L 429.300781 21.15625 L 426.671875 21.257813 L 421.421875 21.523438 L 410.929688 22.300781 L 410.273438 22.359375 L 409.621094 22.421875 L 408.3125 22.542969 L 405.695313 22.808594 L 400.46875 23.398438 L 390.042969 24.8125 L 389.339844 24.921875 L 388.632813 25.03125 L 387.226563 25.25 L 384.410156 25.714844 L 378.792969 26.710938 L 367.609375 28.976563 L 364.828125 29.601563 L 362.046875 30.25 L 356.507813 31.617188 L 345.5 34.621094 L 344.863281 34.808594 L 344.222656 34.996094 L 342.949219 35.375 L 340.402344 36.148438 L 335.324219 37.757813 L 325.25 41.203125 L 324.621094 41.429688 L 323.996094 41.65625 L 322.746094 42.113281 L 320.25 43.042969 L 315.285156 44.960938 L 305.441406 49.027344 L 304.78125 49.3125 L 304.117188 49.601563 L 302.796875 50.179688 L 300.164063 51.355469 L 294.921875 53.773438 L 284.570313 58.875 L 283.929688 59.203125 L 283.289063 59.535156 L 282.007813 60.203125 L 279.460938 61.550781 L 274.394531 64.316406 L 264.40625 70.097656 L 261.984375 71.566406 L 259.578125 73.058594 L 254.796875 76.097656 L 245.386719 82.410156 L 244.804688 82.816406 L 243.070313 84.035156 L 240.761719 85.683594 L 236.191406 89.03125 L 227.222656 95.949219 L 226.191406 96.777344 L 225.164063 97.605469 L 223.117188 99.277344 L 219.0625 102.667969 L 211.113281 109.632813 L 209.160156 111.414063 L 207.222656 113.207031 L 203.382813 116.839844 L 195.878906 124.28125 L 195.378906 124.796875 L 194.878906 125.308594 L 193.882813 126.339844 L 191.90625 128.414063 L 188.003906 132.609375 L 180.410156 141.191406 L 179.945313 141.738281 L 179.480469 142.28125 L 178.558594 143.375 L 176.722656 145.578125 L 173.109375 150.023438 L 166.105469 159.09375 L 165.703125 159.628906 L 165.308594 160.167969 L 164.511719 161.246094 L 162.9375 163.40625 L 159.84375 167.769531 L 153.851563 176.632813 L 153.488281 177.195313 L 153.125 177.753906 L 152.398438 178.878906 L 150.960938 181.136719 L 148.144531 185.683594 L 142.71875 194.902344 L 142.394531 195.472656 L 142.070313 196.046875 L 141.429688 197.1875 L 140.164063 199.484375 L 137.679688 204.101563 L 132.925781 213.453125 L 132.636719 214.042969 L 131.78125 215.8125 L 130.65625 218.179688 L 128.457031 222.941406 L 124.28125 232.5625 L 124.011719 233.222656 L 123.738281 233.878906 L 123.199219 235.195313 L 122.140625 237.835938 L 120.085938 243.140625 L 116.246094 253.851563 L 116.015625 254.527344 L 115.789063 255.199219 L 115.339844 256.550781 L 114.457031 259.253906 L 112.757813 264.683594 L 109.632813 275.628906 L 109.460938 276.269531 L 109.292969 276.910156 L 108.957031 278.195313 L 108.300781 280.765625 L 107.046875 285.925781 L 104.777344 296.300781 L 104.644531 296.949219 L 104.515625 297.601563 L 104.261719 298.902344 L 103.761719 301.511719 L 102.832031 306.738281 L 101.207031 317.230469 L 101.105469 317.964844 L 100.8125 320.167969 L 100.441406 323.109375 L 99.777344 329 L 98.757813 340.808594 L 98.707031 341.546875 L 98.660156 342.285156 L 98.566406 343.765625 L 98.398438 346.726563 L 98.144531 352.644531 L 98.097656 354.128906 L 98.054688 355.609375 L 97.992188 358.570313 L 97.980469 359.3125 L 97.96875 360.050781 L 97.953125 361.535156 L 97.945313 362.273438 L 97.941406 363.015625 L 97.941406 364.496094 " transform="matrix(1,0,0,1,-83,-6)"/>
<path style="fill:none;stroke-width:2.5;stroke-linecap:square;stroke-linejoin:miter;stroke:rgb(0%,0%,0%);stroke-opacity:1;stroke-miterlimit:3.25;" d="M 97.941406 364.496094 L 97.941406 365.160156 L 97.945313 365.820313 L 97.960938 367.144531 L 98.023438 369.792969 L 98.265625 375.082031 L 98.308594 375.746094 L 98.351563 376.40625 L 98.449219 377.726563 L 98.675781 380.363281 L 99.246094 385.628906 L 99.410156 386.941406 L 99.589844 388.253906 L 99.976563 390.875 L 100.867188 396.09375 L 103.128906 406.441406 L 103.304688 407.136719 L 103.484375 407.832031 L 103.851563 409.21875 L 104.617188 411.988281 L 106.289063 417.480469 L 106.507813 418.160156 L 106.734375 418.84375 L 107.191406 420.203125 L 108.136719 422.914063 L 110.164063 428.285156 L 110.695313 429.613281 L 111.242188 430.941406 L 112.359375 433.582031 L 114.730469 438.808594 L 119.964844 449.011719 L 120.289063 449.597656 L 120.617188 450.179688 L 121.277344 451.34375 L 122.625 453.65625 L 125.421875 458.214844 L 131.40625 467.074219 L 131.796875 467.613281 L 132.980469 469.230469 L 134.585938 471.363281 L 137.886719 475.554688 L 144.824219 483.640625 L 145.707031 484.601563 L 146.59375 485.558594 L 148.386719 487.449219 L 152.042969 491.15625 L 159.640625 498.253906 L 160.125 498.683594 L 160.613281 499.109375 L 161.59375 499.957031 L 163.566406 501.636719 L 167.574219 504.910156 L 175.816406 511.121094 L 176.382813 511.523438 L 176.953125 511.925781 L 178.097656 512.726563 L 180.398438 514.296875 L 185.054688 517.335938 L 194.5625 523.007813 L 195.164063 523.34375 L 195.765625 523.675781 L 196.972656 524.339844 L 199.398438 525.636719 L 204.285156 528.128906 L 214.183594 532.703125 L 214.765625 532.953125 L 216.511719 533.691406 L 218.847656 534.652344 L 223.53125 536.480469 L 232.953125 539.796875 L 234.132813 540.179688 L 235.3125 540.554688 L 237.675781 541.285156 L 242.40625 542.660156 L 251.859375 545.085938 L 252.5 545.234375 L 253.140625 545.378906 L 254.417969 545.667969 L 256.972656 546.21875 L 262.066406 547.234375 L 272.195313 548.914063 L 272.824219 549.003906 L 274.710938 549.261719 L 277.21875 549.582031 L 282.210938 550.144531 L 292.074219 550.964844 L 292.671875 551.003906 L 293.273438 551.039063 L 294.46875 551.109375 L 296.851563 551.226563 L 301.582031 551.402344 L 310.898438 551.503906 L 328.847656 550.847656 L 329.359375 550.8125 L 329.867188 550.78125 L 330.878906 550.707031 L 332.894531 550.554688 L 336.886719 550.21875 L 344.699219 549.421875 L 359.628906 547.453125 L 388.894531 542.46875 L 412.902344 538.460938 L 413.253906 538.414063 L 413.601563 538.367188 L 414.292969 538.269531 L 415.679688 538.085938 L 418.425781 537.742188 L 423.84375 537.15625 L 424.179688 537.125 L 424.515625 537.089844 L 425.1875 537.03125 L 426.523438 536.914063 L 429.183594 536.710938 L 434.46875 536.421875 L 434.824219 536.40625 L 435.179688 536.394531 L 435.894531 536.367188 L 437.316406 536.328125 L 440.164063 536.28125 L 445.851563 536.332031 L 457.332031 536.988281 L 457.671875 537.019531 L 458.007813 537.046875 L 458.6875 537.109375 L 460.050781 537.242188 L 462.789063 537.535156 L 468.34375 538.222656 L 479.832031 539.964844 L 507.109375 544.796875 L 537.859375 549.371094 L 538.820313 549.480469 L 539.78125 549.585938 L 541.71875 549.789063 L 545.636719 550.171875 L 553.636719 550.8125 L 554.652344 550.882813 L 555.671875 550.945313 L 557.71875 551.0625 L 561.855469 551.261719 L 570.277344 551.488281 L 570.855469 551.492188 L 571.433594 551.5 L 572.59375 551.507813 L 574.925781 551.503906 L 579.628906 551.445313 L 589.1875 551.070313 L 590.398438 551 L 591.609375 550.921875 L 594.039063 550.75 L 598.929688 550.332031 L 608.820313 549.191406 L 609.398438 549.109375 L 609.980469 549.03125 L 611.144531 548.863281 L 613.476563 548.511719 L 618.160156 547.738281 L 627.578125 545.890625 L 628.167969 545.757813 L 628.757813 545.628906 L 629.9375 545.363281 L 632.304688 544.808594 L 637.039063 543.621094 L 646.515625 540.921875 L 647.15625 540.722656 L 649.078125 540.113281 L 651.640625 539.269531 L 656.757813 537.488281 L 666.925781 533.507813 L 667.558594 533.242188 L 668.191406 532.972656 L 669.453125 532.425781 L 671.96875 531.3125 L 676.980469 528.976563 L 686.863281 523.882813 L 687.464844 523.550781 L 688.0625 523.21875 L 689.257813 522.542969 L 691.640625 521.175781 L 696.359375 518.332031 L 705.597656 512.242188 L 706.164063 511.84375 L 706.730469 511.441406 L 707.863281 510.632813 L 710.105469 508.996094 L 714.53125 505.617188 L 723.117188 498.464844 L 723.609375 498.035156 L 724.09375 497.597656 L 725.066406 496.726563 L 726.992188 494.957031 L 730.773438 491.335938 L 738.046875 483.777344 L 738.488281 483.292969 L 738.929688 482.804688 L 739.804688 481.824219 L 741.53125 479.84375 L 744.90625 475.8125 L 751.316406 467.453125 L 751.734375 466.875 L 752.148438 466.292969 L 752.972656 465.125 L 754.59375 462.769531 L 757.726563 457.980469 L 758.484375 456.769531 L 759.234375 455.550781 L 760.707031 453.097656 L 763.53125 448.117188 L 763.871094 447.488281 L 764.210938 446.855469 L 764.882813 445.589844 L 766.199219 443.046875 L 768.699219 437.890625 L 773.203125 427.351563 L 773.445313 426.726563 L 773.683594 426.101563 L 774.15625 424.847656 L 775.070313 422.332031 L 776.78125 417.261719 L 776.984375 416.621094 L 777.1875 415.984375 L 777.582031 414.703125 L 778.339844 412.136719 L 779.738281 406.96875 L 779.902344 406.320313 L 780.0625 405.667969 L 780.378906 404.367188 L 780.976563 401.757813 L 782.054688 396.511719 L 783.71875 385.933594 L 783.875 384.628906 L 784.027344 383.328125 L 784.292969 380.714844 L 784.707031 375.480469 L 784.75 374.828125 L 784.789063 374.171875 L 784.855469 372.859375 L 784.964844 370.238281 L 785.058594 364.988281 L 785.058594 363.675781 L 785.046875 362.363281 L 784.992188 359.738281 L 784.769531 354.492188 L 783.835938 344.035156 L 783.664063 342.621094 L 783.476563 341.210938 L 783.066406 338.390625 L 782.109375 332.777344 L 781.976563 332.078125 L 781.839844 331.378906 L 781.5625 329.984375 L 780.96875 327.199219 L 779.644531 321.660156 L 779.464844 320.96875 L 779.285156 320.28125 L 778.914063 318.90625 L 778.140625 316.164063 L 776.457031 310.726563 L 772.5625 300.027344 L 772.316406 299.410156 L 772.066406 298.792969 L 771.558594 297.566406 L 770.515625 295.125 L 768.320313 290.289063 L 768.035156 289.6875 L 767.746094 289.089844 L 767.167969 287.898438 L 765.980469 285.523438 L 763.503906 280.828125 L 763.183594 280.246094 L 762.863281 279.667969 L 762.210938 278.507813 L 760.886719 276.210938 L 758.140625 271.671875 L 752.257813 262.855469 L 751.84375 262.273438 L 751.425781 261.6875 L 750.582031 260.527344 L 748.867188 258.230469 L 745.335938 253.710938 L 744.429688 252.601563 L 743.519531 251.496094 L 741.667969 249.3125 L 737.875 245.027344 L 737.390625 244.5 L 736.90625 243.976563 L 735.933594 242.929688 L 733.957031 240.867188 L 729.925781 236.828125 L 721.527344 229.140625 L 721 228.6875 L 720.46875 228.234375 L 719.40625 227.335938 L 717.257813 225.558594 L 712.898438 222.109375 L 703.925781 215.597656 L 703.355469 215.210938 L 702.78125 214.820313 L 701.636719 214.054688 L 699.328125 212.542969 L 694.660156 209.621094 L 685.152344 204.183594 L 684.589844 203.882813 L 684.03125 203.585938 L 682.90625 202.996094 L 680.644531 201.832031 L 676.101563 199.601563 L 666.914063 195.484375 L 665.757813 195 L 664.601563 194.527344 L 662.28125 193.597656 L 657.628906 191.828125 L 648.28125 188.628906 L 647.648438 188.425781 L 647.011719 188.230469 L 645.742188 187.835938 L 643.199219 187.078125 L 638.117188 185.65625 L 627.957031 183.191406 L 627.324219 183.050781 L 626.691406 182.917969 L 625.425781 182.648438 L 622.898438 182.136719 L 617.851563 181.203125 L 607.835938 179.675781 L 607.253906 179.597656 L 606.675781 179.523438 L 605.515625 179.378906 L 603.199219 179.109375 L 598.597656 178.632813 L 589.488281 177.941406 L 571.769531 177.496094 L 570.707031 177.503906 L 569.648438 177.515625 L 567.539063 177.554688 L 563.359375 177.675781 L 555.152344 178.082031 L 539.378906 179.453125 L 508.261719 183.996094 L 482.863281 188.519531 L 482.460938 188.589844 L 482.054688 188.65625 L 481.25 188.792969 L 479.652344 189.0625 L 476.488281 189.574219 L 470.285156 190.507813 L 458.304688 191.921875 L 457.617188 191.984375 L 456.933594 192.042969 L 455.570313 192.152344 L 452.851563 192.347656 L 447.449219 192.613281 L 436.710938 192.652344 L 436.382813 192.640625 L 436.050781 192.632813 L 435.394531 192.609375 L 434.074219 192.558594 L 431.425781 192.425781 L 426.09375 192.042969 L 415.195313 190.84375 L 389.753906 186.683594 L 362.800781 182.023438 L 361.824219 181.875 L 360.84375 181.722656 L 358.871094 181.429688 L 354.871094 180.855469 L 346.664063 179.800781 L 346.140625 179.742188 L 345.617188 179.679688 L 344.570313 179.558594 L 342.457031 179.328125 L 338.179688 178.898438 L 329.425781 178.1875 L 328.878906 178.148438 L 328.332031 178.113281 L 327.238281 178.046875 L 325.03125 177.917969 L 320.578125 177.710938 L 311.492188 177.496094 L 310.917969 177.492188 L 310.339844 177.488281 L 309.1875 177.488281 L 306.867188 177.496094 L 302.1875 177.578125 L 292.683594 177.992188 L 292.125 178.027344 L 291.5625 178.0625 L 290.441406 178.136719 L 288.1875 178.304688 L 283.660156 178.703125 L 274.507813 179.761719 L 273.929688 179.839844 L 273.355469 179.917969 L 272.199219 180.082031 L 269.890625 180.425781 L 265.25 181.1875 L 255.917969 183 L 255.28125 183.136719 L 254.648438 183.277344 L 253.378906 183.5625 L 250.835938 184.152344 L 245.746094 185.429688 L 235.5625 188.363281 L 234.925781 188.5625 L 234.289063 188.765625 L 233.019531 189.175781 L 230.476563 190.023438 L 225.40625 191.816406 L 215.324219 195.804688 L 214.152344 196.304688 L 212.984375 196.8125 L 210.65625 197.851563 L 206.019531 200.023438 L 196.855469 204.71875 L 195.722656 205.34375 L 194.59375 205.972656 L 192.34375 207.25 L 187.878906 209.902344 L 179.121094 215.566406 L 178.066406 216.292969 L 177.011719 217.027344 L 174.921875 218.519531 L 170.789063 221.582031 L 162.746094 228.050781 L 162.253906 228.46875 L 161.765625 228.890625 L 160.785156 229.734375 L 158.84375 231.449219 L 155.03125 234.957031 L 147.671875 242.292969 L 147.1875 242.804688 L 146.703125 243.320313 L 145.742188 244.351563 L 143.84375 246.445313 L 140.140625 250.710938 L 139.683594 251.253906 L 139.230469 251.796875 L 138.332031 252.890625 L 136.558594 255.097656 L 133.113281 259.589844 L 132.269531 260.730469 L 131.4375 261.878906 L 129.800781 264.191406 L 126.632813 268.898438 L 120.734375 278.601563 L 120.410156 279.179688 L 120.089844 279.757813 L 119.449219 280.917969 L 118.195313 283.253906 L 115.792969 287.980469 L 115.5 288.578125 L 115.214844 289.171875 L 114.644531 290.371094 L 113.53125 292.777344 L 111.410156 297.644531 L 111.15625 298.253906 L 110.902344 298.867188 L 110.40625 300.097656 L 109.4375 302.570313 L 107.617188 307.554688 L 104.425781 317.679688 L 104.226563 318.394531 L 104.03125 319.105469 L 103.648438 320.539063 L 102.917969 323.410156 L 101.601563 329.1875 L 101.304688 330.640625 L 101.019531 332.09375 L 100.488281 335.007813 L 99.574219 340.863281 L 99.472656 341.597656 L 99.375 342.332031 L 99.191406 343.804688 L 98.859375 346.75 L 98.347656 352.652344 L 98.300781 353.390625 L 98.253906 354.132813 L 98.171875 355.609375 L 98.042969 358.570313 L 97.996094 360.054688 L 97.964844 361.535156 L 97.953125 362.273438 L 97.945313 363.015625 L 97.941406 363.757813 L 97.941406 364.496094 " transform="matrix(1,0,0,1,-83,-6)"/>
<path style="fill:none;stroke-width:0.25;stroke-linecap:butt;stroke-linejoin:miter;stroke:rgb(39.99939%,39.99939%,39.99939%);stroke-opacity:1;stroke-miterlimit:3.25;" d="M 83.625 364.496094 L 799.375 364.496094 " transform="matrix(1,0,0,1,-83,-6)"/>
<path style="fill:none;stroke-width:0.25;stroke-linecap:butt;stroke-linejoin:miter;stroke:rgb(39.99939%,39.99939%,39.99939%);stroke-opacity:1;stroke-miterlimit:3.25;" d="M 441.5 722.363281 L 441.5 6.625 " transform="matrix(1,0,0,1,-83,-6)"/>
</g>
</svg>
