<?xml version="1.0" encoding="UTF-8"?>
<svg xmlns="http://www.w3.org/2000/svg" xmlns:xlink="http://www.w3.org/1999/xlink" width="450pt" height="458pt" viewBox="0 0 450 458" version="1.1">
<defs>
<clipPath id="clip1">
  <path d="M 0 69 L 449.039063 69 L 449.039063 387 L 0 387 Z M 0 69 "/>
</clipPath>
</defs>
<g id="surface108">
<path style="fill:none;stroke-width:2;stroke-linecap:square;stroke-linejoin:miter;stroke:rgb(0%,0%,0%);stroke-opacity:1;stroke-dasharray:5,5;stroke-miterlimit:3.25;" d="M 92.578125 234.335938 L 92.582031 234.574219 L 92.582031 234.8125 L 92.589844 235.285156 L 92.617188 236.234375 L 92.734375 238.125 L 92.753906 238.363281 L 92.773438 238.597656 L 92.816406 239.070313 L 92.921875 240.011719 L 93.1875 241.894531 L 93.226563 242.128906 L 93.265625 242.359375 L 93.351563 242.828125 L 93.53125 243.761719 L 93.949219 245.617188 L 95.003906 249.28125 L 95.085938 249.527344 L 95.171875 249.773438 L 95.339844 250.261719 L 95.699219 251.234375 L 96.480469 253.15625 L 96.585938 253.394531 L 96.6875 253.632813 L 96.902344 254.109375 L 97.347656 255.050781 L 98.292969 256.910156 L 98.542969 257.371094 L 98.796875 257.828125 L 99.324219 258.734375 L 100.433594 260.519531 L 102.882813 263.953125 L 103.035156 264.148438 L 103.191406 264.34375 L 103.5 264.730469 L 104.132813 265.492188 L 105.441406 266.988281 L 105.613281 267.171875 L 105.78125 267.351563 L 106.121094 267.71875 L 106.816406 268.433594 L 108.25 269.832031 L 108.617188 270.175781 L 108.988281 270.515625 L 109.742188 271.179688 L 111.292969 272.476563 L 114.550781 274.902344 L 114.964844 275.183594 L 115.378906 275.460938 L 116.222656 276.007813 L 117.941406 277.054688 L 118.15625 277.179688 L 118.375 277.304688 L 118.816406 277.554688 L 119.703125 278.042969 L 121.507813 278.96875 L 121.734375 279.082031 L 121.964844 279.191406 L 122.421875 279.410156 L 123.347656 279.835938 L 125.230469 280.640625 L 129.09375 282.054688 L 129.359375 282.140625 L 129.628906 282.226563 L 130.164063 282.394531 L 131.242188 282.710938 L 133.417969 283.292969 L 133.695313 283.359375 L 133.96875 283.425781 L 134.519531 283.550781 L 135.628906 283.792969 L 137.859375 284.210938 L 138.421875 284.304688 L 138.984375 284.390625 L 140.113281 284.550781 L 142.386719 284.8125 L 146.976563 285.085938 L 147.246094 285.09375 L 147.511719 285.097656 L 148.050781 285.105469 L 149.128906 285.105469 L 151.285156 285.050781 L 151.824219 285.027344 L 152.367188 285 L 153.445313 284.929688 L 155.601563 284.734375 L 155.871094 284.707031 L 156.679688 284.613281 L 157.753906 284.476563 L 159.898438 284.144531 L 164.15625 283.289063 L 164.441406 283.21875 L 164.726563 283.152344 L 165.296875 283.011719 L 166.433594 282.714844 L 168.695313 282.066406 L 168.972656 281.980469 L 169.253906 281.894531 L 169.8125 281.714844 L 170.925781 281.34375 L 173.128906 280.554688 L 173.675781 280.34375 L 174.21875 280.132813 L 175.300781 279.695313 L 177.433594 278.769531 L 181.585938 276.734375 L 181.832031 276.601563 L 182.082031 276.46875 L 182.578125 276.199219 L 183.558594 275.648438 L 185.484375 274.515625 L 185.722656 274.367188 L 185.957031 274.222656 L 186.429688 273.925781 L 187.359375 273.328125 L 189.1875 272.097656 L 189.410156 271.941406 L 189.636719 271.785156 L 190.082031 271.46875 L 190.960938 270.828125 L 192.675781 269.515625 L 195.9375 266.796875 L 196.117188 266.636719 L 196.300781 266.472656 L 196.660156 266.148438 L 197.375 265.492188 L 198.757813 264.167969 L 201.355469 261.476563 L 201.507813 261.304688 L 201.664063 261.136719 L 201.96875 260.796875 L 202.566406 260.113281 L 203.722656 258.746094 L 205.859375 256.015625 L 205.996094 255.832031 L 206.128906 255.648438 L 206.398438 255.28125 L 206.917969 254.546875 L 207.910156 253.089844 L 209.683594 250.230469 L 209.785156 250.058594 L 209.886719 249.882813 L 210.085938 249.535156 L 210.46875 248.84375 L 211.191406 247.492188 L 212.4375 244.902344 L 212.5 244.757813 L 212.566406 244.613281 L 212.691406 244.328125 L 212.933594 243.761719 L 213.378906 242.664063 L 214.117188 240.628906 L 214.15625 240.511719 L 214.199219 240.390625 L 214.273438 240.15625 L 214.417969 239.699219 L 214.675781 238.832031 L 215.074219 237.296875 L 215.113281 237.125 L 215.148438 236.960938 L 215.214844 236.648438 L 215.328125 236.074219 L 215.476563 235.160156 L 215.480469 235.113281 L 215.488281 235.070313 L 215.5 234.984375 L 215.515625 234.828125 L 215.542969 234.578125 L 215.542969 234.550781 L 215.546875 234.527344 L 215.550781 234.484375 L 215.554688 234.414063 L 215.554688 234.402344 L 215.558594 234.386719 L 215.558594 234.339844 L 215.558594 234.503906 L 215.578125 235.117188 L 215.582031 235.167969 L 215.585938 235.226563 L 215.59375 235.339844 L 215.613281 235.59375 L 215.667969 236.191406 L 215.871094 237.738281 L 215.886719 237.84375 L 215.90625 237.949219 L 215.941406 238.167969 L 216.019531 238.621094 L 216.207031 239.609375 L 216.726563 241.890625 L 216.804688 242.203125 L 216.890625 242.523438 L 217.066406 243.183594 L 217.46875 244.578125 L 218.46875 247.660156 L 218.546875 247.882813 L 218.628906 248.105469 L 218.792969 248.558594 L 219.136719 249.488281 L 219.898438 251.425781 L 221.726563 255.617188 L 221.855469 255.890625 L 221.984375 256.167969 L 222.25 256.722656 L 222.804688 257.855469 L 224 260.191406 L 226.761719 265.117188 L 226.949219 265.433594 L 227.136719 265.746094 L 227.519531 266.378906 L 228.308594 267.652344 L 229.984375 270.257813 L 233.746094 275.644531 L 234.253906 276.332031 L 234.773438 277.023438 L 235.835938 278.414063 L 238.074219 281.230469 L 242.988281 286.964844 L 243.296875 287.300781 L 243.601563 287.640625 L 244.222656 288.316406 L 245.488281 289.671875 L 248.117188 292.390625 L 253.78125 297.84375 L 254.152344 298.183594 L 254.527344 298.523438 L 255.28125 299.203125 L 256.8125 300.5625 L 259.980469 303.269531 L 266.714844 308.613281 L 267.1875 308.972656 L 267.667969 309.332031 L 268.632813 310.042969 L 270.585938 311.460938 L 274.613281 314.261719 L 283.113281 319.679688 L 283.664063 320.007813 L 284.21875 320.335938 L 285.332031 320.988281 L 287.585938 322.28125 L 292.195313 324.800781 L 301.824219 329.558594 L 302.402344 329.824219 L 302.980469 330.085938 L 304.144531 330.609375 L 306.492188 331.632813 L 311.269531 333.609375 L 321.117188 337.234375 L 321.742188 337.445313 L 322.375 337.65625 L 323.636719 338.070313 L 326.179688 338.871094 L 331.324219 340.382813 L 341.84375 343.007813 L 342.566406 343.167969 L 343.289063 343.324219 L 344.738281 343.625 L 347.652344 344.199219 L 353.53125 345.214844 L 354.269531 345.332031 L 355.007813 345.445313 L 356.492188 345.660156 L 359.464844 346.054688 L 365.449219 346.714844 L 366.949219 346.847656 L 368.453125 346.972656 L 371.46875 347.183594 L 377.515625 347.460938 L 389.648438 347.421875 L 390.390625 347.390625 L 391.136719 347.359375 L 392.625 347.289063 L 395.601563 347.105469 L 401.539063 346.59375 L 402.28125 346.515625 L 403.019531 346.4375 L 404.5 346.265625 L 407.449219 345.882813 L 413.324219 344.972656 L 414.058594 344.84375 L 414.789063 344.714844 L 416.246094 344.441406 L 419.152344 343.859375 L 424.917969 342.546875 L 436.234375 339.3125 L 436.882813 339.101563 L 437.53125 338.882813 L 438.820313 338.445313 L 441.390625 337.53125 L 446.457031 335.578125 L 447.085938 335.324219 L 447.710938 335.066406 L 448.957031 334.539063 L 451.429688 333.457031 L 456.292969 331.167969 L 456.890625 330.871094 L 457.492188 330.570313 L 458.683594 329.960938 L 461.042969 328.710938 L 465.667969 326.097656 L 474.519531 320.390625 L 475.097656 319.984375 L 475.671875 319.570313 L 476.816406 318.742188 L 479.074219 317.046875 L 483.445313 313.53125 L 483.980469 313.082031 L 484.507813 312.625 L 485.558594 311.710938 L 487.625 309.851563 L 491.605469 306.015625 L 492.566406 305.03125 L 493.515625 304.039063 L 495.375 302.027344 L 498.925781 297.898438 L 499.355469 297.371094 L 499.777344 296.84375 L 500.617188 295.78125 L 502.25 293.636719 L 505.34375 289.246094 L 505.6875 288.726563 L 506.03125 288.203125 L 506.703125 287.15625 L 508.015625 285.042969 L 510.46875 280.746094 L 510.761719 280.203125 L 511.050781 279.660156 L 511.617188 278.566406 L 512.707031 276.363281 L 514.722656 271.902344 L 514.957031 271.339844 L 515.191406 270.773438 L 515.644531 269.644531 L 516.507813 267.367188 L 518.066406 262.773438 L 518.417969 261.617188 L 518.757813 260.457031 L 519.386719 258.128906 L 520.472656 253.4375 L 520.589844 252.859375 L 520.703125 252.28125 L 520.917969 251.121094 L 521.308594 248.800781 L 521.910156 244.140625 L 521.96875 243.558594 L 522.023438 242.972656 L 522.125 241.804688 L 522.28125 239.460938 L 522.417969 234.773438 L 522.421875 234.1875 L 522.417969 233.601563 L 522.402344 232.429688 L 522.324219 230.085938 L 521.996094 225.40625 L 521.941406 224.820313 L 521.878906 224.238281 L 521.746094 223.070313 L 521.4375 220.742188 L 520.648438 216.101563 L 520.523438 215.472656 L 520.394531 214.847656 L 520.121094 213.597656 L 519.53125 211.105469 L 518.144531 206.15625 L 517.953125 205.542969 L 517.757813 204.929688 L 517.355469 203.707031 L 516.496094 201.269531 L 514.585938 196.453125 L 514.328125 195.855469 L 514.070313 195.261719 L 513.535156 194.074219 L 512.417969 191.714844 L 510 187.070313 L 509.679688 186.496094 L 509.355469 185.921875 L 508.699219 184.78125 L 507.335938 182.519531 L 504.429688 178.082031 L 504.074219 177.570313 L 503.71875 177.0625 L 502.992188 176.050781 L 501.503906 174.046875 L 498.382813 170.117188 L 497.570313 169.15625 L 496.75 168.199219 L 495.066406 166.308594 L 491.566406 162.621094 L 491.113281 162.167969 L 490.660156 161.71875 L 489.746094 160.824219 L 487.882813 159.058594 L 484.027344 155.636719 L 475.824219 149.210938 L 475.246094 148.796875 L 474.664063 148.386719 L 473.496094 147.574219 L 471.125 145.976563 L 466.253906 142.925781 L 465.636719 142.558594 L 465.011719 142.195313 L 463.761719 141.472656 L 461.230469 140.0625 L 456.058594 137.390625 L 455.402344 137.070313 L 454.742188 136.753906 L 453.421875 136.128906 L 450.75 134.914063 L 445.316406 132.636719 L 434.125 128.691406 L 433.425781 128.472656 L 432.722656 128.261719 L 431.320313 127.847656 L 428.492188 127.054688 L 422.78125 125.617188 L 422.0625 125.449219 L 421.34375 125.289063 L 419.902344 124.972656 L 417.007813 124.378906 L 411.179688 123.34375 L 410.445313 123.230469 L 409.714844 123.117188 L 408.246094 122.902344 L 405.304688 122.507813 L 399.398438 121.871094 L 387.527344 121.1875 L 386.835938 121.171875 L 386.140625 121.160156 L 384.757813 121.140625 L 381.984375 121.136719 L 376.449219 121.25 L 365.433594 121.960938 L 364.75 122.027344 L 362.699219 122.238281 L 359.96875 122.554688 L 354.542969 123.300781 L 343.839844 125.234375 L 343.121094 125.386719 L 342.40625 125.542969 L 340.976563 125.859375 L 338.132813 126.519531 L 332.503906 127.964844 L 321.523438 131.300781 L 320.847656 131.527344 L 320.175781 131.757813 L 318.839844 132.222656 L 316.183594 133.179688 L 310.953125 135.191406 L 300.847656 139.566406 L 300.273438 139.835938 L 299.703125 140.109375 L 298.5625 140.652344 L 296.304688 141.761719 L 291.878906 144.039063 L 283.390625 148.832031 L 282.875 149.140625 L 282.363281 149.449219 L 281.34375 150.070313 L 279.332031 151.328125 L 275.402344 153.882813 L 267.945313 159.136719 L 267.503906 159.464844 L 267.066406 159.792969 L 266.199219 160.449219 L 264.484375 161.769531 L 261.15625 164.433594 L 254.894531 169.816406 L 254.523438 170.15625 L 254.148438 170.492188 L 253.414063 171.171875 L 251.964844 172.523438 L 249.164063 175.234375 L 243.964844 180.640625 L 243.628906 181.003906 L 243.296875 181.367188 L 242.644531 182.097656 L 241.359375 183.546875 L 238.910156 186.429688 L 234.453125 192.078125 L 234.191406 192.425781 L 233.933594 192.773438 L 233.429688 193.464844 L 232.441406 194.835938 L 230.570313 197.539063 L 227.242188 202.75 L 227.066406 203.046875 L 226.890625 203.339844 L 226.542969 203.925781 L 225.871094 205.085938 L 224.605469 207.351563 L 222.390625 211.660156 L 222.140625 212.175781 L 221.898438 212.6875 L 221.429688 213.695313 L 220.566406 215.648438 L 219.09375 219.292969 L 219.007813 219.527344 L 218.921875 219.757813 L 218.753906 220.21875 L 218.433594 221.113281 L 217.863281 222.824219 L 216.957031 225.902344 L 216.863281 226.253906 L 216.773438 226.597656 L 216.609375 227.265625 L 216.324219 228.507813 L 215.921875 230.632813 L 215.902344 230.742188 L 215.886719 230.847656 L 215.851563 231.058594 L 215.792969 231.457031 L 215.703125 232.179688 L 215.59375 233.304688 L 215.585938 233.414063 L 215.582031 233.519531 L 215.570313 233.710938 L 215.5625 234.015625 L 215.558594 234.046875 L 215.558594 234.335938 L 215.558594 234.292969 L 215.554688 234.238281 L 215.511719 233.800781 L 215.507813 233.761719 L 215.503906 233.71875 L 215.492188 233.636719 L 215.464844 233.449219 L 215.402344 233.019531 L 215.191406 231.917969 L 215.175781 231.832031 L 215.15625 231.746094 L 215.117188 231.566406 L 215.03125 231.195313 L 214.828125 230.394531 L 214.285156 228.554688 L 214.246094 228.429688 L 214.203125 228.304688 L 214.121094 228.050781 L 213.941406 227.527344 L 213.542969 226.4375 L 212.574219 224.085938 L 212.449219 223.796875 L 212.316406 223.503906 L 212.042969 222.914063 L 211.457031 221.707031 L 210.113281 219.1875 L 210.019531 219.023438 L 209.925781 218.863281 L 209.738281 218.539063 L 209.355469 217.882813 L 208.539063 216.558594 L 206.726563 213.855469 L 206.59375 213.671875 L 206.460938 213.484375 L 206.195313 213.113281 L 205.644531 212.371094 L 204.496094 210.878906 L 201.984375 207.894531 L 201.816406 207.710938 L 201.648438 207.523438 L 201.3125 207.152344 L 200.625 206.414063 L 199.195313 204.941406 L 196.144531 202.058594 L 195.949219 201.886719 L 195.75 201.710938 L 195.355469 201.367188 L 194.550781 200.679688 L 192.898438 199.332031 L 192.6875 199.164063 L 192.476563 199 L 192.050781 198.667969 L 191.1875 198.015625 L 189.421875 196.738281 L 188.515625 196.113281 L 187.597656 195.5 L 185.726563 194.308594 L 181.839844 192.074219 L 181.605469 191.949219 L 181.371094 191.828125 L 180.90625 191.585938 L 179.960938 191.105469 L 178.050781 190.1875 L 177.808594 190.074219 L 177.082031 189.746094 L 176.105469 189.320313 L 174.128906 188.507813 L 173.882813 188.410156 L 173.632813 188.3125 L 173.132813 188.121094 L 172.125 187.75 L 170.09375 187.050781 L 165.964844 185.835938 L 165.683594 185.761719 L 165.398438 185.691406 L 164.832031 185.546875 L 163.695313 185.28125 L 161.40625 184.800781 L 161.121094 184.746094 L 160.832031 184.691406 L 160.257813 184.589844 L 159.105469 184.398438 L 156.792969 184.074219 L 156.503906 184.039063 L 156.210938 184.003906 L 155.632813 183.941406 L 154.472656 183.828125 L 152.148438 183.664063 L 147.503906 183.578125 L 147.230469 183.582031 L 146.421875 183.605469 L 145.34375 183.648438 L 143.191406 183.789063 L 142.925781 183.8125 L 142.65625 183.835938 L 142.121094 183.890625 L 141.054688 184.003906 L 138.929688 184.289063 L 138.664063 184.332031 L 138.402344 184.371094 L 137.875 184.460938 L 136.824219 184.644531 L 134.738281 185.074219 L 130.640625 186.136719 L 130.148438 186.285156 L 129.65625 186.4375 L 128.675781 186.757813 L 126.738281 187.445313 L 126.496094 187.535156 L 126.257813 187.628906 L 125.78125 187.8125 L 124.832031 188.199219 L 122.964844 189.011719 L 122.734375 189.117188 L 122.042969 189.445313 L 121.132813 189.890625 L 119.339844 190.828125 L 115.886719 192.882813 L 115.433594 193.179688 L 114.980469 193.480469 L 114.089844 194.09375 L 112.347656 195.367188 L 112.136719 195.53125 L 111.921875 195.695313 L 111.5 196.03125 L 110.667969 196.707031 L 109.050781 198.105469 L 108.851563 198.285156 L 108.65625 198.464844 L 108.265625 198.828125 L 107.496094 199.5625 L 106.011719 201.074219 L 103.246094 204.261719 L 102.941406 204.644531 L 102.640625 205.03125 L 102.054688 205.8125 L 100.929688 207.40625 L 100.65625 207.8125 L 100.390625 208.21875 L 99.871094 209.039063 L 98.878906 210.703125 L 98.757813 210.914063 L 98.640625 211.125 L 98.40625 211.550781 L 97.953125 212.40625 L 97.101563 214.132813 L 95.609375 217.675781 L 95.519531 217.925781 L 95.425781 218.179688 L 95.246094 218.683594 L 94.90625 219.695313 L 94.289063 221.738281 L 94.222656 221.996094 L 94.152344 222.253906 L 94.019531 222.769531 L 93.769531 223.804688 L 93.34375 225.890625 L 93.25 226.414063 L 93.164063 226.9375 L 93.007813 227.988281 L 92.769531 230.097656 L 92.746094 230.363281 L 92.726563 230.628906 L 92.6875 231.15625 L 92.628906 232.214844 L 92.605469 232.746094 L 92.59375 233.277344 L 92.585938 233.542969 L 92.582031 233.808594 L 92.582031 234.070313 L 92.578125 234.335938 " transform="matrix(1,0,0,1,-83,-6)"/>
<path style="fill:none;stroke-width:2;stroke-linecap:square;stroke-linejoin:miter;stroke:rgb(0%,0%,0%);stroke-opacity:1;stroke-dasharray:1.25,5;stroke-miterlimit:3.25;" d="M 92.578125 234.335938 L 92.582031 234.574219 L 92.582031 235.285156 L 92.585938 236.234375 L 92.609375 238.128906 L 92.695313 241.921875 L 93.035156 249.523438 L 94.59375 266.132813 L 97.144531 281.890625 L 100.816406 297.660156 L 106.328125 315.164063 L 106.515625 315.679688 L 106.703125 316.199219 L 107.085938 317.234375 L 107.871094 319.308594 L 109.523438 323.46875 L 113.15625 331.851563 L 113.289063 332.136719 L 113.417969 332.421875 L 113.683594 332.992188 L 114.222656 334.132813 L 115.320313 336.421875 L 117.632813 341.003906 L 122.707031 350.207031 L 122.875 350.488281 L 123.039063 350.773438 L 123.375 351.335938 L 124.050781 352.46875 L 125.433594 354.730469 L 128.316406 359.253906 L 134.589844 368.277344 L 134.785156 368.542969 L 134.976563 368.804688 L 135.367188 369.328125 L 136.152344 370.375 L 137.753906 372.46875 L 141.070313 376.632813 L 148.191406 384.882813 L 149.207031 385.992188 L 150.238281 387.097656 L 152.332031 389.296875 L 156.667969 393.652344 L 157.222656 394.191406 L 157.78125 394.730469 L 158.910156 395.804688 L 161.207031 397.945313 L 165.949219 402.164063 L 166.234375 402.40625 L 166.519531 402.652344 L 167.089844 403.136719 L 168.238281 404.105469 L 170.566406 406.027344 L 175.367188 409.808594 L 175.671875 410.042969 L 175.980469 410.277344 L 176.597656 410.742188 L 177.835938 411.667969 L 180.351563 413.5 L 185.519531 417.09375 L 185.839844 417.308594 L 186.164063 417.527344 L 186.8125 417.957031 L 188.117188 418.816406 L 190.761719 420.507813 L 196.183594 423.808594 L 196.527344 424.011719 L 196.875 424.210938 L 197.566406 424.613281 L 198.960938 425.414063 L 201.78125 426.984375 L 207.554688 430.027344 L 207.953125 430.230469 L 209.148438 430.828125 L 210.757813 431.617188 L 214.011719 433.164063 L 220.671875 436.121094 L 221.09375 436.300781 L 221.515625 436.476563 L 222.363281 436.832031 L 224.074219 437.527344 L 227.523438 438.882813 L 234.566406 441.4375 L 236.238281 442 L 237.917969 442.550781 L 241.308594 443.621094 L 248.203125 445.597656 L 248.636719 445.714844 L 249.074219 445.832031 L 249.949219 446.0625 L 251.707031 446.511719 L 255.246094 447.367188 L 262.433594 448.910156 L 262.925781 449.003906 L 263.417969 449.101563 L 264.40625 449.285156 L 266.386719 449.648438 L 270.375 450.316406 L 278.46875 451.433594 L 278.976563 451.496094 L 279.488281 451.554688 L 280.511719 451.667969 L 282.5625 451.882813 L 286.691406 452.253906 L 295.042969 452.761719 L 296.074219 452.800781 L 297.109375 452.835938 L 299.183594 452.890625 L 303.347656 452.941406 L 311.746094 452.800781 L 312.800781 452.761719 L 313.855469 452.714844 L 315.972656 452.605469 L 320.21875 452.328125 L 328.757813 451.511719 L 329.253906 451.457031 L 329.753906 451.394531 L 330.753906 451.273438 L 332.753906 451.015625 L 336.761719 450.4375 L 344.789063 449.054688 L 345.796875 448.859375 L 346.800781 448.660156 L 348.8125 448.246094 L 352.832031 447.355469 L 360.871094 445.335938 L 361.417969 445.1875 L 361.960938 445.039063 L 363.050781 444.734375 L 365.226563 444.105469 L 369.570313 442.777344 L 378.230469 439.835938 L 378.769531 439.640625 L 380.386719 439.042969 L 382.539063 438.222656 L 386.828125 436.507813 L 395.34375 432.789063 L 395.835938 432.558594 L 396.332031 432.328125 L 397.316406 431.863281 L 399.28125 430.917969 L 403.199219 428.964844 L 410.945313 424.804688 L 411.90625 424.257813 L 412.863281 423.710938 L 414.773438 422.59375 L 418.566406 420.304688 L 426.046875 415.46875 L 426.546875 415.132813 L 427.046875 414.789063 L 428.046875 414.105469 L 430.035156 412.714844 L 433.96875 409.859375 L 441.679688 403.867188 L 442.15625 403.480469 L 442.628906 403.09375 L 443.574219 402.3125 L 445.449219 400.730469 L 449.160156 397.503906 L 456.382813 390.769531 L 456.816406 390.347656 L 457.25 389.921875 L 458.113281 389.0625 L 459.828125 387.335938 L 463.207031 383.816406 L 469.742188 376.53125 L 470.140625 376.066406 L 470.535156 375.601563 L 471.328125 374.660156 L 472.894531 372.769531 L 475.972656 368.929688 L 481.875 361.027344 L 482.210938 360.554688 L 482.542969 360.085938 L 483.203125 359.140625 L 484.515625 357.238281 L 487.078125 353.390625 L 491.964844 345.515625 L 492.261719 345.015625 L 492.554688 344.515625 L 493.136719 343.511719 L 494.289063 341.496094 L 496.527344 337.417969 L 500.753906 329.109375 L 501.300781 327.96875 L 501.839844 326.824219 L 502.902344 324.527344 L 504.941406 319.886719 L 508.707031 310.453125 L 508.925781 309.859375 L 509.144531 309.261719 L 509.578125 308.066406 L 510.425781 305.667969 L 512.035156 300.839844 L 514.914063 291.058594 L 515.21875 289.910156 L 515.519531 288.757813 L 516.101563 286.445313 L 517.191406 281.804688 L 519.0625 272.445313 L 519.167969 271.859375 L 519.269531 271.269531 L 519.46875 270.09375 L 519.847656 267.734375 L 520.527344 263.007813 L 521.574219 253.503906 L 521.625 252.921875 L 521.675781 252.335938 L 521.769531 251.167969 L 521.9375 248.832031 L 522.199219 244.148438 L 522.417969 234.773438 L 522.421875 234.1875 L 522.410156 232.429688 L 522.378906 230.085938 L 522.238281 225.398438 L 521.652344 216.039063 L 521.597656 215.40625 L 521.421875 213.507813 L 521.164063 210.980469 L 520.5625 205.933594 L 519.003906 195.894531 L 518.777344 194.644531 L 518.542969 193.398438 L 518.050781 190.90625 L 516.984375 185.949219 L 514.503906 176.121094 L 514.347656 175.550781 L 514.1875 174.980469 L 513.863281 173.847656 L 513.195313 171.582031 L 511.789063 167.074219 L 508.6875 158.171875 L 508.480469 157.617188 L 508.273438 157.066406 L 507.851563 155.96875 L 506.996094 153.777344 L 505.210938 149.425781 L 501.371094 140.855469 L 501.101563 140.28125 L 500.824219 139.707031 L 500.269531 138.566406 L 499.144531 136.289063 L 496.8125 131.785156 L 491.851563 122.964844 L 491.203125 121.878906 L 490.546875 120.796875 L 489.222656 118.652344 L 486.503906 114.40625 L 480.789063 106.132813 L 480.0625 105.140625 L 479.332031 104.148438 L 477.851563 102.183594 L 474.835938 98.304688 L 468.566406 90.78125 L 468.164063 90.324219 L 467.761719 89.863281 L 466.949219 88.949219 L 465.316406 87.140625 L 461.992188 83.578125 L 455.140625 76.703125 L 454.734375 76.3125 L 454.324219 75.921875 L 453.503906 75.148438 L 451.855469 73.613281 L 448.511719 70.597656 L 441.671875 64.800781 L 441.238281 64.445313 L 440.804688 64.097656 L 439.933594 63.398438 L 438.179688 62.015625 L 434.640625 59.3125 L 427.425781 54.144531 L 426.933594 53.804688 L 426.4375 53.46875 L 425.441406 52.796875 L 423.449219 51.476563 L 419.425781 48.902344 L 411.257813 44.046875 L 410.226563 43.46875 L 409.191406 42.894531 L 407.117188 41.765625 L 402.941406 39.578125 L 394.507813 35.5 L 394.011719 35.277344 L 393.515625 35.050781 L 392.523438 34.605469 L 390.53125 33.730469 L 386.539063 32.046875 L 378.5 28.933594 L 377.996094 28.75 L 377.488281 28.570313 L 376.480469 28.210938 L 374.457031 27.503906 L 370.40625 26.160156 L 362.273438 23.722656 L 361.777344 23.585938 L 361.277344 23.449219 L 360.277344 23.179688 L 358.28125 22.652344 L 354.285156 21.660156 L 346.289063 19.910156 L 345.289063 19.714844 L 344.289063 19.523438 L 342.292969 19.15625 L 338.300781 18.476563 L 330.339844 17.347656 L 329.800781 17.285156 L 329.261719 17.21875 L 328.183594 17.09375 L 326.03125 16.863281 L 321.738281 16.464844 L 313.203125 15.929688 L 312.671875 15.910156 L 312.140625 15.886719 L 311.078125 15.851563 L 308.960938 15.789063 L 304.738281 15.734375 L 296.367188 15.863281 L 295.882813 15.882813 L 295.398438 15.898438 L 294.429688 15.941406 L 292.5 16.035156 L 288.652344 16.273438 L 281.039063 16.949219 L 280.09375 17.050781 L 279.152344 17.160156 L 277.273438 17.382813 L 273.539063 17.882813 L 266.160156 19.066406 L 265.167969 19.246094 L 264.179688 19.429688 L 262.210938 19.808594 L 258.304688 20.621094 L 250.617188 22.441406 L 250.144531 22.5625 L 249.667969 22.6875 L 248.722656 22.9375 L 246.835938 23.445313 L 243.101563 24.515625 L 235.765625 26.832031 L 235.34375 26.972656 L 234.078125 27.40625 L 232.40625 27.992188 L 229.085938 29.199219 L 222.574219 31.757813 L 222.171875 31.921875 L 221.769531 32.089844 L 220.972656 32.425781 L 219.382813 33.101563 L 216.234375 34.492188 L 210.070313 37.390625 L 209.328125 37.757813 L 208.589844 38.125 L 207.117188 38.871094 L 204.203125 40.382813 L 198.511719 43.515625 L 198.164063 43.71875 L 197.8125 43.917969 L 197.117188 44.320313 L 195.734375 45.132813 L 192.996094 46.777344 L 187.660156 50.160156 L 187.304688 50.390625 L 186.949219 50.625 L 186.242188 51.09375 L 184.839844 52.039063 L 182.074219 53.949219 L 176.695313 57.859375 L 176.367188 58.105469 L 176.039063 58.355469 L 175.382813 58.851563 L 174.085938 59.851563 L 171.527344 61.871094 L 166.566406 65.980469 L 166.285156 66.222656 L 166 66.46875 L 165.4375 66.953125 L 164.324219 67.929688 L 162.125 69.894531 L 157.859375 73.871094 L 149.855469 81.988281 L 149.59375 82.265625 L 149.335938 82.546875 L 148.820313 83.101563 L 147.804688 84.21875 L 145.800781 86.460938 L 141.949219 90.976563 L 134.808594 100.097656 L 134.394531 100.660156 L 133.984375 101.222656 L 133.171875 102.351563 L 131.574219 104.605469 L 128.511719 109.125 L 122.875 118.179688 L 122.722656 118.445313 L 122.566406 118.707031 L 122.261719 119.234375 L 121.652344 120.292969 L 120.464844 122.402344 L 118.183594 126.613281 L 114 135.011719 L 113.867188 135.296875 L 113.734375 135.578125 L 113.46875 136.144531 L 112.949219 137.277344 L 111.929688 139.542969 L 109.996094 144.050781 L 106.511719 153.003906 L 101.242188 169.449219 L 97.457031 185.21875 L 94.667969 201.964844 L 93.152344 217.335938 L 93.132813 217.601563 L 93.117188 217.867188 L 93.082031 218.402344 L 93.015625 219.464844 L 92.902344 221.59375 L 92.722656 225.847656 L 92.714844 226.113281 L 92.703125 226.378906 L 92.6875 226.910156 L 92.660156 227.972656 L 92.617188 230.09375 L 92.609375 230.359375 L 92.605469 230.625 L 92.601563 231.15625 L 92.589844 232.214844 L 92.585938 232.480469 L 92.585938 232.746094 L 92.582031 233.277344 L 92.582031 234.070313 L 92.578125 234.335938 " transform="matrix(1,0,0,1,-83,-6)"/>
<g clip-path="url(#clip1)" clip-rule="nonzero">
<path style="fill:none;stroke-width:2.5;stroke-linecap:square;stroke-linejoin:miter;stroke:rgb(0%,0%,0%);stroke-opacity:1;stroke-miterlimit:3.25;" d="M 92.578125 234.335938 L 92.582031 234.574219 L 92.582031 234.8125 L 92.585938 235.285156 L 92.601563 236.234375 L 92.671875 238.128906 L 92.941406 241.90625 L 92.964844 242.144531 L 92.988281 242.378906 L 93.035156 242.851563 L 93.144531 243.792969 L 93.390625 245.667969 L 94.019531 249.402344 L 94.070313 249.65625 L 94.117188 249.90625 L 94.21875 250.410156 L 94.433594 251.410156 L 94.898438 253.40625 L 95.984375 257.355469 L 96.132813 257.847656 L 96.285156 258.335938 L 96.597656 259.308594 L 97.265625 261.238281 L 98.738281 265.042969 L 98.832031 265.261719 L 98.921875 265.480469 L 99.109375 265.917969 L 99.492188 266.789063 L 100.285156 268.515625 L 101.988281 271.90625 L 102.214844 272.320313 L 102.4375 272.738281 L 102.898438 273.566406 L 103.84375 275.199219 L 105.847656 278.398438 L 105.972656 278.589844 L 106.359375 279.164063 L 106.878906 279.925781 L 107.941406 281.429688 L 110.164063 284.351563 L 110.308594 284.53125 L 110.449219 284.710938 L 110.738281 285.066406 L 111.320313 285.773438 L 112.503906 287.164063 L 114.953125 289.859375 L 115.125 290.035156 L 115.292969 290.214844 L 115.636719 290.566406 L 116.328125 291.269531 L 117.726563 292.644531 L 120.609375 295.285156 L 121.34375 295.925781 L 122.085938 296.550781 L 123.585938 297.78125 L 126.652344 300.125 L 126.832031 300.257813 L 127.015625 300.390625 L 127.378906 300.652344 L 128.109375 301.167969 L 129.578125 302.179688 L 132.5625 304.101563 L 132.9375 304.335938 L 133.316406 304.5625 L 134.070313 305.015625 L 135.589844 305.898438 L 138.65625 307.570313 L 138.863281 307.679688 L 139.074219 307.785156 L 139.492188 308 L 140.328125 308.425781 L 142.007813 309.242188 L 145.382813 310.78125 L 152.144531 313.46875 L 152.355469 313.546875 L 152.976563 313.769531 L 153.804688 314.058594 L 155.457031 314.621094 L 158.753906 315.675781 L 165.261719 317.539063 L 177.027344 320.449219 L 189.195313 323.535156 L 189.367188 323.582031 L 189.542969 323.632813 L 189.890625 323.730469 L 190.585938 323.933594 L 191.972656 324.347656 L 194.742188 325.21875 L 200.296875 327.195313 L 200.46875 327.261719 L 200.636719 327.328125 L 200.980469 327.460938 L 201.667969 327.730469 L 203.046875 328.292969 L 205.828125 329.484375 L 211.558594 332.183594 L 225.21875 339.585938 L 240.453125 348.285156 L 240.738281 348.445313 L 241.023438 348.601563 L 241.597656 348.921875 L 242.761719 349.570313 L 245.136719 350.871094 L 250.097656 353.523438 L 260.902344 358.9375 L 261.605469 359.273438 L 262.3125 359.605469 L 263.746094 360.273438 L 266.664063 361.597656 L 272.746094 364.222656 L 273.136719 364.382813 L 273.527344 364.546875 L 274.316406 364.867188 L 275.90625 365.511719 L 279.148438 366.78125 L 285.875 369.238281 L 286.273438 369.378906 L 286.679688 369.519531 L 287.488281 369.792969 L 289.121094 370.34375 L 292.4375 371.414063 L 299.285156 373.449219 L 300.160156 373.691406 L 301.039063 373.933594 L 302.8125 374.402344 L 306.40625 375.3125 L 313.792969 376.976563 L 314.304688 377.082031 L 314.8125 377.183594 L 315.839844 377.386719 L 317.90625 377.785156 L 322.09375 378.519531 L 330.671875 379.757813 L 331.765625 379.890625 L 332.859375 380.015625 L 335.0625 380.25 L 339.511719 380.652344 L 348.582031 381.171875 L 349.121094 381.191406 L 349.65625 381.207031 L 350.730469 381.238281 L 352.886719 381.277344 L 357.234375 381.289063 L 366.03125 381.019531 L 367.140625 380.957031 L 368.25 380.890625 L 370.476563 380.734375 L 374.945313 380.34375 L 383.945313 379.238281 L 384.558594 379.148438 L 385.167969 379.058594 L 386.394531 378.863281 L 388.84375 378.457031 L 393.75 377.539063 L 403.566406 375.289063 L 404.175781 375.132813 L 404.789063 374.96875 L 406.011719 374.640625 L 408.460938 373.957031 L 413.335938 372.480469 L 423.015625 369.097656 L 423.605469 368.871094 L 424.195313 368.640625 L 425.371094 368.175781 L 427.714844 367.222656 L 432.371094 365.207031 L 432.949219 364.945313 L 433.527344 364.679688 L 434.683594 364.144531 L 436.980469 363.050781 L 441.535156 360.753906 L 442.097656 360.457031 L 442.660156 360.15625 L 443.785156 359.550781 L 446.023438 358.316406 L 450.445313 355.738281 L 459.054688 350.167969 L 459.546875 349.828125 L 460.035156 349.484375 L 461.011719 348.792969 L 462.953125 347.386719 L 466.765625 344.484375 L 467.238281 344.113281 L 467.707031 343.742188 L 468.640625 342.992188 L 470.496094 341.46875 L 474.128906 338.339844 L 474.578125 337.941406 L 475.023438 337.542969 L 475.910156 336.734375 L 477.664063 335.101563 L 481.097656 331.757813 L 487.636719 324.75 L 488.0625 324.261719 L 488.488281 323.769531 L 489.328125 322.785156 L 490.988281 320.785156 L 494.195313 316.707031 L 494.585938 316.191406 L 494.972656 315.671875 L 495.742188 314.628906 L 497.25 312.523438 L 500.15625 308.234375 L 500.507813 307.691406 L 500.855469 307.148438 L 501.546875 306.054688 L 502.898438 303.847656 L 505.480469 299.367188 L 510.128906 290.152344 L 510.378906 289.605469 L 510.625 289.058594 L 511.113281 287.957031 L 512.058594 285.746094 L 513.832031 281.273438 L 514.042969 280.710938 L 514.25 280.148438 L 514.65625 279.019531 L 515.441406 276.75 L 516.894531 272.171875 L 517.230469 271.023438 L 517.554688 269.867188 L 518.179688 267.550781 L 519.296875 262.890625 L 521.023438 253.472656 L 521.109375 252.890625 L 521.191406 252.308594 L 521.34375 251.144531 L 521.621094 248.816406 L 522.054688 244.144531 L 522.097656 243.5625 L 522.136719 242.976563 L 522.207031 241.804688 L 522.320313 239.464844 L 522.417969 234.773438 L 522.421875 234.1875 L 522.417969 233.601563 L 522.40625 232.429688 L 522.351563 230.085938 L 522.117188 225.402344 L 521.148438 216.070313 L 520.96875 214.8125 L 520.773438 213.554688 L 520.347656 211.042969 L 519.355469 206.046875 L 519.214844 205.421875 L 519.074219 204.800781 L 518.785156 203.5625 L 518.167969 201.085938 L 516.796875 196.171875 L 516.421875 194.953125 L 516.039063 193.734375 L 515.234375 191.3125 L 513.492188 186.507813 L 509.46875 177.101563 L 508.953125 176.023438 L 508.425781 174.949219 L 507.351563 172.8125 L 505.085938 168.597656 L 504.792969 168.074219 L 504.496094 167.554688 L 503.898438 166.515625 L 502.675781 164.457031 L 500.125 160.394531 L 499.796875 159.894531 L 499.46875 159.390625 L 498.800781 158.394531 L 497.4375 156.417969 L 494.621094 152.53125 L 488.597656 145.03125 L 487.746094 144.046875 L 486.882813 143.070313 L 485.132813 141.132813 L 481.535156 137.355469 L 481.074219 136.894531 L 480.613281 136.429688 L 479.683594 135.515625 L 477.804688 133.703125 L 473.953125 130.175781 L 473.464844 129.746094 L 472.972656 129.316406 L 471.984375 128.464844 L 469.988281 126.78125 L 465.910156 123.523438 L 457.457031 117.414063 L 456.925781 117.054688 L 456.394531 116.699219 L 455.324219 116 L 453.171875 114.617188 L 448.808594 111.960938 L 447.707031 111.320313 L 446.601563 110.683594 L 444.375 109.441406 L 439.871094 107.0625 L 439.304688 106.777344 L 438.738281 106.488281 L 437.597656 105.925781 L 435.308594 104.824219 L 430.695313 102.722656 L 421.335938 98.945313 L 420.785156 98.742188 L 420.234375 98.542969 L 419.128906 98.144531 L 416.921875 97.375 L 412.480469 95.925781 L 403.554688 93.378906 L 402.996094 93.238281 L 402.433594 93.097656 L 401.316406 92.820313 L 399.074219 92.285156 L 394.589844 91.304688 L 385.632813 89.6875 L 385.027344 89.597656 L 384.421875 89.503906 L 383.210938 89.328125 L 380.789063 89 L 375.964844 88.433594 L 366.390625 87.675781 L 365.203125 87.613281 L 364.015625 87.558594 L 361.648438 87.472656 L 356.949219 87.382813 L 347.675781 87.535156 L 347.144531 87.554688 L 346.609375 87.578125 L 345.542969 87.628906 L 343.417969 87.746094 L 339.207031 88.042969 L 330.945313 88.882813 L 330.433594 88.945313 L 329.925781 89.007813 L 328.914063 89.140625 L 326.894531 89.417969 L 322.90625 90.023438 L 315.109375 91.429688 L 314.640625 91.527344 L 314.171875 91.621094 L 313.238281 91.8125 L 311.382813 92.210938 L 307.71875 93.046875 L 300.59375 94.863281 L 299.71875 95.105469 L 298.851563 95.347656 L 297.128906 95.839844 L 293.734375 96.855469 L 287.152344 98.996094 L 286.714844 99.144531 L 286.28125 99.292969 L 285.414063 99.597656 L 283.695313 100.207031 L 280.324219 101.449219 L 273.828125 104.003906 L 261.804688 109.308594 L 261.472656 109.464844 L 261.144531 109.621094 L 260.484375 109.933594 L 259.183594 110.558594 L 256.628906 111.8125 L 251.714844 114.304688 L 242.628906 119.179688 L 225.84375 128.730469 L 212.816406 135.855469 L 212.628906 135.949219 L 212.445313 136.042969 L 212.074219 136.230469 L 211.335938 136.597656 L 209.878906 137.3125 L 207.011719 138.65625 L 201.425781 141.039063 L 201.238281 141.113281 L 201.054688 141.1875 L 200.679688 141.332031 L 199.933594 141.617188 L 198.449219 142.171875 L 195.492188 143.207031 L 189.570313 145.035156 L 178.289063 147.921875 L 165.476563 151.078125 L 165.273438 151.132813 L 165.074219 151.1875 L 164.667969 151.292969 L 163.859375 151.515625 L 162.234375 151.96875 L 158.964844 152.933594 L 152.355469 155.128906 L 152.164063 155.199219 L 151.96875 155.269531 L 151.582031 155.410156 L 150.808594 155.699219 L 149.257813 156.292969 L 146.15625 157.5625 L 145.964844 157.644531 L 145.769531 157.726563 L 145.382813 157.894531 L 144.609375 158.234375 L 143.0625 158.933594 L 139.984375 160.421875 L 139.773438 160.527344 L 139.566406 160.632813 L 139.152344 160.847656 L 138.320313 161.28125 L 136.667969 162.171875 L 133.394531 164.0625 L 133.191406 164.183594 L 132.582031 164.558594 L 131.773438 165.0625 L 130.167969 166.101563 L 127.007813 168.289063 L 126.640625 168.554688 L 126.277344 168.824219 L 125.554688 169.363281 L 124.121094 170.46875 L 121.308594 172.78125 L 121.136719 172.929688 L 120.960938 173.078125 L 120.617188 173.378906 L 119.933594 173.984375 L 118.578125 175.222656 L 115.941406 177.792969 L 115.785156 177.953125 L 115.625 178.117188 L 115.3125 178.441406 L 114.6875 179.097656 L 113.457031 180.433594 L 111.078125 183.195313 L 110.789063 183.546875 L 110.5 183.902344 L 109.929688 184.617188 L 108.8125 186.066406 L 106.671875 189.050781 L 106.53125 189.253906 L 106.390625 189.460938 L 106.113281 189.875 L 105.5625 190.710938 L 104.492188 192.402344 L 102.476563 195.867188 L 102.355469 196.089844 L 102.234375 196.308594 L 101.53125 197.644531 L 100.628906 199.441406 L 98.957031 203.113281 L 98.867188 203.328125 L 98.773438 203.546875 L 98.59375 203.980469 L 98.238281 204.855469 L 97.5625 206.617188 L 96.332031 210.1875 L 96.050781 211.09375 L 95.78125 212 L 95.269531 213.820313 L 94.382813 217.503906 L 94.324219 217.765625 L 94.269531 218.023438 L 94.164063 218.542969 L 93.960938 219.582031 L 93.597656 221.667969 L 93.03125 225.867188 L 93.003906 226.132813 L 92.976563 226.394531 L 92.925781 226.921875 L 92.835938 227.980469 L 92.691406 230.097656 L 92.679688 230.359375 L 92.644531 231.15625 L 92.609375 232.214844 L 92.601563 232.480469 L 92.597656 232.746094 L 92.585938 233.277344 L 92.582031 233.542969 L 92.582031 234.070313 L 92.578125 234.335938 " transform="matrix(1,0,0,1,-83,-6)"/>
</g>
<path style="fill:none;stroke-width:0.25;stroke-linecap:butt;stroke-linejoin:miter;stroke:rgb(39.99939%,39.99939%,39.99939%);stroke-opacity:1;stroke-miterlimit:3.25;" d="M 83.625 234.335938 L 531.375 234.335938 " transform="matrix(1,0,0,1,-83,-6)"/>
<path style="fill:none;stroke-width:0.25;stroke-linecap:butt;stroke-linejoin:miter;stroke:rgb(39.99939%,39.99939%,39.99939%);stroke-opacity:1;stroke-miterlimit:3.25;" d="M 215.558594 462.050781 L 215.558594 6.625 " transform="matrix(1,0,0,1,-83,-6)"/>
</g>
</svg>
