<?xml version="1.0" encoding="UTF-8"?>
<svg xmlns="http://www.w3.org/2000/svg" xmlns:xlink="http://www.w3.org/1999/xlink" width="1087pt" height="143pt" viewBox="0 0 1087 143" version="1.1">
<defs>
<clipPath id="clip1">
  <path d="M 10 0 L 1076 0 L 1076 142.078125 L 10 142.078125 Z M 10 0 "/>
</clipPath>
</defs>
<g id="surface124">
<g clip-path="url(#clip1)" clip-rule="nonzero">
<path style="fill:none;stroke-width:2.5;stroke-linecap:square;stroke-linejoin:miter;stroke:rgb(0%,0%,0%);stroke-opacity:1;stroke-miterlimit:3.25;" d="M 110.296875 76.925781 L 110.359375 76.988281 L 110.523438 77.042969 L 110.582031 77.058594 L 110.640625 77.070313 L 110.773438 77.09375 L 110.917969 77.113281 L 111.066406 77.128906 L 111.351563 77.160156 L 111.578125 77.1875 L 111.691406 77.21875 L 111.652344 77.265625 L 111.609375 77.28125 L 111.554688 77.300781 L 111.484375 77.320313 L 111.402344 77.347656 L 111.304688 77.375 L 111.195313 77.402344 L 110.929688 77.472656 L 110.777344 77.511719 L 110.613281 77.554688 L 110.25 77.652344 L 109.402344 77.886719 L 109.289063 77.917969 L 109.175781 77.953125 L 108.941406 78.023438 L 108.460938 78.167969 L 108.21875 78.246094 L 107.980469 78.328125 L 107.507813 78.492188 L 107.390625 78.53125 L 107.277344 78.574219 L 107.054688 78.65625 L 106.632813 78.828125 L 106.4375 78.910156 L 106.253906 78.992188 L 105.925781 79.148438 L 105.796875 79.21875 L 105.679688 79.289063 L 105.578125 79.351563 L 105.492188 79.414063 L 105.371094 79.523438 L 105.320313 79.613281 L 105.4375 79.734375 L 105.839844 79.753906 L 106.144531 79.722656 L 106.511719 79.667969 L 106.929688 79.589844 L 107.394531 79.484375 L 107.644531 79.421875 L 107.898438 79.355469 L 108.429688 79.210938 L 109.535156 78.875 L 109.671875 78.832031 L 109.804688 78.785156 L 110.074219 78.695313 L 110.601563 78.515625 L 111.570313 78.160156 L 111.789063 78.074219 L 111.996094 77.996094 L 112.371094 77.84375 L 112.949219 77.609375 L 113.050781 77.566406 L 113.140625 77.53125 L 113.210938 77.5 L 113.261719 77.480469 L 113.316406 77.464844 L 113.296875 77.484375 L 113.265625 77.507813 L 113.214844 77.539063 L 113.066406 77.628906 L 112.59375 77.914063 L 112.515625 77.964844 L 112.433594 78.015625 L 112.257813 78.125 L 111.875 78.367188 L 111.015625 78.9375 L 110.902344 79.011719 L 110.789063 79.089844 L 110.5625 79.25 L 110.113281 79.570313 L 109.261719 80.21875 L 109.066406 80.375 L 108.882813 80.523438 L 108.546875 80.8125 L 108.402344 80.949219 L 108.265625 81.074219 L 108.148438 81.191406 L 108.042969 81.300781 L 107.796875 81.636719 L 107.820313 81.785156 L 108.085938 81.742188 L 108.554688 81.53125 L 108.699219 81.453125 L 108.851563 81.367188 L 109.183594 81.167969 L 109.917969 80.683594 L 110.113281 80.550781 L 110.308594 80.410156 L 110.699219 80.125 L 111.46875 79.539063 L 112.746094 78.488281 L 112.816406 78.429688 L 112.878906 78.375 L 113.003906 78.269531 L 113.210938 78.085938 L 113.257813 78.046875 L 113.296875 78.007813 L 113.375 77.941406 L 113.4375 77.886719 L 113.484375 77.84375 L 113.574219 77.785156 L 113.496094 77.902344 L 113.453125 77.953125 L 113.40625 78.015625 L 113.289063 78.164063 L 113.003906 78.539063 L 112.964844 78.589844 L 112.925781 78.644531 L 112.847656 78.75 L 112.695313 78.96875 L 112.40625 79.402344 L 112.34375 79.5 L 112.285156 79.597656 L 112.234375 79.6875 L 112.183594 79.773438 L 112.105469 79.921875 L 112.050781 80.046875 L 112.023438 80.199219 L 112.097656 80.207031 L 112.167969 80.160156 L 112.261719 80.082031 L 112.371094 79.972656 L 112.496094 79.839844 L 112.628906 79.683594 L 112.769531 79.507813 L 113.054688 79.136719 L 113.117188 79.046875 L 113.179688 78.960938 L 113.300781 78.789063 L 113.515625 78.476563 L 113.5625 78.410156 L 113.605469 78.34375 L 113.679688 78.234375 L 113.710938 78.183594 L 113.742188 78.140625 L 113.765625 78.105469 L 113.789063 78.074219 L 113.839844 78.015625 L 113.839844 78.054688 L 113.828125 78.109375 L 113.804688 78.183594 L 113.742188 78.375 L 113.703125 78.496094 L 113.664063 78.621094 L 113.625 78.75 L 113.59375 78.875 L 113.546875 79.097656 L 113.53125 79.246094 L 113.554688 79.308594 L 113.609375 79.269531 L 113.652344 79.214844 L 113.695313 79.136719 L 113.71875 79.089844 L 113.746094 79.039063 L 113.796875 78.925781 L 113.824219 78.871094 L 113.847656 78.8125 L 113.898438 78.6875 L 113.992188 78.441406 L 114.015625 78.382813 L 114.035156 78.324219 L 114.074219 78.214844 L 114.132813 78.039063 L 114.175781 77.9375 L 114.195313 77.921875 L 114.195313 78.003906 L 114.183594 78.167969 L 114.15625 78.675781 L 114.152344 79.242188 L 114.167969 79.476563 L 114.195313 79.648438 L 114.230469 79.742188 L 114.273438 79.75 L 114.296875 79.722656 L 114.324219 79.671875 L 114.347656 79.605469 L 114.371094 79.523438 L 114.390625 79.433594 L 114.410156 79.335938 L 114.445313 79.144531 L 114.460938 79.0625 L 114.476563 78.992188 L 114.492188 78.941406 L 114.507813 78.914063 L 114.539063 78.9375 L 114.585938 79.074219 L 114.601563 79.125 L 114.613281 79.179688 L 114.644531 79.304688 L 114.71875 79.613281 L 114.742188 79.699219 L 114.8125 79.980469 L 114.921875 80.367188 L 114.949219 80.464844 L 114.980469 80.558594 L 115.039063 80.738281 L 115.070313 80.824219 L 115.101563 80.90625 L 115.160156 81.058594 L 115.21875 81.191406 L 115.273438 81.296875 L 115.324219 81.375 L 115.371094 81.425781 L 115.453125 81.4375 L 115.507813 81.324219 L 115.527344 81.113281 L 115.53125 80.859375 L 115.527344 80.621094 L 115.542969 80.460938 L 115.605469 80.449219 L 115.738281 80.632813 L 115.785156 80.710938 L 115.835938 80.804688 L 115.960938 81.027344 L 116.28125 81.640625 L 116.332031 81.730469 L 116.378906 81.824219 L 116.484375 82.019531 L 116.710938 82.4375 L 117.226563 83.371094 L 117.296875 83.492188 L 117.367188 83.617188 L 117.511719 83.863281 L 117.808594 84.359375 L 117.886719 84.484375 L 117.960938 84.605469 L 118.113281 84.847656 L 118.417969 85.316406 L 118.566406 85.535156 L 118.714844 85.75 L 119 86.140625 L 119.136719 86.316406 L 119.269531 86.476563 L 119.394531 86.621094 L 119.507813 86.75 L 119.871094 87.0625 L 120.09375 87.09375 L 120.15625 86.847656 L 120.066406 86.355469 L 119.964844 86.03125 L 119.835938 85.671875 L 119.765625 85.480469 L 119.6875 85.285156 L 119.519531 84.886719 L 119.433594 84.691406 L 119.351563 84.492188 L 119.183594 84.117188 L 119.105469 83.941406 L 119.03125 83.777344 L 118.964844 83.621094 L 118.90625 83.480469 L 118.785156 83.085938 L 118.976563 83.132813 L 119.085938 83.222656 L 119.222656 83.351563 L 119.585938 83.71875 L 120.699219 84.898438 L 120.878906 85.085938 L 121.0625 85.285156 L 121.460938 85.707031 L 122.359375 86.65625 L 124.542969 88.910156 L 130.117188 94.289063 L 130.828125 94.929688 L 131.542969 95.566406 L 132.96875 96.800781 L 133.320313 97.101563 L 133.671875 97.398438 L 134.367188 97.972656 L 135.71875 99.050781 L 136.046875 99.304688 L 136.371094 99.546875 L 136.996094 100.015625 L 138.175781 100.839844 L 138.449219 101.023438 L 138.71875 101.199219 L 139.226563 101.515625 L 139.699219 101.789063 L 140.132813 102.019531 L 141.421875 102.472656 L 141.929688 102.15625 L 141.875 101.714844 L 141.613281 101.097656 L 141.40625 100.726563 L 141.152344 100.320313 L 140.511719 99.402344 L 140.308594 99.132813 L 140.09375 98.855469 L 139.632813 98.28125 L 138.597656 97.058594 L 136.238281 94.484375 L 135.933594 94.164063 L 135.625 93.847656 L 135.019531 93.222656 L 133.859375 92.039063 L 133.585938 91.761719 L 133.320313 91.496094 L 132.820313 90.988281 L 131.976563 90.109375 L 131.804688 89.921875 L 131.648438 89.75 L 131.511719 89.59375 L 131.394531 89.453125 L 131.222656 89.21875 L 131.144531 89.050781 L 131.296875 88.945313 L 131.90625 89.160156 L 132.140625 89.265625 L 132.402344 89.394531 L 133.035156 89.714844 L 134.722656 90.625 L 139.90625 93.5 L 140.710938 93.945313 L 141.554688 94.414063 L 143.355469 95.402344 L 147.398438 97.601563 L 157.144531 102.734375 L 158.503906 103.429688 L 159.894531 104.136719 L 162.75 105.574219 L 168.753906 108.527344 L 181.589844 114.519531 L 183.242188 115.257813 L 184.894531 115.988281 L 188.207031 117.425781 L 194.789063 120.175781 L 196.414063 120.832031 L 198.027344 121.476563 L 201.210938 122.710938 L 207.328125 124.960938 L 208.792969 125.46875 L 210.226563 125.960938 L 213 126.867188 L 214.332031 127.28125 L 215.625 127.671875 L 218.089844 128.371094 L 219.257813 128.679688 L 220.375 128.960938 L 221.445313 129.214844 L 222.464844 129.433594 L 224.34375 129.789063 L 225.996094 130.015625 L 228.425781 130.101563 L 229.945313 129.730469 L 230.484375 128.898438 L 230 127.617188 L 229.714844 127.226563 L 229.359375 126.808594 L 228.941406 126.367188 L 228.457031 125.898438 L 227.90625 125.402344 L 227.285156 124.878906 L 225.851563 123.765625 L 225.035156 123.171875 L 224.15625 122.554688 L 222.199219 121.257813 L 217.539063 118.414063 L 216.222656 117.660156 L 214.851563 116.886719 L 211.9375 115.292969 L 205.480469 111.945313 L 190.511719 104.851563 L 188.492188 103.949219 L 186.453125 103.046875 L 182.304688 101.25 L 173.863281 97.710938 L 157.132813 91.128906 L 154.960938 90.3125 L 152.824219 89.519531 L 148.691406 88.007813 L 141.105469 85.308594 L 139.378906 84.710938 L 137.738281 84.144531 L 134.710938 83.117188 L 129.863281 81.5 L 128.929688 81.191406 L 128.125 80.921875 L 127.445313 80.695313 L 126.488281 80.367188 L 126.226563 80.265625 L 126.113281 80.203125 L 126.152344 80.191406 L 126.347656 80.21875 L 126.710938 80.289063 L 127.238281 80.40625 L 127.941406 80.566406 L 132.570313 81.644531 L 134.203125 82.027344 L 136.03125 82.449219 L 140.300781 83.421875 L 151.367188 85.871094 L 154.675781 86.582031 L 158.210938 87.332031 L 165.953125 88.945313 L 184.207031 92.585938 L 189.351563 93.574219 L 194.734375 94.59375 L 206.207031 96.71875 L 231.988281 101.25 L 294.703125 111.09375 L 302.960938 112.277344 L 311.40625 113.460938 L 328.847656 115.832031 L 365.863281 120.527344 L 375.539063 121.679688 L 385.375 122.820313 L 405.519531 125.066406 L 447.542969 129.351563 L 458.382813 130.371094 L 469.347656 131.367188 L 491.625 133.28125 L 502.921875 134.195313 L 514.324219 135.078125 L 537.402344 136.75 L 549.066406 137.539063 L 560.804688 138.289063 L 572.613281 139 L 584.484375 139.675781 L 596.40625 140.3125 L 608.382813 140.910156 L 620.398438 141.464844 L 632.445313 141.972656 L 644.523438 142.441406 L 656.617188 142.863281 L 668.726563 143.242188 L 680.839844 143.570313 L 705.050781 144.085938 L 729.195313 144.40625 L 777.023438 144.433594 L 823.839844 143.621094 L 835.324219 143.28125 L 846.710938 142.890625 L 857.984375 142.445313 L 869.144531 141.949219 L 880.175781 141.394531 L 891.078125 140.789063 L 901.839844 140.128906 L 912.453125 139.417969 L 922.914063 138.652344 L 933.214844 137.832031 L 943.34375 136.960938 L 953.296875 136.039063 L 963.070313 135.066406 L 972.652344 134.042969 L 991.21875 131.847656 L 1000.019531 130.699219 L 1008.613281 129.507813 L 1016.992188 128.269531 L 1025.152344 126.988281 L 1033.089844 125.667969 L 1040.796875 124.300781 L 1055.5 121.449219 L 1062.488281 119.964844 L 1069.226563 118.441406 L 1075.707031 116.882813 L 1081.929688 115.292969 L 1087.890625 113.664063 L 1093.582031 112.007813 L 1104.144531 108.601563 L 1109.011719 106.855469 L 1113.59375 105.082031 L 1117.894531 103.285156 L 1121.902344 101.464844 L 1125.621094 99.621094 L 1129.042969 97.757813 L 1132.171875 95.878906 L 1135 93.980469 L 1137.527344 92.066406 L 1139.753906 90.140625 L 1141.671875 88.203125 L 1143.289063 86.253906 L 1145.601563 82.335938 L 1146.679688 78.398438 L 1146.523438 74.453125 L 1145.132813 70.519531 L 1143.972656 68.558594 L 1142.511719 66.609375 L 1140.738281 64.664063 L 1138.664063 62.734375 L 1136.285156 60.8125 L 1133.605469 58.90625 L 1130.625 57.019531 L 1127.347656 55.148438 L 1123.773438 53.292969 L 1119.910156 51.460938 L 1111.3125 47.867188 L 1106.582031 46.109375 L 1101.578125 44.378906 L 1096.292969 42.671875 L 1090.734375 41 L 1084.90625 39.359375 L 1078.8125 37.75 L 1065.847656 34.632813 L 1058.984375 33.128906 L 1051.871094 31.664063 L 1044.515625 30.238281 L 1036.925781 28.851563 L 1029.101563 27.507813 L 1021.050781 26.207031 L 1004.289063 23.734375 L 994.84375 22.464844 L 985.160156 21.253906 L 975.242188 20.097656 L 965.101563 18.996094 L 954.742188 17.949219 L 944.179688 16.964844 L 922.460938 15.164063 L 911.320313 14.355469 L 900.011719 13.605469 L 888.535156 12.914063 L 876.902344 12.285156 L 865.125 11.714844 L 853.207031 11.207031 L 841.160156 10.761719 L 828.992188 10.375 L 779.316406 9.4375 L 728.464844 9.453125 L 702.78125 9.804688 L 677.027344 10.378906 L 664.144531 10.746094 L 651.269531 11.167969 L 638.414063 11.640625 L 625.585938 12.160156 L 612.792969 12.734375 L 600.042969 13.351563 L 587.34375 14.015625 L 574.707031 14.726563 L 562.136719 15.480469 L 549.644531 16.273438 L 524.925781 17.984375 L 512.710938 18.894531 L 500.605469 19.839844 L 476.742188 21.832031 L 430.617188 26.160156 L 419.457031 27.300781 L 408.457031 28.464844 L 386.964844 30.847656 L 346.136719 35.769531 L 336.410156 37.023438 L 326.882813 38.28125 L 308.441406 40.800781 L 274.117188 45.820313 L 266.613281 46.976563 L 259.308594 48.121094 L 245.285156 50.382813 L 219.640625 54.734375 L 178.070313 62.464844 L 173.785156 63.316406 L 169.695313 64.140625 L 162.113281 65.699219 L 149.273438 68.433594 L 132.445313 72.234375 L 131.121094 72.542969 L 129.957031 72.816406 L 128.113281 73.246094 L 127.421875 73.402344 L 126.878906 73.523438 L 126.484375 73.605469 L 126.230469 73.652344 L 126.132813 73.628906 L 126.5625 73.460938 L 126.960938 73.320313 L 127.476563 73.144531 L 128.851563 72.683594 L 129.703125 72.402344 L 130.652344 72.089844 L 132.84375 71.359375 L 138.257813 69.523438 L 152.269531 64.535156 L 154.402344 63.746094 L 156.574219 62.929688 L 161.019531 61.238281 L 170.164063 57.640625 L 188.429688 49.929688 L 190.625 48.945313 L 192.792969 47.964844 L 197.015625 46.011719 L 204.929688 42.179688 L 206.78125 41.246094 L 208.578125 40.328125 L 211.988281 38.53125 L 218.035156 35.144531 L 219.375 34.347656 L 220.644531 33.574219 L 222.957031 32.097656 L 224.003906 31.398438 L 224.972656 30.722656 L 226.675781 29.457031 L 227.410156 28.867188 L 228.066406 28.308594 L 228.644531 27.777344 L 229.140625 27.277344 L 229.902344 26.371094 L 230.347656 25.597656 L 230.316406 24.445313 L 229.097656 23.832031 L 226.761719 23.765625 L 223.414063 24.226563 L 222.449219 24.417969 L 221.433594 24.640625 L 219.25 25.171875 L 218.085938 25.480469 L 216.878906 25.816406 L 214.335938 26.566406 L 213.007813 26.980469 L 211.644531 27.421875 L 208.8125 28.371094 L 202.8125 30.535156 L 201.253906 31.125 L 199.675781 31.730469 L 196.472656 32.992188 L 189.9375 35.6875 L 176.796875 41.515625 L 175.183594 42.265625 L 173.585938 43.015625 L 170.433594 44.515625 L 164.351563 47.480469 L 153.386719 53.070313 L 137.816406 61.511719 L 137.199219 61.855469 L 136.613281 62.179688 L 135.539063 62.777344 L 133.765625 63.746094 L 133.398438 63.941406 L 133.0625 64.121094 L 132.472656 64.421875 L 132 64.648438 L 131.636719 64.804688 L 131.214844 64.90625 L 131.160156 64.746094 L 131.261719 64.578125 L 131.433594 64.347656 L 131.546875 64.214844 L 131.675781 64.066406 L 131.980469 63.738281 L 132.152344 63.554688 L 132.335938 63.359375 L 132.742188 62.941406 L 133.671875 62 L 135.820313 59.804688 L 136.097656 59.511719 L 136.378906 59.21875 L 136.933594 58.628906 L 138.015625 57.449219 L 139.921875 55.207031 L 140.144531 54.929688 L 140.355469 54.65625 L 140.738281 54.132813 L 141.074219 53.648438 L 141.359375 53.203125 L 141.761719 52.441406 L 141.929688 51.875 L 141.554688 51.378906 L 140.261719 51.765625 L 139.808594 52 L 139.3125 52.285156 L 138.191406 52.996094 L 137.886719 53.203125 L 137.574219 53.421875 L 136.925781 53.886719 L 135.546875 54.933594 L 135.1875 55.21875 L 134.824219 55.507813 L 134.085938 56.109375 L 132.574219 57.382813 L 129.523438 60.109375 L 129.171875 60.4375 L 128.824219 60.761719 L 128.136719 61.410156 L 126.808594 62.6875 L 124.378906 65.105469 L 124.101563 65.386719 L 123.832031 65.664063 L 123.3125 66.203125 L 122.351563 67.199219 L 120.789063 68.859375 L 120.625 69.035156 L 120.46875 69.199219 L 120.183594 69.503906 L 119.699219 70.015625 L 119.59375 70.125 L 119.496094 70.222656 L 119.324219 70.398438 L 119.179688 70.539063 L 119.058594 70.652344 L 118.800781 70.800781 L 118.839844 70.535156 L 118.9375 70.289063 L 119.070313 69.980469 L 119.398438 69.246094 L 119.484375 69.050781 L 119.566406 68.855469 L 119.730469 68.460938 L 119.875 68.082031 L 119.992188 67.734375 L 120.140625 67.160156 L 120.136719 66.816406 L 119.976563 66.742188 L 119.667969 66.945313 L 119.5625 67.046875 L 119.449219 67.167969 L 119.199219 67.460938 L 119.0625 67.628906 L 118.921875 67.816406 L 118.632813 68.222656 L 118.558594 68.328125 L 118.480469 68.441406 L 118.328125 68.667969 L 118.023438 69.148438 L 117.421875 70.140625 L 117.28125 70.390625 L 117.140625 70.632813 L 116.875 71.109375 L 116.414063 71.964844 L 116.3125 72.152344 L 116.21875 72.328125 L 116.054688 72.644531 L 115.800781 73.113281 L 115.753906 73.191406 L 115.714844 73.257813 L 115.679688 73.3125 L 115.648438 73.355469 L 115.601563 73.40625 L 115.566406 73.414063 L 115.53125 73.332031 L 115.527344 73.148438 L 115.523438 72.683594 L 115.449219 72.410156 L 115.367188 72.429688 L 115.257813 72.582031 L 115.226563 72.640625 L 115.195313 72.707031 L 115.132813 72.855469 L 115.101563 72.941406 L 115.066406 73.03125 L 115.003906 73.222656 L 114.96875 73.324219 L 114.9375 73.425781 L 114.878906 73.636719 L 114.765625 74.050781 L 114.742188 74.148438 L 114.71875 74.242188 L 114.675781 74.417969 L 114.605469 74.703125 L 114.578125 74.800781 L 114.558594 74.871094 L 114.539063 74.917969 L 114.519531 74.9375 L 114.492188 74.90625 L 114.464844 74.796875 L 114.449219 74.722656 L 114.433594 74.636719 L 114.417969 74.542969 L 114.378906 74.363281 L 114.355469 74.28125 L 114.335938 74.210938 L 114.3125 74.152344 L 114.265625 74.09375 L 114.226563 74.117188 L 114.207031 74.160156 L 114.191406 74.222656 L 114.175781 74.304688 L 114.164063 74.40625 L 114.148438 74.933594 L 114.171875 75.496094 L 114.195313 75.882813 L 114.160156 75.875 L 114.136719 75.8125 L 114.105469 75.726563 L 114.027344 75.503906 L 113.980469 75.378906 L 113.929688 75.246094 L 113.824219 74.984375 L 113.777344 74.875 L 113.726563 74.773438 L 113.683594 74.691406 L 113.640625 74.625 L 113.578125 74.546875 L 113.539063 74.558594 L 113.53125 74.652344 L 113.558594 74.820313 L 113.582031 74.921875 L 113.609375 75.035156 L 113.640625 75.15625 L 113.679688 75.273438 L 113.71875 75.402344 L 113.757813 75.519531 L 113.789063 75.625 L 113.820313 75.714844 L 113.847656 75.820313 L 113.820313 75.816406 L 113.785156 75.769531 L 113.730469 75.695313 L 113.574219 75.460938 L 113.089844 74.765625 L 113.019531 74.667969 L 112.949219 74.574219 L 112.804688 74.386719 L 112.734375 74.300781 L 112.664063 74.210938 L 112.527344 74.050781 L 112.464844 73.976563 L 112.402344 73.910156 L 112.34375 73.847656 L 112.289063 73.792969 L 112.191406 73.707031 L 112.113281 73.652344 L 112.027344 73.644531 L 112.042969 73.777344 L 112.089844 73.890625 L 112.164063 74.039063 L 112.207031 74.121094 L 112.257813 74.207031 L 112.375 74.398438 L 112.433594 74.492188 L 112.496094 74.589844 L 112.628906 74.789063 L 112.914063 75.1875 L 112.984375 75.285156 L 113.054688 75.378906 L 113.1875 75.554688 L 113.414063 75.84375 L 113.457031 75.902344 L 113.496094 75.949219 L 113.523438 75.992188 L 113.546875 76.023438 L 113.570313 76.0625 L 113.5625 76.0625 L 113.511719 76.027344 L 113.425781 75.953125 L 113.132813 75.695313 L 113.023438 75.601563 L 112.902344 75.496094 L 112.632813 75.261719 L 111.96875 74.710938 L 111.878906 74.636719 L 111.785156 74.5625 L 111.589844 74.40625 L 111.1875 74.09375 L 110.347656 73.46875 L 110.136719 73.320313 L 109.929688 73.175781 L 109.523438 72.902344 L 109.328125 72.777344 L 109.140625 72.65625 L 108.789063 72.449219 L 108.625 72.359375 L 108.476563 72.28125 L 108.339844 72.214844 L 108.214844 72.15625 L 108.007813 72.082031 L 107.863281 72.058594 L 107.773438 72.148438 L 107.925781 72.410156 L 108 72.5 L 108.089844 72.597656 L 108.3125 72.820313 L 108.441406 72.941406 L 108.582031 73.066406 L 108.898438 73.339844 L 108.984375 73.410156 L 109.074219 73.484375 L 109.253906 73.628906 L 109.640625 73.929688 L 110.472656 74.539063 L 112.089844 75.621094 L 112.179688 75.675781 L 112.261719 75.726563 L 112.421875 75.828125 L 112.714844 76.007813 L 112.839844 76.085938 L 112.953125 76.152344 L 113.136719 76.261719 L 113.203125 76.304688 L 113.257813 76.339844 L 113.292969 76.363281 L 113.3125 76.378906 L 113.300781 76.382813 L 113.21875 76.351563 L 113.152344 76.324219 L 113.070313 76.292969 L 112.851563 76.199219 L 112.226563 75.945313 L 112.132813 75.910156 L 112.035156 75.871094 L 111.832031 75.792969 L 111.386719 75.621094 L 110.394531 75.265625 L 110.253906 75.214844 L 110.109375 75.164063 L 109.816406 75.066406 L 109.230469 74.878906 L 109.082031 74.832031 L 108.933594 74.789063 L 108.640625 74.699219 L 108.070313 74.539063 L 107.792969 74.464844 L 107.527344 74.398438 L 107.269531 74.335938 L 107.023438 74.28125 L 106.566406 74.191406 L 106.171875 74.128906 L 105.59375 74.09375 L 105.332031 74.175781 L 105.324219 74.253906 L 105.398438 74.355469 L 105.464844 74.414063 L 105.550781 74.480469 L 105.652344 74.546875 L 105.773438 74.617188 L 105.902344 74.6875 L 106.042969 74.757813 L 106.359375 74.90625 L 106.535156 74.984375 L 106.722656 75.0625 L 107.117188 75.21875 L 107.324219 75.292969 L 107.539063 75.371094 L 107.976563 75.523438 L 108.867188 75.804688 L 108.976563 75.839844 L 109.085938 75.871094 L 109.296875 75.933594 L 109.710938 76.054688 L 110.453125 76.253906 L 110.617188 76.296875 L 110.769531 76.335938 L 111.039063 76.40625 L 111.160156 76.4375 L 111.265625 76.464844 L 111.445313 76.515625 L 111.523438 76.539063 L 111.585938 76.558594 L 111.636719 76.578125 L 111.667969 76.59375 L 111.695313 76.621094 L 111.671875 76.644531 L 111.601563 76.660156 L 111.496094 76.675781 L 111.363281 76.691406 L 111.207031 76.707031 L 111.042969 76.722656 L 110.875 76.742188 L 110.71875 76.765625 L 110.644531 76.78125 L 110.578125 76.792969 L 110.460938 76.824219 L 110.371094 76.855469 L 110.316406 76.890625 L 110.296875 76.925781 " transform="matrix(1,0,0,1,-83,-6)"/>
</g>
<path style="fill:none;stroke-width:0.25;stroke-linecap:butt;stroke-linejoin:miter;stroke:rgb(39.99939%,39.99939%,39.99939%);stroke-opacity:1;stroke-miterlimit:3.25;" d="M 83.625 76.925781 L 1168.375 76.925781 " transform="matrix(1,0,0,1,-83,-6)"/>
<path style="fill:none;stroke-width:0.25;stroke-linecap:butt;stroke-linejoin:miter;stroke:rgb(39.99939%,39.99939%,39.99939%);stroke-opacity:1;stroke-miterlimit:3.25;" d="M 114.390625 147.246094 L 114.390625 6.625 " transform="matrix(1,0,0,1,-83,-6)"/>
</g>
</svg>
