<?xml version="1.0" encoding="UTF-8"?>
<svg xmlns="http://www.w3.org/2000/svg" xmlns:xlink="http://www.w3.org/1999/xlink" width="450pt" height="364pt" viewBox="0 0 450 364" version="1.1">
<defs>
<clipPath id="clip1">
  <path d="M 0 0 L 449 0 L 449 363.121094 L 0 363.121094 Z M 0 0 "/>
</clipPath>
<clipPath id="clip2">
  <path d="M 0 16 L 449.039063 16 L 449.039063 347 L 0 347 Z M 0 16 "/>
</clipPath>
</defs>
<g id="surface56">
<path style="fill:none;stroke-width:2;stroke-linecap:square;stroke-linejoin:miter;stroke:rgb(0%,0%,0%);stroke-opacity:1;stroke-dasharray:5,5;stroke-miterlimit:3.25;" d="M 92.578125 187.609375 L 92.578125 187.621094 L 92.582031 187.628906 L 92.582031 187.695313 L 92.585938 187.703125 L 92.585938 187.722656 L 92.59375 187.761719 L 92.59375 187.777344 L 92.597656 187.796875 L 92.609375 187.835938 L 92.628906 187.90625 L 92.632813 187.917969 L 92.636719 187.925781 L 92.640625 187.945313 L 92.65625 187.980469 L 92.664063 187.996094 L 92.671875 188.015625 L 92.691406 188.050781 L 92.695313 188.058594 L 92.699219 188.070313 L 92.710938 188.085938 L 92.730469 188.121094 L 92.773438 188.1875 L 92.78125 188.199219 L 92.789063 188.207031 L 92.800781 188.226563 L 92.832031 188.261719 L 92.835938 188.269531 L 92.84375 188.277344 L 92.859375 188.296875 L 92.898438 188.335938 L 92.90625 188.347656 L 92.925781 188.363281 L 93.03125 188.457031 L 93.042969 188.464844 L 93.050781 188.472656 L 93.109375 188.519531 L 93.195313 188.574219 L 93.207031 188.582031 L 93.214844 188.589844 L 93.238281 188.601563 L 93.285156 188.628906 L 93.375 188.679688 L 93.398438 188.6875 L 93.46875 188.722656 L 93.5625 188.761719 L 93.609375 188.777344 L 93.65625 188.796875 L 93.757813 188.828125 L 93.78125 188.835938 L 93.808594 188.84375 L 93.859375 188.855469 L 93.960938 188.882813 L 94.175781 188.921875 L 94.1875 188.921875 L 94.203125 188.925781 L 94.226563 188.929688 L 94.28125 188.933594 L 94.386719 188.945313 L 94.601563 188.957031 L 94.8125 188.957031 L 95.019531 188.945313 L 95.035156 188.945313 L 95.046875 188.941406 L 95.074219 188.941406 L 95.132813 188.933594 L 95.238281 188.921875 L 95.449219 188.886719 L 95.464844 188.882813 L 95.476563 188.882813 L 95.5 188.875 L 95.550781 188.867188 L 95.648438 188.84375 L 95.835938 188.796875 L 95.84375 188.792969 L 95.855469 188.792969 L 95.875 188.785156 L 95.917969 188.773438 L 95.996094 188.75 L 96.140625 188.699219 L 96.390625 188.609375 L 96.40625 188.601563 L 96.417969 188.597656 L 96.445313 188.585938 L 96.5 188.566406 L 96.503906 188.5625 L 96.511719 188.5625 L 96.523438 188.558594 L 96.546875 188.546875 L 96.589844 188.53125 L 96.601563 188.53125 L 96.613281 188.527344 L 96.632813 188.519531 L 96.636719 188.519531 L 96.640625 188.515625 L 96.648438 188.515625 L 96.667969 188.511719 L 96.671875 188.507813 L 96.683594 188.507813 L 96.699219 188.503906 L 96.707031 188.503906 L 96.710938 188.5 L 96.757813 188.5 L 96.761719 188.503906 L 96.769531 188.503906 L 96.773438 188.507813 L 96.78125 188.507813 L 96.78125 188.511719 L 96.785156 188.511719 L 96.789063 188.515625 L 96.792969 188.515625 L 96.792969 188.519531 L 96.800781 188.527344 L 96.800781 188.53125 L 96.804688 188.53125 L 96.804688 188.535156 L 96.808594 188.539063 L 96.808594 188.542969 L 96.8125 188.546875 L 96.8125 188.554688 L 96.816406 188.554688 L 96.816406 188.566406 L 96.820313 188.566406 L 96.820313 188.578125 L 96.824219 188.589844 L 96.824219 188.640625 L 96.828125 188.660156 L 96.824219 188.699219 L 96.816406 188.796875 L 96.789063 189.058594 L 96.789063 189.078125 L 96.785156 189.101563 L 96.78125 189.144531 L 96.773438 189.242188 L 96.75 189.46875 L 96.71875 190.042969 L 96.71875 190.082031 L 96.714844 190.125 L 96.714844 190.207031 L 96.710938 190.382813 L 96.714844 190.777344 L 96.757813 191.757813 L 96.882813 193.042969 L 97.148438 194.734375 L 98.609375 200.375 L 99.230469 202.191406 L 100.007813 204.230469 L 100.960938 206.511719 L 102.121094 209.054688 L 103.660156 212.121094 L 105.527344 215.527344 L 107.777344 219.28125 L 110.457031 223.390625 L 113.570313 227.777344 L 117.203125 232.507813 L 121.421875 237.566406 L 126.273438 242.933594 L 131.421875 248.199219 L 137.207031 253.6875 L 143.671875 259.355469 L 150.847656 265.164063 L 159.476563 271.570313 L 169.003906 278.015625 L 179.453125 284.421875 L 190.832031 290.699219 L 202.285156 296.363281 L 214.53125 301.753906 L 227.535156 306.789063 L 241.269531 311.382813 L 273.246094 319.417969 L 307.636719 324.152344 L 342.789063 324.867188 L 378.15625 321.152344 L 394.359375 317.804688 L 410.183594 313.40625 L 425.484375 307.964844 L 440.113281 301.488281 L 455.058594 293.332031 L 468.878906 284.058594 L 481.40625 273.738281 L 492.488281 262.464844 L 508.847656 239.269531 L 518.976563 214.015625 L 522.417969 188.21875 L 519.285156 162.394531 L 508.609375 135.519531 L 490.902344 110.988281 L 480.472656 100.636719 L 468.808594 91.113281 L 456.039063 82.484375 L 442.292969 74.816406 L 426.449219 67.644531 L 409.804688 61.695313 L 392.542969 56.988281 L 374.847656 53.519531 L 339.542969 50.242188 L 304.5625 51.332031 L 273.226563 55.804688 L 243.910156 63.035156 L 229.0625 67.886719 L 215.042969 73.257813 L 201.898438 79.039063 L 189.664063 85.132813 L 179.082031 91.015625 L 169.3125 97.003906 L 160.351563 103.03125 L 152.179688 109.03125 L 144.914063 114.828125 L 138.359375 120.492188 L 132.480469 125.984375 L 127.246094 131.261719 L 122.238281 136.71875 L 117.890625 141.867188 L 114.136719 146.679688 L 110.925781 151.148438 L 108.367188 155.003906 L 106.191406 158.554688 L 104.351563 161.804688 L 102.808594 164.761719 L 101.429688 167.652344 L 100.3125 170.230469 L 99.417969 172.519531 L 98.710938 174.535156 L 98.191406 176.195313 L 97.78125 177.65625 L 97.226563 180.0625 L 96.773438 183.226563 L 96.769531 183.265625 L 96.769531 183.304688 L 96.761719 183.382813 L 96.75 183.535156 L 96.734375 183.820313 L 96.714844 184.328125 L 96.71875 185.136719 L 96.71875 185.214844 L 96.722656 185.289063 L 96.730469 185.433594 L 96.746094 185.6875 L 96.785156 186.09375 L 96.785156 186.117188 L 96.789063 186.136719 L 96.792969 186.179688 L 96.800781 186.261719 L 96.816406 186.398438 L 96.816406 186.414063 L 96.820313 186.429688 L 96.820313 186.457031 L 96.824219 186.507813 L 96.824219 186.632813 L 96.820313 186.640625 L 96.820313 186.652344 L 96.816406 186.65625 L 96.816406 186.664063 L 96.8125 186.667969 L 96.8125 186.675781 L 96.808594 186.679688 L 96.808594 186.683594 L 96.804688 186.6875 L 96.804688 186.691406 L 96.789063 186.707031 L 96.785156 186.707031 L 96.785156 186.710938 L 96.78125 186.710938 L 96.777344 186.714844 L 96.769531 186.714844 L 96.769531 186.71875 L 96.757813 186.71875 L 96.75 186.722656 L 96.71875 186.722656 L 96.703125 186.71875 L 96.691406 186.71875 L 96.675781 186.714844 L 96.671875 186.714844 L 96.667969 186.710938 L 96.660156 186.710938 L 96.644531 186.707031 L 96.609375 186.695313 L 96.605469 186.691406 L 96.601563 186.691406 L 96.589844 186.6875 L 96.570313 186.679688 L 96.53125 186.667969 L 96.433594 186.628906 L 96.429688 186.628906 L 96.421875 186.625 L 96.40625 186.621094 L 96.378906 186.609375 L 96.316406 186.585938 L 96.179688 186.535156 L 96.171875 186.53125 L 96.160156 186.527344 L 96.140625 186.519531 L 96.105469 186.507813 L 96.027344 186.480469 L 95.855469 186.429688 L 95.84375 186.425781 L 95.835938 186.425781 L 95.8125 186.417969 L 95.769531 186.40625 L 95.683594 186.386719 L 95.5 186.34375 L 95.488281 186.339844 L 95.476563 186.339844 L 95.449219 186.335938 L 95.402344 186.324219 L 95.304688 186.308594 L 95.101563 186.285156 L 95.085938 186.28125 L 95.074219 186.28125 L 95.050781 186.277344 L 95 186.273438 L 94.683594 186.261719 L 94.632813 186.261719 L 94.578125 186.265625 L 94.472656 186.269531 L 94.257813 186.289063 L 94.246094 186.289063 L 94.230469 186.292969 L 94.203125 186.296875 L 94.144531 186.304688 L 94.03125 186.324219 L 94.019531 186.328125 L 94.003906 186.332031 L 93.976563 186.335938 L 93.921875 186.347656 L 93.8125 186.378906 L 93.796875 186.382813 L 93.785156 186.386719 L 93.757813 186.394531 L 93.707031 186.410156 L 93.589844 186.449219 L 93.574219 186.457031 L 93.550781 186.464844 L 93.5 186.484375 L 93.402344 186.53125 L 93.378906 186.539063 L 93.359375 186.550781 L 93.230469 186.621094 L 93.222656 186.628906 L 93.210938 186.636719 L 93.152344 186.671875 L 93.078125 186.726563 L 93.066406 186.734375 L 93.058594 186.742188 L 93.039063 186.753906 L 93.007813 186.785156 L 92.996094 186.792969 L 92.988281 186.796875 L 92.878906 186.90625 L 92.824219 186.96875 L 92.816406 186.980469 L 92.808594 186.988281 L 92.792969 187.007813 L 92.765625 187.042969 L 92.761719 187.054688 L 92.753906 187.0625 L 92.71875 187.121094 L 92.710938 187.128906 L 92.707031 187.140625 L 92.695313 187.160156 L 92.675781 187.199219 L 92.640625 187.277344 L 92.632813 187.300781 L 92.628906 187.320313 L 92.613281 187.359375 L 92.613281 187.371094 L 92.609375 187.382813 L 92.605469 187.402344 L 92.59375 187.445313 L 92.59375 187.464844 L 92.589844 187.484375 L 92.582031 187.527344 L 92.582031 187.589844 L 92.578125 187.601563 L 92.578125 187.609375 " transform="matrix(1,0,0,1,-83,-6)"/>
<g clip-path="url(#clip1)" clip-rule="nonzero">
<path style="fill:none;stroke-width:2;stroke-linecap:square;stroke-linejoin:miter;stroke:rgb(0%,0%,0%);stroke-opacity:1;stroke-dasharray:1.25,5;stroke-miterlimit:3.25;" d="M 92.578125 187.609375 L 92.578125 187.621094 L 92.582031 187.628906 L 92.582031 187.6875 L 92.585938 187.695313 L 92.585938 187.722656 L 92.59375 187.761719 L 92.59375 187.769531 L 92.597656 187.777344 L 92.609375 187.835938 L 92.628906 187.90625 L 92.632813 187.917969 L 92.636719 187.925781 L 92.644531 187.945313 L 92.660156 187.980469 L 92.667969 187.996094 L 92.675781 188.015625 L 92.695313 188.050781 L 92.703125 188.066406 L 92.714844 188.085938 L 92.734375 188.121094 L 92.78125 188.1875 L 92.789063 188.195313 L 92.792969 188.207031 L 92.808594 188.222656 L 92.839844 188.257813 L 92.847656 188.269531 L 92.851563 188.277344 L 92.871094 188.292969 L 92.902344 188.328125 L 92.917969 188.34375 L 92.9375 188.359375 L 92.972656 188.394531 L 93.046875 188.457031 L 93.070313 188.472656 L 93.089844 188.484375 L 93.128906 188.515625 L 93.21875 188.570313 L 93.230469 188.578125 L 93.242188 188.582031 L 93.265625 188.597656 L 93.3125 188.621094 L 93.410156 188.667969 L 93.421875 188.675781 L 93.433594 188.679688 L 93.457031 188.691406 L 93.507813 188.710938 L 93.605469 188.746094 L 93.621094 188.75 L 93.632813 188.753906 L 93.660156 188.761719 L 93.710938 188.78125 L 93.816406 188.808594 L 93.832031 188.8125 L 93.84375 188.816406 L 93.871094 188.820313 L 93.925781 188.832031 L 94.039063 188.855469 L 94.269531 188.882813 L 94.285156 188.882813 L 94.300781 188.886719 L 94.328125 188.886719 L 94.386719 188.890625 L 94.503906 188.894531 L 94.621094 188.894531 L 94.738281 188.890625 L 94.796875 188.890625 L 94.855469 188.886719 L 94.972656 188.875 L 95.203125 188.84375 L 95.21875 188.839844 L 95.234375 188.839844 L 95.265625 188.832031 L 95.324219 188.824219 L 95.445313 188.796875 L 95.679688 188.742188 L 95.691406 188.738281 L 95.707031 188.734375 L 95.734375 188.726563 L 95.789063 188.707031 L 95.894531 188.675781 L 96.089844 188.609375 L 96.113281 188.601563 L 96.132813 188.59375 L 96.175781 188.578125 L 96.390625 188.492188 L 96.421875 188.476563 L 96.453125 188.464844 L 96.503906 188.445313 L 96.511719 188.445313 L 96.515625 188.441406 L 96.550781 188.429688 L 96.554688 188.429688 L 96.570313 188.421875 L 96.589844 188.417969 L 96.597656 188.417969 L 96.609375 188.414063 L 96.648438 188.414063 L 96.648438 188.417969 L 96.65625 188.417969 L 96.65625 188.421875 L 96.660156 188.421875 L 96.660156 188.425781 L 96.664063 188.425781 L 96.664063 188.433594 L 96.667969 188.4375 L 96.667969 188.46875 L 96.664063 188.472656 L 96.664063 188.488281 L 96.660156 188.492188 L 96.65625 188.503906 L 96.648438 188.53125 L 96.648438 188.535156 L 96.636719 188.558594 L 96.625 188.589844 L 96.589844 188.667969 L 96.582031 188.691406 L 96.570313 188.710938 L 96.546875 188.761719 L 96.496094 188.871094 L 96.363281 189.152344 L 96.351563 189.171875 L 96.34375 189.191406 L 96.324219 189.234375 L 96.28125 189.324219 L 96.195313 189.523438 L 95.996094 189.996094 L 95.554688 191.207031 L 95.0625 192.917969 L 94.132813 198.796875 L 94.144531 207.648438 L 96.109375 220.089844 L 97.152344 224.148438 L 98.472656 228.507813 L 100.101563 233.160156 L 102.074219 238.101563 L 104.246094 242.960938 L 106.777344 248.054688 L 109.6875 253.363281 L 113.007813 258.875 L 117.09375 265.050781 L 121.722656 271.414063 L 126.917969 277.925781 L 132.714844 284.546875 L 139.003906 291.117188 L 145.914063 297.714844 L 153.453125 304.28125 L 161.632813 310.777344 L 169.847656 316.714844 L 178.621094 322.496094 L 187.953125 328.070313 L 197.835938 333.390625 L 221.082031 343.804688 L 246.609375 352.269531 L 272.1875 357.960938 L 299.085938 361.136719 L 329.179688 361.355469 L 359.605469 357.910156 L 389.058594 350.75 L 417.328125 339.785156 L 429.886719 333.382813 L 441.941406 326.179688 L 453.40625 318.207031 L 464.207031 309.492188 L 475.089844 299.253906 L 485.019531 288.25 L 493.917969 276.542969 L 501.710938 264.214844 L 513.089844 239.800781 L 520.0625 214.082031 L 520.601563 210.871094 L 521.074219 207.652344 L 521.804688 201.191406 L 522.421875 188.21875 L 520.273438 162.335938 L 512.925781 134.972656 L 500.601563 109.097656 L 493.257813 97.734375 L 484.96875 86.914063 L 475.796875 76.695313 L 465.800781 67.128906 L 454.121094 57.554688 L 441.652344 48.855469 L 428.488281 41.074219 L 414.734375 34.242188 L 386.398438 23.65625 L 356.953125 16.859375 L 329.164063 13.863281 L 301.648438 13.929688 L 272.722656 17.171875 L 245.296875 23.316406 L 221.460938 31.265625 L 199.617188 40.933594 L 189.695313 46.167969 L 180.316406 51.667969 L 171.488281 57.378906 L 163.214844 63.257813 L 154.867188 69.773438 L 147.167969 76.371094 L 140.113281 83.003906 L 133.683594 89.625 L 128.230469 95.742188 L 123.292969 101.777344 L 118.84375 107.691406 L 114.867188 113.460938 L 111.058594 119.523438 L 107.738281 125.359375 L 104.875 130.945313 L 102.4375 136.265625 L 100.511719 140.980469 L 98.898438 145.4375 L 97.566406 149.636719 L 96.488281 153.570313 L 95.65625 157.171875 L 95.019531 160.519531 L 94.234375 166.46875 L 94.113281 176.183594 L 94.953125 181.851563 L 95.980469 185.1875 L 95.996094 185.222656 L 96.007813 185.253906 L 96.035156 185.320313 L 96.085938 185.445313 L 96.183594 185.671875 L 96.351563 186.046875 L 96.363281 186.070313 L 96.371094 186.089844 L 96.390625 186.128906 L 96.425781 186.203125 L 96.488281 186.335938 L 96.585938 186.542969 L 96.589844 186.550781 L 96.59375 186.5625 L 96.601563 186.582031 L 96.617188 186.617188 L 96.632813 186.648438 L 96.644531 186.675781 L 96.644531 186.679688 L 96.648438 186.6875 L 96.652344 186.699219 L 96.652344 186.707031 L 96.65625 186.710938 L 96.660156 186.722656 L 96.660156 186.730469 L 96.664063 186.742188 L 96.664063 186.75 L 96.667969 186.757813 L 96.667969 186.785156 L 96.664063 186.789063 L 96.664063 186.792969 L 96.660156 186.796875 L 96.660156 186.800781 L 96.65625 186.800781 L 96.652344 186.804688 L 96.648438 186.804688 L 96.644531 186.808594 L 96.609375 186.808594 L 96.601563 186.804688 L 96.582031 186.800781 L 96.578125 186.800781 L 96.570313 186.796875 L 96.5625 186.796875 L 96.539063 186.789063 L 96.53125 186.785156 L 96.527344 186.785156 L 96.511719 186.777344 L 96.484375 186.769531 L 96.425781 186.746094 L 96.394531 186.730469 L 96.359375 186.71875 L 96.28125 186.6875 L 96.113281 186.621094 L 96.066406 186.605469 L 96.023438 186.589844 L 95.929688 186.558594 L 95.730469 186.496094 L 95.71875 186.492188 L 95.703125 186.488281 L 95.679688 186.480469 L 95.625 186.46875 L 95.515625 186.441406 L 95.292969 186.394531 L 95.277344 186.390625 L 95.265625 186.386719 L 95.234375 186.382813 L 95.179688 186.375 L 95.0625 186.355469 L 95.035156 186.355469 L 95.003906 186.351563 L 94.949219 186.34375 L 94.832031 186.335938 L 94.816406 186.332031 L 94.773438 186.332031 L 94.714844 186.328125 L 94.597656 186.324219 L 94.363281 186.332031 L 94.332031 186.332031 L 94.300781 186.335938 L 94.238281 186.339844 L 94.117188 186.355469 L 94.101563 186.359375 L 94.085938 186.359375 L 94.054688 186.363281 L 93.996094 186.375 L 93.875 186.398438 L 93.863281 186.402344 L 93.847656 186.40625 L 93.820313 186.414063 L 93.761719 186.425781 L 93.648438 186.460938 L 93.636719 186.464844 L 93.621094 186.46875 L 93.597656 186.480469 L 93.542969 186.496094 L 93.4375 186.539063 L 93.425781 186.546875 L 93.414063 186.550781 L 93.390625 186.5625 L 93.347656 186.582031 L 93.257813 186.628906 L 93.246094 186.636719 L 93.214844 186.652344 L 93.175781 186.679688 L 93.09375 186.730469 L 93.078125 186.746094 L 93.058594 186.757813 L 93.019531 186.785156 L 93.003906 186.800781 L 92.984375 186.816406 L 92.953125 186.84375 L 92.890625 186.90625 L 92.832031 186.972656 L 92.816406 186.988281 L 92.800781 187.007813 L 92.773438 187.042969 L 92.765625 187.054688 L 92.757813 187.0625 L 92.722656 187.121094 L 92.714844 187.128906 L 92.710938 187.140625 L 92.699219 187.160156 L 92.679688 187.199219 L 92.675781 187.210938 L 92.667969 187.21875 L 92.660156 187.238281 L 92.644531 187.28125 L 92.640625 187.289063 L 92.636719 187.300781 L 92.628906 187.320313 L 92.617188 187.359375 L 92.609375 187.382813 L 92.605469 187.402344 L 92.597656 187.445313 L 92.59375 187.453125 L 92.59375 187.464844 L 92.589844 187.484375 L 92.585938 187.527344 L 92.582031 187.539063 L 92.582031 187.589844 L 92.578125 187.601563 L 92.578125 187.609375 " transform="matrix(1,0,0,1,-83,-6)"/>
</g>
<g clip-path="url(#clip2)" clip-rule="nonzero">
<path style="fill:none;stroke-width:2.5;stroke-linecap:square;stroke-linejoin:miter;stroke:rgb(0%,0%,0%);stroke-opacity:1;stroke-miterlimit:3.25;" d="M 92.578125 187.609375 L 92.578125 187.621094 L 92.582031 187.628906 L 92.582031 187.695313 L 92.585938 187.703125 L 92.585938 187.722656 L 92.59375 187.761719 L 92.59375 187.769531 L 92.597656 187.777344 L 92.609375 187.835938 L 92.628906 187.90625 L 92.632813 187.917969 L 92.636719 187.925781 L 92.644531 187.945313 L 92.65625 187.980469 L 92.660156 187.988281 L 92.667969 187.996094 L 92.675781 188.015625 L 92.691406 188.050781 L 92.695313 188.058594 L 92.703125 188.070313 L 92.710938 188.085938 L 92.730469 188.121094 L 92.777344 188.1875 L 92.785156 188.199219 L 92.792969 188.207031 L 92.804688 188.222656 L 92.835938 188.257813 L 92.839844 188.269531 L 92.914063 188.34375 L 92.929688 188.363281 L 92.964844 188.394531 L 93.039063 188.457031 L 93.050781 188.464844 L 93.058594 188.472656 L 93.078125 188.488281 L 93.121094 188.515625 L 93.207031 188.574219 L 93.21875 188.578125 L 93.230469 188.585938 L 93.25 188.601563 L 93.296875 188.625 L 93.394531 188.675781 L 93.417969 188.683594 L 93.441406 188.695313 L 93.488281 188.714844 L 93.585938 188.753906 L 93.632813 188.769531 L 93.683594 188.789063 L 93.789063 188.816406 L 93.8125 188.824219 L 93.839844 188.832031 L 93.894531 188.84375 L 94 188.867188 L 94.222656 188.902344 L 94.238281 188.902344 L 94.25 188.90625 L 94.277344 188.90625 L 94.332031 188.914063 L 94.445313 188.921875 L 94.5 188.921875 L 94.554688 188.925781 L 94.722656 188.925781 L 94.78125 188.921875 L 94.890625 188.914063 L 95.113281 188.894531 L 95.125 188.894531 L 95.140625 188.890625 L 95.171875 188.886719 L 95.226563 188.878906 L 95.34375 188.859375 L 95.5625 188.8125 L 95.578125 188.808594 L 95.589844 188.808594 L 95.617188 188.800781 L 95.667969 188.789063 L 95.773438 188.761719 L 95.960938 188.703125 L 95.984375 188.695313 L 96.003906 188.6875 L 96.046875 188.675781 L 96.125 188.648438 L 96.265625 188.59375 L 96.273438 188.59375 L 96.28125 188.589844 L 96.300781 188.582031 L 96.332031 188.570313 L 96.390625 188.550781 L 96.488281 188.515625 L 96.496094 188.511719 L 96.5 188.511719 L 96.535156 188.5 L 96.539063 188.5 L 96.546875 188.496094 L 96.554688 188.496094 L 96.574219 188.492188 L 96.578125 188.492188 L 96.582031 188.488281 L 96.625 188.488281 L 96.628906 188.492188 L 96.632813 188.492188 L 96.636719 188.496094 L 96.640625 188.496094 L 96.644531 188.5 L 96.648438 188.5 L 96.648438 188.503906 L 96.652344 188.503906 L 96.652344 188.511719 L 96.65625 188.511719 L 96.65625 188.519531 L 96.660156 188.523438 L 96.660156 188.5625 L 96.65625 188.585938 L 96.65625 188.59375 L 96.652344 188.605469 L 96.648438 188.628906 L 96.632813 188.6875 L 96.582031 188.839844 L 96.410156 189.3125 L 96.40625 189.328125 L 96.398438 189.347656 L 96.386719 189.382813 L 96.359375 189.457031 L 96.304688 189.621094 L 96.1875 190 L 96.171875 190.054688 L 96.15625 190.105469 L 96.125 190.21875 L 96.058594 190.453125 L 95.925781 190.988281 L 95.648438 192.457031 L 95.425781 194.421875 L 95.449219 199.703125 L 96.628906 207.410156 L 97.265625 210.007813 L 98.078125 212.835938 L 99.09375 215.910156 L 100.339844 219.238281 L 101.738281 222.574219 L 103.390625 226.140625 L 105.324219 229.9375 L 107.5625 233.964844 L 110.375 238.585938 L 113.625 243.46875 L 117.347656 248.601563 L 121.585938 253.96875 L 126.289063 259.449219 L 131.558594 265.109375 L 137.4375 270.921875 L 143.953125 276.855469 L 150.632813 282.457031 L 157.914063 288.089844 L 165.8125 293.714844 L 174.34375 299.277344 L 184.316406 305.191406 L 195.042969 310.910156 L 206.515625 316.367188 L 218.71875 321.484375 L 243.359375 329.855469 L 270.175781 336.257813 L 301.214844 340.386719 L 333.621094 341.03125 L 365.925781 337.808594 L 397.742188 330.46875 L 412.125 325.59375 L 426.0625 319.792969 L 439.445313 313.085938 L 452.160156 305.488281 L 465.074219 296.292969 L 476.949219 286.152344 L 487.660156 275.140625 L 497.101563 263.339844 L 510.96875 239.535156 L 519.519531 214.050781 L 522.417969 188.21875 L 519.777344 162.367188 L 510.769531 135.246094 L 495.753906 110.042969 L 486.867188 99.1875 L 476.890625 89.011719 L 465.917969 79.589844 L 454.046875 70.972656 L 440.285156 62.601563 L 425.726563 55.277344 L 410.515625 49.03125 L 394.789063 43.878906 L 362.96875 36.949219 L 330.757813 34.09375 L 301.195313 34.835938 L 272.777344 38.484375 L 243.882813 45.214844 L 217.480469 54.226563 L 206.113281 59.03125 L 195.386719 64.136719 L 185.3125 69.472656 L 175.898438 74.980469 L 167.304688 80.5 L 159.339844 86.082031 L 151.984375 91.679688 L 145.230469 97.261719 L 138.554688 103.246094 L 132.527344 109.117188 L 127.125 114.84375 L 122.304688 120.386719 L 118.300781 125.375 L 114.742188 130.164063 L 111.597656 134.746094 L 108.835938 139.113281 L 106.242188 143.589844 L 104.027344 147.796875 L 102.148438 151.734375 L 100.574219 155.402344 L 99.351563 158.585938 L 98.339844 161.546875 L 97.515625 164.289063 L 96.859375 166.816406 L 96.355469 169.097656 L 95.972656 171.191406 L 95.503906 174.847656 L 95.414063 180.660156 L 95.867188 183.972656 L 96.402344 185.890625 L 96.417969 185.929688 L 96.453125 186.035156 L 96.5 186.164063 L 96.578125 186.371094 L 96.585938 186.394531 L 96.59375 186.414063 L 96.605469 186.453125 L 96.628906 186.527344 L 96.632813 186.535156 L 96.632813 186.542969 L 96.640625 186.554688 L 96.648438 186.585938 L 96.648438 186.597656 L 96.652344 186.609375 L 96.65625 186.632813 L 96.65625 186.636719 L 96.660156 186.640625 L 96.660156 186.699219 L 96.65625 186.703125 L 96.65625 186.710938 L 96.652344 186.710938 L 96.652344 186.714844 L 96.644531 186.722656 L 96.640625 186.722656 L 96.640625 186.726563 L 96.632813 186.726563 L 96.632813 186.730469 L 96.625 186.730469 L 96.621094 186.734375 L 96.589844 186.734375 L 96.585938 186.730469 L 96.578125 186.730469 L 96.5625 186.726563 L 96.554688 186.726563 L 96.546875 186.722656 L 96.527344 186.71875 L 96.519531 186.71875 L 96.515625 186.714844 L 96.480469 186.703125 L 96.425781 186.6875 L 96.300781 186.640625 L 96.285156 186.632813 L 96.265625 186.625 L 96.230469 186.613281 L 96.152344 186.585938 L 95.984375 186.527344 L 95.960938 186.519531 L 95.941406 186.511719 L 95.898438 186.5 L 95.804688 186.472656 L 95.613281 186.421875 L 95.566406 186.40625 L 95.515625 186.398438 L 95.410156 186.375 L 95.195313 186.339844 L 95.183594 186.335938 L 95.167969 186.335938 L 95.140625 186.332031 L 95.089844 186.324219 L 94.980469 186.3125 L 94.964844 186.3125 L 94.953125 186.308594 L 94.925781 186.308594 L 94.867188 186.304688 L 94.757813 186.296875 L 94.535156 186.296875 L 94.3125 186.308594 L 94.296875 186.3125 L 94.28125 186.3125 L 94.25 186.316406 L 94.074219 186.339844 L 94.058594 186.34375 L 94.042969 186.34375 L 94.015625 186.351563 L 93.957031 186.363281 L 93.84375 186.386719 L 93.832031 186.390625 L 93.816406 186.394531 L 93.734375 186.417969 L 93.625 186.453125 L 93.613281 186.457031 L 93.597656 186.460938 L 93.574219 186.472656 L 93.519531 186.492188 L 93.421875 186.535156 L 93.410156 186.539063 L 93.398438 186.546875 L 93.375 186.554688 L 93.246094 186.625 L 93.234375 186.632813 L 93.222656 186.636719 L 93.203125 186.652344 L 93.164063 186.675781 L 93.085938 186.730469 L 93.078125 186.734375 L 93.066406 186.742188 L 93.050781 186.757813 L 93.015625 186.785156 L 93.003906 186.792969 L 92.980469 186.816406 L 92.945313 186.84375 L 92.882813 186.90625 L 92.828125 186.96875 L 92.820313 186.980469 L 92.8125 186.988281 L 92.796875 187.007813 L 92.769531 187.042969 L 92.761719 187.054688 L 92.757813 187.0625 L 92.746094 187.082031 L 92.71875 187.121094 L 92.714844 187.128906 L 92.707031 187.140625 L 92.699219 187.160156 L 92.679688 187.199219 L 92.671875 187.210938 L 92.667969 187.21875 L 92.660156 187.238281 L 92.644531 187.28125 L 92.640625 187.289063 L 92.636719 187.300781 L 92.628906 187.320313 L 92.617188 187.359375 L 92.609375 187.382813 L 92.605469 187.402344 L 92.597656 187.445313 L 92.59375 187.453125 L 92.59375 187.464844 L 92.589844 187.484375 L 92.582031 187.527344 L 92.582031 187.589844 L 92.578125 187.601563 L 92.578125 187.609375 " transform="matrix(1,0,0,1,-83,-6)"/>
</g>
<path style="fill:none;stroke-width:0.25;stroke-linecap:butt;stroke-linejoin:miter;stroke:rgb(39.99939%,39.99939%,39.99939%);stroke-opacity:1;stroke-miterlimit:3.25;" d="M 83.625 187.609375 L 531.375 187.609375 " transform="matrix(1,0,0,1,-83,-6)"/>
<path style="fill:none;stroke-width:0.25;stroke-linecap:butt;stroke-linejoin:miter;stroke:rgb(39.99939%,39.99939%,39.99939%);stroke-opacity:1;stroke-miterlimit:3.25;" d="M 97.4375 368.59375 L 97.4375 6.625 " transform="matrix(1,0,0,1,-83,-6)"/>
</g>
</svg>
