<?xml version="1.0" encoding="UTF-8"?>
<svg xmlns="http://www.w3.org/2000/svg" xmlns:xlink="http://www.w3.org/1999/xlink" width="504pt" height="334pt" viewBox="0 0 504 334" version="1.1">
<defs>
<clipPath id="clip1">
  <path d="M 0 0 L 503 0 L 503 333.121094 L 0 333.121094 Z M 0 0 "/>
</clipPath>
</defs>
<g id="surface24">
<g clip-path="url(#clip1)" clip-rule="nonzero">
<path style="fill:none;stroke-width:2.24;stroke-linecap:square;stroke-linejoin:miter;stroke:rgb(0%,0%,0%);stroke-opacity:1;stroke-miterlimit:3.25;" d="M 102.730469 173.457031 L 102.730469 173.734375 L 102.734375 174.011719 L 102.738281 174.566406 L 102.757813 175.675781 L 102.835938 177.894531 L 103.152344 182.320313 L 103.179688 182.597656 L 103.207031 182.871094 L 103.265625 183.425781 L 103.390625 184.527344 L 103.679688 186.726563 L 104.414063 191.097656 L 104.53125 191.683594 L 104.648438 192.273438 L 104.898438 193.449219 L 105.445313 195.785156 L 106.710938 200.410156 L 106.882813 200.980469 L 107.0625 201.554688 L 107.429688 202.691406 L 108.207031 204.953125 L 109.929688 209.410156 L 110.039063 209.667969 L 110.148438 209.921875 L 110.367188 210.433594 L 110.8125 211.453125 L 111.738281 213.476563 L 113.730469 217.445313 L 113.863281 217.6875 L 113.992188 217.933594 L 114.257813 218.421875 L 114.796875 219.390625 L 115.902344 221.304688 L 118.242188 225.050781 L 118.390625 225.273438 L 118.539063 225.5 L 118.839844 225.949219 L 119.449219 226.839844 L 120.695313 228.597656 L 123.292969 232.023438 L 123.460938 232.234375 L 123.628906 232.441406 L 123.964844 232.859375 L 124.644531 233.6875 L 126.03125 235.316406 L 128.898438 238.472656 L 129.097656 238.683594 L 129.296875 238.890625 L 129.699219 239.304688 L 130.503906 240.125 L 132.144531 241.738281 L 135.519531 244.828125 L 135.734375 245.015625 L 135.953125 245.203125 L 136.382813 245.574219 L 137.253906 246.3125 L 139.011719 247.75 L 142.605469 250.492188 L 142.820313 250.644531 L 143.03125 250.796875 L 143.457031 251.105469 L 144.316406 251.710938 L 146.042969 252.890625 L 149.542969 255.132813 L 149.765625 255.269531 L 149.984375 255.402344 L 150.429688 255.671875 L 151.316406 256.199219 L 153.101563 257.226563 L 156.707031 259.167969 L 156.949219 259.292969 L 157.6875 259.667969 L 158.671875 260.15625 L 160.648438 261.101563 L 164.621094 262.871094 L 172.601563 265.9375 L 172.847656 266.023438 L 173.089844 266.105469 L 173.582031 266.273438 L 174.558594 266.601563 L 176.511719 267.230469 L 180.40625 268.394531 L 188.109375 270.398438 L 202.039063 273.285156 L 216.402344 275.992188 L 216.609375 276.03125 L 216.8125 276.074219 L 217.222656 276.15625 L 218.035156 276.328125 L 219.664063 276.671875 L 222.902344 277.40625 L 229.351563 279.066406 L 229.550781 279.121094 L 229.746094 279.179688 L 230.144531 279.292969 L 230.933594 279.523438 L 232.519531 280 L 235.710938 281.027344 L 242.214844 283.386719 L 242.4375 283.476563 L 242.664063 283.566406 L 243.113281 283.742188 L 244.019531 284.105469 L 245.84375 284.859375 L 249.574219 286.46875 L 257.417969 290.121094 L 274.003906 298.386719 L 296.003906 308.910156 L 296.378906 309.078125 L 296.757813 309.246094 L 297.519531 309.582031 L 299.054688 310.253906 L 302.1875 311.59375 L 308.707031 314.265625 L 322.800781 319.441406 L 323.667969 319.730469 L 324.539063 320.019531 L 326.292969 320.59375 L 329.863281 321.714844 L 337.234375 323.859375 L 337.703125 323.988281 L 338.175781 324.117188 L 339.125 324.371094 L 341.035156 324.875 L 344.914063 325.84375 L 352.890625 327.632813 L 353.445313 327.746094 L 353.996094 327.859375 L 355.105469 328.082031 L 357.339844 328.511719 L 361.875 329.320313 L 371.183594 330.699219 L 371.773438 330.773438 L 372.367188 330.847656 L 373.558594 330.988281 L 375.949219 331.257813 L 380.792969 331.726563 L 390.675781 332.371094 L 391.847656 332.417969 L 393.019531 332.460938 L 395.375 332.527344 L 400.125 332.582031 L 409.753906 332.394531 L 410.972656 332.339844 L 412.1875 332.28125 L 414.628906 332.140625 L 419.539063 331.773438 L 429.433594 330.695313 L 430.105469 330.605469 L 430.78125 330.515625 L 432.128906 330.324219 L 434.828125 329.914063 L 440.242188 328.984375 L 451.085938 326.683594 L 451.761719 326.519531 L 452.4375 326.351563 L 453.792969 326.011719 L 456.5 325.300781 L 461.90625 323.765625 L 472.648438 320.21875 L 473.304688 319.980469 L 473.957031 319.742188 L 475.265625 319.253906 L 477.875 318.246094 L 483.054688 316.117188 L 483.699219 315.839844 L 484.34375 315.558594 L 485.628906 314.992188 L 488.191406 313.828125 L 493.269531 311.386719 L 493.898438 311.070313 L 494.527344 310.75 L 495.78125 310.105469 L 498.28125 308.789063 L 503.21875 306.035156 L 512.855469 300.0625 L 513.402344 299.695313 L 513.953125 299.324219 L 515.046875 298.582031 L 517.21875 297.066406 L 521.5 293.941406 L 522.027344 293.542969 L 522.554688 293.140625 L 523.601563 292.332031 L 525.679688 290.6875 L 529.761719 287.308594 L 530.265625 286.875 L 530.765625 286.445313 L 531.761719 285.570313 L 533.734375 283.804688 L 537.597656 280.175781 L 544.957031 272.566406 L 545.4375 272.035156 L 545.914063 271.5 L 546.863281 270.425781 L 548.730469 268.253906 L 552.347656 263.8125 L 552.789063 263.246094 L 553.226563 262.679688 L 554.09375 261.542969 L 555.796875 259.246094 L 559.074219 254.5625 L 559.472656 253.972656 L 559.867188 253.375 L 560.648438 252.179688 L 562.175781 249.769531 L 565.089844 244.871094 L 570.347656 234.78125 L 570.910156 233.578125 L 571.460938 232.375 L 572.53125 229.949219 L 574.535156 225.046875 L 574.773438 224.429688 L 575.011719 223.808594 L 575.472656 222.570313 L 576.363281 220.078125 L 578.003906 215.054688 L 578.386719 213.789063 L 578.757813 212.523438 L 579.460938 209.980469 L 580.726563 204.855469 L 582.6875 194.5 L 582.78125 193.863281 L 582.875 193.222656 L 583.046875 191.945313 L 583.363281 189.382813 L 583.855469 184.246094 L 583.902344 183.601563 L 583.945313 182.960938 L 584.027344 181.671875 L 584.15625 179.09375 L 584.265625 173.9375 L 584.269531 173.292969 L 584.265625 172.648438 L 584.253906 171.359375 L 584.191406 168.78125 L 583.925781 163.628906 L 582.828125 153.367188 L 582.726563 152.671875 L 582.621094 151.980469 L 582.402344 150.597656 L 581.917969 147.835938 L 580.792969 142.34375 L 580.636719 141.660156 L 580.476563 140.976563 L 580.148438 139.613281 L 579.449219 136.894531 L 577.894531 131.5 L 577.683594 130.828125 L 577.472656 130.160156 L 577.035156 128.824219 L 576.128906 126.160156 L 574.152344 120.890625 L 569.597656 110.578125 L 569.308594 109.984375 L 569.015625 109.394531 L 568.421875 108.21875 L 567.203125 105.878906 L 564.644531 101.265625 L 563.980469 100.125 L 563.304688 98.992188 L 561.921875 96.738281 L 559.042969 92.300781 L 558.671875 91.75 L 558.296875 91.207031 L 557.542969 90.117188 L 556.007813 87.957031 L 552.828125 83.71875 L 546.039063 75.554688 L 545.5625 75.015625 L 545.078125 74.480469 L 544.109375 73.417969 L 542.136719 71.316406 L 538.085938 67.214844 L 537.570313 66.710938 L 537.050781 66.210938 L 536.007813 65.214844 L 533.894531 63.253906 L 529.566406 59.4375 L 529.015625 58.96875 L 528.464844 58.507813 L 527.351563 57.585938 L 525.109375 55.769531 L 520.535156 52.25 L 511.0625 45.675781 L 510.46875 45.292969 L 509.875 44.914063 L 508.679688 44.160156 L 506.269531 42.679688 L 501.390625 39.835938 L 500.777344 39.492188 L 500.160156 39.148438 L 498.925781 38.472656 L 496.4375 37.148438 L 491.414063 34.613281 L 490.148438 34.003906 L 488.878906 33.40625 L 486.328125 32.234375 L 481.191406 30.011719 L 470.78125 26.027344 L 470.171875 25.816406 L 469.558594 25.605469 L 468.332031 25.1875 L 465.878906 24.382813 L 460.957031 22.867188 L 451.070313 20.230469 L 449.835938 19.933594 L 448.597656 19.648438 L 446.121094 19.101563 L 441.167969 18.101563 L 431.292969 16.472656 L 429.957031 16.285156 L 428.625 16.113281 L 425.960938 15.785156 L 420.65625 15.238281 L 410.148438 14.535156 L 409.496094 14.507813 L 408.847656 14.484375 L 407.546875 14.4375 L 404.957031 14.371094 L 399.8125 14.332031 L 389.6875 14.589844 L 389.105469 14.617188 L 387.359375 14.710938 L 385.046875 14.855469 L 380.460938 15.214844 L 371.476563 16.179688 L 370.921875 16.25 L 370.371094 16.320313 L 369.269531 16.46875 L 367.082031 16.777344 L 362.753906 17.449219 L 354.316406 18.988281 L 353.808594 19.089844 L 353.300781 19.195313 L 352.292969 19.40625 L 350.285156 19.832031 L 346.332031 20.730469 L 338.640625 22.671875 L 324.175781 27.011719 L 323.238281 27.324219 L 322.308594 27.640625 L 320.464844 28.273438 L 316.839844 29.558594 L 309.867188 32.1875 L 296.972656 37.574219 L 276.351563 47.351563 L 258.105469 56.460938 L 257.621094 56.695313 L 257.140625 56.929688 L 256.1875 57.386719 L 254.304688 58.277344 L 250.640625 59.964844 L 243.632813 62.960938 L 243.421875 63.046875 L 243.214844 63.128906 L 242.796875 63.296875 L 241.96875 63.621094 L 240.316406 64.25 L 237.0625 65.425781 L 230.65625 67.472656 L 229.796875 67.722656 L 228.933594 67.964844 L 227.214844 68.429688 L 223.773438 69.300781 L 216.847656 70.832031 L 203.535156 73.347656 L 188.363281 76.457031 L 188.125 76.511719 L 187.886719 76.570313 L 187.40625 76.683594 L 186.449219 76.917969 L 184.527344 77.402344 L 180.660156 78.445313 L 180.414063 78.515625 L 180.171875 78.582031 L 179.6875 78.722656 L 178.714844 79.011719 L 176.761719 79.605469 L 172.851563 80.890625 L 172.621094 80.96875 L 172.394531 81.046875 L 171.9375 81.207031 L 171.023438 81.535156 L 169.191406 82.210938 L 165.539063 83.65625 L 165.308594 83.753906 L 165.082031 83.847656 L 164.625 84.039063 L 163.710938 84.429688 L 161.890625 85.238281 L 158.265625 86.957031 L 158.023438 87.078125 L 157.777344 87.203125 L 157.289063 87.449219 L 156.3125 87.949219 L 154.371094 88.984375 L 150.519531 91.1875 L 150.28125 91.328125 L 150.042969 91.472656 L 149.566406 91.765625 L 148.621094 92.351563 L 146.734375 93.5625 L 143.023438 96.121094 L 142.808594 96.273438 L 142.59375 96.429688 L 142.167969 96.742188 L 141.320313 97.375 L 139.636719 98.667969 L 136.339844 101.375 L 136.136719 101.546875 L 135.9375 101.722656 L 135.53125 102.074219 L 134.730469 102.785156 L 133.144531 104.230469 L 130.058594 107.242188 L 129.871094 107.429688 L 129.6875 107.621094 L 129.316406 108 L 128.585938 108.769531 L 127.148438 110.335938 L 124.363281 113.566406 L 124.195313 113.773438 L 124.023438 113.980469 L 123.6875 114.398438 L 123.019531 115.234375 L 121.714844 116.933594 L 119.207031 120.425781 L 118.878906 120.910156 L 118.554688 121.394531 L 117.910156 122.371094 L 116.660156 124.351563 L 114.300781 128.414063 L 114.019531 128.929688 L 113.742188 129.449219 L 113.195313 130.492188 L 112.140625 132.597656 L 110.1875 136.898438 L 110.078125 137.152344 L 109.761719 137.914063 L 109.347656 138.9375 L 108.554688 141 L 107.117188 145.183594 L 107.035156 145.449219 L 106.953125 145.710938 L 106.789063 146.242188 L 106.472656 147.300781 L 105.875 149.4375 L 104.835938 153.75 L 104.773438 154.054688 L 104.707031 154.355469 L 104.582031 154.964844 L 104.347656 156.179688 L 103.917969 158.625 L 103.261719 163.542969 L 103.226563 163.851563 L 103.195313 164.160156 L 103.136719 164.777344 L 103.03125 166.015625 L 102.863281 168.492188 L 102.847656 168.800781 L 102.832031 169.113281 L 102.804688 169.730469 L 102.765625 170.972656 L 102.757813 171.285156 L 102.75 171.59375 L 102.742188 172.214844 L 102.738281 172.523438 L 102.734375 172.835938 L 102.734375 173.144531 L 102.730469 173.457031 " transform="matrix(1,0,0,1,-92,-7)"/>
</g>
<path style="fill:none;stroke-width:0.28;stroke-linecap:butt;stroke-linejoin:miter;stroke:rgb(39.99939%,39.99939%,39.99939%);stroke-opacity:1;stroke-miterlimit:3.25;" d="M 92.699219 173.457031 L 594.300781 173.457031 " transform="matrix(1,0,0,1,-92,-7)"/>
<path style="fill:none;stroke-width:0.28;stroke-linecap:butt;stroke-linejoin:miter;stroke:rgb(39.99939%,39.99939%,39.99939%);stroke-opacity:1;stroke-miterlimit:3.25;" d="M 246.710938 339.214844 L 246.710938 7.699219 " transform="matrix(1,0,0,1,-92,-7)"/>
</g>
</svg>
