<?xml version="1.0" encoding="UTF-8"?>
<svg xmlns="http://www.w3.org/2000/svg" xmlns:xlink="http://www.w3.org/1999/xlink" width="1011pt" height="133pt" viewBox="0 0 1011 133" version="1.1">
<defs>
<clipPath id="clip1">
  <path d="M 9 0 L 1001 0 L 1001 132 L 9 132 Z M 9 0 "/>
</clipPath>
</defs>
<g id="surface64">
<g clip-path="url(#clip1)" clip-rule="nonzero">
<path style="fill:none;stroke-width:2.5;stroke-linecap:square;stroke-linejoin:miter;stroke:rgb(0%,0%,0%);stroke-opacity:1;stroke-miterlimit:3.25;" d="M 108.429688 72.105469 L 108.445313 72.136719 L 108.484375 72.164063 L 108.550781 72.191406 L 108.640625 72.214844 L 108.691406 72.230469 L 108.75 72.242188 L 108.808594 72.25 L 108.871094 72.261719 L 108.9375 72.269531 L 109.007813 72.28125 L 109.28125 72.3125 L 109.410156 72.324219 L 109.523438 72.335938 L 109.617188 72.347656 L 109.722656 72.378906 L 109.6875 72.421875 L 109.648438 72.4375 L 109.597656 72.453125 L 109.535156 72.476563 L 109.457031 72.496094 L 109.367188 72.523438 L 109.261719 72.550781 L 109.015625 72.613281 L 108.949219 72.632813 L 108.875 72.652344 L 108.722656 72.691406 L 108.382813 72.78125 L 107.597656 73 L 107.492188 73.027344 L 107.382813 73.0625 L 107.167969 73.125 L 106.722656 73.261719 L 106.609375 73.300781 L 106.496094 73.335938 L 106.273438 73.410156 L 105.832031 73.5625 L 105.410156 73.71875 L 105.019531 73.875 L 104.925781 73.914063 L 104.835938 73.953125 L 104.667969 74.027344 L 104.363281 74.175781 L 104.242188 74.238281 L 104.132813 74.304688 L 104.039063 74.363281 L 103.960938 74.417969 L 103.847656 74.523438 L 103.800781 74.605469 L 103.90625 74.714844 L 104.285156 74.734375 L 104.566406 74.707031 L 104.90625 74.65625 L 105.097656 74.621094 L 105.296875 74.582031 L 105.730469 74.484375 L 105.960938 74.429688 L 106.199219 74.367188 L 106.691406 74.230469 L 107.71875 73.917969 L 107.847656 73.878906 L 107.972656 73.835938 L 108.222656 73.753906 L 108.710938 73.582031 L 109.613281 73.253906 L 109.816406 73.175781 L 110.007813 73.101563 L 110.359375 72.960938 L 110.894531 72.742188 L 110.945313 72.722656 L 110.992188 72.703125 L 111.070313 72.667969 L 111.136719 72.640625 L 111.1875 72.625 L 111.234375 72.609375 L 111.21875 72.625 L 111.1875 72.648438 L 111.140625 72.675781 L 111.003906 72.761719 L 110.566406 73.027344 L 110.492188 73.074219 L 110.414063 73.121094 L 110.25 73.222656 L 109.894531 73.449219 L 109.097656 73.976563 L 108.992188 74.046875 L 108.886719 74.121094 L 108.675781 74.265625 L 108.257813 74.566406 L 107.464844 75.167969 L 107.375 75.242188 L 107.285156 75.3125 L 107.113281 75.453125 L 106.800781 75.722656 L 106.730469 75.785156 L 106.664063 75.847656 L 106.539063 75.964844 L 106.332031 76.175781 L 106.253906 76.269531 L 106.1875 76.351563 L 106.136719 76.425781 L 106.101563 76.488281 L 106.082031 76.578125 L 106.125 76.625 L 106.222656 76.625 L 106.371094 76.585938 L 106.464844 76.550781 L 106.566406 76.507813 L 106.683594 76.453125 L 106.804688 76.386719 L 106.941406 76.316406 L 107.082031 76.234375 L 107.390625 76.050781 L 108.078125 75.601563 L 108.257813 75.476563 L 108.4375 75.347656 L 108.804688 75.082031 L 109.515625 74.539063 L 110.707031 73.5625 L 110.832031 73.453125 L 110.945313 73.355469 L 111.140625 73.183594 L 111.21875 73.113281 L 111.289063 73.050781 L 111.394531 72.960938 L 111.457031 72.914063 L 111.476563 72.90625 L 111.457031 72.941406 L 111.402344 73.011719 L 111.382813 73.035156 L 111.363281 73.0625 L 111.316406 73.121094 L 111.210938 73.257813 L 110.945313 73.605469 L 110.910156 73.65625 L 110.875 73.703125 L 110.800781 73.804688 L 110.65625 74.007813 L 110.390625 74.40625 L 110.332031 74.5 L 110.277344 74.589844 L 110.226563 74.671875 L 110.183594 74.753906 L 110.144531 74.828125 L 110.109375 74.894531 L 110.082031 74.957031 L 110.0625 75.007813 L 110.035156 75.148438 L 110.101563 75.160156 L 110.167969 75.117188 L 110.253906 75.042969 L 110.304688 74.996094 L 110.355469 74.941406 L 110.472656 74.816406 L 110.535156 74.746094 L 110.597656 74.667969 L 110.726563 74.507813 L 110.992188 74.164063 L 111.019531 74.121094 L 111.050781 74.078125 L 111.109375 74 L 111.222656 73.839844 L 111.421875 73.550781 L 111.441406 73.515625 L 111.464844 73.484375 L 111.574219 73.320313 L 111.605469 73.277344 L 111.628906 73.238281 L 111.652344 73.203125 L 111.722656 73.121094 L 111.722656 73.15625 L 111.710938 73.207031 L 111.6875 73.273438 L 111.632813 73.453125 L 111.613281 73.507813 L 111.59375 73.566406 L 111.558594 73.683594 L 111.523438 73.804688 L 111.492188 73.921875 L 111.449219 74.125 L 111.4375 74.265625 L 111.457031 74.320313 L 111.511719 74.285156 L 111.527344 74.261719 L 111.546875 74.234375 L 111.566406 74.199219 L 111.589844 74.160156 L 111.613281 74.117188 L 111.636719 74.070313 L 111.683594 73.96875 L 111.730469 73.859375 L 111.777344 73.746094 L 111.863281 73.515625 L 111.886719 73.460938 L 111.902344 73.40625 L 111.941406 73.304688 L 111.996094 73.140625 L 112.019531 73.085938 L 112.035156 73.046875 L 112.046875 73.03125 L 112.050781 73.035156 L 112.054688 73.109375 L 112.042969 73.261719 L 112.019531 73.730469 L 112.015625 74.261719 L 112.019531 74.375 L 112.027344 74.480469 L 112.039063 74.566406 L 112.054688 74.640625 L 112.085938 74.726563 L 112.125 74.734375 L 112.148438 74.707031 L 112.171875 74.660156 L 112.183594 74.632813 L 112.195313 74.597656 L 112.203125 74.5625 L 112.214844 74.523438 L 112.226563 74.480469 L 112.234375 74.4375 L 112.253906 74.347656 L 112.285156 74.171875 L 112.292969 74.128906 L 112.308594 74.058594 L 112.316406 74.027344 L 112.328125 73.984375 L 112.34375 73.957031 L 112.359375 73.953125 L 112.375 73.980469 L 112.382813 74 L 112.394531 74.027344 L 112.40625 74.0625 L 112.417969 74.105469 L 112.429688 74.152344 L 112.441406 74.203125 L 112.472656 74.316406 L 112.542969 74.605469 L 112.582031 74.769531 L 112.628906 74.945313 L 112.730469 75.304688 L 112.753906 75.394531 L 112.78125 75.484375 L 112.839844 75.652344 L 112.867188 75.734375 L 112.894531 75.808594 L 112.949219 75.949219 L 112.976563 76.011719 L 113.003906 76.070313 L 113.03125 76.125 L 113.054688 76.167969 L 113.105469 76.242188 L 113.148438 76.289063 L 113.226563 76.300781 L 113.273438 76.195313 L 113.292969 76 L 113.292969 75.542969 L 113.308594 75.394531 L 113.328125 75.371094 L 113.367188 75.382813 L 113.390625 75.40625 L 113.417969 75.445313 L 113.449219 75.492188 L 113.488281 75.554688 L 113.53125 75.625 L 113.582031 75.710938 L 113.695313 75.921875 L 113.996094 76.488281 L 114.039063 76.574219 L 114.085938 76.660156 L 114.179688 76.839844 L 114.390625 77.230469 L 114.875 78.097656 L 114.9375 78.214844 L 115.003906 78.328125 L 115.136719 78.558594 L 115.414063 79.019531 L 115.695313 79.472656 L 115.980469 79.90625 L 116.050781 80.011719 L 116.121094 80.113281 L 116.257813 80.3125 L 116.523438 80.675781 L 116.648438 80.839844 L 116.769531 80.988281 L 116.996094 81.242188 L 117.089844 81.335938 L 117.179688 81.417969 L 117.257813 81.480469 L 117.332031 81.53125 L 117.453125 81.582031 L 117.539063 81.5625 L 117.597656 81.335938 L 117.511719 80.875 L 117.46875 80.730469 L 117.417969 80.574219 L 117.300781 80.238281 L 117.234375 80.0625 L 117.160156 79.878906 L 117.007813 79.511719 L 116.925781 79.328125 L 116.847656 79.144531 L 116.691406 78.792969 L 116.617188 78.628906 L 116.550781 78.476563 L 116.433594 78.203125 L 116.347656 77.976563 L 116.324219 77.835938 L 116.367188 77.796875 L 116.5 77.878906 L 116.546875 77.917969 L 116.601563 77.964844 L 116.726563 78.082031 L 117.066406 78.421875 L 118.101563 79.519531 L 118.265625 79.695313 L 118.441406 79.878906 L 118.808594 80.273438 L 119.644531 81.152344 L 121.675781 83.253906 L 126.859375 88.25 L 127.191406 88.550781 L 127.523438 88.847656 L 128.183594 89.441406 L 129.511719 90.589844 L 129.839844 90.871094 L 130.164063 91.144531 L 130.8125 91.679688 L 132.070313 92.679688 L 132.375 92.914063 L 132.675781 93.144531 L 133.257813 93.578125 L 134.351563 94.347656 L 134.609375 94.515625 L 134.855469 94.679688 L 135.332031 94.972656 L 135.554688 95.105469 L 135.769531 95.226563 L 136.171875 95.441406 L 136.535156 95.613281 L 136.859375 95.738281 L 137.136719 95.824219 L 137.371094 95.863281 L 137.703125 95.804688 L 137.847656 95.566406 L 137.792969 95.15625 L 137.550781 94.585938 L 137.460938 94.417969 L 137.359375 94.242188 L 137.121094 93.863281 L 136.527344 93.007813 L 136.335938 92.757813 L 136.136719 92.5 L 135.707031 91.964844 L 134.746094 90.828125 L 132.550781 88.433594 L 132.269531 88.136719 L 131.984375 87.839844 L 131.421875 87.261719 L 130.339844 86.160156 L 130.085938 85.90625 L 129.839844 85.65625 L 129.375 85.183594 L 128.589844 84.367188 L 128.425781 84.195313 L 128.28125 84.035156 L 128.15625 83.886719 L 128.046875 83.753906 L 127.886719 83.535156 L 127.816406 83.382813 L 127.957031 83.285156 L 128.523438 83.484375 L 128.738281 83.582031 L 128.984375 83.703125 L 129.574219 84 L 131.144531 84.84375 L 135.960938 87.519531 L 136.710938 87.933594 L 137.496094 88.367188 L 139.171875 89.289063 L 142.929688 91.332031 L 151.996094 96.105469 L 153.257813 96.753906 L 154.550781 97.410156 L 157.207031 98.75 L 162.792969 101.496094 L 174.726563 107.066406 L 176.261719 107.75 L 177.800781 108.429688 L 180.878906 109.765625 L 187 112.328125 L 188.511719 112.9375 L 190.011719 113.535156 L 192.972656 114.683594 L 198.660156 116.773438 L 200.023438 117.25 L 201.355469 117.703125 L 203.9375 118.546875 L 205.175781 118.933594 L 206.378906 119.296875 L 208.667969 119.949219 L 209.753906 120.234375 L 210.792969 120.496094 L 211.789063 120.730469 L 212.738281 120.9375 L 214.484375 121.265625 L 216.019531 121.476563 L 218.28125 121.554688 L 219.695313 121.210938 L 220.195313 120.4375 L 219.742188 119.246094 L 219.476563 118.882813 L 219.152344 118.496094 L 218.761719 118.082031 L 218.308594 117.648438 L 217.796875 117.1875 L 217.222656 116.703125 L 215.886719 115.664063 L 215.128906 115.113281 L 214.308594 114.539063 L 212.492188 113.332031 L 208.15625 110.6875 L 206.933594 109.984375 L 205.65625 109.265625 L 202.945313 107.785156 L 196.945313 104.671875 L 183.023438 98.078125 L 181.144531 97.238281 L 179.246094 96.398438 L 175.390625 94.726563 L 167.542969 91.4375 L 151.984375 85.316406 L 149.960938 84.554688 L 147.976563 83.816406 L 144.132813 82.410156 L 137.078125 79.902344 L 135.472656 79.347656 L 133.945313 78.820313 L 131.132813 77.863281 L 126.625 76.359375 L 125.757813 76.074219 L 125.003906 75.824219 L 124.375 75.613281 L 123.867188 75.4375 L 123.488281 75.304688 L 123.242188 75.210938 L 123.132813 75.15625 L 123.171875 75.140625 L 123.355469 75.167969 L 123.691406 75.234375 L 124.183594 75.34375 L 124.835938 75.492188 L 129.140625 76.496094 L 130.660156 76.847656 L 132.359375 77.242188 L 136.332031 78.148438 L 146.621094 80.425781 L 149.699219 81.085938 L 152.984375 81.785156 L 160.1875 83.28125 L 177.160156 86.667969 L 181.945313 87.589844 L 186.949219 88.539063 L 197.621094 90.511719 L 221.59375 94.726563 L 279.917969 103.878906 L 287.59375 104.980469 L 295.445313 106.082031 L 311.667969 108.289063 L 346.085938 112.652344 L 355.085938 113.726563 L 364.234375 114.789063 L 382.964844 116.875 L 422.046875 120.859375 L 432.128906 121.808594 L 442.324219 122.734375 L 463.039063 124.511719 L 473.546875 125.363281 L 484.148438 126.183594 L 505.609375 127.742188 L 516.453125 128.472656 L 527.371094 129.167969 L 538.351563 129.832031 L 549.390625 130.460938 L 560.480469 131.054688 L 571.617188 131.605469 L 582.789063 132.121094 L 593.996094 132.597656 L 605.222656 133.03125 L 616.472656 133.425781 L 627.734375 133.773438 L 638.996094 134.082031 L 650.261719 134.34375 L 661.515625 134.5625 L 672.75 134.734375 L 683.964844 134.859375 L 706.292969 134.96875 L 728.445313 134.882813 L 739.433594 134.769531 L 750.359375 134.605469 L 761.207031 134.390625 L 771.976563 134.128906 L 782.660156 133.8125 L 793.246094 133.449219 L 803.734375 133.035156 L 814.109375 132.574219 L 824.371094 132.058594 L 834.507813 131.496094 L 844.515625 130.882813 L 854.386719 130.21875 L 864.113281 129.507813 L 873.6875 128.746094 L 883.109375 127.9375 L 892.367188 127.078125 L 901.453125 126.175781 L 910.363281 125.222656 L 927.632813 123.179688 L 935.816406 122.113281 L 943.804688 121.003906 L 951.597656 119.855469 L 959.1875 118.664063 L 966.570313 117.433594 L 973.734375 116.160156 L 987.410156 113.507813 L 993.90625 112.128906 L 1000.171875 110.714844 L 1006.199219 109.265625 L 1011.984375 107.785156 L 1017.527344 106.273438 L 1022.820313 104.730469 L 1032.644531 101.5625 L 1037.171875 99.9375 L 1041.433594 98.289063 L 1045.429688 96.617188 L 1049.15625 94.925781 L 1052.613281 93.210938 L 1055.800781 91.480469 L 1058.707031 89.730469 L 1061.335938 87.964844 L 1063.6875 86.1875 L 1065.757813 84.394531 L 1067.542969 82.59375 L 1069.046875 80.78125 L 1070.265625 78.964844 L 1071.195313 77.136719 L 1071.839844 75.308594 L 1072.199219 73.476563 L 1072.054688 69.808594 L 1070.761719 66.148438 L 1069.683594 64.328125 L 1068.320313 62.511719 L 1066.675781 60.703125 L 1064.746094 58.90625 L 1062.535156 57.121094 L 1060.039063 55.351563 L 1057.269531 53.59375 L 1054.222656 51.851563 L 1050.898438 50.128906 L 1047.304688 48.425781 L 1039.308594 45.085938 L 1034.914063 43.449219 L 1030.257813 41.839844 L 1025.34375 40.253906 L 1020.171875 38.699219 L 1014.753906 37.171875 L 1009.085938 35.675781 L 997.03125 32.777344 L 990.648438 31.378906 L 984.035156 30.015625 L 977.195313 28.691406 L 970.136719 27.402344 L 962.859375 26.152344 L 955.371094 24.941406 L 939.785156 22.640625 L 931.003906 21.460938 L 921.996094 20.335938 L 912.773438 19.257813 L 903.34375 18.234375 L 893.710938 17.261719 L 883.886719 16.34375 L 863.6875 14.671875 L 853.332031 13.917969 L 842.8125 13.222656 L 832.140625 12.578125 L 821.324219 11.992188 L 810.371094 11.464844 L 799.289063 10.992188 L 788.085938 10.578125 L 776.773438 10.21875 L 765.355469 9.917969 L 753.84375 9.671875 L 742.25 9.480469 L 730.574219 9.347656 L 707.03125 9.246094 L 683.285156 9.359375 L 671.355469 9.496094 L 659.402344 9.6875 L 647.429688 9.929688 L 635.449219 10.222656 L 623.472656 10.5625 L 611.5 10.957031 L 599.546875 11.394531 L 587.613281 11.878906 L 575.71875 12.410156 L 563.859375 12.988281 L 552.050781 13.605469 L 540.300781 14.265625 L 528.613281 14.964844 L 516.996094 15.703125 L 494.007813 17.292969 L 482.648438 18.140625 L 471.390625 19.019531 L 449.199219 20.871094 L 406.308594 24.898438 L 395.929688 25.960938 L 385.699219 27.042969 L 365.710938 29.253906 L 327.746094 33.832031 L 318.699219 35 L 309.839844 36.167969 L 292.691406 38.511719 L 260.769531 43.179688 L 253.792969 44.253906 L 247 45.320313 L 233.957031 47.421875 L 210.109375 51.46875 L 171.453125 58.660156 L 167.46875 59.453125 L 163.664063 60.21875 L 156.613281 61.667969 L 144.671875 64.210938 L 129.023438 67.742188 L 127.792969 68.03125 L 126.710938 68.285156 L 124.996094 68.683594 L 124.351563 68.832031 L 123.847656 68.945313 L 123.480469 69.019531 L 123.246094 69.0625 L 123.136719 69.070313 L 123.15625 69.042969 L 123.296875 68.980469 L 123.550781 68.882813 L 123.925781 68.753906 L 124.40625 68.589844 L 125.683594 68.164063 L 126.472656 67.902344 L 127.359375 67.609375 L 129.394531 66.929688 L 134.429688 65.222656 L 147.460938 60.585938 L 149.445313 59.847656 L 151.464844 59.09375 L 155.597656 57.519531 L 164.101563 54.171875 L 181.085938 47 L 183.128906 46.085938 L 185.144531 45.175781 L 189.070313 43.355469 L 196.433594 39.796875 L 198.152344 38.929688 L 199.824219 38.074219 L 202.996094 36.402344 L 208.621094 33.253906 L 209.863281 32.511719 L 211.042969 31.792969 L 213.195313 30.421875 L 214.167969 29.769531 L 215.066406 29.140625 L 216.652344 27.964844 L 217.335938 27.417969 L 217.945313 26.894531 L 218.484375 26.402344 L 218.945313 25.9375 L 219.335938 25.5 L 219.652344 25.09375 L 219.898438 24.71875 L 220.070313 24.375 L 220.195313 23.773438 L 220.039063 23.300781 L 219.605469 22.953125 L 218.90625 22.734375 L 216.734375 22.671875 L 213.621094 23.097656 L 212.722656 23.277344 L 211.777344 23.484375 L 209.746094 23.976563 L 208.664063 24.265625 L 207.542969 24.578125 L 205.179688 25.277344 L 203.945313 25.664063 L 202.675781 26.070313 L 200.042969 26.953125 L 194.460938 28.964844 L 193.011719 29.511719 L 191.546875 30.078125 L 188.566406 31.253906 L 182.488281 33.757813 L 170.269531 39.179688 L 168.769531 39.875 L 167.28125 40.570313 L 164.351563 41.964844 L 158.695313 44.722656 L 148.496094 49.921875 L 134.019531 57.773438 L 133.445313 58.09375 L 132.898438 58.394531 L 131.898438 58.949219 L 130.25 59.851563 L 129.910156 60.03125 L 129.597656 60.199219 L 129.050781 60.476563 L 128.820313 60.589844 L 128.613281 60.6875 L 128.429688 60.769531 L 128.273438 60.832031 L 127.878906 60.929688 L 127.832031 60.78125 L 127.921875 60.621094 L 128.085938 60.410156 L 128.191406 60.285156 L 128.308594 60.148438 L 128.589844 59.839844 L 128.75 59.671875 L 128.925781 59.492188 L 129.300781 59.101563 L 130.167969 58.226563 L 132.164063 56.183594 L 132.421875 55.914063 L 132.683594 55.640625 L 133.199219 55.089844 L 134.207031 53.992188 L 135.980469 51.910156 L 136.183594 51.648438 L 136.378906 51.394531 L 136.738281 50.910156 L 136.898438 50.679688 L 137.050781 50.460938 L 137.316406 50.042969 L 137.527344 49.667969 L 137.6875 49.335938 L 137.792969 49.050781 L 137.847656 48.808594 L 137.78125 48.476563 L 137.496094 48.347656 L 136.996094 48.425781 L 136.292969 48.710938 L 136.089844 48.8125 L 135.875 48.925781 L 135.410156 49.191406 L 134.367188 49.855469 L 134.085938 50.046875 L 133.796875 50.25 L 133.191406 50.683594 L 131.910156 51.65625 L 131.574219 51.917969 L 131.238281 52.1875 L 130.550781 52.75 L 129.144531 53.933594 L 126.304688 56.46875 L 125.980469 56.773438 L 125.65625 57.074219 L 125.019531 57.675781 L 123.78125 58.867188 L 121.523438 61.113281 L 121.265625 61.375 L 121.015625 61.632813 L 120.53125 62.132813 L 119.640625 63.0625 L 118.183594 64.605469 L 118.03125 64.765625 L 117.890625 64.921875 L 117.621094 65.203125 L 117.171875 65.679688 L 117.074219 65.78125 L 116.984375 65.871094 L 116.824219 66.035156 L 116.753906 66.105469 L 116.6875 66.167969 L 116.628906 66.222656 L 116.574219 66.269531 L 116.414063 66.394531 L 116.335938 66.410156 L 116.324219 66.328125 L 116.375 66.164063 L 116.414063 66.054688 L 116.464844 65.933594 L 116.589844 65.648438 L 116.890625 64.964844 L 116.96875 64.785156 L 117.050781 64.601563 L 117.199219 64.234375 L 117.269531 64.054688 L 117.332031 63.882813 L 117.394531 63.714844 L 117.445313 63.558594 L 117.582031 63.027344 L 117.578125 62.707031 L 117.429688 62.636719 L 117.144531 62.828125 L 117.042969 62.921875 L 116.9375 63.03125 L 116.707031 63.304688 L 116.582031 63.460938 L 116.449219 63.632813 L 116.179688 64.011719 L 116.039063 64.214844 L 115.898438 64.429688 L 115.613281 64.871094 L 115.054688 65.796875 L 114.988281 65.914063 L 114.921875 66.027344 L 114.792969 66.253906 L 114.546875 66.695313 L 114.117188 67.492188 L 114.070313 67.582031 L 114.023438 67.667969 L 113.9375 67.832031 L 113.78125 68.125 L 113.542969 68.5625 L 113.503906 68.632813 L 113.464844 68.695313 L 113.433594 68.746094 L 113.40625 68.785156 L 113.359375 68.832031 L 113.328125 68.84375 L 113.296875 68.765625 L 113.292969 68.59375 L 113.289063 68.164063 L 113.222656 67.90625 L 113.144531 67.925781 L 113.042969 68.066406 L 112.984375 68.183594 L 112.925781 68.324219 L 112.894531 68.402344 L 112.863281 68.484375 L 112.804688 68.664063 L 112.773438 68.757813 L 112.746094 68.851563 L 112.6875 69.046875 L 112.585938 69.433594 L 112.5625 69.523438 L 112.539063 69.609375 L 112.5 69.773438 L 112.421875 70.085938 L 112.410156 70.128906 L 112.398438 70.164063 L 112.390625 70.195313 L 112.371094 70.238281 L 112.355469 70.257813 L 112.34375 70.253906 L 112.328125 70.230469 L 112.316406 70.1875 L 112.300781 70.128906 L 112.296875 70.09375 L 112.273438 69.976563 L 112.234375 69.761719 L 112.222656 69.722656 L 112.214844 69.683594 L 112.203125 69.648438 L 112.183594 69.582031 L 112.164063 69.527344 L 112.121094 69.472656 L 112.082031 69.496094 L 112.0625 69.535156 L 112.046875 69.59375 L 112.035156 69.671875 L 112.023438 69.761719 L 112.011719 70.253906 L 112.03125 70.777344 L 112.054688 71.136719 L 112.019531 71.128906 L 112.007813 71.101563 L 111.996094 71.070313 L 111.96875 70.992188 L 111.898438 70.785156 L 111.875 70.726563 L 111.855469 70.667969 L 111.808594 70.542969 L 111.710938 70.300781 L 111.664063 70.199219 L 111.578125 70.027344 L 111.539063 69.964844 L 111.476563 69.894531 L 111.441406 69.90625 L 111.4375 69.992188 L 111.460938 70.148438 L 111.480469 70.246094 L 111.507813 70.351563 L 111.539063 70.460938 L 111.574219 70.570313 L 111.589844 70.632813 L 111.609375 70.691406 L 111.644531 70.800781 L 111.675781 70.898438 L 111.703125 70.980469 L 111.726563 71.078125 L 111.707031 71.074219 L 111.691406 71.058594 L 111.671875 71.03125 L 111.621094 70.960938 L 111.476563 70.746094 L 111.023438 70.097656 L 110.992188 70.050781 L 110.960938 70.007813 L 110.894531 69.917969 L 110.761719 69.746094 L 110.730469 69.703125 L 110.695313 69.664063 L 110.628906 69.582031 L 110.503906 69.433594 L 110.445313 69.363281 L 110.386719 69.300781 L 110.28125 69.195313 L 110.191406 69.113281 L 110.117188 69.0625 L 110.035156 69.054688 L 110.050781 69.175781 L 110.09375 69.285156 L 110.164063 69.421875 L 110.203125 69.496094 L 110.25 69.578125 L 110.359375 69.757813 L 110.414063 69.84375 L 110.472656 69.933594 L 110.597656 70.121094 L 110.863281 70.492188 L 110.894531 70.535156 L 110.929688 70.582031 L 110.992188 70.667969 L 111.117188 70.832031 L 111.324219 71.101563 L 111.367188 71.152344 L 111.402344 71.199219 L 111.429688 71.238281 L 111.453125 71.265625 L 111.472656 71.304688 L 111.464844 71.304688 L 111.445313 71.292969 L 111.417969 71.269531 L 111.339844 71.203125 L 111.0625 70.960938 L 111.015625 70.917969 L 110.964844 70.875 L 110.851563 70.777344 L 110.601563 70.558594 L 109.984375 70.046875 L 109.8125 69.90625 L 109.632813 69.765625 L 109.257813 69.472656 L 108.476563 68.890625 L 108.378906 68.820313 L 108.28125 68.753906 L 108.085938 68.617188 L 107.707031 68.363281 L 107.527344 68.246094 L 107.351563 68.136719 L 107.023438 67.941406 L 106.875 67.859375 L 106.734375 67.785156 L 106.609375 67.722656 L 106.492188 67.671875 L 106.300781 67.601563 L 106.167969 67.582031 L 106.082031 67.664063 L 106.222656 67.90625 L 106.292969 67.992188 L 106.375 68.082031 L 106.582031 68.289063 L 106.640625 68.34375 L 106.703125 68.398438 L 106.835938 68.519531 L 107.128906 68.773438 L 107.207031 68.835938 L 107.289063 68.90625 L 107.460938 69.039063 L 107.820313 69.320313 L 108.59375 69.886719 L 110.097656 70.894531 L 110.175781 70.945313 L 110.257813 70.992188 L 110.40625 71.085938 L 110.675781 71.253906 L 110.792969 71.324219 L 110.898438 71.386719 L 111.070313 71.492188 L 111.132813 71.53125 L 111.183594 71.558594 L 111.214844 71.582031 L 111.234375 71.597656 L 111.222656 71.601563 L 111.144531 71.574219 L 111.085938 71.546875 L 111.007813 71.515625 L 110.804688 71.433594 L 110.222656 71.195313 L 110.136719 71.160156 L 110.042969 71.125 L 109.855469 71.050781 L 109.441406 70.894531 L 108.519531 70.5625 L 108.253906 70.46875 L 107.984375 70.378906 L 107.433594 70.203125 L 107.160156 70.117188 L 106.890625 70.039063 L 106.359375 69.886719 L 106.230469 69.851563 L 106.101563 69.820313 L 105.851563 69.757813 L 105.613281 69.699219 L 105.382813 69.648438 L 105.164063 69.601563 L 104.960938 69.5625 L 104.769531 69.53125 L 104.59375 69.507813 L 104.054688 69.472656 L 103.8125 69.546875 L 103.804688 69.621094 L 103.871094 69.71875 L 103.933594 69.773438 L 104.011719 69.832031 L 104.109375 69.894531 L 104.222656 69.960938 L 104.277344 69.992188 L 104.472656 70.089844 L 104.765625 70.230469 L 104.929688 70.300781 L 105.101563 70.371094 L 105.472656 70.515625 L 105.566406 70.554688 L 105.664063 70.589844 L 105.863281 70.660156 L 106.273438 70.800781 L 107.097656 71.066406 L 107.199219 71.097656 L 107.300781 71.125 L 107.5 71.183594 L 107.882813 71.292969 L 108.574219 71.480469 L 108.648438 71.5 L 108.726563 71.519531 L 108.867188 71.558594 L 109.121094 71.625 L 109.230469 71.652344 L 109.328125 71.679688 L 109.496094 71.726563 L 109.570313 71.746094 L 109.628906 71.765625 L 109.671875 71.785156 L 109.703125 71.800781 L 109.730469 71.824219 L 109.707031 71.84375 L 109.644531 71.859375 L 109.542969 71.875 L 109.417969 71.886719 L 109.273438 71.902344 L 109.121094 71.917969 L 108.96875 71.9375 L 108.894531 71.945313 L 108.820313 71.957031 L 108.753906 71.96875 L 108.691406 71.984375 L 108.632813 71.996094 L 108.582031 72.011719 L 108.535156 72.027344 L 108.5 72.042969 L 108.445313 72.074219 L 108.429688 72.105469 " transform="matrix(1,0,0,1,-83,-6)"/>
</g>
<path style="fill:none;stroke-width:0.25;stroke-linecap:butt;stroke-linejoin:miter;stroke:rgb(39.99939%,39.99939%,39.99939%);stroke-opacity:1;stroke-miterlimit:3.25;" d="M 83.625 72.105469 L 1092.375 72.105469 " transform="matrix(1,0,0,1,-83,-6)"/>
<path style="fill:none;stroke-width:0.25;stroke-linecap:butt;stroke-linejoin:miter;stroke:rgb(39.99939%,39.99939%,39.99939%);stroke-opacity:1;stroke-miterlimit:3.25;" d="M 112.234375 137.585938 L 112.234375 6.625 " transform="matrix(1,0,0,1,-83,-6)"/>
</g>
</svg>
